<?xml version="1.0" encoding="utf-8" standalone="no"?>
<!DOCTYPE svg PUBLIC "-//W3C//DTD SVG 1.1//EN"
  "http://www.w3.org/Graphics/SVG/1.1/DTD/svg11.dtd">
<svg xmlns:xlink="http://www.w3.org/1999/xlink" width="720pt" height="432pt" viewBox="0 0 720 432" xmlns="http://www.w3.org/2000/svg" version="1.1">
 <metadata>
  <rdf:RDF xmlns:dc="http://purl.org/dc/elements/1.1/" xmlns:cc="http://creativecommons.org/ns#" xmlns:rdf="http://www.w3.org/1999/02/22-rdf-syntax-ns#">
   <cc:Work>
    <dc:type rdf:resource="http://purl.org/dc/dcmitype/StillImage"/>
    <dc:date>2023-08-08T08:43:34.110145</dc:date>
    <dc:format>image/svg+xml</dc:format>
    <dc:creator>
     <cc:Agent>
      <dc:title>Matplotlib v3.6.2, https://matplotlib.org/</dc:title>
     </cc:Agent>
    </dc:creator>
   </cc:Work>
  </rdf:RDF>
 </metadata>
 <defs>
  <style type="text/css">*{stroke-linejoin: round; stroke-linecap: butt}</style>
 </defs>
 <g id="figure_1">
  <g id="patch_1">
   <path d="M 0 432 
L 720 432 
L 720 0 
L 0 0 
L 0 432 
z
" style="fill: none"/>
  </g>
  <g id="axes_1">
   <g id="patch_2">
    <path d="M 90 210.6 
L 648 210.6 
L 648 86.4 
L 90 86.4 
L 90 210.6 
z
" style="fill: none"/>
   </g>
   <g id="matplotlib.axis_1">
    <g id="xtick_1">
     <g id="line2d_1">
      <path d="M 127.026422 210.6 
L 127.026422 86.4 
" clip-path="url(#p5854c6724c)" style="fill: none; stroke: #cccccc; stroke-width: 0.8; stroke-linecap: round"/>
     </g>
     <g id="line2d_2"/>
     <g id="text_1">
      <!-- 10 -->
      <g style="fill: #262626" transform="translate(121.465485 221.346875) scale(0.1 -0.1)">
       <defs>
        <path id="LiberationSans-31" d="M 488 0 
L 488 478 
L 1609 478 
L 1609 3866 
L 616 3156 
L 616 3688 
L 1656 4403 
L 2175 4403 
L 2175 478 
L 3247 478 
L 3247 0 
L 488 0 
z
" transform="scale(0.015625)"/>
        <path id="LiberationSans-30" d="M 3309 2203 
Q 3309 1569 3189 1136 
Q 3069 703 2861 436 
Q 2653 169 2372 53 
Q 2091 -63 1772 -63 
Q 1450 -63 1172 53 
Q 894 169 689 434 
Q 484 700 367 1133 
Q 250 1566 250 2203 
Q 250 2869 367 3305 
Q 484 3741 690 4000 
Q 897 4259 1178 4364 
Q 1459 4469 1791 4469 
Q 2106 4469 2382 4364 
Q 2659 4259 2865 4000 
Q 3072 3741 3190 3305 
Q 3309 2869 3309 2203 
z
M 2738 2203 
Q 2738 2728 2675 3076 
Q 2613 3425 2491 3633 
Q 2369 3841 2192 3927 
Q 2016 4013 1791 4013 
Q 1553 4013 1372 3925 
Q 1191 3838 1067 3630 
Q 944 3422 881 3073 
Q 819 2725 819 2203 
Q 819 1697 883 1350 
Q 947 1003 1070 792 
Q 1194 581 1372 489 
Q 1550 397 1778 397 
Q 2000 397 2178 489 
Q 2356 581 2479 792 
Q 2603 1003 2670 1350 
Q 2738 1697 2738 2203 
z
" transform="scale(0.015625)"/>
       </defs>
       <use xlink:href="#LiberationSans-31"/>
       <use xlink:href="#LiberationSans-30" x="55.615234"/>
      </g>
     </g>
    </g>
    <g id="xtick_2">
     <g id="line2d_3">
      <path d="M 193.320553 210.6 
L 193.320553 86.4 
" clip-path="url(#p5854c6724c)" style="fill: none; stroke: #cccccc; stroke-width: 0.8; stroke-linecap: round"/>
     </g>
     <g id="line2d_4"/>
     <g id="text_2">
      <!-- 20 -->
      <g style="fill: #262626" transform="translate(187.759616 221.346875) scale(0.1 -0.1)">
       <defs>
        <path id="LiberationSans-32" d="M 322 0 
L 322 397 
Q 481 763 711 1042 
Q 941 1322 1194 1548 
Q 1447 1775 1695 1969 
Q 1944 2163 2144 2356 
Q 2344 2550 2467 2762 
Q 2591 2975 2591 3244 
Q 2591 3431 2534 3573 
Q 2478 3716 2372 3812 
Q 2266 3909 2117 3957 
Q 1969 4006 1788 4006 
Q 1619 4006 1470 3959 
Q 1322 3913 1206 3819 
Q 1091 3725 1017 3586 
Q 944 3447 922 3263 
L 347 3316 
Q 375 3553 478 3762 
Q 581 3972 762 4130 
Q 944 4288 1198 4378 
Q 1453 4469 1788 4469 
Q 2116 4469 2372 4391 
Q 2628 4313 2804 4159 
Q 2981 4006 3075 3781 
Q 3169 3556 3169 3263 
Q 3169 3041 3089 2841 
Q 3009 2641 2876 2459 
Q 2744 2278 2569 2109 
Q 2394 1941 2203 1780 
Q 2013 1619 1819 1461 
Q 1625 1303 1454 1143 
Q 1284 984 1150 820 
Q 1016 656 941 478 
L 3238 478 
L 3238 0 
L 322 0 
z
" transform="scale(0.015625)"/>
       </defs>
       <use xlink:href="#LiberationSans-32"/>
       <use xlink:href="#LiberationSans-30" x="55.615234"/>
      </g>
     </g>
    </g>
    <g id="xtick_3">
     <g id="line2d_5">
      <path d="M 259.614684 210.6 
L 259.614684 86.4 
" clip-path="url(#p5854c6724c)" style="fill: none; stroke: #cccccc; stroke-width: 0.8; stroke-linecap: round"/>
     </g>
     <g id="line2d_6"/>
     <g id="text_3">
      <!-- 30 -->
      <g style="fill: #262626" transform="translate(254.053746 221.346875) scale(0.1 -0.1)">
       <defs>
        <path id="LiberationSans-33" d="M 3278 1216 
Q 3278 913 3179 675 
Q 3081 438 2892 273 
Q 2703 109 2423 23 
Q 2144 -63 1784 -63 
Q 1375 -63 1095 39 
Q 816 141 634 308 
Q 453 475 362 689 
Q 272 903 244 1131 
L 825 1184 
Q 850 1009 917 865 
Q 984 722 1100 619 
Q 1216 516 1384 459 
Q 1553 403 1784 403 
Q 2209 403 2451 612 
Q 2694 822 2694 1234 
Q 2694 1478 2586 1626 
Q 2478 1775 2317 1858 
Q 2156 1941 1967 1969 
Q 1778 1997 1619 1997 
L 1300 1997 
L 1300 2484 
L 1606 2484 
Q 1766 2484 1937 2517 
Q 2109 2550 2251 2636 
Q 2394 2722 2486 2869 
Q 2578 3016 2578 3244 
Q 2578 3597 2370 3801 
Q 2163 4006 1753 4006 
Q 1381 4006 1151 3815 
Q 922 3625 884 3278 
L 319 3322 
Q 353 3613 478 3828 
Q 603 4044 795 4186 
Q 988 4328 1234 4398 
Q 1481 4469 1759 4469 
Q 2128 4469 2393 4376 
Q 2659 4284 2828 4126 
Q 2997 3969 3076 3756 
Q 3156 3544 3156 3303 
Q 3156 3109 3103 2940 
Q 3050 2772 2937 2637 
Q 2825 2503 2651 2406 
Q 2478 2309 2234 2259 
L 2234 2247 
Q 2500 2219 2697 2126 
Q 2894 2034 3022 1896 
Q 3150 1759 3214 1584 
Q 3278 1409 3278 1216 
z
" transform="scale(0.015625)"/>
       </defs>
       <use xlink:href="#LiberationSans-33"/>
       <use xlink:href="#LiberationSans-30" x="55.615234"/>
      </g>
     </g>
    </g>
    <g id="xtick_4">
     <g id="line2d_7">
      <path d="M 325.908815 210.6 
L 325.908815 86.4 
" clip-path="url(#p5854c6724c)" style="fill: none; stroke: #cccccc; stroke-width: 0.8; stroke-linecap: round"/>
     </g>
     <g id="line2d_8"/>
     <g id="text_4">
      <!-- 40 -->
      <g style="fill: #262626" transform="translate(320.347877 221.346875) scale(0.1 -0.1)">
       <defs>
        <path id="LiberationSans-34" d="M 2753 997 
L 2753 0 
L 2222 0 
L 2222 997 
L 147 997 
L 147 1434 
L 2163 4403 
L 2753 4403 
L 2753 1441 
L 3372 1441 
L 3372 997 
L 2753 997 
z
M 2222 3769 
Q 2216 3753 2191 3708 
Q 2166 3663 2134 3606 
Q 2103 3550 2070 3492 
Q 2038 3434 2013 3397 
L 884 1734 
Q 869 1709 839 1668 
Q 809 1628 778 1586 
Q 747 1544 715 1503 
Q 684 1463 666 1441 
L 2222 1441 
L 2222 3769 
z
" transform="scale(0.015625)"/>
       </defs>
       <use xlink:href="#LiberationSans-34"/>
       <use xlink:href="#LiberationSans-30" x="55.615234"/>
      </g>
     </g>
    </g>
    <g id="xtick_5">
     <g id="line2d_9">
      <path d="M 392.202946 210.6 
L 392.202946 86.4 
" clip-path="url(#p5854c6724c)" style="fill: none; stroke: #cccccc; stroke-width: 0.8; stroke-linecap: round"/>
     </g>
     <g id="line2d_10"/>
     <g id="text_5">
      <!-- 50 -->
      <g style="fill: #262626" transform="translate(386.642008 221.346875) scale(0.1 -0.1)">
       <defs>
        <path id="LiberationSans-35" d="M 3291 1434 
Q 3291 1103 3191 828 
Q 3091 553 2894 354 
Q 2697 156 2405 46 
Q 2113 -63 1728 -63 
Q 1381 -63 1123 18 
Q 866 100 687 242 
Q 509 384 404 575 
Q 300 766 256 984 
L 825 1050 
Q 859 925 921 808 
Q 984 691 1092 598 
Q 1200 506 1358 451 
Q 1516 397 1741 397 
Q 1959 397 2137 464 
Q 2316 531 2442 662 
Q 2569 794 2637 984 
Q 2706 1175 2706 1422 
Q 2706 1625 2640 1795 
Q 2575 1966 2453 2089 
Q 2331 2213 2154 2281 
Q 1978 2350 1753 2350 
Q 1613 2350 1494 2325 
Q 1375 2300 1273 2256 
Q 1172 2213 1089 2155 
Q 1006 2097 934 2034 
L 384 2034 
L 531 4403 
L 3034 4403 
L 3034 3925 
L 1044 3925 
L 959 2528 
Q 1109 2644 1334 2726 
Q 1559 2809 1869 2809 
Q 2197 2809 2459 2709 
Q 2722 2609 2906 2426 
Q 3091 2244 3191 1991 
Q 3291 1738 3291 1434 
z
" transform="scale(0.015625)"/>
       </defs>
       <use xlink:href="#LiberationSans-35"/>
       <use xlink:href="#LiberationSans-30" x="55.615234"/>
      </g>
     </g>
    </g>
    <g id="xtick_6">
     <g id="line2d_11">
      <path d="M 458.497077 210.6 
L 458.497077 86.4 
" clip-path="url(#p5854c6724c)" style="fill: none; stroke: #cccccc; stroke-width: 0.8; stroke-linecap: round"/>
     </g>
     <g id="line2d_12"/>
     <g id="text_6">
      <!-- 60 -->
      <g style="fill: #262626" transform="translate(452.936139 221.346875) scale(0.1 -0.1)">
       <defs>
        <path id="LiberationSans-36" d="M 3278 1441 
Q 3278 1109 3186 832 
Q 3094 556 2914 357 
Q 2734 159 2468 48 
Q 2203 -63 1856 -63 
Q 1472 -63 1184 84 
Q 897 231 706 507 
Q 516 784 420 1186 
Q 325 1588 325 2100 
Q 325 2688 433 3131 
Q 541 3575 744 3872 
Q 947 4169 1239 4319 
Q 1531 4469 1900 4469 
Q 2125 4469 2322 4422 
Q 2519 4375 2680 4270 
Q 2841 4166 2962 3994 
Q 3084 3822 3156 3572 
L 2619 3475 
Q 2531 3759 2339 3886 
Q 2147 4013 1894 4013 
Q 1663 4013 1475 3903 
Q 1288 3794 1156 3576 
Q 1025 3359 954 3031 
Q 884 2703 884 2266 
Q 1038 2550 1316 2698 
Q 1594 2847 1953 2847 
Q 2253 2847 2497 2750 
Q 2741 2653 2914 2470 
Q 3088 2288 3183 2027 
Q 3278 1766 3278 1441 
z
M 2706 1416 
Q 2706 1644 2650 1828 
Q 2594 2013 2481 2142 
Q 2369 2272 2203 2342 
Q 2038 2413 1819 2413 
Q 1666 2413 1509 2367 
Q 1353 2322 1226 2220 
Q 1100 2119 1020 1953 
Q 941 1788 941 1550 
Q 941 1306 1003 1095 
Q 1066 884 1183 728 
Q 1300 572 1465 481 
Q 1631 391 1838 391 
Q 2041 391 2202 461 
Q 2363 531 2475 664 
Q 2588 797 2647 987 
Q 2706 1178 2706 1416 
z
" transform="scale(0.015625)"/>
       </defs>
       <use xlink:href="#LiberationSans-36"/>
       <use xlink:href="#LiberationSans-30" x="55.615234"/>
      </g>
     </g>
    </g>
    <g id="xtick_7">
     <g id="line2d_13">
      <path d="M 524.791208 210.6 
L 524.791208 86.4 
" clip-path="url(#p5854c6724c)" style="fill: none; stroke: #cccccc; stroke-width: 0.8; stroke-linecap: round"/>
     </g>
     <g id="line2d_14"/>
     <g id="text_7">
      <!-- 70 -->
      <g style="fill: #262626" transform="translate(519.23027 221.346875) scale(0.1 -0.1)">
       <defs>
        <path id="LiberationSans-37" d="M 3238 3947 
Q 2906 3441 2628 2973 
Q 2350 2506 2150 2032 
Q 1950 1559 1839 1061 
Q 1728 563 1728 0 
L 1141 0 
Q 1141 528 1266 1036 
Q 1391 1544 1603 2033 
Q 1816 2522 2097 2994 
Q 2378 3466 2694 3925 
L 328 3925 
L 328 4403 
L 3238 4403 
L 3238 3947 
z
" transform="scale(0.015625)"/>
       </defs>
       <use xlink:href="#LiberationSans-37"/>
       <use xlink:href="#LiberationSans-30" x="55.615234"/>
      </g>
     </g>
    </g>
    <g id="xtick_8">
     <g id="line2d_15">
      <path d="M 591.085339 210.6 
L 591.085339 86.4 
" clip-path="url(#p5854c6724c)" style="fill: none; stroke: #cccccc; stroke-width: 0.8; stroke-linecap: round"/>
     </g>
     <g id="line2d_16"/>
     <g id="text_8">
      <!-- 80 -->
      <g style="fill: #262626" transform="translate(585.524401 221.346875) scale(0.1 -0.1)">
       <defs>
        <path id="LiberationSans-38" d="M 3281 1228 
Q 3281 947 3192 711 
Q 3103 475 2920 303 
Q 2738 131 2453 34 
Q 2169 -63 1781 -63 
Q 1394 -63 1111 34 
Q 828 131 642 301 
Q 456 472 367 708 
Q 278 944 278 1222 
Q 278 1463 351 1650 
Q 425 1838 548 1973 
Q 672 2109 830 2192 
Q 988 2275 1156 2303 
L 1156 2316 
Q 972 2359 826 2456 
Q 681 2553 582 2689 
Q 484 2825 432 2990 
Q 381 3156 381 3341 
Q 381 3572 470 3776 
Q 559 3981 734 4136 
Q 909 4291 1168 4380 
Q 1428 4469 1769 4469 
Q 2128 4469 2392 4378 
Q 2656 4288 2829 4133 
Q 3003 3978 3087 3772 
Q 3172 3566 3172 3334 
Q 3172 3153 3120 2987 
Q 3069 2822 2970 2686 
Q 2872 2550 2726 2454 
Q 2581 2359 2391 2322 
L 2391 2309 
Q 2581 2278 2743 2195 
Q 2906 2113 3025 1977 
Q 3144 1841 3212 1653 
Q 3281 1466 3281 1228 
z
M 2588 3303 
Q 2588 3469 2545 3606 
Q 2503 3744 2406 3842 
Q 2309 3941 2153 3995 
Q 1997 4050 1769 4050 
Q 1547 4050 1394 3995 
Q 1241 3941 1142 3842 
Q 1044 3744 1000 3606 
Q 956 3469 956 3303 
Q 956 3172 990 3034 
Q 1025 2897 1115 2784 
Q 1206 2672 1365 2600 
Q 1525 2528 1775 2528 
Q 2041 2528 2202 2600 
Q 2363 2672 2448 2784 
Q 2534 2897 2561 3034 
Q 2588 3172 2588 3303 
z
M 2697 1281 
Q 2697 1441 2653 1589 
Q 2609 1738 2503 1852 
Q 2397 1966 2217 2036 
Q 2038 2106 1769 2106 
Q 1522 2106 1348 2036 
Q 1175 1966 1067 1850 
Q 959 1734 909 1582 
Q 859 1431 859 1269 
Q 859 1066 909 898 
Q 959 731 1068 611 
Q 1178 491 1356 425 
Q 1534 359 1788 359 
Q 2044 359 2219 425 
Q 2394 491 2500 611 
Q 2606 731 2651 901 
Q 2697 1072 2697 1281 
z
" transform="scale(0.015625)"/>
       </defs>
       <use xlink:href="#LiberationSans-38"/>
       <use xlink:href="#LiberationSans-30" x="55.615234"/>
      </g>
     </g>
    </g>
    <g id="text_9">
     <!-- Age -->
     <g style="fill: #262626" transform="translate(360.103906 234.66875) scale(0.1 -0.1)">
      <defs>
       <path id="LiberationSans-41" d="M 3647 0 
L 3144 1288 
L 1138 1288 
L 631 0 
L 13 0 
L 1809 4403 
L 2488 4403 
L 4256 0 
L 3647 0 
z
M 2400 3206 
Q 2350 3331 2304 3459 
Q 2259 3588 2225 3692 
Q 2191 3797 2167 3867 
Q 2144 3938 2141 3953 
Q 2134 3938 2112 3866 
Q 2091 3794 2055 3687 
Q 2019 3581 1973 3453 
Q 1928 3325 1881 3200 
L 1319 1753 
L 2966 1753 
L 2400 3206 
z
" transform="scale(0.015625)"/>
       <path id="LiberationSans-67" d="M 1713 -1328 
Q 1422 -1328 1197 -1268 
Q 972 -1209 812 -1098 
Q 653 -988 553 -834 
Q 453 -681 409 -494 
L 975 -413 
Q 1031 -647 1223 -773 
Q 1416 -900 1728 -900 
Q 1919 -900 2075 -847 
Q 2231 -794 2340 -676 
Q 2450 -559 2509 -371 
Q 2569 -184 2569 84 
L 2569 628 
L 2563 628 
Q 2500 500 2408 383 
Q 2316 266 2183 175 
Q 2050 84 1875 29 
Q 1700 -25 1475 -25 
Q 1153 -25 923 83 
Q 694 191 548 406 
Q 403 622 336 942 
Q 269 1263 269 1684 
Q 269 2091 336 2416 
Q 403 2741 554 2967 
Q 706 3194 948 3314 
Q 1191 3434 1538 3434 
Q 1897 3434 2161 3270 
Q 2425 3106 2569 2803 
L 2575 2803 
Q 2575 2881 2579 2978 
Q 2584 3075 2589 3161 
Q 2594 3247 2600 3309 
Q 2606 3372 2613 3381 
L 3147 3381 
Q 3144 3353 3141 3286 
Q 3138 3219 3134 3125 
Q 3131 3031 3129 2917 
Q 3128 2803 3128 2681 
L 3128 97 
Q 3128 -613 2779 -970 
Q 2431 -1328 1713 -1328 
z
M 2569 1691 
Q 2569 2044 2492 2295 
Q 2416 2547 2291 2706 
Q 2166 2866 2005 2941 
Q 1844 3016 1675 3016 
Q 1459 3016 1304 2941 
Q 1150 2866 1048 2705 
Q 947 2544 898 2292 
Q 850 2041 850 1691 
Q 850 1325 898 1076 
Q 947 828 1047 675 
Q 1147 522 1300 456 
Q 1453 391 1666 391 
Q 1834 391 1995 462 
Q 2156 534 2284 690 
Q 2413 847 2491 1094 
Q 2569 1341 2569 1691 
z
" transform="scale(0.015625)"/>
       <path id="LiberationSans-65" d="M 863 1572 
Q 863 1306 917 1082 
Q 972 859 1086 698 
Q 1200 538 1378 448 
Q 1556 359 1806 359 
Q 2172 359 2392 506 
Q 2613 653 2691 878 
L 3184 738 
Q 3131 597 3036 455 
Q 2941 313 2781 198 
Q 2622 84 2383 10 
Q 2144 -63 1806 -63 
Q 1056 -63 664 384 
Q 272 831 272 1713 
Q 272 2188 390 2517 
Q 509 2847 715 3053 
Q 922 3259 1197 3351 
Q 1472 3444 1784 3444 
Q 2209 3444 2495 3306 
Q 2781 3169 2954 2926 
Q 3128 2684 3201 2356 
Q 3275 2028 3275 1647 
L 3275 1572 
L 863 1572 
z
M 2694 2003 
Q 2647 2538 2422 2783 
Q 2197 3028 1775 3028 
Q 1634 3028 1479 2983 
Q 1325 2938 1194 2822 
Q 1063 2706 972 2507 
Q 881 2309 869 2003 
L 2694 2003 
z
" transform="scale(0.015625)"/>
      </defs>
      <use xlink:href="#LiberationSans-41"/>
      <use xlink:href="#LiberationSans-67" x="66.699219"/>
      <use xlink:href="#LiberationSans-65" x="122.314453"/>
     </g>
    </g>
   </g>
   <g id="matplotlib.axis_2">
    <g id="ytick_1">
     <g id="line2d_17">
      <path d="M 90 210.6 
L 648 210.6 
" clip-path="url(#p5854c6724c)" style="fill: none; stroke: #cccccc; stroke-width: 0.8; stroke-linecap: round"/>
     </g>
     <g id="line2d_18"/>
     <g id="text_10">
      <!-- 0.00 -->
      <g style="fill: #262626" transform="translate(67.039062 214.223438) scale(0.1 -0.1)">
       <defs>
        <path id="LiberationSans-2e" d="M 584 0 
L 584 684 
L 1194 684 
L 1194 0 
L 584 0 
z
" transform="scale(0.015625)"/>
       </defs>
       <use xlink:href="#LiberationSans-30"/>
       <use xlink:href="#LiberationSans-2e" x="55.615234"/>
       <use xlink:href="#LiberationSans-30" x="83.398438"/>
       <use xlink:href="#LiberationSans-30" x="139.013672"/>
      </g>
     </g>
    </g>
    <g id="ytick_2">
     <g id="line2d_19">
      <path d="M 90 187.331955 
L 648 187.331955 
" clip-path="url(#p5854c6724c)" style="fill: none; stroke: #cccccc; stroke-width: 0.8; stroke-linecap: round"/>
     </g>
     <g id="line2d_20"/>
     <g id="text_11">
      <!-- 0.01 -->
      <g style="fill: #262626" transform="translate(67.039062 190.955392) scale(0.1 -0.1)">
       <use xlink:href="#LiberationSans-30"/>
       <use xlink:href="#LiberationSans-2e" x="55.615234"/>
       <use xlink:href="#LiberationSans-30" x="83.398438"/>
       <use xlink:href="#LiberationSans-31" x="139.013672"/>
      </g>
     </g>
    </g>
    <g id="ytick_3">
     <g id="line2d_21">
      <path d="M 90 164.06391 
L 648 164.06391 
" clip-path="url(#p5854c6724c)" style="fill: none; stroke: #cccccc; stroke-width: 0.8; stroke-linecap: round"/>
     </g>
     <g id="line2d_22"/>
     <g id="text_12">
      <!-- 0.02 -->
      <g style="fill: #262626" transform="translate(67.039062 167.687347) scale(0.1 -0.1)">
       <use xlink:href="#LiberationSans-30"/>
       <use xlink:href="#LiberationSans-2e" x="55.615234"/>
       <use xlink:href="#LiberationSans-30" x="83.398438"/>
       <use xlink:href="#LiberationSans-32" x="139.013672"/>
      </g>
     </g>
    </g>
    <g id="ytick_4">
     <g id="line2d_23">
      <path d="M 90 140.795865 
L 648 140.795865 
" clip-path="url(#p5854c6724c)" style="fill: none; stroke: #cccccc; stroke-width: 0.8; stroke-linecap: round"/>
     </g>
     <g id="line2d_24"/>
     <g id="text_13">
      <!-- 0.03 -->
      <g style="fill: #262626" transform="translate(67.039062 144.419302) scale(0.1 -0.1)">
       <use xlink:href="#LiberationSans-30"/>
       <use xlink:href="#LiberationSans-2e" x="55.615234"/>
       <use xlink:href="#LiberationSans-30" x="83.398438"/>
       <use xlink:href="#LiberationSans-33" x="139.013672"/>
      </g>
     </g>
    </g>
    <g id="ytick_5">
     <g id="line2d_25">
      <path d="M 90 117.52782 
L 648 117.52782 
" clip-path="url(#p5854c6724c)" style="fill: none; stroke: #cccccc; stroke-width: 0.8; stroke-linecap: round"/>
     </g>
     <g id="line2d_26"/>
     <g id="text_14">
      <!-- 0.04 -->
      <g style="fill: #262626" transform="translate(67.039062 121.151257) scale(0.1 -0.1)">
       <use xlink:href="#LiberationSans-30"/>
       <use xlink:href="#LiberationSans-2e" x="55.615234"/>
       <use xlink:href="#LiberationSans-30" x="83.398438"/>
       <use xlink:href="#LiberationSans-34" x="139.013672"/>
      </g>
     </g>
    </g>
    <g id="ytick_6">
     <g id="line2d_27">
      <path d="M 90 94.259774 
L 648 94.259774 
" clip-path="url(#p5854c6724c)" style="fill: none; stroke: #cccccc; stroke-width: 0.8; stroke-linecap: round"/>
     </g>
     <g id="line2d_28"/>
     <g id="text_15">
      <!-- 0.05 -->
      <g style="fill: #262626" transform="translate(67.039062 97.883212) scale(0.1 -0.1)">
       <use xlink:href="#LiberationSans-30"/>
       <use xlink:href="#LiberationSans-2e" x="55.615234"/>
       <use xlink:href="#LiberationSans-30" x="83.398438"/>
       <use xlink:href="#LiberationSans-35" x="139.013672"/>
      </g>
     </g>
    </g>
    <g id="text_16">
     <!-- Density -->
     <g style="fill: #262626" transform="translate(60.964062 165.171875) rotate(-90) scale(0.1 -0.1)">
      <defs>
       <path id="LiberationSans-44" d="M 4316 2247 
Q 4316 1697 4150 1276 
Q 3984 856 3696 573 
Q 3409 291 3017 145 
Q 2625 0 2172 0 
L 525 0 
L 525 4403 
L 1981 4403 
Q 2491 4403 2920 4276 
Q 3350 4150 3659 3886 
Q 3969 3622 4142 3215 
Q 4316 2809 4316 2247 
z
M 3716 2247 
Q 3716 2694 3587 3011 
Q 3459 3328 3228 3531 
Q 2997 3734 2675 3829 
Q 2353 3925 1969 3925 
L 1122 3925 
L 1122 478 
L 2103 478 
Q 2450 478 2745 590 
Q 3041 703 3256 925 
Q 3472 1147 3594 1478 
Q 3716 1809 3716 2247 
z
" transform="scale(0.015625)"/>
       <path id="LiberationSans-6e" d="M 2578 0 
L 2578 2144 
Q 2578 2391 2542 2556 
Q 2506 2722 2425 2823 
Q 2344 2925 2211 2967 
Q 2078 3009 1881 3009 
Q 1681 3009 1520 2939 
Q 1359 2869 1245 2736 
Q 1131 2603 1068 2408 
Q 1006 2213 1006 1959 
L 1006 0 
L 444 0 
L 444 2659 
Q 444 2766 442 2883 
Q 441 3000 437 3104 
Q 434 3209 431 3284 
Q 428 3359 425 3381 
L 956 3381 
Q 959 3366 962 3297 
Q 966 3228 970 3139 
Q 975 3050 978 2958 
Q 981 2866 981 2803 
L 991 2803 
Q 1072 2950 1169 3069 
Q 1266 3188 1394 3270 
Q 1522 3353 1687 3398 
Q 1853 3444 2072 3444 
Q 2353 3444 2556 3375 
Q 2759 3306 2890 3162 
Q 3022 3019 3083 2792 
Q 3144 2566 3144 2253 
L 3144 0 
L 2578 0 
z
" transform="scale(0.015625)"/>
       <path id="LiberationSans-73" d="M 2969 934 
Q 2969 697 2876 511 
Q 2784 325 2609 198 
Q 2434 72 2179 4 
Q 1925 -63 1597 -63 
Q 1303 -63 1067 -17 
Q 831 28 653 128 
Q 475 228 354 392 
Q 234 556 178 794 
L 675 891 
Q 747 619 972 492 
Q 1197 366 1597 366 
Q 1778 366 1929 391 
Q 2081 416 2190 477 
Q 2300 538 2361 639 
Q 2422 741 2422 891 
Q 2422 1044 2350 1142 
Q 2278 1241 2150 1306 
Q 2022 1372 1839 1420 
Q 1656 1469 1438 1528 
Q 1234 1581 1034 1647 
Q 834 1713 673 1820 
Q 513 1928 413 2087 
Q 313 2247 313 2488 
Q 313 2950 642 3192 
Q 972 3434 1603 3434 
Q 2163 3434 2492 3237 
Q 2822 3041 2909 2606 
L 2403 2544 
Q 2375 2675 2300 2764 
Q 2225 2853 2119 2908 
Q 2013 2963 1880 2986 
Q 1747 3009 1603 3009 
Q 1222 3009 1040 2893 
Q 859 2778 859 2544 
Q 859 2406 926 2317 
Q 994 2228 1114 2167 
Q 1234 2106 1403 2061 
Q 1572 2016 1775 1966 
Q 1909 1931 2050 1892 
Q 2191 1853 2323 1798 
Q 2456 1744 2573 1670 
Q 2691 1597 2778 1494 
Q 2866 1391 2917 1253 
Q 2969 1116 2969 934 
z
" transform="scale(0.015625)"/>
       <path id="LiberationSans-69" d="M 428 4100 
L 428 4638 
L 991 4638 
L 991 4100 
L 428 4100 
z
M 428 0 
L 428 3381 
L 991 3381 
L 991 0 
L 428 0 
z
" transform="scale(0.015625)"/>
       <path id="LiberationSans-74" d="M 1731 25 
Q 1603 -9 1470 -29 
Q 1338 -50 1163 -50 
Q 488 -50 488 716 
L 488 2972 
L 97 2972 
L 97 3381 
L 509 3381 
L 675 4138 
L 1050 4138 
L 1050 3381 
L 1675 3381 
L 1675 2972 
L 1050 2972 
L 1050 838 
Q 1050 594 1129 495 
Q 1209 397 1406 397 
Q 1488 397 1564 409 
Q 1641 422 1731 441 
L 1731 25 
z
" transform="scale(0.015625)"/>
       <path id="LiberationSans-79" d="M 1888 0 
Q 1769 -306 1645 -551 
Q 1522 -797 1369 -970 
Q 1216 -1144 1028 -1236 
Q 841 -1328 597 -1328 
Q 491 -1328 400 -1322 
Q 309 -1316 209 -1294 
L 209 -872 
Q 269 -881 344 -886 
Q 419 -891 472 -891 
Q 719 -891 931 -706 
Q 1144 -522 1303 -119 
L 1356 16 
L 16 3381 
L 616 3381 
L 1328 1513 
Q 1359 1428 1407 1287 
Q 1456 1147 1504 1006 
Q 1553 866 1590 753 
Q 1628 641 1634 613 
Q 1644 647 1680 748 
Q 1716 850 1761 975 
Q 1806 1100 1853 1228 
Q 1900 1356 1931 1450 
L 2594 3381 
L 3188 3381 
L 1888 0 
z
" transform="scale(0.015625)"/>
      </defs>
      <use xlink:href="#LiberationSans-44"/>
      <use xlink:href="#LiberationSans-65" x="72.216797"/>
      <use xlink:href="#LiberationSans-6e" x="127.832031"/>
      <use xlink:href="#LiberationSans-73" x="183.447266"/>
      <use xlink:href="#LiberationSans-69" x="233.447266"/>
      <use xlink:href="#LiberationSans-74" x="255.664062"/>
      <use xlink:href="#LiberationSans-79" x="283.447266"/>
     </g>
    </g>
   </g>
   <g id="patch_3">
    <path d="M 193.320553 210.6 
L 226.467619 210.6 
L 226.467619 152.679544 
L 193.320553 152.679544 
z
" clip-path="url(#p5854c6724c)" style="fill: #377eb8; fill-opacity: 0.4; stroke: #ffffff; stroke-opacity: 0.7; stroke-linejoin: miter"/>
   </g>
   <g id="patch_4">
    <path d="M 226.467619 210.6 
L 259.614684 210.6 
L 259.614684 113.400155 
L 226.467619 113.400155 
z
" clip-path="url(#p5854c6724c)" style="fill: #377eb8; fill-opacity: 0.4; stroke: #ffffff; stroke-opacity: 0.7; stroke-linejoin: miter"/>
   </g>
   <g id="patch_5">
    <path d="M 259.614684 210.6 
L 292.761749 210.6 
L 292.761749 129.378212 
L 259.614684 129.378212 
z
" clip-path="url(#p5854c6724c)" style="fill: #377eb8; fill-opacity: 0.4; stroke: #ffffff; stroke-opacity: 0.7; stroke-linejoin: miter"/>
   </g>
   <g id="patch_6">
    <path d="M 292.761749 210.6 
L 325.908815 210.6 
L 325.908815 128.712459 
L 292.761749 128.712459 
z
" clip-path="url(#p5854c6724c)" style="fill: #377eb8; fill-opacity: 0.4; stroke: #ffffff; stroke-opacity: 0.7; stroke-linejoin: miter"/>
   </g>
   <g id="patch_7">
    <path d="M 325.908815 210.6 
L 359.05588 210.6 
L 359.05588 163.997335 
L 325.908815 163.997335 
z
" clip-path="url(#p5854c6724c)" style="fill: #377eb8; fill-opacity: 0.4; stroke: #ffffff; stroke-opacity: 0.7; stroke-linejoin: miter"/>
   </g>
   <g id="patch_8">
    <path d="M 359.05588 210.6 
L 392.202946 210.6 
L 392.202946 170.654858 
L 359.05588 170.654858 
z
" clip-path="url(#p5854c6724c)" style="fill: #377eb8; fill-opacity: 0.4; stroke: #ffffff; stroke-opacity: 0.7; stroke-linejoin: miter"/>
   </g>
   <g id="patch_9">
    <path d="M 392.202946 210.6 
L 425.350011 210.6 
L 425.350011 187.96442 
L 392.202946 187.96442 
z
" clip-path="url(#p5854c6724c)" style="fill: #377eb8; fill-opacity: 0.4; stroke: #ffffff; stroke-opacity: 0.7; stroke-linejoin: miter"/>
   </g>
   <g id="patch_10">
    <path d="M 425.350011 210.6 
L 458.497077 210.6 
L 458.497077 197.950705 
L 425.350011 197.950705 
z
" clip-path="url(#p5854c6724c)" style="fill: #377eb8; fill-opacity: 0.4; stroke: #ffffff; stroke-opacity: 0.7; stroke-linejoin: miter"/>
   </g>
   <g id="patch_11">
    <path d="M 458.497077 210.6 
L 491.644142 210.6 
L 491.644142 196.6192 
L 458.497077 196.6192 
z
" clip-path="url(#p5854c6724c)" style="fill: #377eb8; fill-opacity: 0.4; stroke: #ffffff; stroke-opacity: 0.7; stroke-linejoin: miter"/>
   </g>
   <g id="patch_12">
    <path d="M 491.644142 210.6 
L 524.791208 210.6 
L 524.791208 203.276724 
L 491.644142 203.276724 
z
" clip-path="url(#p5854c6724c)" style="fill: #377eb8; fill-opacity: 0.4; stroke: #ffffff; stroke-opacity: 0.7; stroke-linejoin: miter"/>
   </g>
   <g id="patch_13">
    <path d="M 524.791208 210.6 
L 557.938273 210.6 
L 557.938273 206.605486 
L 524.791208 206.605486 
z
" clip-path="url(#p5854c6724c)" style="fill: #377eb8; fill-opacity: 0.4; stroke: #ffffff; stroke-opacity: 0.7; stroke-linejoin: miter"/>
   </g>
   <g id="patch_14">
    <path d="M 193.320553 210.6 
L 226.467619 210.6 
L 226.467619 117.216541 
L 193.320553 117.216541 
z
" clip-path="url(#p5854c6724c)" style="fill: #e41a1c; fill-opacity: 0.4; stroke: #ffffff; stroke-opacity: 0.7; stroke-linejoin: miter"/>
   </g>
   <g id="patch_15">
    <path d="M 226.467619 210.6 
L 259.614684 210.6 
L 259.614684 92.314286 
L 226.467619 92.314286 
z
" clip-path="url(#p5854c6724c)" style="fill: #e41a1c; fill-opacity: 0.4; stroke: #ffffff; stroke-opacity: 0.7; stroke-linejoin: miter"/>
   </g>
   <g id="patch_16">
    <path d="M 259.614684 210.6 
L 292.761749 210.6 
L 292.761749 124.998496 
L 259.614684 124.998496 
z
" clip-path="url(#p5854c6724c)" style="fill: #e41a1c; fill-opacity: 0.4; stroke: #ffffff; stroke-opacity: 0.7; stroke-linejoin: miter"/>
   </g>
   <g id="patch_17">
    <path d="M 292.761749 210.6 
L 325.908815 210.6 
L 325.908815 163.908271 
L 292.761749 163.908271 
z
" clip-path="url(#p5854c6724c)" style="fill: #e41a1c; fill-opacity: 0.4; stroke: #ffffff; stroke-opacity: 0.7; stroke-linejoin: miter"/>
   </g>
   <g id="patch_18">
    <path d="M 325.908815 210.6 
L 359.05588 210.6 
L 359.05588 167.021053 
L 325.908815 167.021053 
z
" clip-path="url(#p5854c6724c)" style="fill: #e41a1c; fill-opacity: 0.4; stroke: #ffffff; stroke-opacity: 0.7; stroke-linejoin: miter"/>
   </g>
   <g id="patch_19">
    <path d="M 359.05588 210.6 
L 392.202946 210.6 
L 392.202946 185.697744 
L 359.05588 185.697744 
z
" clip-path="url(#p5854c6724c)" style="fill: #e41a1c; fill-opacity: 0.4; stroke: #ffffff; stroke-opacity: 0.7; stroke-linejoin: miter"/>
   </g>
   <g id="patch_20">
    <path d="M 392.202946 210.6 
L 425.350011 210.6 
L 425.350011 191.923308 
L 392.202946 191.923308 
z
" clip-path="url(#p5854c6724c)" style="fill: #e41a1c; fill-opacity: 0.4; stroke: #ffffff; stroke-opacity: 0.7; stroke-linejoin: miter"/>
   </g>
   <g id="patch_21">
    <path d="M 425.350011 210.6 
L 458.497077 210.6 
L 458.497077 196.592481 
L 425.350011 196.592481 
z
" clip-path="url(#p5854c6724c)" style="fill: #e41a1c; fill-opacity: 0.4; stroke: #ffffff; stroke-opacity: 0.7; stroke-linejoin: miter"/>
   </g>
   <g id="patch_22">
    <path d="M 458.497077 210.6 
L 491.644142 210.6 
L 491.644142 199.705263 
L 458.497077 199.705263 
z
" clip-path="url(#p5854c6724c)" style="fill: #e41a1c; fill-opacity: 0.4; stroke: #ffffff; stroke-opacity: 0.7; stroke-linejoin: miter"/>
   </g>
   <g id="patch_23">
    <path d="M 491.644142 210.6 
L 524.791208 210.6 
L 524.791208 202.818045 
L 491.644142 202.818045 
z
" clip-path="url(#p5854c6724c)" style="fill: #e41a1c; fill-opacity: 0.4; stroke: #ffffff; stroke-opacity: 0.7; stroke-linejoin: miter"/>
   </g>
   <g id="patch_24">
    <path d="M 524.791208 210.6 
L 557.938273 210.6 
L 557.938273 209.043609 
L 524.791208 209.043609 
z
" clip-path="url(#p5854c6724c)" style="fill: #e41a1c; fill-opacity: 0.4; stroke: #ffffff; stroke-opacity: 0.7; stroke-linejoin: miter"/>
   </g>
   <g id="line2d_29">
    <path d="M 125.630314 210.570844 
L 138.026515 210.398754 
L 145.464235 210.048782 
L 150.422716 209.584785 
L 155.381196 208.816813 
L 157.860436 208.27743 
L 160.339676 207.60905 
L 162.818916 206.791127 
L 165.298156 205.802528 
L 167.777397 204.6222 
L 170.256637 203.229949 
L 172.735877 201.607311 
L 175.215117 199.738464 
L 177.694357 197.611154 
L 180.173597 195.217565 
L 182.652837 192.555088 
L 185.132077 189.626939 
L 187.611317 186.44258 
L 190.090558 183.017915 
L 195.049038 175.542889 
L 200.007518 167.449657 
L 212.403719 146.731469 
L 217.362199 139.218958 
L 219.841439 135.800126 
L 222.320679 132.652425 
L 224.799919 129.80365 
L 227.279159 127.275265 
L 229.7584 125.081848 
L 232.23764 123.230711 
L 234.71688 121.721721 
L 237.19612 120.54735 
L 239.67536 119.692971 
L 242.1546 119.137423 
L 244.63384 118.85383 
L 247.11308 118.810654 
L 249.592321 118.972955 
L 252.071561 119.303792 
L 257.030041 120.322318 
L 276.863962 125.172238 
L 284.301682 126.83162 
L 289.260162 128.211208 
L 291.739403 129.055531 
L 294.218643 130.03001 
L 296.697883 131.149046 
L 299.177123 132.42088 
L 301.656363 133.846936 
L 304.135603 135.421652 
L 309.094083 138.962292 
L 314.052564 142.881326 
L 326.448764 152.916894 
L 331.407245 156.515341 
L 336.365725 159.693087 
L 341.324205 162.417526 
L 346.282685 164.713614 
L 351.241166 166.650241 
L 356.199646 168.324811 
L 378.512807 175.383207 
L 385.950527 178.252081 
L 395.867488 182.454001 
L 405.784448 186.640512 
L 413.222169 189.479938 
L 418.180649 191.16268 
L 423.139129 192.66426 
L 428.097609 193.985466 
L 433.05609 195.128445 
L 438.01457 196.090673 
L 442.97305 196.864129 
L 447.93153 197.440348 
L 452.89001 197.819625 
L 457.848491 198.020872 
L 465.286211 198.092104 
L 475.203172 198.160048 
L 480.161652 198.376647 
L 485.120132 198.804923 
L 490.078612 199.472326 
L 495.037093 200.366398 
L 502.474813 202.016199 
L 514.871014 204.894462 
L 519.829494 205.849672 
L 524.787974 206.611197 
L 529.746454 207.166083 
L 534.704935 207.53298 
L 542.142655 207.832375 
L 559.497336 208.355742 
L 569.414296 208.930982 
L 586.768977 209.993967 
L 596.685938 210.349997 
L 609.082138 210.540085 
L 618.999099 210.585255 
L 618.999099 210.585255 
" clip-path="url(#p5854c6724c)" style="fill: none; stroke: #377eb8; stroke-width: 1.5; stroke-linecap: round"/>
   </g>
   <g id="line2d_30">
    <path d="M 115.363636 210.551657 
L 125.560073 210.404947 
L 133.207401 210.09829 
L 138.305619 209.701631 
L 143.403837 209.050034 
L 148.502056 208.021871 
L 151.051165 207.319674 
L 153.600274 206.463323 
L 156.149383 205.429421 
L 158.698492 204.193653 
L 161.247602 202.731423 
L 163.796711 201.018645 
L 166.34582 199.032662 
L 168.894929 196.753287 
L 171.444038 194.163924 
L 173.993148 191.252724 
L 176.542257 188.013718 
L 179.091366 184.447868 
L 181.640475 180.563958 
L 184.189584 176.379271 
L 186.738693 171.919965 
L 191.836912 162.32636 
L 199.484239 147.01334 
L 204.582458 136.915935 
L 207.131567 132.102159 
L 209.680676 127.531593 
L 212.229785 123.263335 
L 214.778894 119.349528 
L 217.328004 115.833809 
L 219.877113 112.750156 
L 222.426222 110.122181 
L 224.975331 107.962891 
L 227.52444 106.274925 
L 230.07355 105.0512 
L 232.622659 104.275948 
L 235.171768 103.926012 
L 237.720877 103.97236 
L 240.269986 104.38167 
L 242.819095 105.117935 
L 245.368205 106.143967 
L 247.917314 107.422751 
L 250.466423 108.918585 
L 253.015532 110.597976 
L 258.113751 114.388016 
L 263.211969 118.586671 
L 270.859296 125.321788 
L 288.703061 141.36926 
L 293.801279 145.674776 
L 298.899497 149.709545 
L 303.997716 153.40621 
L 309.095934 156.720922 
L 314.194153 159.642455 
L 319.292371 162.195829 
L 324.390589 164.439046 
L 329.488808 166.453555 
L 339.685244 170.157233 
L 349.881681 173.911787 
L 360.078118 177.952662 
L 372.823664 183.097739 
L 380.470991 185.902792 
L 385.56921 187.540038 
L 390.667428 188.950193 
L 395.765646 190.122791 
L 400.863865 191.070547 
L 405.962083 191.825919 
L 413.609411 192.698722 
L 446.74783 195.982476 
L 456.944267 197.412429 
L 469.689813 199.487897 
L 484.984468 201.97176 
L 497.730014 203.77807 
L 515.573778 206.04285 
L 528.319324 207.458926 
L 538.515761 208.343147 
L 548.712197 208.985516 
L 561.457743 209.557091 
L 579.301508 210.132608 
L 594.596163 210.431114 
L 614.989036 210.575968 
L 622.636364 210.590382 
L 622.636364 210.590382 
" clip-path="url(#p5854c6724c)" style="fill: none; stroke: #e41a1c; stroke-width: 1.5; stroke-linecap: round"/>
   </g>
   <g id="patch_25">
    <path d="M 90 210.6 
L 90 86.4 
" style="fill: none; stroke: #cccccc; stroke-linejoin: miter; stroke-linecap: square"/>
   </g>
   <g id="patch_26">
    <path d="M 648 210.6 
L 648 86.4 
" style="fill: none; stroke: #cccccc; stroke-linejoin: miter; stroke-linecap: square"/>
   </g>
   <g id="patch_27">
    <path d="M 90 210.6 
L 648 210.6 
" style="fill: none; stroke: #cccccc; stroke-linejoin: miter; stroke-linecap: square"/>
   </g>
   <g id="patch_28">
    <path d="M 90 86.4 
L 648 86.4 
" style="fill: none; stroke: #cccccc; stroke-linejoin: miter; stroke-linecap: square"/>
   </g>
   <g id="text_17">
    <!-- Age distribution -->
    <g style="fill: #262626" transform="translate(327.644063 80.4) scale(0.12 -0.12)">
     <defs>
      <path id="LiberationSans-20" transform="scale(0.015625)"/>
      <path id="LiberationSans-64" d="M 2566 544 
Q 2409 219 2151 78 
Q 1894 -63 1513 -63 
Q 872 -63 570 368 
Q 269 800 269 1675 
Q 269 3444 1513 3444 
Q 1897 3444 2153 3303 
Q 2409 3163 2566 2856 
L 2572 2856 
Q 2572 2888 2570 2955 
Q 2569 3022 2567 3095 
Q 2566 3169 2566 3234 
Q 2566 3300 2566 3328 
L 2566 4638 
L 3128 4638 
L 3128 697 
Q 3128 575 3129 462 
Q 3131 350 3134 256 
Q 3138 163 3141 95 
Q 3144 28 3147 0 
L 2609 0 
Q 2603 31 2598 89 
Q 2594 147 2589 222 
Q 2584 297 2581 380 
Q 2578 463 2578 544 
L 2566 544 
z
M 859 1694 
Q 859 1344 903 1094 
Q 947 844 1044 683 
Q 1141 522 1291 447 
Q 1441 372 1656 372 
Q 1878 372 2048 444 
Q 2219 516 2333 677 
Q 2447 838 2506 1097 
Q 2566 1356 2566 1731 
Q 2566 2091 2506 2339 
Q 2447 2588 2331 2741 
Q 2216 2894 2048 2961 
Q 1881 3028 1663 3028 
Q 1456 3028 1306 2956 
Q 1156 2884 1056 2725 
Q 956 2566 907 2311 
Q 859 2056 859 1694 
z
" transform="scale(0.015625)"/>
      <path id="LiberationSans-72" d="M 444 0 
L 444 2594 
Q 444 2700 442 2811 
Q 441 2922 437 3025 
Q 434 3128 431 3218 
Q 428 3309 425 3381 
L 956 3381 
Q 959 3309 964 3217 
Q 969 3125 973 3028 
Q 978 2931 979 2842 
Q 981 2753 981 2691 
L 994 2691 
Q 1053 2884 1120 3026 
Q 1188 3169 1278 3261 
Q 1369 3353 1494 3398 
Q 1619 3444 1797 3444 
Q 1866 3444 1928 3433 
Q 1991 3422 2025 3413 
L 2025 2897 
Q 1969 2913 1894 2920 
Q 1819 2928 1725 2928 
Q 1531 2928 1395 2840 
Q 1259 2753 1173 2598 
Q 1088 2444 1047 2230 
Q 1006 2016 1006 1763 
L 1006 0 
L 444 0 
z
" transform="scale(0.015625)"/>
      <path id="LiberationSans-62" d="M 3291 1706 
Q 3291 -63 2047 -63 
Q 1663 -63 1408 76 
Q 1153 216 994 525 
L 988 525 
Q 988 444 983 356 
Q 978 269 973 194 
Q 969 119 964 66 
Q 959 13 956 0 
L 413 0 
Q 416 28 419 95 
Q 422 163 425 256 
Q 428 350 429 462 
Q 431 575 431 697 
L 431 4638 
L 994 4638 
L 994 3316 
Q 994 3222 992 3136 
Q 991 3050 988 2984 
Q 984 2906 981 2838 
L 994 2838 
Q 1150 3163 1408 3303 
Q 1666 3444 2047 3444 
Q 2688 3444 2989 3012 
Q 3291 2581 3291 1706 
z
M 2700 1688 
Q 2700 2038 2656 2288 
Q 2613 2538 2516 2698 
Q 2419 2859 2269 2934 
Q 2119 3009 1903 3009 
Q 1681 3009 1511 2937 
Q 1341 2866 1227 2706 
Q 1113 2547 1053 2287 
Q 994 2028 994 1653 
Q 994 1291 1053 1044 
Q 1113 797 1227 642 
Q 1341 488 1509 420 
Q 1678 353 1897 353 
Q 2103 353 2253 425 
Q 2403 497 2503 656 
Q 2603 816 2651 1070 
Q 2700 1325 2700 1688 
z
" transform="scale(0.015625)"/>
      <path id="LiberationSans-75" d="M 981 3381 
L 981 1238 
Q 981 991 1017 825 
Q 1053 659 1134 557 
Q 1216 456 1348 414 
Q 1481 372 1678 372 
Q 1878 372 2039 442 
Q 2200 513 2314 645 
Q 2428 778 2490 973 
Q 2553 1169 2553 1422 
L 2553 3381 
L 3116 3381 
L 3116 722 
Q 3116 616 3117 498 
Q 3119 381 3122 276 
Q 3125 172 3128 97 
Q 3131 22 3134 0 
L 2603 0 
Q 2600 16 2597 84 
Q 2594 153 2589 242 
Q 2584 331 2581 423 
Q 2578 516 2578 578 
L 2569 578 
Q 2488 431 2391 312 
Q 2294 194 2166 111 
Q 2038 28 1872 -17 
Q 1706 -63 1488 -63 
Q 1206 -63 1003 6 
Q 800 75 669 219 
Q 538 363 477 588 
Q 416 813 416 1128 
L 416 3381 
L 981 3381 
z
" transform="scale(0.015625)"/>
      <path id="LiberationSans-6f" d="M 3291 1694 
Q 3291 806 2900 371 
Q 2509 -63 1766 -63 
Q 1413 -63 1134 43 
Q 856 150 664 369 
Q 472 588 370 917 
Q 269 1247 269 1694 
Q 269 3444 1784 3444 
Q 2178 3444 2464 3334 
Q 2750 3225 2933 3006 
Q 3116 2788 3203 2459 
Q 3291 2131 3291 1694 
z
M 2700 1694 
Q 2700 2088 2639 2344 
Q 2578 2600 2461 2753 
Q 2344 2906 2175 2967 
Q 2006 3028 1794 3028 
Q 1578 3028 1404 2964 
Q 1231 2900 1109 2745 
Q 988 2591 923 2334 
Q 859 2078 859 1694 
Q 859 1300 928 1042 
Q 997 784 1117 631 
Q 1238 478 1402 415 
Q 1566 353 1759 353 
Q 1975 353 2150 414 
Q 2325 475 2447 628 
Q 2569 781 2634 1040 
Q 2700 1300 2700 1694 
z
" transform="scale(0.015625)"/>
     </defs>
     <use xlink:href="#LiberationSans-41"/>
     <use xlink:href="#LiberationSans-67" x="66.699219"/>
     <use xlink:href="#LiberationSans-65" x="122.314453"/>
     <use xlink:href="#LiberationSans-20" x="177.929688"/>
     <use xlink:href="#LiberationSans-64" x="205.712891"/>
     <use xlink:href="#LiberationSans-69" x="261.328125"/>
     <use xlink:href="#LiberationSans-73" x="283.544922"/>
     <use xlink:href="#LiberationSans-74" x="333.544922"/>
     <use xlink:href="#LiberationSans-72" x="361.328125"/>
     <use xlink:href="#LiberationSans-69" x="394.628906"/>
     <use xlink:href="#LiberationSans-62" x="416.845703"/>
     <use xlink:href="#LiberationSans-75" x="472.460938"/>
     <use xlink:href="#LiberationSans-74" x="528.076172"/>
     <use xlink:href="#LiberationSans-69" x="555.859375"/>
     <use xlink:href="#LiberationSans-6f" x="578.076172"/>
     <use xlink:href="#LiberationSans-6e" x="633.691406"/>
    </g>
   </g>
   <g id="legend_1">
    <g id="patch_29">
     <path d="M 555.0875 123.04375 
L 641 123.04375 
Q 643 123.04375 643 121.04375 
L 643 93.4 
Q 643 91.4 641 91.4 
L 555.0875 91.4 
Q 553.0875 91.4 553.0875 93.4 
L 553.0875 121.04375 
Q 553.0875 123.04375 555.0875 123.04375 
z
" style="fill: #ffffff; opacity: 0.8; stroke: #cccccc; stroke-linejoin: miter"/>
    </g>
    <g id="patch_30">
     <path d="M 557.0875 102.646875 
L 577.0875 102.646875 
L 577.0875 95.646875 
L 557.0875 95.646875 
z
" style="fill: #377eb8; fill-opacity: 0.4; stroke: #ffffff; stroke-opacity: 0.7; stroke-linejoin: miter"/>
    </g>
    <g id="text_18">
     <!-- Good Credit -->
     <g style="fill: #262626" transform="translate(585.0875 102.646875) scale(0.1 -0.1)">
      <defs>
       <path id="LiberationSans-47" d="M 322 2222 
Q 322 2738 461 3153 
Q 600 3569 876 3861 
Q 1153 4153 1562 4311 
Q 1972 4469 2513 4469 
Q 2919 4469 3225 4397 
Q 3531 4325 3756 4190 
Q 3981 4056 4137 3864 
Q 4294 3672 4403 3431 
L 3834 3263 
Q 3753 3425 3639 3558 
Q 3525 3691 3362 3784 
Q 3200 3878 2986 3929 
Q 2772 3981 2497 3981 
Q 2097 3981 1801 3856 
Q 1506 3731 1312 3500 
Q 1119 3269 1023 2944 
Q 928 2619 928 2222 
Q 928 1825 1031 1495 
Q 1134 1166 1337 927 
Q 1541 688 1842 555 
Q 2144 422 2541 422 
Q 2800 422 3019 465 
Q 3238 509 3414 579 
Q 3591 650 3725 736 
Q 3859 822 3950 909 
L 3950 1703 
L 2634 1703 
L 2634 2203 
L 4500 2203 
L 4500 684 
Q 4353 534 4154 398 
Q 3956 263 3709 159 
Q 3463 56 3169 -3 
Q 2875 -63 2541 -63 
Q 1984 -63 1568 107 
Q 1153 278 876 583 
Q 600 888 461 1306 
Q 322 1725 322 2222 
z
" transform="scale(0.015625)"/>
       <path id="LiberationSans-43" d="M 2475 3981 
Q 2100 3981 1811 3856 
Q 1522 3731 1326 3500 
Q 1131 3269 1031 2944 
Q 931 2619 931 2222 
Q 931 1825 1039 1495 
Q 1147 1166 1348 928 
Q 1550 691 1842 559 
Q 2134 428 2500 428 
Q 2756 428 2967 495 
Q 3178 563 3348 684 
Q 3519 806 3653 973 
Q 3788 1141 3891 1344 
L 4378 1100 
Q 4259 853 4084 640 
Q 3909 428 3673 272 
Q 3438 116 3139 26 
Q 2841 -63 2472 -63 
Q 1938 -63 1536 107 
Q 1134 278 864 583 
Q 594 888 459 1306 
Q 325 1725 325 2222 
Q 325 2738 467 3153 
Q 609 3569 882 3861 
Q 1156 4153 1556 4311 
Q 1956 4469 2469 4469 
Q 3172 4469 3644 4194 
Q 4116 3919 4338 3378 
L 3772 3191 
Q 3709 3347 3603 3489 
Q 3497 3631 3337 3740 
Q 3178 3850 2964 3915 
Q 2750 3981 2475 3981 
z
" transform="scale(0.015625)"/>
      </defs>
      <use xlink:href="#LiberationSans-47"/>
      <use xlink:href="#LiberationSans-6f" x="77.783203"/>
      <use xlink:href="#LiberationSans-6f" x="133.398438"/>
      <use xlink:href="#LiberationSans-64" x="189.013672"/>
      <use xlink:href="#LiberationSans-20" x="244.628906"/>
      <use xlink:href="#LiberationSans-43" x="272.412109"/>
      <use xlink:href="#LiberationSans-72" x="344.628906"/>
      <use xlink:href="#LiberationSans-65" x="377.929688"/>
      <use xlink:href="#LiberationSans-64" x="433.544922"/>
      <use xlink:href="#LiberationSans-69" x="489.160156"/>
      <use xlink:href="#LiberationSans-74" x="511.376953"/>
     </g>
    </g>
    <g id="patch_31">
     <path d="M 557.0875 116.96875 
L 577.0875 116.96875 
L 577.0875 109.96875 
L 557.0875 109.96875 
z
" style="fill: #e41a1c; fill-opacity: 0.4; stroke: #ffffff; stroke-opacity: 0.7; stroke-linejoin: miter"/>
    </g>
    <g id="text_19">
     <!-- Bad Credit -->
     <g style="fill: #262626" transform="translate(585.0875 116.96875) scale(0.1 -0.1)">
      <defs>
       <path id="LiberationSans-42" d="M 3931 1241 
Q 3931 906 3800 670 
Q 3669 434 3447 286 
Q 3225 138 2931 69 
Q 2638 0 2313 0 
L 525 0 
L 525 4403 
L 2125 4403 
Q 2491 4403 2778 4342 
Q 3066 4281 3266 4150 
Q 3466 4019 3570 3817 
Q 3675 3616 3675 3334 
Q 3675 3150 3623 2987 
Q 3572 2825 3467 2692 
Q 3363 2559 3205 2464 
Q 3047 2369 2838 2322 
Q 3103 2291 3308 2200 
Q 3513 2109 3650 1968 
Q 3788 1828 3859 1642 
Q 3931 1456 3931 1241 
z
M 3075 3263 
Q 3075 3619 2831 3772 
Q 2588 3925 2125 3925 
L 1122 3925 
L 1122 2531 
L 2125 2531 
Q 2388 2531 2569 2582 
Q 2750 2634 2862 2729 
Q 2975 2825 3025 2959 
Q 3075 3094 3075 3263 
z
M 3328 1288 
Q 3328 1497 3251 1644 
Q 3175 1791 3031 1884 
Q 2888 1978 2686 2022 
Q 2484 2066 2234 2066 
L 1122 2066 
L 1122 478 
L 2281 478 
Q 2509 478 2701 515 
Q 2894 553 3033 647 
Q 3172 741 3250 897 
Q 3328 1053 3328 1288 
z
" transform="scale(0.015625)"/>
       <path id="LiberationSans-61" d="M 1294 -63 
Q 784 -63 528 206 
Q 272 475 272 944 
Q 272 1278 398 1492 
Q 525 1706 729 1828 
Q 934 1950 1196 1997 
Q 1459 2044 1731 2050 
L 2491 2063 
L 2491 2247 
Q 2491 2456 2447 2603 
Q 2403 2750 2312 2840 
Q 2222 2931 2086 2973 
Q 1950 3016 1766 3016 
Q 1603 3016 1472 2992 
Q 1341 2969 1244 2908 
Q 1147 2847 1087 2742 
Q 1028 2638 1009 2478 
L 422 2531 
Q 453 2731 540 2898 
Q 628 3066 789 3187 
Q 950 3309 1192 3376 
Q 1434 3444 1778 3444 
Q 2416 3444 2737 3151 
Q 3059 2859 3059 2306 
L 3059 850 
Q 3059 600 3125 473 
Q 3191 347 3375 347 
Q 3422 347 3469 353 
Q 3516 359 3559 369 
L 3559 19 
Q 3453 -6 3348 -18 
Q 3244 -31 3125 -31 
Q 2966 -31 2852 11 
Q 2738 53 2666 139 
Q 2594 225 2556 351 
Q 2519 478 2509 647 
L 2491 647 
Q 2400 484 2292 353 
Q 2184 222 2040 130 
Q 1897 38 1714 -12 
Q 1531 -63 1294 -63 
z
M 1422 359 
Q 1691 359 1892 457 
Q 2094 556 2226 709 
Q 2359 863 2425 1044 
Q 2491 1225 2491 1391 
L 2491 1669 
L 1875 1656 
Q 1669 1653 1483 1626 
Q 1297 1600 1156 1522 
Q 1016 1444 933 1303 
Q 850 1163 850 934 
Q 850 659 998 509 
Q 1147 359 1422 359 
z
" transform="scale(0.015625)"/>
      </defs>
      <use xlink:href="#LiberationSans-42"/>
      <use xlink:href="#LiberationSans-61" x="66.699219"/>
      <use xlink:href="#LiberationSans-64" x="122.314453"/>
      <use xlink:href="#LiberationSans-20" x="177.929688"/>
      <use xlink:href="#LiberationSans-43" x="205.712891"/>
      <use xlink:href="#LiberationSans-72" x="277.929688"/>
      <use xlink:href="#LiberationSans-65" x="311.230469"/>
      <use xlink:href="#LiberationSans-64" x="366.845703"/>
      <use xlink:href="#LiberationSans-69" x="422.460938"/>
      <use xlink:href="#LiberationSans-74" x="444.677734"/>
     </g>
    </g>
   </g>
  </g>
  <g id="axes_2">
   <g id="patch_32">
    <path d="M 90 384.48 
L 648 384.48 
L 648 260.28 
L 90 260.28 
L 90 384.48 
z
" style="fill: none"/>
   </g>
   <g id="matplotlib.axis_3">
    <g id="xtick_9">
     <g id="line2d_31"/>
     <g id="text_20">
      <!-- 19 -->
      <g style="fill: #262626" transform="translate(90.403424 393.7775) scale(0.08 -0.08)">
       <defs>
        <path id="LiberationSans-39" d="M 3256 2291 
Q 3256 1703 3145 1261 
Q 3034 819 2828 525 
Q 2622 231 2326 84 
Q 2031 -63 1663 -63 
Q 1409 -63 1206 -11 
Q 1003 41 843 150 
Q 684 259 571 434 
Q 459 609 391 856 
L 928 941 
Q 1016 656 1202 523 
Q 1388 391 1672 391 
Q 1900 391 2089 498 
Q 2278 606 2411 822 
Q 2544 1038 2619 1363 
Q 2694 1688 2700 2125 
Q 2634 1978 2520 1862 
Q 2406 1747 2261 1667 
Q 2116 1588 1947 1545 
Q 1778 1503 1606 1503 
Q 1306 1503 1064 1611 
Q 822 1719 653 1912 
Q 484 2106 392 2379 
Q 300 2653 300 2988 
Q 300 3328 398 3603 
Q 497 3878 684 4070 
Q 872 4263 1145 4366 
Q 1419 4469 1766 4469 
Q 2500 4469 2878 3925 
Q 3256 3381 3256 2291 
z
M 2644 2834 
Q 2644 3078 2586 3293 
Q 2528 3509 2414 3668 
Q 2300 3828 2133 3920 
Q 1966 4013 1747 4013 
Q 1544 4013 1381 3941 
Q 1219 3869 1106 3736 
Q 994 3603 933 3412 
Q 872 3222 872 2988 
Q 872 2766 926 2575 
Q 981 2384 1090 2245 
Q 1200 2106 1362 2026 
Q 1525 1947 1741 1947 
Q 1897 1947 2058 2000 
Q 2219 2053 2348 2162 
Q 2478 2272 2561 2439 
Q 2644 2606 2644 2834 
z
" transform="scale(0.015625)"/>
       </defs>
       <use xlink:href="#LiberationSans-31"/>
       <use xlink:href="#LiberationSans-39" x="55.615234"/>
      </g>
     </g>
    </g>
    <g id="xtick_10">
     <g id="line2d_32"/>
     <g id="text_21">
      <!-- 20 -->
      <g style="fill: #262626" transform="translate(100.107772 393.7775) scale(0.08 -0.08)">
       <use xlink:href="#LiberationSans-32"/>
       <use xlink:href="#LiberationSans-30" x="55.615234"/>
      </g>
     </g>
    </g>
    <g id="xtick_11">
     <g id="line2d_33"/>
     <g id="text_22">
      <!-- 21 -->
      <g style="fill: #262626" transform="translate(109.81212 393.7775) scale(0.08 -0.08)">
       <use xlink:href="#LiberationSans-32"/>
       <use xlink:href="#LiberationSans-31" x="55.615234"/>
      </g>
     </g>
    </g>
    <g id="xtick_12">
     <g id="line2d_34"/>
     <g id="text_23">
      <!-- 22 -->
      <g style="fill: #262626" transform="translate(119.516467 393.7775) scale(0.08 -0.08)">
       <use xlink:href="#LiberationSans-32"/>
       <use xlink:href="#LiberationSans-32" x="55.615234"/>
      </g>
     </g>
    </g>
    <g id="xtick_13">
     <g id="line2d_35"/>
     <g id="text_24">
      <!-- 23 -->
      <g style="fill: #262626" transform="translate(129.220815 393.7775) scale(0.08 -0.08)">
       <use xlink:href="#LiberationSans-32"/>
       <use xlink:href="#LiberationSans-33" x="55.615234"/>
      </g>
     </g>
    </g>
    <g id="xtick_14">
     <g id="line2d_36"/>
     <g id="text_25">
      <!-- 24 -->
      <g style="fill: #262626" transform="translate(138.925163 393.7775) scale(0.08 -0.08)">
       <use xlink:href="#LiberationSans-32"/>
       <use xlink:href="#LiberationSans-34" x="55.615234"/>
      </g>
     </g>
    </g>
    <g id="xtick_15">
     <g id="line2d_37"/>
     <g id="text_26">
      <!-- 25 -->
      <g style="fill: #262626" transform="translate(148.629511 393.7775) scale(0.08 -0.08)">
       <use xlink:href="#LiberationSans-32"/>
       <use xlink:href="#LiberationSans-35" x="55.615234"/>
      </g>
     </g>
    </g>
    <g id="xtick_16">
     <g id="line2d_38"/>
     <g id="text_27">
      <!-- 26 -->
      <g style="fill: #262626" transform="translate(158.333859 393.7775) scale(0.08 -0.08)">
       <use xlink:href="#LiberationSans-32"/>
       <use xlink:href="#LiberationSans-36" x="55.615234"/>
      </g>
     </g>
    </g>
    <g id="xtick_17">
     <g id="line2d_39"/>
     <g id="text_28">
      <!-- 27 -->
      <g style="fill: #262626" transform="translate(168.038207 393.7775) scale(0.08 -0.08)">
       <use xlink:href="#LiberationSans-32"/>
       <use xlink:href="#LiberationSans-37" x="55.615234"/>
      </g>
     </g>
    </g>
    <g id="xtick_18">
     <g id="line2d_40"/>
     <g id="text_29">
      <!-- 28 -->
      <g style="fill: #262626" transform="translate(177.742554 393.7775) scale(0.08 -0.08)">
       <use xlink:href="#LiberationSans-32"/>
       <use xlink:href="#LiberationSans-38" x="55.615234"/>
      </g>
     </g>
    </g>
    <g id="xtick_19">
     <g id="line2d_41"/>
     <g id="text_30">
      <!-- 29 -->
      <g style="fill: #262626" transform="translate(187.446902 393.7775) scale(0.08 -0.08)">
       <use xlink:href="#LiberationSans-32"/>
       <use xlink:href="#LiberationSans-39" x="55.615234"/>
      </g>
     </g>
    </g>
    <g id="xtick_20">
     <g id="line2d_42"/>
     <g id="text_31">
      <!-- 30 -->
      <g style="fill: #262626" transform="translate(197.15125 393.7775) scale(0.08 -0.08)">
       <use xlink:href="#LiberationSans-33"/>
       <use xlink:href="#LiberationSans-30" x="55.615234"/>
      </g>
     </g>
    </g>
    <g id="xtick_21">
     <g id="line2d_43"/>
     <g id="text_32">
      <!-- 31 -->
      <g style="fill: #262626" transform="translate(206.855598 393.7775) scale(0.08 -0.08)">
       <use xlink:href="#LiberationSans-33"/>
       <use xlink:href="#LiberationSans-31" x="55.615234"/>
      </g>
     </g>
    </g>
    <g id="xtick_22">
     <g id="line2d_44"/>
     <g id="text_33">
      <!-- 32 -->
      <g style="fill: #262626" transform="translate(216.559946 393.7775) scale(0.08 -0.08)">
       <use xlink:href="#LiberationSans-33"/>
       <use xlink:href="#LiberationSans-32" x="55.615234"/>
      </g>
     </g>
    </g>
    <g id="xtick_23">
     <g id="line2d_45"/>
     <g id="text_34">
      <!-- 33 -->
      <g style="fill: #262626" transform="translate(226.264293 393.7775) scale(0.08 -0.08)">
       <use xlink:href="#LiberationSans-33"/>
       <use xlink:href="#LiberationSans-33" x="55.615234"/>
      </g>
     </g>
    </g>
    <g id="xtick_24">
     <g id="line2d_46"/>
     <g id="text_35">
      <!-- 34 -->
      <g style="fill: #262626" transform="translate(235.968641 393.7775) scale(0.08 -0.08)">
       <use xlink:href="#LiberationSans-33"/>
       <use xlink:href="#LiberationSans-34" x="55.615234"/>
      </g>
     </g>
    </g>
    <g id="xtick_25">
     <g id="line2d_47"/>
     <g id="text_36">
      <!-- 35 -->
      <g style="fill: #262626" transform="translate(245.672989 393.7775) scale(0.08 -0.08)">
       <use xlink:href="#LiberationSans-33"/>
       <use xlink:href="#LiberationSans-35" x="55.615234"/>
      </g>
     </g>
    </g>
    <g id="xtick_26">
     <g id="line2d_48"/>
     <g id="text_37">
      <!-- 36 -->
      <g style="fill: #262626" transform="translate(255.377337 393.7775) scale(0.08 -0.08)">
       <use xlink:href="#LiberationSans-33"/>
       <use xlink:href="#LiberationSans-36" x="55.615234"/>
      </g>
     </g>
    </g>
    <g id="xtick_27">
     <g id="line2d_49"/>
     <g id="text_38">
      <!-- 37 -->
      <g style="fill: #262626" transform="translate(265.081685 393.7775) scale(0.08 -0.08)">
       <use xlink:href="#LiberationSans-33"/>
       <use xlink:href="#LiberationSans-37" x="55.615234"/>
      </g>
     </g>
    </g>
    <g id="xtick_28">
     <g id="line2d_50"/>
     <g id="text_39">
      <!-- 38 -->
      <g style="fill: #262626" transform="translate(274.786033 393.7775) scale(0.08 -0.08)">
       <use xlink:href="#LiberationSans-33"/>
       <use xlink:href="#LiberationSans-38" x="55.615234"/>
      </g>
     </g>
    </g>
    <g id="xtick_29">
     <g id="line2d_51"/>
     <g id="text_40">
      <!-- 39 -->
      <g style="fill: #262626" transform="translate(284.49038 393.7775) scale(0.08 -0.08)">
       <use xlink:href="#LiberationSans-33"/>
       <use xlink:href="#LiberationSans-39" x="55.615234"/>
      </g>
     </g>
    </g>
    <g id="xtick_30">
     <g id="line2d_52"/>
     <g id="text_41">
      <!-- 40 -->
      <g style="fill: #262626" transform="translate(294.194728 393.7775) scale(0.08 -0.08)">
       <use xlink:href="#LiberationSans-34"/>
       <use xlink:href="#LiberationSans-30" x="55.615234"/>
      </g>
     </g>
    </g>
    <g id="xtick_31">
     <g id="line2d_53"/>
     <g id="text_42">
      <!-- 41 -->
      <g style="fill: #262626" transform="translate(303.899076 393.7775) scale(0.08 -0.08)">
       <use xlink:href="#LiberationSans-34"/>
       <use xlink:href="#LiberationSans-31" x="55.615234"/>
      </g>
     </g>
    </g>
    <g id="xtick_32">
     <g id="line2d_54"/>
     <g id="text_43">
      <!-- 42 -->
      <g style="fill: #262626" transform="translate(313.603424 393.7775) scale(0.08 -0.08)">
       <use xlink:href="#LiberationSans-34"/>
       <use xlink:href="#LiberationSans-32" x="55.615234"/>
      </g>
     </g>
    </g>
    <g id="xtick_33">
     <g id="line2d_55"/>
     <g id="text_44">
      <!-- 43 -->
      <g style="fill: #262626" transform="translate(323.307772 393.7775) scale(0.08 -0.08)">
       <use xlink:href="#LiberationSans-34"/>
       <use xlink:href="#LiberationSans-33" x="55.615234"/>
      </g>
     </g>
    </g>
    <g id="xtick_34">
     <g id="line2d_56"/>
     <g id="text_45">
      <!-- 44 -->
      <g style="fill: #262626" transform="translate(333.01212 393.7775) scale(0.08 -0.08)">
       <use xlink:href="#LiberationSans-34"/>
       <use xlink:href="#LiberationSans-34" x="55.615234"/>
      </g>
     </g>
    </g>
    <g id="xtick_35">
     <g id="line2d_57"/>
     <g id="text_46">
      <!-- 45 -->
      <g style="fill: #262626" transform="translate(342.716467 393.7775) scale(0.08 -0.08)">
       <use xlink:href="#LiberationSans-34"/>
       <use xlink:href="#LiberationSans-35" x="55.615234"/>
      </g>
     </g>
    </g>
    <g id="xtick_36">
     <g id="line2d_58"/>
     <g id="text_47">
      <!-- 46 -->
      <g style="fill: #262626" transform="translate(352.420815 393.7775) scale(0.08 -0.08)">
       <use xlink:href="#LiberationSans-34"/>
       <use xlink:href="#LiberationSans-36" x="55.615234"/>
      </g>
     </g>
    </g>
    <g id="xtick_37">
     <g id="line2d_59"/>
     <g id="text_48">
      <!-- 47 -->
      <g style="fill: #262626" transform="translate(362.125163 393.7775) scale(0.08 -0.08)">
       <use xlink:href="#LiberationSans-34"/>
       <use xlink:href="#LiberationSans-37" x="55.615234"/>
      </g>
     </g>
    </g>
    <g id="xtick_38">
     <g id="line2d_60"/>
     <g id="text_49">
      <!-- 48 -->
      <g style="fill: #262626" transform="translate(371.829511 393.7775) scale(0.08 -0.08)">
       <use xlink:href="#LiberationSans-34"/>
       <use xlink:href="#LiberationSans-38" x="55.615234"/>
      </g>
     </g>
    </g>
    <g id="xtick_39">
     <g id="line2d_61"/>
     <g id="text_50">
      <!-- 49 -->
      <g style="fill: #262626" transform="translate(381.533859 393.7775) scale(0.08 -0.08)">
       <use xlink:href="#LiberationSans-34"/>
       <use xlink:href="#LiberationSans-39" x="55.615234"/>
      </g>
     </g>
    </g>
    <g id="xtick_40">
     <g id="line2d_62"/>
     <g id="text_51">
      <!-- 50 -->
      <g style="fill: #262626" transform="translate(391.238207 393.7775) scale(0.08 -0.08)">
       <use xlink:href="#LiberationSans-35"/>
       <use xlink:href="#LiberationSans-30" x="55.615234"/>
      </g>
     </g>
    </g>
    <g id="xtick_41">
     <g id="line2d_63"/>
     <g id="text_52">
      <!-- 51 -->
      <g style="fill: #262626" transform="translate(400.942554 393.7775) scale(0.08 -0.08)">
       <use xlink:href="#LiberationSans-35"/>
       <use xlink:href="#LiberationSans-31" x="55.615234"/>
      </g>
     </g>
    </g>
    <g id="xtick_42">
     <g id="line2d_64"/>
     <g id="text_53">
      <!-- 52 -->
      <g style="fill: #262626" transform="translate(410.646902 393.7775) scale(0.08 -0.08)">
       <use xlink:href="#LiberationSans-35"/>
       <use xlink:href="#LiberationSans-32" x="55.615234"/>
      </g>
     </g>
    </g>
    <g id="xtick_43">
     <g id="line2d_65"/>
     <g id="text_54">
      <!-- 53 -->
      <g style="fill: #262626" transform="translate(420.35125 393.7775) scale(0.08 -0.08)">
       <use xlink:href="#LiberationSans-35"/>
       <use xlink:href="#LiberationSans-33" x="55.615234"/>
      </g>
     </g>
    </g>
    <g id="xtick_44">
     <g id="line2d_66"/>
     <g id="text_55">
      <!-- 54 -->
      <g style="fill: #262626" transform="translate(430.055598 393.7775) scale(0.08 -0.08)">
       <use xlink:href="#LiberationSans-35"/>
       <use xlink:href="#LiberationSans-34" x="55.615234"/>
      </g>
     </g>
    </g>
    <g id="xtick_45">
     <g id="line2d_67"/>
     <g id="text_56">
      <!-- 55 -->
      <g style="fill: #262626" transform="translate(439.759946 393.7775) scale(0.08 -0.08)">
       <use xlink:href="#LiberationSans-35"/>
       <use xlink:href="#LiberationSans-35" x="55.615234"/>
      </g>
     </g>
    </g>
    <g id="xtick_46">
     <g id="line2d_68"/>
     <g id="text_57">
      <!-- 56 -->
      <g style="fill: #262626" transform="translate(449.464293 393.7775) scale(0.08 -0.08)">
       <use xlink:href="#LiberationSans-35"/>
       <use xlink:href="#LiberationSans-36" x="55.615234"/>
      </g>
     </g>
    </g>
    <g id="xtick_47">
     <g id="line2d_69"/>
     <g id="text_58">
      <!-- 57 -->
      <g style="fill: #262626" transform="translate(459.168641 393.7775) scale(0.08 -0.08)">
       <use xlink:href="#LiberationSans-35"/>
       <use xlink:href="#LiberationSans-37" x="55.615234"/>
      </g>
     </g>
    </g>
    <g id="xtick_48">
     <g id="line2d_70"/>
     <g id="text_59">
      <!-- 58 -->
      <g style="fill: #262626" transform="translate(468.872989 393.7775) scale(0.08 -0.08)">
       <use xlink:href="#LiberationSans-35"/>
       <use xlink:href="#LiberationSans-38" x="55.615234"/>
      </g>
     </g>
    </g>
    <g id="xtick_49">
     <g id="line2d_71"/>
     <g id="text_60">
      <!-- 59 -->
      <g style="fill: #262626" transform="translate(478.577337 393.7775) scale(0.08 -0.08)">
       <use xlink:href="#LiberationSans-35"/>
       <use xlink:href="#LiberationSans-39" x="55.615234"/>
      </g>
     </g>
    </g>
    <g id="xtick_50">
     <g id="line2d_72"/>
     <g id="text_61">
      <!-- 60 -->
      <g style="fill: #262626" transform="translate(488.281685 393.7775) scale(0.08 -0.08)">
       <use xlink:href="#LiberationSans-36"/>
       <use xlink:href="#LiberationSans-30" x="55.615234"/>
      </g>
     </g>
    </g>
    <g id="xtick_51">
     <g id="line2d_73"/>
     <g id="text_62">
      <!-- 61 -->
      <g style="fill: #262626" transform="translate(497.986033 393.7775) scale(0.08 -0.08)">
       <use xlink:href="#LiberationSans-36"/>
       <use xlink:href="#LiberationSans-31" x="55.615234"/>
      </g>
     </g>
    </g>
    <g id="xtick_52">
     <g id="line2d_74"/>
     <g id="text_63">
      <!-- 62 -->
      <g style="fill: #262626" transform="translate(507.69038 393.7775) scale(0.08 -0.08)">
       <use xlink:href="#LiberationSans-36"/>
       <use xlink:href="#LiberationSans-32" x="55.615234"/>
      </g>
     </g>
    </g>
    <g id="xtick_53">
     <g id="line2d_75"/>
     <g id="text_64">
      <!-- 63 -->
      <g style="fill: #262626" transform="translate(517.394728 393.7775) scale(0.08 -0.08)">
       <use xlink:href="#LiberationSans-36"/>
       <use xlink:href="#LiberationSans-33" x="55.615234"/>
      </g>
     </g>
    </g>
    <g id="xtick_54">
     <g id="line2d_76"/>
     <g id="text_65">
      <!-- 64 -->
      <g style="fill: #262626" transform="translate(527.099076 393.7775) scale(0.08 -0.08)">
       <use xlink:href="#LiberationSans-36"/>
       <use xlink:href="#LiberationSans-34" x="55.615234"/>
      </g>
     </g>
    </g>
    <g id="xtick_55">
     <g id="line2d_77"/>
     <g id="text_66">
      <!-- 65 -->
      <g style="fill: #262626" transform="translate(536.803424 393.7775) scale(0.08 -0.08)">
       <use xlink:href="#LiberationSans-36"/>
       <use xlink:href="#LiberationSans-35" x="55.615234"/>
      </g>
     </g>
    </g>
    <g id="xtick_56">
     <g id="line2d_78"/>
     <g id="text_67">
      <!-- 66 -->
      <g style="fill: #262626" transform="translate(546.507772 393.7775) scale(0.08 -0.08)">
       <use xlink:href="#LiberationSans-36"/>
       <use xlink:href="#LiberationSans-36" x="55.615234"/>
      </g>
     </g>
    </g>
    <g id="xtick_57">
     <g id="line2d_79"/>
     <g id="text_68">
      <!-- 67 -->
      <g style="fill: #262626" transform="translate(556.21212 393.7775) scale(0.08 -0.08)">
       <use xlink:href="#LiberationSans-36"/>
       <use xlink:href="#LiberationSans-37" x="55.615234"/>
      </g>
     </g>
    </g>
    <g id="xtick_58">
     <g id="line2d_80"/>
     <g id="text_69">
      <!-- 68 -->
      <g style="fill: #262626" transform="translate(565.916467 393.7775) scale(0.08 -0.08)">
       <use xlink:href="#LiberationSans-36"/>
       <use xlink:href="#LiberationSans-38" x="55.615234"/>
      </g>
     </g>
    </g>
    <g id="xtick_59">
     <g id="line2d_81"/>
     <g id="text_70">
      <!-- 69 -->
      <g style="fill: #262626" transform="translate(575.620815 393.7775) scale(0.08 -0.08)">
       <use xlink:href="#LiberationSans-36"/>
       <use xlink:href="#LiberationSans-39" x="55.615234"/>
      </g>
     </g>
    </g>
    <g id="xtick_60">
     <g id="line2d_82"/>
     <g id="text_71">
      <!-- 70 -->
      <g style="fill: #262626" transform="translate(585.325163 393.7775) scale(0.08 -0.08)">
       <use xlink:href="#LiberationSans-37"/>
       <use xlink:href="#LiberationSans-30" x="55.615234"/>
      </g>
     </g>
    </g>
    <g id="xtick_61">
     <g id="line2d_83"/>
     <g id="text_72">
      <!-- 71 -->
      <g style="fill: #262626" transform="translate(595.029511 393.7775) scale(0.08 -0.08)">
       <use xlink:href="#LiberationSans-37"/>
       <use xlink:href="#LiberationSans-31" x="55.615234"/>
      </g>
     </g>
    </g>
    <g id="xtick_62">
     <g id="line2d_84"/>
     <g id="text_73">
      <!-- 72 -->
      <g style="fill: #262626" transform="translate(604.733859 393.7775) scale(0.08 -0.08)">
       <use xlink:href="#LiberationSans-37"/>
       <use xlink:href="#LiberationSans-32" x="55.615234"/>
      </g>
     </g>
    </g>
    <g id="xtick_63">
     <g id="line2d_85"/>
     <g id="text_74">
      <!-- 73 -->
      <g style="fill: #262626" transform="translate(614.438207 393.7775) scale(0.08 -0.08)">
       <use xlink:href="#LiberationSans-37"/>
       <use xlink:href="#LiberationSans-33" x="55.615234"/>
      </g>
     </g>
    </g>
    <g id="xtick_64">
     <g id="line2d_86"/>
     <g id="text_75">
      <!-- 74 -->
      <g style="fill: #262626" transform="translate(624.142554 393.7775) scale(0.08 -0.08)">
       <use xlink:href="#LiberationSans-37"/>
       <use xlink:href="#LiberationSans-34" x="55.615234"/>
      </g>
     </g>
    </g>
    <g id="text_76">
     <!-- Age -->
     <g style="fill: #262626" transform="translate(360.103906 406.684375) scale(0.1 -0.1)">
      <use xlink:href="#LiberationSans-41"/>
      <use xlink:href="#LiberationSans-67" x="66.699219"/>
      <use xlink:href="#LiberationSans-65" x="122.314453"/>
     </g>
    </g>
   </g>
   <g id="matplotlib.axis_4">
    <g id="ytick_7">
     <g id="line2d_87"/>
     <g id="text_77">
      <!-- 0 -->
      <g style="fill: #262626" transform="translate(80.939063 388.103438) scale(0.1 -0.1)">
       <use xlink:href="#LiberationSans-30"/>
      </g>
     </g>
    </g>
    <g id="ytick_8">
     <g id="line2d_88"/>
     <g id="text_78">
      <!-- 10 -->
      <g style="fill: #262626" transform="translate(75.378125 356.975618) scale(0.1 -0.1)">
       <use xlink:href="#LiberationSans-31"/>
       <use xlink:href="#LiberationSans-30" x="55.615234"/>
      </g>
     </g>
    </g>
    <g id="ytick_9">
     <g id="line2d_89"/>
     <g id="text_79">
      <!-- 20 -->
      <g style="fill: #262626" transform="translate(75.378125 325.847798) scale(0.1 -0.1)">
       <use xlink:href="#LiberationSans-32"/>
       <use xlink:href="#LiberationSans-30" x="55.615234"/>
      </g>
     </g>
    </g>
    <g id="ytick_10">
     <g id="line2d_90"/>
     <g id="text_80">
      <!-- 30 -->
      <g style="fill: #262626" transform="translate(75.378125 294.719979) scale(0.1 -0.1)">
       <use xlink:href="#LiberationSans-33"/>
       <use xlink:href="#LiberationSans-30" x="55.615234"/>
      </g>
     </g>
    </g>
    <g id="text_81">
     <!-- Count -->
     <g style="fill: #262626" transform="translate(69.303125 335.721406) rotate(-90) scale(0.1 -0.1)">
      <use xlink:href="#LiberationSans-43"/>
      <use xlink:href="#LiberationSans-6f" x="72.216797"/>
      <use xlink:href="#LiberationSans-75" x="127.832031"/>
      <use xlink:href="#LiberationSans-6e" x="183.447266"/>
      <use xlink:href="#LiberationSans-74" x="239.0625"/>
     </g>
    </g>
   </g>
   <g id="patch_33">
    <path d="M 90.970435 384.48 
L 94.852174 384.48 
L 94.852174 381.367218 
L 90.970435 381.367218 
z
" clip-path="url(#p470415c1d6)" style="fill: #377eb8; opacity: 0.6"/>
   </g>
   <g id="patch_34">
    <path d="M 100.674783 384.48 
L 104.556522 384.48 
L 104.556522 356.464962 
L 100.674783 356.464962 
z
" clip-path="url(#p470415c1d6)" style="fill: #377eb8; opacity: 0.6"/>
   </g>
   <g id="patch_35">
    <path d="M 110.37913 384.48 
L 114.26087 384.48 
L 114.26087 356.464962 
L 110.37913 356.464962 
z
" clip-path="url(#p470415c1d6)" style="fill: #377eb8; opacity: 0.6"/>
   </g>
   <g id="patch_36">
    <path d="M 120.083478 384.48 
L 123.965217 384.48 
L 123.965217 334.675489 
L 120.083478 334.675489 
z
" clip-path="url(#p470415c1d6)" style="fill: #377eb8; opacity: 0.6"/>
   </g>
   <g id="patch_37">
    <path d="M 129.787826 384.48 
L 133.669565 384.48 
L 133.669565 297.322105 
L 129.787826 297.322105 
z
" clip-path="url(#p470415c1d6)" style="fill: #377eb8; opacity: 0.6"/>
   </g>
   <g id="patch_38">
    <path d="M 139.492174 384.48 
L 143.373913 384.48 
L 143.373913 306.660451 
L 139.492174 306.660451 
z
" clip-path="url(#p470415c1d6)" style="fill: #377eb8; opacity: 0.6"/>
   </g>
   <g id="patch_39">
    <path d="M 149.196522 384.48 
L 153.078261 384.48 
L 153.078261 315.998797 
L 149.196522 315.998797 
z
" clip-path="url(#p470415c1d6)" style="fill: #377eb8; opacity: 0.6"/>
   </g>
   <g id="patch_40">
    <path d="M 158.90087 384.48 
L 162.782609 384.48 
L 162.782609 272.41985 
L 158.90087 272.41985 
z
" clip-path="url(#p470415c1d6)" style="fill: #377eb8; opacity: 0.6"/>
   </g>
   <g id="patch_41">
    <path d="M 168.605217 384.48 
L 172.486957 384.48 
L 172.486957 266.194286 
L 168.605217 266.194286 
z
" clip-path="url(#p470415c1d6)" style="fill: #377eb8; opacity: 0.6"/>
   </g>
   <g id="patch_42">
    <path d="M 178.309565 384.48 
L 182.191304 384.48 
L 182.191304 297.322105 
L 178.309565 297.322105 
z
" clip-path="url(#p470415c1d6)" style="fill: #377eb8; opacity: 0.6"/>
   </g>
   <g id="patch_43">
    <path d="M 188.013913 384.48 
L 191.895652 384.48 
L 191.895652 315.998797 
L 188.013913 315.998797 
z
" clip-path="url(#p470415c1d6)" style="fill: #377eb8; opacity: 0.6"/>
   </g>
   <g id="patch_44">
    <path d="M 197.718261 384.48 
L 201.6 384.48 
L 201.6 294.209323 
L 197.718261 294.209323 
z
" clip-path="url(#p470415c1d6)" style="fill: #377eb8; opacity: 0.6"/>
   </g>
   <g id="patch_45">
    <path d="M 207.422609 384.48 
L 211.304348 384.48 
L 211.304348 300.434887 
L 207.422609 300.434887 
z
" clip-path="url(#p470415c1d6)" style="fill: #377eb8; opacity: 0.6"/>
   </g>
   <g id="patch_46">
    <path d="M 217.126957 384.48 
L 221.008696 384.48 
L 221.008696 306.660451 
L 217.126957 306.660451 
z
" clip-path="url(#p470415c1d6)" style="fill: #377eb8; opacity: 0.6"/>
   </g>
   <g id="patch_47">
    <path d="M 226.831304 384.48 
L 230.713043 384.48 
L 230.713043 322.224361 
L 226.831304 322.224361 
z
" clip-path="url(#p470415c1d6)" style="fill: #377eb8; opacity: 0.6"/>
   </g>
   <g id="patch_48">
    <path d="M 236.535652 384.48 
L 240.417391 384.48 
L 240.417391 319.111579 
L 236.535652 319.111579 
z
" clip-path="url(#p470415c1d6)" style="fill: #377eb8; opacity: 0.6"/>
   </g>
   <g id="patch_49">
    <path d="M 246.24 384.48 
L 250.121739 384.48 
L 250.121739 278.645414 
L 246.24 278.645414 
z
" clip-path="url(#p470415c1d6)" style="fill: #377eb8; opacity: 0.6"/>
   </g>
   <g id="patch_50">
    <path d="M 255.944348 384.48 
L 259.826087 384.48 
L 259.826087 281.758195 
L 255.944348 281.758195 
z
" clip-path="url(#p470415c1d6)" style="fill: #377eb8; opacity: 0.6"/>
   </g>
   <g id="patch_51">
    <path d="M 265.648696 384.48 
L 269.530435 384.48 
L 269.530435 319.111579 
L 265.648696 319.111579 
z
" clip-path="url(#p470415c1d6)" style="fill: #377eb8; opacity: 0.6"/>
   </g>
   <g id="patch_52">
    <path d="M 275.353043 384.48 
L 279.234783 384.48 
L 279.234783 322.224361 
L 275.353043 322.224361 
z
" clip-path="url(#p470415c1d6)" style="fill: #377eb8; opacity: 0.6"/>
   </g>
   <g id="patch_53">
    <path d="M 285.057391 384.48 
L 288.93913 384.48 
L 288.93913 337.788271 
L 285.057391 337.788271 
z
" clip-path="url(#p470415c1d6)" style="fill: #377eb8; opacity: 0.6"/>
   </g>
   <g id="patch_54">
    <path d="M 294.761739 384.48 
L 298.643478 384.48 
L 298.643478 325.337143 
L 294.761739 325.337143 
z
" clip-path="url(#p470415c1d6)" style="fill: #377eb8; opacity: 0.6"/>
   </g>
   <g id="patch_55">
    <path d="M 304.466087 384.48 
L 308.347826 384.48 
L 308.347826 344.013835 
L 304.466087 344.013835 
z
" clip-path="url(#p470415c1d6)" style="fill: #377eb8; opacity: 0.6"/>
   </g>
   <g id="patch_56">
    <path d="M 314.170435 384.48 
L 318.052174 384.48 
L 318.052174 340.901053 
L 314.170435 340.901053 
z
" clip-path="url(#p470415c1d6)" style="fill: #377eb8; opacity: 0.6"/>
   </g>
   <g id="patch_57">
    <path d="M 323.874783 384.48 
L 327.756522 384.48 
L 327.756522 347.126617 
L 323.874783 347.126617 
z
" clip-path="url(#p470415c1d6)" style="fill: #377eb8; opacity: 0.6"/>
   </g>
   <g id="patch_58">
    <path d="M 333.57913 384.48 
L 337.46087 384.48 
L 337.46087 347.126617 
L 333.57913 347.126617 
z
" clip-path="url(#p470415c1d6)" style="fill: #377eb8; opacity: 0.6"/>
   </g>
   <g id="patch_59">
    <path d="M 343.283478 384.48 
L 347.165217 384.48 
L 347.165217 347.126617 
L 343.283478 347.126617 
z
" clip-path="url(#p470415c1d6)" style="fill: #377eb8; opacity: 0.6"/>
   </g>
   <g id="patch_60">
    <path d="M 352.987826 384.48 
L 356.869565 384.48 
L 356.869565 340.901053 
L 352.987826 340.901053 
z
" clip-path="url(#p470415c1d6)" style="fill: #377eb8; opacity: 0.6"/>
   </g>
   <g id="patch_61">
    <path d="M 362.692174 384.48 
L 366.573913 384.48 
L 366.573913 347.126617 
L 362.692174 347.126617 
z
" clip-path="url(#p470415c1d6)" style="fill: #377eb8; opacity: 0.6"/>
   </g>
   <g id="patch_62">
    <path d="M 372.396522 384.48 
L 376.278261 384.48 
L 376.278261 356.464962 
L 372.396522 356.464962 
z
" clip-path="url(#p470415c1d6)" style="fill: #377eb8; opacity: 0.6"/>
   </g>
   <g id="patch_63">
    <path d="M 382.10087 384.48 
L 385.982609 384.48 
L 385.982609 344.013835 
L 382.10087 344.013835 
z
" clip-path="url(#p470415c1d6)" style="fill: #377eb8; opacity: 0.6"/>
   </g>
   <g id="patch_64">
    <path d="M 391.805217 384.48 
L 395.686957 384.48 
L 395.686957 356.464962 
L 391.805217 356.464962 
z
" clip-path="url(#p470415c1d6)" style="fill: #377eb8; opacity: 0.6"/>
   </g>
   <g id="patch_65">
    <path d="M 401.509565 384.48 
L 405.391304 384.48 
L 405.391304 362.690526 
L 401.509565 362.690526 
z
" clip-path="url(#p470415c1d6)" style="fill: #377eb8; opacity: 0.6"/>
   </g>
   <g id="patch_66">
    <path d="M 411.213913 384.48 
L 415.095652 384.48 
L 415.095652 359.577744 
L 411.213913 359.577744 
z
" clip-path="url(#p470415c1d6)" style="fill: #377eb8; opacity: 0.6"/>
   </g>
   <g id="patch_67">
    <path d="M 420.918261 384.48 
L 424.8 384.48 
L 424.8 378.254436 
L 420.918261 378.254436 
z
" clip-path="url(#p470415c1d6)" style="fill: #377eb8; opacity: 0.6"/>
   </g>
   <g id="patch_68">
    <path d="M 430.622609 384.48 
L 434.504348 384.48 
L 434.504348 359.577744 
L 430.622609 359.577744 
z
" clip-path="url(#p470415c1d6)" style="fill: #377eb8; opacity: 0.6"/>
   </g>
   <g id="patch_69">
    <path d="M 440.326957 384.48 
L 444.208696 384.48 
L 444.208696 368.91609 
L 440.326957 368.91609 
z
" clip-path="url(#p470415c1d6)" style="fill: #377eb8; opacity: 0.6"/>
   </g>
   <g id="patch_70">
    <path d="M 450.031304 384.48 
L 453.913043 384.48 
L 453.913043 375.141654 
L 450.031304 375.141654 
z
" clip-path="url(#p470415c1d6)" style="fill: #377eb8; opacity: 0.6"/>
   </g>
   <g id="patch_71">
    <path d="M 459.735652 384.48 
L 463.617391 384.48 
L 463.617391 365.803308 
L 459.735652 365.803308 
z
" clip-path="url(#p470415c1d6)" style="fill: #377eb8; opacity: 0.6"/>
   </g>
   <g id="patch_72">
    <path d="M 469.44 384.48 
L 473.321739 384.48 
L 473.321739 375.141654 
L 469.44 375.141654 
z
" clip-path="url(#p470415c1d6)" style="fill: #377eb8; opacity: 0.6"/>
   </g>
   <g id="patch_73">
    <path d="M 479.144348 384.48 
L 483.026087 384.48 
L 483.026087 378.254436 
L 479.144348 378.254436 
z
" clip-path="url(#p470415c1d6)" style="fill: #377eb8; opacity: 0.6"/>
   </g>
   <g id="patch_74">
    <path d="M 488.848696 384.48 
L 492.730435 384.48 
L 492.730435 375.141654 
L 488.848696 375.141654 
z
" clip-path="url(#p470415c1d6)" style="fill: #377eb8; opacity: 0.6"/>
   </g>
   <g id="patch_75">
    <path d="M 498.553043 384.48 
L 502.434783 384.48 
L 502.434783 372.028872 
L 498.553043 372.028872 
z
" clip-path="url(#p470415c1d6)" style="fill: #377eb8; opacity: 0.6"/>
   </g>
   <g id="patch_76">
    <path d="M 508.257391 384.48 
L 512.13913 384.48 
L 512.13913 378.254436 
L 508.257391 378.254436 
z
" clip-path="url(#p470415c1d6)" style="fill: #377eb8; opacity: 0.6"/>
   </g>
   <g id="patch_77">
    <path d="M 517.961739 384.48 
L 521.843478 384.48 
L 521.843478 362.690526 
L 517.961739 362.690526 
z
" clip-path="url(#p470415c1d6)" style="fill: #377eb8; opacity: 0.6"/>
   </g>
   <g id="patch_78">
    <path d="M 527.666087 384.48 
L 531.547826 384.48 
L 531.547826 368.91609 
L 527.666087 368.91609 
z
" clip-path="url(#p470415c1d6)" style="fill: #377eb8; opacity: 0.6"/>
   </g>
   <g id="patch_79">
    <path d="M 537.370435 384.48 
L 541.252174 384.48 
L 541.252174 372.028872 
L 537.370435 372.028872 
z
" clip-path="url(#p470415c1d6)" style="fill: #377eb8; opacity: 0.6"/>
   </g>
   <g id="patch_80">
    <path d="M 547.074783 384.48 
L 550.956522 384.48 
L 550.956522 375.141654 
L 547.074783 375.141654 
z
" clip-path="url(#p470415c1d6)" style="fill: #377eb8; opacity: 0.6"/>
   </g>
   <g id="patch_81">
    <path d="M 556.77913 384.48 
L 560.66087 384.48 
L 560.66087 375.141654 
L 556.77913 375.141654 
z
" clip-path="url(#p470415c1d6)" style="fill: #377eb8; opacity: 0.6"/>
   </g>
   <g id="patch_82">
    <path d="M 566.483478 384.48 
L 570.365217 384.48 
L 570.365217 381.367218 
L 566.483478 381.367218 
z
" clip-path="url(#p470415c1d6)" style="fill: #377eb8; opacity: 0.6"/>
   </g>
   <g id="patch_83">
    <path d="M 576.187826 384.48 
L 580.069565 384.48 
L 580.069565 384.48 
L 576.187826 384.48 
z
" clip-path="url(#p470415c1d6)" style="fill: #377eb8; opacity: 0.6"/>
   </g>
   <g id="patch_84">
    <path d="M 585.892174 384.48 
L 589.773913 384.48 
L 589.773913 381.367218 
L 585.892174 381.367218 
z
" clip-path="url(#p470415c1d6)" style="fill: #377eb8; opacity: 0.6"/>
   </g>
   <g id="patch_85">
    <path d="M 595.596522 384.48 
L 599.478261 384.48 
L 599.478261 384.48 
L 595.596522 384.48 
z
" clip-path="url(#p470415c1d6)" style="fill: #377eb8; opacity: 0.6"/>
   </g>
   <g id="patch_86">
    <path d="M 605.30087 384.48 
L 609.182609 384.48 
L 609.182609 384.48 
L 605.30087 384.48 
z
" clip-path="url(#p470415c1d6)" style="fill: #377eb8; opacity: 0.6"/>
   </g>
   <g id="patch_87">
    <path d="M 615.005217 384.48 
L 618.886957 384.48 
L 618.886957 384.48 
L 615.005217 384.48 
z
" clip-path="url(#p470415c1d6)" style="fill: #377eb8; opacity: 0.6"/>
   </g>
   <g id="patch_88">
    <path d="M 94.852174 384.48 
L 98.733913 384.48 
L 98.733913 381.367218 
L 94.852174 381.367218 
z
" clip-path="url(#p470415c1d6)" style="fill: #e41a1c; opacity: 0.6"/>
   </g>
   <g id="patch_89">
    <path d="M 104.556522 384.48 
L 108.438261 384.48 
L 108.438261 368.91609 
L 104.556522 368.91609 
z
" clip-path="url(#p470415c1d6)" style="fill: #e41a1c; opacity: 0.6"/>
   </g>
   <g id="patch_90">
    <path d="M 114.26087 384.48 
L 118.142609 384.48 
L 118.142609 368.91609 
L 114.26087 368.91609 
z
" clip-path="url(#p470415c1d6)" style="fill: #e41a1c; opacity: 0.6"/>
   </g>
   <g id="patch_91">
    <path d="M 123.965217 384.48 
L 127.846957 384.48 
L 127.846957 350.239398 
L 123.965217 350.239398 
z
" clip-path="url(#p470415c1d6)" style="fill: #e41a1c; opacity: 0.6"/>
   </g>
   <g id="patch_92">
    <path d="M 133.669565 384.48 
L 137.551304 384.48 
L 137.551304 322.224361 
L 133.669565 322.224361 
z
" clip-path="url(#p470415c1d6)" style="fill: #e41a1c; opacity: 0.6"/>
   </g>
   <g id="patch_93">
    <path d="M 143.373913 384.48 
L 147.255652 384.48 
L 147.255652 325.337143 
L 143.373913 325.337143 
z
" clip-path="url(#p470415c1d6)" style="fill: #e41a1c; opacity: 0.6"/>
   </g>
   <g id="patch_94">
    <path d="M 153.078261 384.48 
L 156.96 384.48 
L 156.96 325.337143 
L 153.078261 325.337143 
z
" clip-path="url(#p470415c1d6)" style="fill: #e41a1c; opacity: 0.6"/>
   </g>
   <g id="patch_95">
    <path d="M 162.782609 384.48 
L 166.664348 384.48 
L 166.664348 340.901053 
L 162.782609 340.901053 
z
" clip-path="url(#p470415c1d6)" style="fill: #e41a1c; opacity: 0.6"/>
   </g>
   <g id="patch_96">
    <path d="M 172.486957 384.48 
L 176.368696 384.48 
L 176.368696 344.013835 
L 172.486957 344.013835 
z
" clip-path="url(#p470415c1d6)" style="fill: #e41a1c; opacity: 0.6"/>
   </g>
   <g id="patch_97">
    <path d="M 182.191304 384.48 
L 186.073043 384.48 
L 186.073043 337.788271 
L 182.191304 337.788271 
z
" clip-path="url(#p470415c1d6)" style="fill: #e41a1c; opacity: 0.6"/>
   </g>
   <g id="patch_98">
    <path d="M 191.895652 384.48 
L 195.777391 384.48 
L 195.777391 337.788271 
L 191.895652 337.788271 
z
" clip-path="url(#p470415c1d6)" style="fill: #e41a1c; opacity: 0.6"/>
   </g>
   <g id="patch_99">
    <path d="M 201.6 384.48 
L 205.481739 384.48 
L 205.481739 350.239398 
L 201.6 350.239398 
z
" clip-path="url(#p470415c1d6)" style="fill: #e41a1c; opacity: 0.6"/>
   </g>
   <g id="patch_100">
    <path d="M 211.304348 384.48 
L 215.186087 384.48 
L 215.186087 350.239398 
L 211.304348 350.239398 
z
" clip-path="url(#p470415c1d6)" style="fill: #e41a1c; opacity: 0.6"/>
   </g>
   <g id="patch_101">
    <path d="M 221.008696 384.48 
L 224.890435 384.48 
L 224.890435 356.464962 
L 221.008696 356.464962 
z
" clip-path="url(#p470415c1d6)" style="fill: #e41a1c; opacity: 0.6"/>
   </g>
   <g id="patch_102">
    <path d="M 230.713043 384.48 
L 234.594783 384.48 
L 234.594783 344.013835 
L 230.713043 344.013835 
z
" clip-path="url(#p470415c1d6)" style="fill: #e41a1c; opacity: 0.6"/>
   </g>
   <g id="patch_103">
    <path d="M 240.417391 384.48 
L 244.29913 384.48 
L 244.29913 350.239398 
L 240.417391 350.239398 
z
" clip-path="url(#p470415c1d6)" style="fill: #e41a1c; opacity: 0.6"/>
   </g>
   <g id="patch_104">
    <path d="M 250.121739 384.48 
L 254.003478 384.48 
L 254.003478 365.803308 
L 250.121739 365.803308 
z
" clip-path="url(#p470415c1d6)" style="fill: #e41a1c; opacity: 0.6"/>
   </g>
   <g id="patch_105">
    <path d="M 259.826087 384.48 
L 263.707826 384.48 
L 263.707826 365.803308 
L 259.826087 365.803308 
z
" clip-path="url(#p470415c1d6)" style="fill: #e41a1c; opacity: 0.6"/>
   </g>
   <g id="patch_106">
    <path d="M 269.530435 384.48 
L 273.412174 384.48 
L 273.412174 359.577744 
L 269.530435 359.577744 
z
" clip-path="url(#p470415c1d6)" style="fill: #e41a1c; opacity: 0.6"/>
   </g>
   <g id="patch_107">
    <path d="M 279.234783 384.48 
L 283.116522 384.48 
L 283.116522 372.028872 
L 279.234783 372.028872 
z
" clip-path="url(#p470415c1d6)" style="fill: #e41a1c; opacity: 0.6"/>
   </g>
   <g id="patch_108">
    <path d="M 288.93913 384.48 
L 292.82087 384.48 
L 292.82087 365.803308 
L 288.93913 365.803308 
z
" clip-path="url(#p470415c1d6)" style="fill: #e41a1c; opacity: 0.6"/>
   </g>
   <g id="patch_109">
    <path d="M 298.643478 384.48 
L 302.525217 384.48 
L 302.525217 365.803308 
L 298.643478 365.803308 
z
" clip-path="url(#p470415c1d6)" style="fill: #e41a1c; opacity: 0.6"/>
   </g>
   <g id="patch_110">
    <path d="M 308.347826 384.48 
L 312.229565 384.48 
L 312.229565 372.028872 
L 308.347826 372.028872 
z
" clip-path="url(#p470415c1d6)" style="fill: #e41a1c; opacity: 0.6"/>
   </g>
   <g id="patch_111">
    <path d="M 318.052174 384.48 
L 321.933913 384.48 
L 321.933913 359.577744 
L 318.052174 359.577744 
z
" clip-path="url(#p470415c1d6)" style="fill: #e41a1c; opacity: 0.6"/>
   </g>
   <g id="patch_112">
    <path d="M 327.756522 384.48 
L 331.638261 384.48 
L 331.638261 368.91609 
L 327.756522 368.91609 
z
" clip-path="url(#p470415c1d6)" style="fill: #e41a1c; opacity: 0.6"/>
   </g>
   <g id="patch_113">
    <path d="M 337.46087 384.48 
L 341.342609 384.48 
L 341.342609 368.91609 
L 337.46087 368.91609 
z
" clip-path="url(#p470415c1d6)" style="fill: #e41a1c; opacity: 0.6"/>
   </g>
   <g id="patch_114">
    <path d="M 347.165217 384.48 
L 351.046957 384.48 
L 351.046957 375.141654 
L 347.165217 375.141654 
z
" clip-path="url(#p470415c1d6)" style="fill: #e41a1c; opacity: 0.6"/>
   </g>
   <g id="patch_115">
    <path d="M 356.869565 384.48 
L 360.751304 384.48 
L 360.751304 372.028872 
L 356.869565 372.028872 
z
" clip-path="url(#p470415c1d6)" style="fill: #e41a1c; opacity: 0.6"/>
   </g>
   <g id="patch_116">
    <path d="M 366.573913 384.48 
L 370.455652 384.48 
L 370.455652 368.91609 
L 366.573913 368.91609 
z
" clip-path="url(#p470415c1d6)" style="fill: #e41a1c; opacity: 0.6"/>
   </g>
   <g id="patch_117">
    <path d="M 376.278261 384.48 
L 380.16 384.48 
L 380.16 375.141654 
L 376.278261 375.141654 
z
" clip-path="url(#p470415c1d6)" style="fill: #e41a1c; opacity: 0.6"/>
   </g>
   <g id="patch_118">
    <path d="M 385.982609 384.48 
L 389.864348 384.48 
L 389.864348 381.367218 
L 385.982609 381.367218 
z
" clip-path="url(#p470415c1d6)" style="fill: #e41a1c; opacity: 0.6"/>
   </g>
   <g id="patch_119">
    <path d="M 395.686957 384.48 
L 399.568696 384.48 
L 399.568696 375.141654 
L 395.686957 375.141654 
z
" clip-path="url(#p470415c1d6)" style="fill: #e41a1c; opacity: 0.6"/>
   </g>
   <g id="patch_120">
    <path d="M 405.391304 384.48 
L 409.273043 384.48 
L 409.273043 381.367218 
L 405.391304 381.367218 
z
" clip-path="url(#p470415c1d6)" style="fill: #e41a1c; opacity: 0.6"/>
   </g>
   <g id="patch_121">
    <path d="M 415.095652 384.48 
L 418.977391 384.48 
L 418.977391 381.367218 
L 415.095652 381.367218 
z
" clip-path="url(#p470415c1d6)" style="fill: #e41a1c; opacity: 0.6"/>
   </g>
   <g id="patch_122">
    <path d="M 424.8 384.48 
L 428.681739 384.48 
L 428.681739 368.91609 
L 424.8 368.91609 
z
" clip-path="url(#p470415c1d6)" style="fill: #e41a1c; opacity: 0.6"/>
   </g>
   <g id="patch_123">
    <path d="M 434.504348 384.48 
L 438.386087 384.48 
L 438.386087 378.254436 
L 434.504348 378.254436 
z
" clip-path="url(#p470415c1d6)" style="fill: #e41a1c; opacity: 0.6"/>
   </g>
   <g id="patch_124">
    <path d="M 444.208696 384.48 
L 448.090435 384.48 
L 448.090435 375.141654 
L 444.208696 375.141654 
z
" clip-path="url(#p470415c1d6)" style="fill: #e41a1c; opacity: 0.6"/>
   </g>
   <g id="patch_125">
    <path d="M 453.913043 384.48 
L 457.794783 384.48 
L 457.794783 384.48 
L 453.913043 384.48 
z
" clip-path="url(#p470415c1d6)" style="fill: #e41a1c; opacity: 0.6"/>
   </g>
   <g id="patch_126">
    <path d="M 463.617391 384.48 
L 467.49913 384.48 
L 467.49913 375.141654 
L 463.617391 375.141654 
z
" clip-path="url(#p470415c1d6)" style="fill: #e41a1c; opacity: 0.6"/>
   </g>
   <g id="patch_127">
    <path d="M 473.321739 384.48 
L 477.203478 384.48 
L 477.203478 378.254436 
L 473.321739 378.254436 
z
" clip-path="url(#p470415c1d6)" style="fill: #e41a1c; opacity: 0.6"/>
   </g>
   <g id="patch_128">
    <path d="M 483.026087 384.48 
L 486.907826 384.48 
L 486.907826 381.367218 
L 483.026087 381.367218 
z
" clip-path="url(#p470415c1d6)" style="fill: #e41a1c; opacity: 0.6"/>
   </g>
   <g id="patch_129">
    <path d="M 492.730435 384.48 
L 496.612174 384.48 
L 496.612174 375.141654 
L 492.730435 375.141654 
z
" clip-path="url(#p470415c1d6)" style="fill: #e41a1c; opacity: 0.6"/>
   </g>
   <g id="patch_130">
    <path d="M 502.434783 384.48 
L 506.316522 384.48 
L 506.316522 375.141654 
L 502.434783 375.141654 
z
" clip-path="url(#p470415c1d6)" style="fill: #e41a1c; opacity: 0.6"/>
   </g>
   <g id="patch_131">
    <path d="M 512.13913 384.48 
L 516.02087 384.48 
L 516.02087 384.48 
L 512.13913 384.48 
z
" clip-path="url(#p470415c1d6)" style="fill: #e41a1c; opacity: 0.6"/>
   </g>
   <g id="patch_132">
    <path d="M 521.843478 384.48 
L 525.725217 384.48 
L 525.725217 381.367218 
L 521.843478 381.367218 
z
" clip-path="url(#p470415c1d6)" style="fill: #e41a1c; opacity: 0.6"/>
   </g>
   <g id="patch_133">
    <path d="M 531.547826 384.48 
L 535.429565 384.48 
L 535.429565 384.48 
L 531.547826 384.48 
z
" clip-path="url(#p470415c1d6)" style="fill: #e41a1c; opacity: 0.6"/>
   </g>
   <g id="patch_134">
    <path d="M 541.252174 384.48 
L 545.133913 384.48 
L 545.133913 381.367218 
L 541.252174 381.367218 
z
" clip-path="url(#p470415c1d6)" style="fill: #e41a1c; opacity: 0.6"/>
   </g>
   <g id="patch_135">
    <path d="M 550.956522 384.48 
L 554.838261 384.48 
L 554.838261 378.254436 
L 550.956522 378.254436 
z
" clip-path="url(#p470415c1d6)" style="fill: #e41a1c; opacity: 0.6"/>
   </g>
   <g id="patch_136">
    <path d="M 560.66087 384.48 
L 564.542609 384.48 
L 564.542609 384.48 
L 560.66087 384.48 
z
" clip-path="url(#p470415c1d6)" style="fill: #e41a1c; opacity: 0.6"/>
   </g>
   <g id="patch_137">
    <path d="M 570.365217 384.48 
L 574.246957 384.48 
L 574.246957 378.254436 
L 570.365217 378.254436 
z
" clip-path="url(#p470415c1d6)" style="fill: #e41a1c; opacity: 0.6"/>
   </g>
   <g id="patch_138">
    <path d="M 580.069565 384.48 
L 583.951304 384.48 
L 583.951304 384.48 
L 580.069565 384.48 
z
" clip-path="url(#p470415c1d6)" style="fill: #e41a1c; opacity: 0.6"/>
   </g>
   <g id="patch_139">
    <path d="M 589.773913 384.48 
L 593.655652 384.48 
L 593.655652 384.48 
L 589.773913 384.48 
z
" clip-path="url(#p470415c1d6)" style="fill: #e41a1c; opacity: 0.6"/>
   </g>
   <g id="patch_140">
    <path d="M 599.478261 384.48 
L 603.36 384.48 
L 603.36 384.48 
L 599.478261 384.48 
z
" clip-path="url(#p470415c1d6)" style="fill: #e41a1c; opacity: 0.6"/>
   </g>
   <g id="patch_141">
    <path d="M 609.182609 384.48 
L 613.064348 384.48 
L 613.064348 384.48 
L 609.182609 384.48 
z
" clip-path="url(#p470415c1d6)" style="fill: #e41a1c; opacity: 0.6"/>
   </g>
   <g id="patch_142">
    <path d="M 618.886957 384.48 
L 622.768696 384.48 
L 622.768696 381.367218 
L 618.886957 381.367218 
z
" clip-path="url(#p470415c1d6)" style="fill: #e41a1c; opacity: 0.6"/>
   </g>
   <g id="patch_143">
    <path d="M 90 384.48 
L 90 260.28 
" style="fill: none; stroke: #cccccc; stroke-linejoin: miter; stroke-linecap: square"/>
   </g>
   <g id="patch_144">
    <path d="M 648 384.48 
L 648 260.28 
" style="fill: none; stroke: #cccccc; stroke-linejoin: miter; stroke-linecap: square"/>
   </g>
   <g id="patch_145">
    <path d="M 90 384.48 
L 648 384.48 
" style="fill: none; stroke: #cccccc; stroke-linejoin: miter; stroke-linecap: square"/>
   </g>
   <g id="patch_146">
    <path d="M 90 260.28 
L 648 260.28 
" style="fill: none; stroke: #cccccc; stroke-linejoin: miter; stroke-linecap: square"/>
   </g>
   <g id="text_82">
    <!-- Age count -->
    <g style="fill: #262626" transform="translate(341.98125 254.28) scale(0.12 -0.12)">
     <defs>
      <path id="LiberationSans-63" d="M 859 1706 
Q 859 1416 901 1172 
Q 944 928 1044 751 
Q 1144 575 1308 478 
Q 1472 381 1713 381 
Q 2013 381 2214 543 
Q 2416 706 2463 1044 
L 3031 1006 
Q 3003 797 2909 603 
Q 2816 409 2655 262 
Q 2494 116 2262 26 
Q 2031 -63 1728 -63 
Q 1331 -63 1053 71 
Q 775 206 601 442 
Q 428 678 350 998 
Q 272 1319 272 1694 
Q 272 2034 328 2295 
Q 384 2556 486 2751 
Q 588 2947 725 3080 
Q 863 3213 1023 3292 
Q 1184 3372 1362 3408 
Q 1541 3444 1722 3444 
Q 2006 3444 2228 3366 
Q 2450 3288 2611 3152 
Q 2772 3016 2872 2831 
Q 2972 2647 3013 2434 
L 2434 2391 
Q 2391 2672 2212 2837 
Q 2034 3003 1706 3003 
Q 1466 3003 1305 2923 
Q 1144 2844 1044 2683 
Q 944 2522 901 2278 
Q 859 2034 859 1706 
z
" transform="scale(0.015625)"/>
     </defs>
     <use xlink:href="#LiberationSans-41"/>
     <use xlink:href="#LiberationSans-67" x="66.699219"/>
     <use xlink:href="#LiberationSans-65" x="122.314453"/>
     <use xlink:href="#LiberationSans-20" x="177.929688"/>
     <use xlink:href="#LiberationSans-63" x="205.712891"/>
     <use xlink:href="#LiberationSans-6f" x="255.712891"/>
     <use xlink:href="#LiberationSans-75" x="311.328125"/>
     <use xlink:href="#LiberationSans-6e" x="366.943359"/>
     <use xlink:href="#LiberationSans-74" x="422.558594"/>
    </g>
   </g>
  </g>
 </g>
 <defs>
  <clipPath id="p5854c6724c">
   <rect x="90" y="86.4" width="558" height="124.2"/>
  </clipPath>
  <clipPath id="p470415c1d6">
   <rect x="90" y="260.28" width="558" height="124.2"/>
  </clipPath>
 </defs>
</svg>
