<?xml version="1.0" encoding="utf-8" standalone="no"?>
<!DOCTYPE svg PUBLIC "-//W3C//DTD SVG 1.1//EN"
  "http://www.w3.org/Graphics/SVG/1.1/DTD/svg11.dtd">
<svg xmlns:xlink="http://www.w3.org/1999/xlink" width="720pt" height="432pt" viewBox="0 0 720 432" xmlns="http://www.w3.org/2000/svg" version="1.1">
 <metadata>
  <rdf:RDF xmlns:dc="http://purl.org/dc/elements/1.1/" xmlns:cc="http://creativecommons.org/ns#" xmlns:rdf="http://www.w3.org/1999/02/22-rdf-syntax-ns#">
   <cc:Work>
    <dc:type rdf:resource="http://purl.org/dc/dcmitype/StillImage"/>
    <dc:date>2023-08-08T01:23:19.276848</dc:date>
    <dc:format>image/svg+xml</dc:format>
    <dc:creator>
     <cc:Agent>
      <dc:title>Matplotlib v3.6.2, https://matplotlib.org/</dc:title>
     </cc:Agent>
    </dc:creator>
   </cc:Work>
  </rdf:RDF>
 </metadata>
 <defs>
  <style type="text/css">*{stroke-linejoin: round; stroke-linecap: butt}</style>
 </defs>
 <g id="figure_1">
  <g id="patch_1">
   <path d="M 0 432 
L 720 432 
L 720 0 
L 0 0 
L 0 432 
z
" style="fill: none"/>
  </g>
  <g id="axes_1">
   <g id="patch_2">
    <path d="M 90 203.04 
L 648 203.04 
L 648 51.84 
L 90 51.84 
L 90 203.04 
z
" style="fill: none"/>
   </g>
   <g id="matplotlib.axis_1">
    <g id="xtick_1">
     <g id="line2d_1">
      <path d="M 115.363636 203.04 
L 115.363636 51.84 
" clip-path="url(#pad2fd064aa)" style="fill: none; stroke: #cccccc; stroke-width: 0.8; stroke-linecap: round"/>
     </g>
     <g id="line2d_2"/>
    </g>
    <g id="xtick_2">
     <g id="line2d_3">
      <path d="M 183.914005 203.04 
L 183.914005 51.84 
" clip-path="url(#pad2fd064aa)" style="fill: none; stroke: #cccccc; stroke-width: 0.8; stroke-linecap: round"/>
     </g>
     <g id="line2d_4"/>
    </g>
    <g id="xtick_3">
     <g id="line2d_5">
      <path d="M 252.464373 203.04 
L 252.464373 51.84 
" clip-path="url(#pad2fd064aa)" style="fill: none; stroke: #cccccc; stroke-width: 0.8; stroke-linecap: round"/>
     </g>
     <g id="line2d_6"/>
    </g>
    <g id="xtick_4">
     <g id="line2d_7">
      <path d="M 321.014742 203.04 
L 321.014742 51.84 
" clip-path="url(#pad2fd064aa)" style="fill: none; stroke: #cccccc; stroke-width: 0.8; stroke-linecap: round"/>
     </g>
     <g id="line2d_8"/>
    </g>
    <g id="xtick_5">
     <g id="line2d_9">
      <path d="M 389.565111 203.04 
L 389.565111 51.84 
" clip-path="url(#pad2fd064aa)" style="fill: none; stroke: #cccccc; stroke-width: 0.8; stroke-linecap: round"/>
     </g>
     <g id="line2d_10"/>
    </g>
    <g id="xtick_6">
     <g id="line2d_11">
      <path d="M 458.115479 203.04 
L 458.115479 51.84 
" clip-path="url(#pad2fd064aa)" style="fill: none; stroke: #cccccc; stroke-width: 0.8; stroke-linecap: round"/>
     </g>
     <g id="line2d_12"/>
    </g>
    <g id="xtick_7">
     <g id="line2d_13">
      <path d="M 526.665848 203.04 
L 526.665848 51.84 
" clip-path="url(#pad2fd064aa)" style="fill: none; stroke: #cccccc; stroke-width: 0.8; stroke-linecap: round"/>
     </g>
     <g id="line2d_14"/>
    </g>
    <g id="xtick_8">
     <g id="line2d_15">
      <path d="M 595.216216 203.04 
L 595.216216 51.84 
" clip-path="url(#pad2fd064aa)" style="fill: none; stroke: #cccccc; stroke-width: 0.8; stroke-linecap: round"/>
     </g>
     <g id="line2d_16"/>
    </g>
   </g>
   <g id="matplotlib.axis_2">
    <g id="ytick_1">
     <g id="line2d_17">
      <path d="M 90 203.04 
L 648 203.04 
" clip-path="url(#pad2fd064aa)" style="fill: none; stroke: #cccccc; stroke-width: 0.8; stroke-linecap: round"/>
     </g>
     <g id="line2d_18"/>
     <g id="text_1">
      <!-- 0.00 -->
      <g style="fill: #262626" transform="translate(67.039062 206.663437) scale(0.1 -0.1)">
       <defs>
        <path id="LiberationSans-30" d="M 3309 2203 
Q 3309 1569 3189 1136 
Q 3069 703 2861 436 
Q 2653 169 2372 53 
Q 2091 -63 1772 -63 
Q 1450 -63 1172 53 
Q 894 169 689 434 
Q 484 700 367 1133 
Q 250 1566 250 2203 
Q 250 2869 367 3305 
Q 484 3741 690 4000 
Q 897 4259 1178 4364 
Q 1459 4469 1791 4469 
Q 2106 4469 2382 4364 
Q 2659 4259 2865 4000 
Q 3072 3741 3190 3305 
Q 3309 2869 3309 2203 
z
M 2738 2203 
Q 2738 2728 2675 3076 
Q 2613 3425 2491 3633 
Q 2369 3841 2192 3927 
Q 2016 4013 1791 4013 
Q 1553 4013 1372 3925 
Q 1191 3838 1067 3630 
Q 944 3422 881 3073 
Q 819 2725 819 2203 
Q 819 1697 883 1350 
Q 947 1003 1070 792 
Q 1194 581 1372 489 
Q 1550 397 1778 397 
Q 2000 397 2178 489 
Q 2356 581 2479 792 
Q 2603 1003 2670 1350 
Q 2738 1697 2738 2203 
z
" transform="scale(0.015625)"/>
        <path id="LiberationSans-2e" d="M 584 0 
L 584 684 
L 1194 684 
L 1194 0 
L 584 0 
z
" transform="scale(0.015625)"/>
       </defs>
       <use xlink:href="#LiberationSans-30"/>
       <use xlink:href="#LiberationSans-2e" x="55.615234"/>
       <use xlink:href="#LiberationSans-30" x="83.398438"/>
       <use xlink:href="#LiberationSans-30" x="139.013672"/>
      </g>
     </g>
    </g>
    <g id="ytick_2">
     <g id="line2d_19">
      <path d="M 90 162.424615 
L 648 162.424615 
" clip-path="url(#pad2fd064aa)" style="fill: none; stroke: #cccccc; stroke-width: 0.8; stroke-linecap: round"/>
     </g>
     <g id="line2d_20"/>
     <g id="text_2">
      <!-- 0.02 -->
      <g style="fill: #262626" transform="translate(67.039062 166.048053) scale(0.1 -0.1)">
       <defs>
        <path id="LiberationSans-32" d="M 322 0 
L 322 397 
Q 481 763 711 1042 
Q 941 1322 1194 1548 
Q 1447 1775 1695 1969 
Q 1944 2163 2144 2356 
Q 2344 2550 2467 2762 
Q 2591 2975 2591 3244 
Q 2591 3431 2534 3573 
Q 2478 3716 2372 3812 
Q 2266 3909 2117 3957 
Q 1969 4006 1788 4006 
Q 1619 4006 1470 3959 
Q 1322 3913 1206 3819 
Q 1091 3725 1017 3586 
Q 944 3447 922 3263 
L 347 3316 
Q 375 3553 478 3762 
Q 581 3972 762 4130 
Q 944 4288 1198 4378 
Q 1453 4469 1788 4469 
Q 2116 4469 2372 4391 
Q 2628 4313 2804 4159 
Q 2981 4006 3075 3781 
Q 3169 3556 3169 3263 
Q 3169 3041 3089 2841 
Q 3009 2641 2876 2459 
Q 2744 2278 2569 2109 
Q 2394 1941 2203 1780 
Q 2013 1619 1819 1461 
Q 1625 1303 1454 1143 
Q 1284 984 1150 820 
Q 1016 656 941 478 
L 3238 478 
L 3238 0 
L 322 0 
z
" transform="scale(0.015625)"/>
       </defs>
       <use xlink:href="#LiberationSans-30"/>
       <use xlink:href="#LiberationSans-2e" x="55.615234"/>
       <use xlink:href="#LiberationSans-30" x="83.398438"/>
       <use xlink:href="#LiberationSans-32" x="139.013672"/>
      </g>
     </g>
    </g>
    <g id="ytick_3">
     <g id="line2d_21">
      <path d="M 90 121.809231 
L 648 121.809231 
" clip-path="url(#pad2fd064aa)" style="fill: none; stroke: #cccccc; stroke-width: 0.8; stroke-linecap: round"/>
     </g>
     <g id="line2d_22"/>
     <g id="text_3">
      <!-- 0.04 -->
      <g style="fill: #262626" transform="translate(67.039062 125.432668) scale(0.1 -0.1)">
       <defs>
        <path id="LiberationSans-34" d="M 2753 997 
L 2753 0 
L 2222 0 
L 2222 997 
L 147 997 
L 147 1434 
L 2163 4403 
L 2753 4403 
L 2753 1441 
L 3372 1441 
L 3372 997 
L 2753 997 
z
M 2222 3769 
Q 2216 3753 2191 3708 
Q 2166 3663 2134 3606 
Q 2103 3550 2070 3492 
Q 2038 3434 2013 3397 
L 884 1734 
Q 869 1709 839 1668 
Q 809 1628 778 1586 
Q 747 1544 715 1503 
Q 684 1463 666 1441 
L 2222 1441 
L 2222 3769 
z
" transform="scale(0.015625)"/>
       </defs>
       <use xlink:href="#LiberationSans-30"/>
       <use xlink:href="#LiberationSans-2e" x="55.615234"/>
       <use xlink:href="#LiberationSans-30" x="83.398438"/>
       <use xlink:href="#LiberationSans-34" x="139.013672"/>
      </g>
     </g>
    </g>
    <g id="ytick_4">
     <g id="line2d_23">
      <path d="M 90 81.193846 
L 648 81.193846 
" clip-path="url(#pad2fd064aa)" style="fill: none; stroke: #cccccc; stroke-width: 0.8; stroke-linecap: round"/>
     </g>
     <g id="line2d_24"/>
     <g id="text_4">
      <!-- 0.06 -->
      <g style="fill: #262626" transform="translate(67.039062 84.817284) scale(0.1 -0.1)">
       <defs>
        <path id="LiberationSans-36" d="M 3278 1441 
Q 3278 1109 3186 832 
Q 3094 556 2914 357 
Q 2734 159 2468 48 
Q 2203 -63 1856 -63 
Q 1472 -63 1184 84 
Q 897 231 706 507 
Q 516 784 420 1186 
Q 325 1588 325 2100 
Q 325 2688 433 3131 
Q 541 3575 744 3872 
Q 947 4169 1239 4319 
Q 1531 4469 1900 4469 
Q 2125 4469 2322 4422 
Q 2519 4375 2680 4270 
Q 2841 4166 2962 3994 
Q 3084 3822 3156 3572 
L 2619 3475 
Q 2531 3759 2339 3886 
Q 2147 4013 1894 4013 
Q 1663 4013 1475 3903 
Q 1288 3794 1156 3576 
Q 1025 3359 954 3031 
Q 884 2703 884 2266 
Q 1038 2550 1316 2698 
Q 1594 2847 1953 2847 
Q 2253 2847 2497 2750 
Q 2741 2653 2914 2470 
Q 3088 2288 3183 2027 
Q 3278 1766 3278 1441 
z
M 2706 1416 
Q 2706 1644 2650 1828 
Q 2594 2013 2481 2142 
Q 2369 2272 2203 2342 
Q 2038 2413 1819 2413 
Q 1666 2413 1509 2367 
Q 1353 2322 1226 2220 
Q 1100 2119 1020 1953 
Q 941 1788 941 1550 
Q 941 1306 1003 1095 
Q 1066 884 1183 728 
Q 1300 572 1465 481 
Q 1631 391 1838 391 
Q 2041 391 2202 461 
Q 2363 531 2475 664 
Q 2588 797 2647 987 
Q 2706 1178 2706 1416 
z
" transform="scale(0.015625)"/>
       </defs>
       <use xlink:href="#LiberationSans-30"/>
       <use xlink:href="#LiberationSans-2e" x="55.615234"/>
       <use xlink:href="#LiberationSans-30" x="83.398438"/>
       <use xlink:href="#LiberationSans-36" x="139.013672"/>
      </g>
     </g>
    </g>
    <g id="text_5">
     <!-- Density -->
     <g style="fill: #262626" transform="translate(60.964062 144.111875) rotate(-90) scale(0.1 -0.1)">
      <defs>
       <path id="LiberationSans-44" d="M 4316 2247 
Q 4316 1697 4150 1276 
Q 3984 856 3696 573 
Q 3409 291 3017 145 
Q 2625 0 2172 0 
L 525 0 
L 525 4403 
L 1981 4403 
Q 2491 4403 2920 4276 
Q 3350 4150 3659 3886 
Q 3969 3622 4142 3215 
Q 4316 2809 4316 2247 
z
M 3716 2247 
Q 3716 2694 3587 3011 
Q 3459 3328 3228 3531 
Q 2997 3734 2675 3829 
Q 2353 3925 1969 3925 
L 1122 3925 
L 1122 478 
L 2103 478 
Q 2450 478 2745 590 
Q 3041 703 3256 925 
Q 3472 1147 3594 1478 
Q 3716 1809 3716 2247 
z
" transform="scale(0.015625)"/>
       <path id="LiberationSans-65" d="M 863 1572 
Q 863 1306 917 1082 
Q 972 859 1086 698 
Q 1200 538 1378 448 
Q 1556 359 1806 359 
Q 2172 359 2392 506 
Q 2613 653 2691 878 
L 3184 738 
Q 3131 597 3036 455 
Q 2941 313 2781 198 
Q 2622 84 2383 10 
Q 2144 -63 1806 -63 
Q 1056 -63 664 384 
Q 272 831 272 1713 
Q 272 2188 390 2517 
Q 509 2847 715 3053 
Q 922 3259 1197 3351 
Q 1472 3444 1784 3444 
Q 2209 3444 2495 3306 
Q 2781 3169 2954 2926 
Q 3128 2684 3201 2356 
Q 3275 2028 3275 1647 
L 3275 1572 
L 863 1572 
z
M 2694 2003 
Q 2647 2538 2422 2783 
Q 2197 3028 1775 3028 
Q 1634 3028 1479 2983 
Q 1325 2938 1194 2822 
Q 1063 2706 972 2507 
Q 881 2309 869 2003 
L 2694 2003 
z
" transform="scale(0.015625)"/>
       <path id="LiberationSans-6e" d="M 2578 0 
L 2578 2144 
Q 2578 2391 2542 2556 
Q 2506 2722 2425 2823 
Q 2344 2925 2211 2967 
Q 2078 3009 1881 3009 
Q 1681 3009 1520 2939 
Q 1359 2869 1245 2736 
Q 1131 2603 1068 2408 
Q 1006 2213 1006 1959 
L 1006 0 
L 444 0 
L 444 2659 
Q 444 2766 442 2883 
Q 441 3000 437 3104 
Q 434 3209 431 3284 
Q 428 3359 425 3381 
L 956 3381 
Q 959 3366 962 3297 
Q 966 3228 970 3139 
Q 975 3050 978 2958 
Q 981 2866 981 2803 
L 991 2803 
Q 1072 2950 1169 3069 
Q 1266 3188 1394 3270 
Q 1522 3353 1687 3398 
Q 1853 3444 2072 3444 
Q 2353 3444 2556 3375 
Q 2759 3306 2890 3162 
Q 3022 3019 3083 2792 
Q 3144 2566 3144 2253 
L 3144 0 
L 2578 0 
z
" transform="scale(0.015625)"/>
       <path id="LiberationSans-73" d="M 2969 934 
Q 2969 697 2876 511 
Q 2784 325 2609 198 
Q 2434 72 2179 4 
Q 1925 -63 1597 -63 
Q 1303 -63 1067 -17 
Q 831 28 653 128 
Q 475 228 354 392 
Q 234 556 178 794 
L 675 891 
Q 747 619 972 492 
Q 1197 366 1597 366 
Q 1778 366 1929 391 
Q 2081 416 2190 477 
Q 2300 538 2361 639 
Q 2422 741 2422 891 
Q 2422 1044 2350 1142 
Q 2278 1241 2150 1306 
Q 2022 1372 1839 1420 
Q 1656 1469 1438 1528 
Q 1234 1581 1034 1647 
Q 834 1713 673 1820 
Q 513 1928 413 2087 
Q 313 2247 313 2488 
Q 313 2950 642 3192 
Q 972 3434 1603 3434 
Q 2163 3434 2492 3237 
Q 2822 3041 2909 2606 
L 2403 2544 
Q 2375 2675 2300 2764 
Q 2225 2853 2119 2908 
Q 2013 2963 1880 2986 
Q 1747 3009 1603 3009 
Q 1222 3009 1040 2893 
Q 859 2778 859 2544 
Q 859 2406 926 2317 
Q 994 2228 1114 2167 
Q 1234 2106 1403 2061 
Q 1572 2016 1775 1966 
Q 1909 1931 2050 1892 
Q 2191 1853 2323 1798 
Q 2456 1744 2573 1670 
Q 2691 1597 2778 1494 
Q 2866 1391 2917 1253 
Q 2969 1116 2969 934 
z
" transform="scale(0.015625)"/>
       <path id="LiberationSans-69" d="M 428 4100 
L 428 4638 
L 991 4638 
L 991 4100 
L 428 4100 
z
M 428 0 
L 428 3381 
L 991 3381 
L 991 0 
L 428 0 
z
" transform="scale(0.015625)"/>
       <path id="LiberationSans-74" d="M 1731 25 
Q 1603 -9 1470 -29 
Q 1338 -50 1163 -50 
Q 488 -50 488 716 
L 488 2972 
L 97 2972 
L 97 3381 
L 509 3381 
L 675 4138 
L 1050 4138 
L 1050 3381 
L 1675 3381 
L 1675 2972 
L 1050 2972 
L 1050 838 
Q 1050 594 1129 495 
Q 1209 397 1406 397 
Q 1488 397 1564 409 
Q 1641 422 1731 441 
L 1731 25 
z
" transform="scale(0.015625)"/>
       <path id="LiberationSans-79" d="M 1888 0 
Q 1769 -306 1645 -551 
Q 1522 -797 1369 -970 
Q 1216 -1144 1028 -1236 
Q 841 -1328 597 -1328 
Q 491 -1328 400 -1322 
Q 309 -1316 209 -1294 
L 209 -872 
Q 269 -881 344 -886 
Q 419 -891 472 -891 
Q 719 -891 931 -706 
Q 1144 -522 1303 -119 
L 1356 16 
L 16 3381 
L 616 3381 
L 1328 1513 
Q 1359 1428 1407 1287 
Q 1456 1147 1504 1006 
Q 1553 866 1590 753 
Q 1628 641 1634 613 
Q 1644 647 1680 748 
Q 1716 850 1761 975 
Q 1806 1100 1853 1228 
Q 1900 1356 1931 1450 
L 2594 3381 
L 3188 3381 
L 1888 0 
z
" transform="scale(0.015625)"/>
      </defs>
      <use xlink:href="#LiberationSans-44"/>
      <use xlink:href="#LiberationSans-65" x="72.216797"/>
      <use xlink:href="#LiberationSans-6e" x="127.832031"/>
      <use xlink:href="#LiberationSans-73" x="183.447266"/>
      <use xlink:href="#LiberationSans-69" x="233.447266"/>
      <use xlink:href="#LiberationSans-74" x="255.664062"/>
      <use xlink:href="#LiberationSans-79" x="283.447266"/>
     </g>
    </g>
   </g>
   <g id="patch_3">
    <path d="M 177.058968 203.04 
L 189.626536 203.04 
L 189.626536 180.886154 
L 177.058968 180.886154 
z
" clip-path="url(#pad2fd064aa)" style="fill: #e41a1c; opacity: 0.5; stroke: #ffffff; stroke-linejoin: miter"/>
   </g>
   <g id="patch_4">
    <path d="M 189.626536 203.04 
L 202.194103 203.04 
L 202.194103 143.963077 
L 189.626536 143.963077 
z
" clip-path="url(#pad2fd064aa)" style="fill: #e41a1c; opacity: 0.5; stroke: #ffffff; stroke-linejoin: miter"/>
   </g>
   <g id="patch_5">
    <path d="M 202.194103 203.04 
L 214.761671 203.04 
L 214.761671 59.04 
L 202.194103 59.04 
z
" clip-path="url(#pad2fd064aa)" style="fill: #e41a1c; opacity: 0.5; stroke: #ffffff; stroke-linejoin: miter"/>
   </g>
   <g id="patch_6">
    <path d="M 214.761671 203.04 
L 227.329238 203.04 
L 227.329238 81.193846 
L 214.761671 81.193846 
z
" clip-path="url(#pad2fd064aa)" style="fill: #e41a1c; opacity: 0.5; stroke: #ffffff; stroke-linejoin: miter"/>
   </g>
   <g id="patch_7">
    <path d="M 227.329238 203.04 
L 239.896806 203.04 
L 239.896806 99.655385 
L 227.329238 99.655385 
z
" clip-path="url(#pad2fd064aa)" style="fill: #e41a1c; opacity: 0.5; stroke: #ffffff; stroke-linejoin: miter"/>
   </g>
   <g id="patch_8">
    <path d="M 239.896806 203.04 
L 252.464373 203.04 
L 252.464373 147.655385 
L 239.896806 147.655385 
z
" clip-path="url(#pad2fd064aa)" style="fill: #e41a1c; opacity: 0.5; stroke: #ffffff; stroke-linejoin: miter"/>
   </g>
   <g id="patch_9">
    <path d="M 252.464373 203.04 
L 265.031941 203.04 
L 265.031941 121.809231 
L 252.464373 121.809231 
z
" clip-path="url(#pad2fd064aa)" style="fill: #e41a1c; opacity: 0.5; stroke: #ffffff; stroke-linejoin: miter"/>
   </g>
   <g id="patch_10">
    <path d="M 265.031941 203.04 
L 277.599509 203.04 
L 277.599509 121.809231 
L 265.031941 121.809231 
z
" clip-path="url(#pad2fd064aa)" style="fill: #e41a1c; opacity: 0.5; stroke: #ffffff; stroke-linejoin: miter"/>
   </g>
   <g id="patch_11">
    <path d="M 277.599509 203.04 
L 290.167076 203.04 
L 290.167076 140.270769 
L 277.599509 140.270769 
z
" clip-path="url(#pad2fd064aa)" style="fill: #e41a1c; opacity: 0.5; stroke: #ffffff; stroke-linejoin: miter"/>
   </g>
   <g id="patch_12">
    <path d="M 290.167076 203.04 
L 302.734644 203.04 
L 302.734644 151.347692 
L 290.167076 151.347692 
z
" clip-path="url(#pad2fd064aa)" style="fill: #e41a1c; opacity: 0.5; stroke: #ffffff; stroke-linejoin: miter"/>
   </g>
   <g id="patch_13">
    <path d="M 302.734644 203.04 
L 315.302211 203.04 
L 315.302211 166.116923 
L 302.734644 166.116923 
z
" clip-path="url(#pad2fd064aa)" style="fill: #e41a1c; opacity: 0.5; stroke: #ffffff; stroke-linejoin: miter"/>
   </g>
   <g id="patch_14">
    <path d="M 315.302211 203.04 
L 327.869779 203.04 
L 327.869779 180.886154 
L 315.302211 180.886154 
z
" clip-path="url(#pad2fd064aa)" style="fill: #e41a1c; opacity: 0.5; stroke: #ffffff; stroke-linejoin: miter"/>
   </g>
   <g id="patch_15">
    <path d="M 327.869779 203.04 
L 340.437346 203.04 
L 340.437346 158.732308 
L 327.869779 158.732308 
z
" clip-path="url(#pad2fd064aa)" style="fill: #e41a1c; opacity: 0.5; stroke: #ffffff; stroke-linejoin: miter"/>
   </g>
   <g id="patch_16">
    <path d="M 340.437346 203.04 
L 353.004914 203.04 
L 353.004914 166.116923 
L 340.437346 166.116923 
z
" clip-path="url(#pad2fd064aa)" style="fill: #e41a1c; opacity: 0.5; stroke: #ffffff; stroke-linejoin: miter"/>
   </g>
   <g id="patch_17">
    <path d="M 353.004914 203.04 
L 365.572482 203.04 
L 365.572482 177.193846 
L 353.004914 177.193846 
z
" clip-path="url(#pad2fd064aa)" style="fill: #e41a1c; opacity: 0.5; stroke: #ffffff; stroke-linejoin: miter"/>
   </g>
   <g id="patch_18">
    <path d="M 365.572482 203.04 
L 378.140049 203.04 
L 378.140049 173.501538 
L 365.572482 173.501538 
z
" clip-path="url(#pad2fd064aa)" style="fill: #e41a1c; opacity: 0.5; stroke: #ffffff; stroke-linejoin: miter"/>
   </g>
   <g id="patch_19">
    <path d="M 378.140049 203.04 
L 390.707617 203.04 
L 390.707617 188.270769 
L 378.140049 188.270769 
z
" clip-path="url(#pad2fd064aa)" style="fill: #e41a1c; opacity: 0.5; stroke: #ffffff; stroke-linejoin: miter"/>
   </g>
   <g id="patch_20">
    <path d="M 390.707617 203.04 
L 403.275184 203.04 
L 403.275184 199.347692 
L 390.707617 199.347692 
z
" clip-path="url(#pad2fd064aa)" style="fill: #e41a1c; opacity: 0.5; stroke: #ffffff; stroke-linejoin: miter"/>
   </g>
   <g id="patch_21">
    <path d="M 403.275184 203.04 
L 415.842752 203.04 
L 415.842752 180.886154 
L 403.275184 180.886154 
z
" clip-path="url(#pad2fd064aa)" style="fill: #e41a1c; opacity: 0.5; stroke: #ffffff; stroke-linejoin: miter"/>
   </g>
   <g id="patch_22">
    <path d="M 415.842752 203.04 
L 428.410319 203.04 
L 428.410319 184.578462 
L 415.842752 184.578462 
z
" clip-path="url(#pad2fd064aa)" style="fill: #e41a1c; opacity: 0.5; stroke: #ffffff; stroke-linejoin: miter"/>
   </g>
   <g id="patch_23">
    <path d="M 428.410319 203.04 
L 440.977887 203.04 
L 440.977887 191.963077 
L 428.410319 191.963077 
z
" clip-path="url(#pad2fd064aa)" style="fill: #e41a1c; opacity: 0.5; stroke: #ffffff; stroke-linejoin: miter"/>
   </g>
   <g id="patch_24">
    <path d="M 440.977887 203.04 
L 453.545455 203.04 
L 453.545455 191.963077 
L 440.977887 191.963077 
z
" clip-path="url(#pad2fd064aa)" style="fill: #e41a1c; opacity: 0.5; stroke: #ffffff; stroke-linejoin: miter"/>
   </g>
   <g id="patch_25">
    <path d="M 453.545455 203.04 
L 466.113022 203.04 
L 466.113022 180.886154 
L 453.545455 180.886154 
z
" clip-path="url(#pad2fd064aa)" style="fill: #e41a1c; opacity: 0.5; stroke: #ffffff; stroke-linejoin: miter"/>
   </g>
   <g id="patch_26">
    <path d="M 466.113022 203.04 
L 478.68059 203.04 
L 478.68059 203.04 
L 466.113022 203.04 
z
" clip-path="url(#pad2fd064aa)" style="fill: #e41a1c; opacity: 0.5; stroke: #ffffff; stroke-linejoin: miter"/>
   </g>
   <g id="patch_27">
    <path d="M 478.68059 203.04 
L 491.248157 203.04 
L 491.248157 199.347692 
L 478.68059 199.347692 
z
" clip-path="url(#pad2fd064aa)" style="fill: #e41a1c; opacity: 0.5; stroke: #ffffff; stroke-linejoin: miter"/>
   </g>
   <g id="patch_28">
    <path d="M 491.248157 203.04 
L 503.815725 203.04 
L 503.815725 191.963077 
L 491.248157 191.963077 
z
" clip-path="url(#pad2fd064aa)" style="fill: #e41a1c; opacity: 0.5; stroke: #ffffff; stroke-linejoin: miter"/>
   </g>
   <g id="patch_29">
    <path d="M 503.815725 203.04 
L 516.383292 203.04 
L 516.383292 195.655385 
L 503.815725 195.655385 
z
" clip-path="url(#pad2fd064aa)" style="fill: #e41a1c; opacity: 0.5; stroke: #ffffff; stroke-linejoin: miter"/>
   </g>
   <g id="patch_30">
    <path d="M 516.383292 203.04 
L 528.95086 203.04 
L 528.95086 203.04 
L 516.383292 203.04 
z
" clip-path="url(#pad2fd064aa)" style="fill: #e41a1c; opacity: 0.5; stroke: #ffffff; stroke-linejoin: miter"/>
   </g>
   <g id="patch_31">
    <path d="M 528.95086 203.04 
L 541.518428 203.04 
L 541.518428 203.04 
L 528.95086 203.04 
z
" clip-path="url(#pad2fd064aa)" style="fill: #e41a1c; opacity: 0.5; stroke: #ffffff; stroke-linejoin: miter"/>
   </g>
   <g id="patch_32">
    <path d="M 541.518428 203.04 
L 554.085995 203.04 
L 554.085995 199.347692 
L 541.518428 199.347692 
z
" clip-path="url(#pad2fd064aa)" style="fill: #e41a1c; opacity: 0.5; stroke: #ffffff; stroke-linejoin: miter"/>
   </g>
   <g id="line2d_25">
    <path d="M 115.363636 203.04 
L 122.218673 203.04 
L 129.07371 203.04 
L 135.928747 203.033147 
L 142.783784 202.820485 
L 149.638821 201.805988 
L 156.493857 199.316956 
L 163.348894 194.910383 
L 170.203931 188.485129 
L 177.058968 180.260287 
L 183.914005 170.687918 
L 190.769042 160.347939 
L 197.624079 149.852578 
L 204.479115 139.772907 
L 211.334152 130.590488 
L 218.189189 122.671941 
L 225.044226 116.261841 
L 231.899263 111.488774 
L 238.7543 108.379733 
L 245.609337 106.878884 
L 252.464373 106.867697 
L 259.31941 108.184342 
L 266.174447 110.64105 
L 273.029484 114.038743 
L 279.884521 118.17869 
L 286.739558 122.871269 
L 293.594595 127.942085 
L 300.449631 133.235821 
L 307.304668 138.618227 
L 314.159705 143.976642 
L 321.014742 149.219435 
L 327.869779 154.274676 
L 334.724816 159.088318 
L 341.579853 163.622103 
L 348.434889 167.851368 
L 355.289926 171.762867 
L 362.144963 175.352705 
L 369 178.624446 
L 375.855037 181.587409 
L 382.710074 184.255188 
L 389.565111 186.644386 
L 396.420147 188.773553 
L 403.275184 190.662322 
L 410.130221 192.330712 
L 416.985258 193.798586 
L 423.840295 195.085246 
L 430.695332 196.20913 
L 437.550369 197.187611 
L 444.405405 198.036866 
L 451.260442 198.771809 
L 458.115479 199.406069 
L 464.970516 199.952004 
L 471.825553 200.420745 
L 478.68059 200.822254 
L 485.535627 201.1654 
L 492.390663 201.458037 
L 499.2457 201.707088 
L 506.100737 201.918628 
L 512.955774 202.097971 
L 519.810811 202.249743 
L 526.665848 202.377962 
L 533.520885 202.486105 
L 540.375921 202.577169 
L 547.230958 202.653735 
L 554.085995 202.718016 
L 560.941032 202.771907 
L 567.796069 202.817026 
L 574.651106 202.854751 
L 581.506143 202.886254 
L 588.361179 202.912528 
L 595.216216 202.934416 
L 602.071253 202.952629 
L 608.92629 202.967767 
L 615.781327 202.980336 
L 622.636364 202.990761 
" clip-path="url(#pad2fd064aa)" style="fill: none; stroke: #33a02c; stroke-width: 1.5; stroke-linecap: round"/>
   </g>
   <g id="line2d_26">
    <path d="M 115.363636 203.04 
L 122.218673 203.04 
L 129.07371 203.04 
L 135.928747 203.04 
L 142.783784 203.04 
L 149.638821 203.04 
L 156.493857 203.04 
L 163.348894 203.04 
L 170.203931 203.04 
L 177.058968 195.837947 
L 183.914005 165.21276 
L 190.769042 140.263189 
L 197.624079 122.368689 
L 204.479115 110.560904 
L 211.334152 103.611444 
L 218.189189 100.399759 
L 225.044226 99.989448 
L 231.899263 101.627051 
L 238.7543 104.719025 
L 245.609337 108.804558 
L 252.464373 113.530159 
L 259.31941 118.627782 
L 266.174447 123.896713 
L 273.029484 129.188886 
L 279.884521 134.39713 
L 286.739558 139.445837 
L 293.594595 144.283603 
L 300.449631 148.877444 
L 307.304668 153.208274 
L 314.159705 157.267375 
L 321.014742 161.053662 
L 327.869779 164.571566 
L 334.724816 167.829403 
L 341.579853 170.838125 
L 348.434889 173.610376 
L 355.289926 176.159772 
L 362.144963 178.500371 
L 369 180.646278 
L 375.855037 182.611365 
L 382.710074 184.409068 
L 389.565111 186.05225 
L 396.420147 187.553121 
L 403.275184 188.923181 
L 410.130221 190.173203 
L 416.985258 191.313226 
L 423.840295 192.352573 
L 430.695332 193.299867 
L 437.550369 194.16307 
L 444.405405 194.949506 
L 451.260442 195.665908 
L 458.115479 196.318451 
L 464.970516 196.912789 
L 471.825553 197.454095 
L 478.68059 197.947097 
L 485.535627 198.39611 
L 492.390663 198.805073 
L 499.2457 199.177576 
L 506.100737 199.51689 
L 512.955774 199.825997 
L 519.810811 200.107609 
L 526.665848 200.364197 
L 533.520885 200.59801 
L 540.375921 200.811092 
L 547.230958 201.005304 
L 554.085995 201.18234 
L 560.941032 201.343738 
L 567.796069 201.490901 
L 574.651106 201.6251 
L 581.506143 201.747495 
L 588.361179 201.85914 
L 595.216216 201.960992 
L 602.071253 202.053925 
L 608.92629 202.138731 
L 615.781327 202.216132 
L 622.636364 202.286784 
" clip-path="url(#pad2fd064aa)" style="fill: none; stroke: #6a3d9a; stroke-width: 1.5; stroke-linecap: round"/>
   </g>
   <g id="patch_33">
    <path d="M 90 203.04 
L 90 51.84 
" style="fill: none; stroke: #cccccc; stroke-linejoin: miter; stroke-linecap: square"/>
   </g>
   <g id="patch_34">
    <path d="M 648 203.04 
L 648 51.84 
" style="fill: none; stroke: #cccccc; stroke-linejoin: miter; stroke-linecap: square"/>
   </g>
   <g id="patch_35">
    <path d="M 90 203.04 
L 648 203.04 
" style="fill: none; stroke: #cccccc; stroke-linejoin: miter; stroke-linecap: square"/>
   </g>
   <g id="patch_36">
    <path d="M 90 51.84 
L 648 51.84 
" style="fill: none; stroke: #cccccc; stroke-linejoin: miter; stroke-linecap: square"/>
   </g>
   <g id="text_6">
    <!-- Bad Credit -->
    <g style="fill: #262626" transform="translate(345.378125 45.84) scale(0.1 -0.1)">
     <defs>
      <path id="LiberationSans-42" d="M 3931 1241 
Q 3931 906 3800 670 
Q 3669 434 3447 286 
Q 3225 138 2931 69 
Q 2638 0 2313 0 
L 525 0 
L 525 4403 
L 2125 4403 
Q 2491 4403 2778 4342 
Q 3066 4281 3266 4150 
Q 3466 4019 3570 3817 
Q 3675 3616 3675 3334 
Q 3675 3150 3623 2987 
Q 3572 2825 3467 2692 
Q 3363 2559 3205 2464 
Q 3047 2369 2838 2322 
Q 3103 2291 3308 2200 
Q 3513 2109 3650 1968 
Q 3788 1828 3859 1642 
Q 3931 1456 3931 1241 
z
M 3075 3263 
Q 3075 3619 2831 3772 
Q 2588 3925 2125 3925 
L 1122 3925 
L 1122 2531 
L 2125 2531 
Q 2388 2531 2569 2582 
Q 2750 2634 2862 2729 
Q 2975 2825 3025 2959 
Q 3075 3094 3075 3263 
z
M 3328 1288 
Q 3328 1497 3251 1644 
Q 3175 1791 3031 1884 
Q 2888 1978 2686 2022 
Q 2484 2066 2234 2066 
L 1122 2066 
L 1122 478 
L 2281 478 
Q 2509 478 2701 515 
Q 2894 553 3033 647 
Q 3172 741 3250 897 
Q 3328 1053 3328 1288 
z
" transform="scale(0.015625)"/>
      <path id="LiberationSans-61" d="M 1294 -63 
Q 784 -63 528 206 
Q 272 475 272 944 
Q 272 1278 398 1492 
Q 525 1706 729 1828 
Q 934 1950 1196 1997 
Q 1459 2044 1731 2050 
L 2491 2063 
L 2491 2247 
Q 2491 2456 2447 2603 
Q 2403 2750 2312 2840 
Q 2222 2931 2086 2973 
Q 1950 3016 1766 3016 
Q 1603 3016 1472 2992 
Q 1341 2969 1244 2908 
Q 1147 2847 1087 2742 
Q 1028 2638 1009 2478 
L 422 2531 
Q 453 2731 540 2898 
Q 628 3066 789 3187 
Q 950 3309 1192 3376 
Q 1434 3444 1778 3444 
Q 2416 3444 2737 3151 
Q 3059 2859 3059 2306 
L 3059 850 
Q 3059 600 3125 473 
Q 3191 347 3375 347 
Q 3422 347 3469 353 
Q 3516 359 3559 369 
L 3559 19 
Q 3453 -6 3348 -18 
Q 3244 -31 3125 -31 
Q 2966 -31 2852 11 
Q 2738 53 2666 139 
Q 2594 225 2556 351 
Q 2519 478 2509 647 
L 2491 647 
Q 2400 484 2292 353 
Q 2184 222 2040 130 
Q 1897 38 1714 -12 
Q 1531 -63 1294 -63 
z
M 1422 359 
Q 1691 359 1892 457 
Q 2094 556 2226 709 
Q 2359 863 2425 1044 
Q 2491 1225 2491 1391 
L 2491 1669 
L 1875 1656 
Q 1669 1653 1483 1626 
Q 1297 1600 1156 1522 
Q 1016 1444 933 1303 
Q 850 1163 850 934 
Q 850 659 998 509 
Q 1147 359 1422 359 
z
" transform="scale(0.015625)"/>
      <path id="LiberationSans-64" d="M 2566 544 
Q 2409 219 2151 78 
Q 1894 -63 1513 -63 
Q 872 -63 570 368 
Q 269 800 269 1675 
Q 269 3444 1513 3444 
Q 1897 3444 2153 3303 
Q 2409 3163 2566 2856 
L 2572 2856 
Q 2572 2888 2570 2955 
Q 2569 3022 2567 3095 
Q 2566 3169 2566 3234 
Q 2566 3300 2566 3328 
L 2566 4638 
L 3128 4638 
L 3128 697 
Q 3128 575 3129 462 
Q 3131 350 3134 256 
Q 3138 163 3141 95 
Q 3144 28 3147 0 
L 2609 0 
Q 2603 31 2598 89 
Q 2594 147 2589 222 
Q 2584 297 2581 380 
Q 2578 463 2578 544 
L 2566 544 
z
M 859 1694 
Q 859 1344 903 1094 
Q 947 844 1044 683 
Q 1141 522 1291 447 
Q 1441 372 1656 372 
Q 1878 372 2048 444 
Q 2219 516 2333 677 
Q 2447 838 2506 1097 
Q 2566 1356 2566 1731 
Q 2566 2091 2506 2339 
Q 2447 2588 2331 2741 
Q 2216 2894 2048 2961 
Q 1881 3028 1663 3028 
Q 1456 3028 1306 2956 
Q 1156 2884 1056 2725 
Q 956 2566 907 2311 
Q 859 2056 859 1694 
z
" transform="scale(0.015625)"/>
      <path id="LiberationSans-20" transform="scale(0.015625)"/>
      <path id="LiberationSans-43" d="M 2475 3981 
Q 2100 3981 1811 3856 
Q 1522 3731 1326 3500 
Q 1131 3269 1031 2944 
Q 931 2619 931 2222 
Q 931 1825 1039 1495 
Q 1147 1166 1348 928 
Q 1550 691 1842 559 
Q 2134 428 2500 428 
Q 2756 428 2967 495 
Q 3178 563 3348 684 
Q 3519 806 3653 973 
Q 3788 1141 3891 1344 
L 4378 1100 
Q 4259 853 4084 640 
Q 3909 428 3673 272 
Q 3438 116 3139 26 
Q 2841 -63 2472 -63 
Q 1938 -63 1536 107 
Q 1134 278 864 583 
Q 594 888 459 1306 
Q 325 1725 325 2222 
Q 325 2738 467 3153 
Q 609 3569 882 3861 
Q 1156 4153 1556 4311 
Q 1956 4469 2469 4469 
Q 3172 4469 3644 4194 
Q 4116 3919 4338 3378 
L 3772 3191 
Q 3709 3347 3603 3489 
Q 3497 3631 3337 3740 
Q 3178 3850 2964 3915 
Q 2750 3981 2475 3981 
z
" transform="scale(0.015625)"/>
      <path id="LiberationSans-72" d="M 444 0 
L 444 2594 
Q 444 2700 442 2811 
Q 441 2922 437 3025 
Q 434 3128 431 3218 
Q 428 3309 425 3381 
L 956 3381 
Q 959 3309 964 3217 
Q 969 3125 973 3028 
Q 978 2931 979 2842 
Q 981 2753 981 2691 
L 994 2691 
Q 1053 2884 1120 3026 
Q 1188 3169 1278 3261 
Q 1369 3353 1494 3398 
Q 1619 3444 1797 3444 
Q 1866 3444 1928 3433 
Q 1991 3422 2025 3413 
L 2025 2897 
Q 1969 2913 1894 2920 
Q 1819 2928 1725 2928 
Q 1531 2928 1395 2840 
Q 1259 2753 1173 2598 
Q 1088 2444 1047 2230 
Q 1006 2016 1006 1763 
L 1006 0 
L 444 0 
z
" transform="scale(0.015625)"/>
     </defs>
     <use xlink:href="#LiberationSans-42"/>
     <use xlink:href="#LiberationSans-61" x="66.699219"/>
     <use xlink:href="#LiberationSans-64" x="122.314453"/>
     <use xlink:href="#LiberationSans-20" x="177.929688"/>
     <use xlink:href="#LiberationSans-43" x="205.712891"/>
     <use xlink:href="#LiberationSans-72" x="277.929688"/>
     <use xlink:href="#LiberationSans-65" x="311.230469"/>
     <use xlink:href="#LiberationSans-64" x="366.845703"/>
     <use xlink:href="#LiberationSans-69" x="422.460938"/>
     <use xlink:href="#LiberationSans-74" x="444.677734"/>
    </g>
   </g>
   <g id="legend_1">
    <g id="patch_37">
     <path d="M 456.889063 88.48375 
L 641 88.48375 
Q 643 88.48375 643 86.48375 
L 643 58.84 
Q 643 56.84 641 56.84 
L 456.889063 56.84 
Q 454.889063 56.84 454.889063 58.84 
L 454.889063 86.48375 
Q 454.889063 88.48375 456.889063 88.48375 
z
" style="fill: #ffffff; opacity: 0.8; stroke: #cccccc; stroke-linejoin: miter"/>
    </g>
    <g id="line2d_27">
     <path d="M 458.889063 64.586875 
L 468.889063 64.586875 
L 478.889063 64.586875 
" style="fill: none; stroke: #33a02c; stroke-width: 1.5; stroke-linecap: round"/>
    </g>
    <g id="text_7">
     <!-- Beta Distribution (pvalue 0.003) -->
     <g style="fill: #262626" transform="translate(486.889063 68.086875) scale(0.1 -0.1)">
      <defs>
       <path id="LiberationSans-62" d="M 3291 1706 
Q 3291 -63 2047 -63 
Q 1663 -63 1408 76 
Q 1153 216 994 525 
L 988 525 
Q 988 444 983 356 
Q 978 269 973 194 
Q 969 119 964 66 
Q 959 13 956 0 
L 413 0 
Q 416 28 419 95 
Q 422 163 425 256 
Q 428 350 429 462 
Q 431 575 431 697 
L 431 4638 
L 994 4638 
L 994 3316 
Q 994 3222 992 3136 
Q 991 3050 988 2984 
Q 984 2906 981 2838 
L 994 2838 
Q 1150 3163 1408 3303 
Q 1666 3444 2047 3444 
Q 2688 3444 2989 3012 
Q 3291 2581 3291 1706 
z
M 2700 1688 
Q 2700 2038 2656 2288 
Q 2613 2538 2516 2698 
Q 2419 2859 2269 2934 
Q 2119 3009 1903 3009 
Q 1681 3009 1511 2937 
Q 1341 2866 1227 2706 
Q 1113 2547 1053 2287 
Q 994 2028 994 1653 
Q 994 1291 1053 1044 
Q 1113 797 1227 642 
Q 1341 488 1509 420 
Q 1678 353 1897 353 
Q 2103 353 2253 425 
Q 2403 497 2503 656 
Q 2603 816 2651 1070 
Q 2700 1325 2700 1688 
z
" transform="scale(0.015625)"/>
       <path id="LiberationSans-75" d="M 981 3381 
L 981 1238 
Q 981 991 1017 825 
Q 1053 659 1134 557 
Q 1216 456 1348 414 
Q 1481 372 1678 372 
Q 1878 372 2039 442 
Q 2200 513 2314 645 
Q 2428 778 2490 973 
Q 2553 1169 2553 1422 
L 2553 3381 
L 3116 3381 
L 3116 722 
Q 3116 616 3117 498 
Q 3119 381 3122 276 
Q 3125 172 3128 97 
Q 3131 22 3134 0 
L 2603 0 
Q 2600 16 2597 84 
Q 2594 153 2589 242 
Q 2584 331 2581 423 
Q 2578 516 2578 578 
L 2569 578 
Q 2488 431 2391 312 
Q 2294 194 2166 111 
Q 2038 28 1872 -17 
Q 1706 -63 1488 -63 
Q 1206 -63 1003 6 
Q 800 75 669 219 
Q 538 363 477 588 
Q 416 813 416 1128 
L 416 3381 
L 981 3381 
z
" transform="scale(0.015625)"/>
       <path id="LiberationSans-6f" d="M 3291 1694 
Q 3291 806 2900 371 
Q 2509 -63 1766 -63 
Q 1413 -63 1134 43 
Q 856 150 664 369 
Q 472 588 370 917 
Q 269 1247 269 1694 
Q 269 3444 1784 3444 
Q 2178 3444 2464 3334 
Q 2750 3225 2933 3006 
Q 3116 2788 3203 2459 
Q 3291 2131 3291 1694 
z
M 2700 1694 
Q 2700 2088 2639 2344 
Q 2578 2600 2461 2753 
Q 2344 2906 2175 2967 
Q 2006 3028 1794 3028 
Q 1578 3028 1404 2964 
Q 1231 2900 1109 2745 
Q 988 2591 923 2334 
Q 859 2078 859 1694 
Q 859 1300 928 1042 
Q 997 784 1117 631 
Q 1238 478 1402 415 
Q 1566 353 1759 353 
Q 1975 353 2150 414 
Q 2325 475 2447 628 
Q 2569 781 2634 1040 
Q 2700 1300 2700 1694 
z
" transform="scale(0.015625)"/>
       <path id="LiberationSans-28" d="M 397 1663 
Q 397 2097 462 2494 
Q 528 2891 668 3256 
Q 809 3622 1028 3965 
Q 1247 4309 1550 4638 
L 2094 4638 
Q 1800 4309 1586 3964 
Q 1372 3619 1234 3251 
Q 1097 2884 1030 2487 
Q 963 2091 963 1656 
Q 963 1222 1030 825 
Q 1097 428 1234 59 
Q 1372 -309 1586 -653 
Q 1800 -997 2094 -1325 
L 1550 -1325 
Q 1247 -997 1028 -653 
Q 809 -309 668 56 
Q 528 422 462 817 
Q 397 1213 397 1650 
L 397 1663 
z
" transform="scale(0.015625)"/>
       <path id="LiberationSans-70" d="M 3291 1706 
Q 3291 1322 3228 997 
Q 3166 672 3020 437 
Q 2875 203 2636 70 
Q 2397 -63 2047 -63 
Q 1684 -63 1412 75 
Q 1141 213 997 525 
L 981 525 
Q 984 519 986 469 
Q 988 419 989 344 
Q 991 269 992 176 
Q 994 84 994 -6 
L 994 -1328 
L 431 -1328 
L 431 2691 
Q 431 2813 429 2925 
Q 428 3038 425 3130 
Q 422 3222 419 3287 
Q 416 3353 413 3381 
L 956 3381 
Q 959 3372 964 3315 
Q 969 3259 973 3179 
Q 978 3100 983 3009 
Q 988 2919 988 2838 
L 1000 2838 
Q 1078 3000 1178 3114 
Q 1278 3228 1406 3301 
Q 1534 3375 1692 3408 
Q 1850 3441 2047 3441 
Q 2397 3441 2636 3316 
Q 2875 3191 3020 2964 
Q 3166 2738 3228 2417 
Q 3291 2097 3291 1706 
z
M 2700 1694 
Q 2700 2006 2662 2250 
Q 2625 2494 2533 2662 
Q 2441 2831 2287 2918 
Q 2134 3006 1903 3006 
Q 1716 3006 1550 2953 
Q 1384 2900 1261 2750 
Q 1138 2600 1066 2336 
Q 994 2072 994 1650 
Q 994 1291 1053 1042 
Q 1113 794 1227 641 
Q 1341 488 1509 420 
Q 1678 353 1897 353 
Q 2131 353 2286 443 
Q 2441 534 2533 706 
Q 2625 878 2662 1126 
Q 2700 1375 2700 1694 
z
" transform="scale(0.015625)"/>
       <path id="LiberationSans-76" d="M 1916 0 
L 1250 0 
L 22 3381 
L 622 3381 
L 1366 1181 
Q 1388 1113 1417 1014 
Q 1447 916 1478 809 
Q 1509 703 1536 604 
Q 1563 506 1581 441 
Q 1600 506 1629 604 
Q 1659 703 1690 806 
Q 1722 909 1755 1007 
Q 1788 1106 1813 1175 
L 2581 3381 
L 3178 3381 
L 1916 0 
z
" transform="scale(0.015625)"/>
       <path id="LiberationSans-6c" d="M 431 0 
L 431 4638 
L 994 4638 
L 994 0 
L 431 0 
z
" transform="scale(0.015625)"/>
       <path id="LiberationSans-33" d="M 3278 1216 
Q 3278 913 3179 675 
Q 3081 438 2892 273 
Q 2703 109 2423 23 
Q 2144 -63 1784 -63 
Q 1375 -63 1095 39 
Q 816 141 634 308 
Q 453 475 362 689 
Q 272 903 244 1131 
L 825 1184 
Q 850 1009 917 865 
Q 984 722 1100 619 
Q 1216 516 1384 459 
Q 1553 403 1784 403 
Q 2209 403 2451 612 
Q 2694 822 2694 1234 
Q 2694 1478 2586 1626 
Q 2478 1775 2317 1858 
Q 2156 1941 1967 1969 
Q 1778 1997 1619 1997 
L 1300 1997 
L 1300 2484 
L 1606 2484 
Q 1766 2484 1937 2517 
Q 2109 2550 2251 2636 
Q 2394 2722 2486 2869 
Q 2578 3016 2578 3244 
Q 2578 3597 2370 3801 
Q 2163 4006 1753 4006 
Q 1381 4006 1151 3815 
Q 922 3625 884 3278 
L 319 3322 
Q 353 3613 478 3828 
Q 603 4044 795 4186 
Q 988 4328 1234 4398 
Q 1481 4469 1759 4469 
Q 2128 4469 2393 4376 
Q 2659 4284 2828 4126 
Q 2997 3969 3076 3756 
Q 3156 3544 3156 3303 
Q 3156 3109 3103 2940 
Q 3050 2772 2937 2637 
Q 2825 2503 2651 2406 
Q 2478 2309 2234 2259 
L 2234 2247 
Q 2500 2219 2697 2126 
Q 2894 2034 3022 1896 
Q 3150 1759 3214 1584 
Q 3278 1409 3278 1216 
z
" transform="scale(0.015625)"/>
       <path id="LiberationSans-29" d="M 1734 1650 
Q 1734 1213 1668 817 
Q 1603 422 1462 56 
Q 1322 -309 1103 -653 
Q 884 -997 581 -1325 
L 38 -1325 
Q 331 -997 545 -653 
Q 759 -309 896 59 
Q 1034 428 1101 825 
Q 1169 1222 1169 1656 
Q 1169 2091 1101 2487 
Q 1034 2884 896 3251 
Q 759 3619 545 3964 
Q 331 4309 38 4638 
L 581 4638 
Q 884 4309 1103 3965 
Q 1322 3622 1462 3256 
Q 1603 2891 1668 2494 
Q 1734 2097 1734 1663 
L 1734 1650 
z
" transform="scale(0.015625)"/>
      </defs>
      <use xlink:href="#LiberationSans-42"/>
      <use xlink:href="#LiberationSans-65" x="66.699219"/>
      <use xlink:href="#LiberationSans-74" x="122.314453"/>
      <use xlink:href="#LiberationSans-61" x="150.097656"/>
      <use xlink:href="#LiberationSans-20" x="205.712891"/>
      <use xlink:href="#LiberationSans-44" x="233.496094"/>
      <use xlink:href="#LiberationSans-69" x="305.712891"/>
      <use xlink:href="#LiberationSans-73" x="327.929688"/>
      <use xlink:href="#LiberationSans-74" x="377.929688"/>
      <use xlink:href="#LiberationSans-72" x="405.712891"/>
      <use xlink:href="#LiberationSans-69" x="439.013672"/>
      <use xlink:href="#LiberationSans-62" x="461.230469"/>
      <use xlink:href="#LiberationSans-75" x="516.845703"/>
      <use xlink:href="#LiberationSans-74" x="572.460938"/>
      <use xlink:href="#LiberationSans-69" x="600.244141"/>
      <use xlink:href="#LiberationSans-6f" x="622.460938"/>
      <use xlink:href="#LiberationSans-6e" x="678.076172"/>
      <use xlink:href="#LiberationSans-20" x="733.691406"/>
      <use xlink:href="#LiberationSans-28" x="761.474609"/>
      <use xlink:href="#LiberationSans-70" x="794.775391"/>
      <use xlink:href="#LiberationSans-76" x="850.390625"/>
      <use xlink:href="#LiberationSans-61" x="900.390625"/>
      <use xlink:href="#LiberationSans-6c" x="956.005859"/>
      <use xlink:href="#LiberationSans-75" x="978.222656"/>
      <use xlink:href="#LiberationSans-65" x="1033.837891"/>
      <use xlink:href="#LiberationSans-20" x="1089.453125"/>
      <use xlink:href="#LiberationSans-30" x="1117.236328"/>
      <use xlink:href="#LiberationSans-2e" x="1172.851562"/>
      <use xlink:href="#LiberationSans-30" x="1200.634766"/>
      <use xlink:href="#LiberationSans-30" x="1256.25"/>
      <use xlink:href="#LiberationSans-33" x="1311.865234"/>
      <use xlink:href="#LiberationSans-29" x="1367.480469"/>
     </g>
    </g>
    <g id="line2d_28">
     <path d="M 458.889063 78.90875 
L 468.889063 78.90875 
L 478.889063 78.90875 
" style="fill: none; stroke: #6a3d9a; stroke-width: 1.5; stroke-linecap: round"/>
    </g>
    <g id="text_8">
     <!-- Weibull Distribution (pvalue 0.330) -->
     <g style="fill: #262626" transform="translate(486.889063 82.40875) scale(0.1 -0.1)">
      <defs>
       <path id="LiberationSans-57" d="M 4722 0 
L 4009 0 
L 3247 2797 
Q 3213 2916 3173 3078 
Q 3134 3241 3103 3388 
Q 3066 3559 3028 3738 
Q 2988 3556 2950 3384 
Q 2916 3234 2878 3075 
Q 2841 2916 2806 2797 
L 2038 0 
L 1325 0 
L 28 4403 
L 650 4403 
L 1441 1606 
Q 1494 1409 1542 1215 
Q 1591 1022 1625 869 
Q 1666 688 1700 525 
Q 1747 741 1797 950 
Q 1819 1038 1841 1134 
Q 1863 1231 1886 1325 
Q 1909 1419 1932 1505 
Q 1956 1591 1975 1663 
L 2741 4403 
L 3313 4403 
L 4078 1663 
Q 4097 1591 4120 1505 
Q 4144 1419 4167 1326 
Q 4191 1234 4212 1137 
Q 4234 1041 4256 953 
Q 4306 744 4353 525 
Q 4356 525 4381 633 
Q 4406 741 4443 903 
Q 4481 1066 4526 1255 
Q 4572 1444 4619 1606 
L 5397 4403 
L 6019 4403 
L 4722 0 
z
" transform="scale(0.015625)"/>
      </defs>
      <use xlink:href="#LiberationSans-57"/>
      <use xlink:href="#LiberationSans-65" x="92.634766"/>
      <use xlink:href="#LiberationSans-69" x="148.25"/>
      <use xlink:href="#LiberationSans-62" x="170.466797"/>
      <use xlink:href="#LiberationSans-75" x="226.082031"/>
      <use xlink:href="#LiberationSans-6c" x="281.697266"/>
      <use xlink:href="#LiberationSans-6c" x="303.914062"/>
      <use xlink:href="#LiberationSans-20" x="326.130859"/>
      <use xlink:href="#LiberationSans-44" x="353.914062"/>
      <use xlink:href="#LiberationSans-69" x="426.130859"/>
      <use xlink:href="#LiberationSans-73" x="448.347656"/>
      <use xlink:href="#LiberationSans-74" x="498.347656"/>
      <use xlink:href="#LiberationSans-72" x="526.130859"/>
      <use xlink:href="#LiberationSans-69" x="559.431641"/>
      <use xlink:href="#LiberationSans-62" x="581.648438"/>
      <use xlink:href="#LiberationSans-75" x="637.263672"/>
      <use xlink:href="#LiberationSans-74" x="692.878906"/>
      <use xlink:href="#LiberationSans-69" x="720.662109"/>
      <use xlink:href="#LiberationSans-6f" x="742.878906"/>
      <use xlink:href="#LiberationSans-6e" x="798.494141"/>
      <use xlink:href="#LiberationSans-20" x="854.109375"/>
      <use xlink:href="#LiberationSans-28" x="881.892578"/>
      <use xlink:href="#LiberationSans-70" x="915.193359"/>
      <use xlink:href="#LiberationSans-76" x="970.808594"/>
      <use xlink:href="#LiberationSans-61" x="1020.808594"/>
      <use xlink:href="#LiberationSans-6c" x="1076.423828"/>
      <use xlink:href="#LiberationSans-75" x="1098.640625"/>
      <use xlink:href="#LiberationSans-65" x="1154.255859"/>
      <use xlink:href="#LiberationSans-20" x="1209.871094"/>
      <use xlink:href="#LiberationSans-30" x="1237.654297"/>
      <use xlink:href="#LiberationSans-2e" x="1293.269531"/>
      <use xlink:href="#LiberationSans-33" x="1321.052734"/>
      <use xlink:href="#LiberationSans-33" x="1376.667969"/>
      <use xlink:href="#LiberationSans-30" x="1432.283203"/>
      <use xlink:href="#LiberationSans-29" x="1487.898438"/>
     </g>
    </g>
   </g>
  </g>
  <g id="axes_2">
   <g id="patch_38">
    <path d="M 90 384.48 
L 648 384.48 
L 648 233.28 
L 90 233.28 
L 90 384.48 
z
" style="fill: none"/>
   </g>
   <g id="matplotlib.axis_3">
    <g id="xtick_9">
     <g id="line2d_29">
      <path d="M 115.363636 384.48 
L 115.363636 233.28 
" clip-path="url(#p50c38cdf5b)" style="fill: none; stroke: #cccccc; stroke-width: 0.8; stroke-linecap: round"/>
     </g>
     <g id="line2d_30"/>
     <g id="text_9">
      <!-- 10 -->
      <g style="fill: #262626" transform="translate(109.802699 395.226875) scale(0.1 -0.1)">
       <defs>
        <path id="LiberationSans-31" d="M 488 0 
L 488 478 
L 1609 478 
L 1609 3866 
L 616 3156 
L 616 3688 
L 1656 4403 
L 2175 4403 
L 2175 478 
L 3247 478 
L 3247 0 
L 488 0 
z
" transform="scale(0.015625)"/>
       </defs>
       <use xlink:href="#LiberationSans-31"/>
       <use xlink:href="#LiberationSans-30" x="55.615234"/>
      </g>
     </g>
    </g>
    <g id="xtick_10">
     <g id="line2d_31">
      <path d="M 183.914005 384.48 
L 183.914005 233.28 
" clip-path="url(#p50c38cdf5b)" style="fill: none; stroke: #cccccc; stroke-width: 0.8; stroke-linecap: round"/>
     </g>
     <g id="line2d_32"/>
     <g id="text_10">
      <!-- 20 -->
      <g style="fill: #262626" transform="translate(178.353067 395.226875) scale(0.1 -0.1)">
       <use xlink:href="#LiberationSans-32"/>
       <use xlink:href="#LiberationSans-30" x="55.615234"/>
      </g>
     </g>
    </g>
    <g id="xtick_11">
     <g id="line2d_33">
      <path d="M 252.464373 384.48 
L 252.464373 233.28 
" clip-path="url(#p50c38cdf5b)" style="fill: none; stroke: #cccccc; stroke-width: 0.8; stroke-linecap: round"/>
     </g>
     <g id="line2d_34"/>
     <g id="text_11">
      <!-- 30 -->
      <g style="fill: #262626" transform="translate(246.903436 395.226875) scale(0.1 -0.1)">
       <use xlink:href="#LiberationSans-33"/>
       <use xlink:href="#LiberationSans-30" x="55.615234"/>
      </g>
     </g>
    </g>
    <g id="xtick_12">
     <g id="line2d_35">
      <path d="M 321.014742 384.48 
L 321.014742 233.28 
" clip-path="url(#p50c38cdf5b)" style="fill: none; stroke: #cccccc; stroke-width: 0.8; stroke-linecap: round"/>
     </g>
     <g id="line2d_36"/>
     <g id="text_12">
      <!-- 40 -->
      <g style="fill: #262626" transform="translate(315.453805 395.226875) scale(0.1 -0.1)">
       <use xlink:href="#LiberationSans-34"/>
       <use xlink:href="#LiberationSans-30" x="55.615234"/>
      </g>
     </g>
    </g>
    <g id="xtick_13">
     <g id="line2d_37">
      <path d="M 389.565111 384.48 
L 389.565111 233.28 
" clip-path="url(#p50c38cdf5b)" style="fill: none; stroke: #cccccc; stroke-width: 0.8; stroke-linecap: round"/>
     </g>
     <g id="line2d_38"/>
     <g id="text_13">
      <!-- 50 -->
      <g style="fill: #262626" transform="translate(384.004173 395.226875) scale(0.1 -0.1)">
       <defs>
        <path id="LiberationSans-35" d="M 3291 1434 
Q 3291 1103 3191 828 
Q 3091 553 2894 354 
Q 2697 156 2405 46 
Q 2113 -63 1728 -63 
Q 1381 -63 1123 18 
Q 866 100 687 242 
Q 509 384 404 575 
Q 300 766 256 984 
L 825 1050 
Q 859 925 921 808 
Q 984 691 1092 598 
Q 1200 506 1358 451 
Q 1516 397 1741 397 
Q 1959 397 2137 464 
Q 2316 531 2442 662 
Q 2569 794 2637 984 
Q 2706 1175 2706 1422 
Q 2706 1625 2640 1795 
Q 2575 1966 2453 2089 
Q 2331 2213 2154 2281 
Q 1978 2350 1753 2350 
Q 1613 2350 1494 2325 
Q 1375 2300 1273 2256 
Q 1172 2213 1089 2155 
Q 1006 2097 934 2034 
L 384 2034 
L 531 4403 
L 3034 4403 
L 3034 3925 
L 1044 3925 
L 959 2528 
Q 1109 2644 1334 2726 
Q 1559 2809 1869 2809 
Q 2197 2809 2459 2709 
Q 2722 2609 2906 2426 
Q 3091 2244 3191 1991 
Q 3291 1738 3291 1434 
z
" transform="scale(0.015625)"/>
       </defs>
       <use xlink:href="#LiberationSans-35"/>
       <use xlink:href="#LiberationSans-30" x="55.615234"/>
      </g>
     </g>
    </g>
    <g id="xtick_14">
     <g id="line2d_39">
      <path d="M 458.115479 384.48 
L 458.115479 233.28 
" clip-path="url(#p50c38cdf5b)" style="fill: none; stroke: #cccccc; stroke-width: 0.8; stroke-linecap: round"/>
     </g>
     <g id="line2d_40"/>
     <g id="text_14">
      <!-- 60 -->
      <g style="fill: #262626" transform="translate(452.554542 395.226875) scale(0.1 -0.1)">
       <use xlink:href="#LiberationSans-36"/>
       <use xlink:href="#LiberationSans-30" x="55.615234"/>
      </g>
     </g>
    </g>
    <g id="xtick_15">
     <g id="line2d_41">
      <path d="M 526.665848 384.48 
L 526.665848 233.28 
" clip-path="url(#p50c38cdf5b)" style="fill: none; stroke: #cccccc; stroke-width: 0.8; stroke-linecap: round"/>
     </g>
     <g id="line2d_42"/>
     <g id="text_15">
      <!-- 70 -->
      <g style="fill: #262626" transform="translate(521.10491 395.226875) scale(0.1 -0.1)">
       <defs>
        <path id="LiberationSans-37" d="M 3238 3947 
Q 2906 3441 2628 2973 
Q 2350 2506 2150 2032 
Q 1950 1559 1839 1061 
Q 1728 563 1728 0 
L 1141 0 
Q 1141 528 1266 1036 
Q 1391 1544 1603 2033 
Q 1816 2522 2097 2994 
Q 2378 3466 2694 3925 
L 328 3925 
L 328 4403 
L 3238 4403 
L 3238 3947 
z
" transform="scale(0.015625)"/>
       </defs>
       <use xlink:href="#LiberationSans-37"/>
       <use xlink:href="#LiberationSans-30" x="55.615234"/>
      </g>
     </g>
    </g>
    <g id="xtick_16">
     <g id="line2d_43">
      <path d="M 595.216216 384.48 
L 595.216216 233.28 
" clip-path="url(#p50c38cdf5b)" style="fill: none; stroke: #cccccc; stroke-width: 0.8; stroke-linecap: round"/>
     </g>
     <g id="line2d_44"/>
     <g id="text_16">
      <!-- 80 -->
      <g style="fill: #262626" transform="translate(589.655279 395.226875) scale(0.1 -0.1)">
       <defs>
        <path id="LiberationSans-38" d="M 3281 1228 
Q 3281 947 3192 711 
Q 3103 475 2920 303 
Q 2738 131 2453 34 
Q 2169 -63 1781 -63 
Q 1394 -63 1111 34 
Q 828 131 642 301 
Q 456 472 367 708 
Q 278 944 278 1222 
Q 278 1463 351 1650 
Q 425 1838 548 1973 
Q 672 2109 830 2192 
Q 988 2275 1156 2303 
L 1156 2316 
Q 972 2359 826 2456 
Q 681 2553 582 2689 
Q 484 2825 432 2990 
Q 381 3156 381 3341 
Q 381 3572 470 3776 
Q 559 3981 734 4136 
Q 909 4291 1168 4380 
Q 1428 4469 1769 4469 
Q 2128 4469 2392 4378 
Q 2656 4288 2829 4133 
Q 3003 3978 3087 3772 
Q 3172 3566 3172 3334 
Q 3172 3153 3120 2987 
Q 3069 2822 2970 2686 
Q 2872 2550 2726 2454 
Q 2581 2359 2391 2322 
L 2391 2309 
Q 2581 2278 2743 2195 
Q 2906 2113 3025 1977 
Q 3144 1841 3212 1653 
Q 3281 1466 3281 1228 
z
M 2588 3303 
Q 2588 3469 2545 3606 
Q 2503 3744 2406 3842 
Q 2309 3941 2153 3995 
Q 1997 4050 1769 4050 
Q 1547 4050 1394 3995 
Q 1241 3941 1142 3842 
Q 1044 3744 1000 3606 
Q 956 3469 956 3303 
Q 956 3172 990 3034 
Q 1025 2897 1115 2784 
Q 1206 2672 1365 2600 
Q 1525 2528 1775 2528 
Q 2041 2528 2202 2600 
Q 2363 2672 2448 2784 
Q 2534 2897 2561 3034 
Q 2588 3172 2588 3303 
z
M 2697 1281 
Q 2697 1441 2653 1589 
Q 2609 1738 2503 1852 
Q 2397 1966 2217 2036 
Q 2038 2106 1769 2106 
Q 1522 2106 1348 2036 
Q 1175 1966 1067 1850 
Q 959 1734 909 1582 
Q 859 1431 859 1269 
Q 859 1066 909 898 
Q 959 731 1068 611 
Q 1178 491 1356 425 
Q 1534 359 1788 359 
Q 2044 359 2219 425 
Q 2394 491 2500 611 
Q 2606 731 2651 901 
Q 2697 1072 2697 1281 
z
" transform="scale(0.015625)"/>
       </defs>
       <use xlink:href="#LiberationSans-38"/>
       <use xlink:href="#LiberationSans-30" x="55.615234"/>
      </g>
     </g>
    </g>
    <g id="text_17">
     <!-- Age -->
     <g style="fill: #262626" transform="translate(360.103906 408.54875) scale(0.1 -0.1)">
      <defs>
       <path id="LiberationSans-41" d="M 3647 0 
L 3144 1288 
L 1138 1288 
L 631 0 
L 13 0 
L 1809 4403 
L 2488 4403 
L 4256 0 
L 3647 0 
z
M 2400 3206 
Q 2350 3331 2304 3459 
Q 2259 3588 2225 3692 
Q 2191 3797 2167 3867 
Q 2144 3938 2141 3953 
Q 2134 3938 2112 3866 
Q 2091 3794 2055 3687 
Q 2019 3581 1973 3453 
Q 1928 3325 1881 3200 
L 1319 1753 
L 2966 1753 
L 2400 3206 
z
" transform="scale(0.015625)"/>
       <path id="LiberationSans-67" d="M 1713 -1328 
Q 1422 -1328 1197 -1268 
Q 972 -1209 812 -1098 
Q 653 -988 553 -834 
Q 453 -681 409 -494 
L 975 -413 
Q 1031 -647 1223 -773 
Q 1416 -900 1728 -900 
Q 1919 -900 2075 -847 
Q 2231 -794 2340 -676 
Q 2450 -559 2509 -371 
Q 2569 -184 2569 84 
L 2569 628 
L 2563 628 
Q 2500 500 2408 383 
Q 2316 266 2183 175 
Q 2050 84 1875 29 
Q 1700 -25 1475 -25 
Q 1153 -25 923 83 
Q 694 191 548 406 
Q 403 622 336 942 
Q 269 1263 269 1684 
Q 269 2091 336 2416 
Q 403 2741 554 2967 
Q 706 3194 948 3314 
Q 1191 3434 1538 3434 
Q 1897 3434 2161 3270 
Q 2425 3106 2569 2803 
L 2575 2803 
Q 2575 2881 2579 2978 
Q 2584 3075 2589 3161 
Q 2594 3247 2600 3309 
Q 2606 3372 2613 3381 
L 3147 3381 
Q 3144 3353 3141 3286 
Q 3138 3219 3134 3125 
Q 3131 3031 3129 2917 
Q 3128 2803 3128 2681 
L 3128 97 
Q 3128 -613 2779 -970 
Q 2431 -1328 1713 -1328 
z
M 2569 1691 
Q 2569 2044 2492 2295 
Q 2416 2547 2291 2706 
Q 2166 2866 2005 2941 
Q 1844 3016 1675 3016 
Q 1459 3016 1304 2941 
Q 1150 2866 1048 2705 
Q 947 2544 898 2292 
Q 850 2041 850 1691 
Q 850 1325 898 1076 
Q 947 828 1047 675 
Q 1147 522 1300 456 
Q 1453 391 1666 391 
Q 1834 391 1995 462 
Q 2156 534 2284 690 
Q 2413 847 2491 1094 
Q 2569 1341 2569 1691 
z
" transform="scale(0.015625)"/>
      </defs>
      <use xlink:href="#LiberationSans-41"/>
      <use xlink:href="#LiberationSans-67" x="66.699219"/>
      <use xlink:href="#LiberationSans-65" x="122.314453"/>
     </g>
    </g>
   </g>
   <g id="matplotlib.axis_4">
    <g id="ytick_5">
     <g id="line2d_45">
      <path d="M 90 384.48 
L 648 384.48 
" clip-path="url(#p50c38cdf5b)" style="fill: none; stroke: #cccccc; stroke-width: 0.8; stroke-linecap: round"/>
     </g>
     <g id="line2d_46"/>
     <g id="text_18">
      <!-- 0.00 -->
      <g style="fill: #262626" transform="translate(67.039062 388.103437) scale(0.1 -0.1)">
       <use xlink:href="#LiberationSans-30"/>
       <use xlink:href="#LiberationSans-2e" x="55.615234"/>
       <use xlink:href="#LiberationSans-30" x="83.398438"/>
       <use xlink:href="#LiberationSans-30" x="139.013672"/>
      </g>
     </g>
    </g>
    <g id="ytick_6">
     <g id="line2d_47">
      <path d="M 90 355.970909 
L 648 355.970909 
" clip-path="url(#p50c38cdf5b)" style="fill: none; stroke: #cccccc; stroke-width: 0.8; stroke-linecap: round"/>
     </g>
     <g id="line2d_48"/>
     <g id="text_19">
      <!-- 0.01 -->
      <g style="fill: #262626" transform="translate(67.039062 359.594347) scale(0.1 -0.1)">
       <use xlink:href="#LiberationSans-30"/>
       <use xlink:href="#LiberationSans-2e" x="55.615234"/>
       <use xlink:href="#LiberationSans-30" x="83.398438"/>
       <use xlink:href="#LiberationSans-31" x="139.013672"/>
      </g>
     </g>
    </g>
    <g id="ytick_7">
     <g id="line2d_49">
      <path d="M 90 327.461818 
L 648 327.461818 
" clip-path="url(#p50c38cdf5b)" style="fill: none; stroke: #cccccc; stroke-width: 0.8; stroke-linecap: round"/>
     </g>
     <g id="line2d_50"/>
     <g id="text_20">
      <!-- 0.02 -->
      <g style="fill: #262626" transform="translate(67.039062 331.085256) scale(0.1 -0.1)">
       <use xlink:href="#LiberationSans-30"/>
       <use xlink:href="#LiberationSans-2e" x="55.615234"/>
       <use xlink:href="#LiberationSans-30" x="83.398438"/>
       <use xlink:href="#LiberationSans-32" x="139.013672"/>
      </g>
     </g>
    </g>
    <g id="ytick_8">
     <g id="line2d_51">
      <path d="M 90 298.952727 
L 648 298.952727 
" clip-path="url(#p50c38cdf5b)" style="fill: none; stroke: #cccccc; stroke-width: 0.8; stroke-linecap: round"/>
     </g>
     <g id="line2d_52"/>
     <g id="text_21">
      <!-- 0.03 -->
      <g style="fill: #262626" transform="translate(67.039062 302.576165) scale(0.1 -0.1)">
       <use xlink:href="#LiberationSans-30"/>
       <use xlink:href="#LiberationSans-2e" x="55.615234"/>
       <use xlink:href="#LiberationSans-30" x="83.398438"/>
       <use xlink:href="#LiberationSans-33" x="139.013672"/>
      </g>
     </g>
    </g>
    <g id="ytick_9">
     <g id="line2d_53">
      <path d="M 90 270.443636 
L 648 270.443636 
" clip-path="url(#p50c38cdf5b)" style="fill: none; stroke: #cccccc; stroke-width: 0.8; stroke-linecap: round"/>
     </g>
     <g id="line2d_54"/>
     <g id="text_22">
      <!-- 0.04 -->
      <g style="fill: #262626" transform="translate(67.039062 274.067074) scale(0.1 -0.1)">
       <use xlink:href="#LiberationSans-30"/>
       <use xlink:href="#LiberationSans-2e" x="55.615234"/>
       <use xlink:href="#LiberationSans-30" x="83.398438"/>
       <use xlink:href="#LiberationSans-34" x="139.013672"/>
      </g>
     </g>
    </g>
    <g id="ytick_10">
     <g id="line2d_55">
      <path d="M 90 241.934545 
L 648 241.934545 
" clip-path="url(#p50c38cdf5b)" style="fill: none; stroke: #cccccc; stroke-width: 0.8; stroke-linecap: round"/>
     </g>
     <g id="line2d_56"/>
     <g id="text_23">
      <!-- 0.05 -->
      <g style="fill: #262626" transform="translate(67.039062 245.557983) scale(0.1 -0.1)">
       <use xlink:href="#LiberationSans-30"/>
       <use xlink:href="#LiberationSans-2e" x="55.615234"/>
       <use xlink:href="#LiberationSans-30" x="83.398438"/>
       <use xlink:href="#LiberationSans-35" x="139.013672"/>
      </g>
     </g>
    </g>
    <g id="text_24">
     <!-- Density -->
     <g style="fill: #262626" transform="translate(60.964062 325.551875) rotate(-90) scale(0.1 -0.1)">
      <use xlink:href="#LiberationSans-44"/>
      <use xlink:href="#LiberationSans-65" x="72.216797"/>
      <use xlink:href="#LiberationSans-6e" x="127.832031"/>
      <use xlink:href="#LiberationSans-73" x="183.447266"/>
      <use xlink:href="#LiberationSans-69" x="233.447266"/>
      <use xlink:href="#LiberationSans-74" x="255.664062"/>
      <use xlink:href="#LiberationSans-79" x="283.447266"/>
     </g>
    </g>
   </g>
   <g id="patch_39">
    <path d="M 177.058968 384.48 
L 189.855037 384.48 
L 189.855037 362.661818 
L 177.058968 362.661818 
z
" clip-path="url(#p50c38cdf5b)" style="fill: #377eb8; opacity: 0.5; stroke: #ffffff; stroke-linejoin: miter"/>
   </g>
   <g id="patch_40">
    <path d="M 189.855037 384.48 
L 202.651106 384.48 
L 202.651106 329.934545 
L 189.855037 329.934545 
z
" clip-path="url(#p50c38cdf5b)" style="fill: #377eb8; opacity: 0.5; stroke: #ffffff; stroke-linejoin: miter"/>
   </g>
   <g id="patch_41">
    <path d="M 202.651106 384.48 
L 215.447174 384.48 
L 215.447174 268.843636 
L 202.651106 268.843636 
z
" clip-path="url(#p50c38cdf5b)" style="fill: #377eb8; opacity: 0.5; stroke: #ffffff; stroke-linejoin: miter"/>
   </g>
   <g id="patch_42">
    <path d="M 215.447174 384.48 
L 228.243243 384.48 
L 228.243243 257.934545 
L 215.447174 257.934545 
z
" clip-path="url(#p50c38cdf5b)" style="fill: #377eb8; opacity: 0.5; stroke: #ffffff; stroke-linejoin: miter"/>
   </g>
   <g id="patch_43">
    <path d="M 228.243243 384.48 
L 241.039312 384.48 
L 241.039312 240.48 
L 228.243243 240.48 
z
" clip-path="url(#p50c38cdf5b)" style="fill: #377eb8; opacity: 0.5; stroke: #ffffff; stroke-linejoin: miter"/>
   </g>
   <g id="patch_44">
    <path d="M 241.039312 384.48 
L 253.835381 384.48 
L 253.835381 273.207273 
L 241.039312 273.207273 
z
" clip-path="url(#p50c38cdf5b)" style="fill: #377eb8; opacity: 0.5; stroke: #ffffff; stroke-linejoin: miter"/>
   </g>
   <g id="patch_45">
    <path d="M 253.835381 384.48 
L 266.63145 384.48 
L 266.63145 271.025455 
L 253.835381 271.025455 
z
" clip-path="url(#p50c38cdf5b)" style="fill: #377eb8; opacity: 0.5; stroke: #ffffff; stroke-linejoin: miter"/>
   </g>
   <g id="patch_46">
    <path d="M 266.63145 384.48 
L 279.427518 384.48 
L 279.427518 340.843636 
L 266.63145 340.843636 
z
" clip-path="url(#p50c38cdf5b)" style="fill: #377eb8; opacity: 0.5; stroke: #ffffff; stroke-linejoin: miter"/>
   </g>
   <g id="patch_47">
    <path d="M 279.427518 384.48 
L 292.223587 384.48 
L 292.223587 264.48 
L 279.427518 264.48 
z
" clip-path="url(#p50c38cdf5b)" style="fill: #377eb8; opacity: 0.5; stroke: #ffffff; stroke-linejoin: miter"/>
   </g>
   <g id="patch_48">
    <path d="M 292.223587 384.48 
L 305.019656 384.48 
L 305.019656 266.661818 
L 292.223587 266.661818 
z
" clip-path="url(#p50c38cdf5b)" style="fill: #377eb8; opacity: 0.5; stroke: #ffffff; stroke-linejoin: miter"/>
   </g>
   <g id="patch_49">
    <path d="M 305.019656 384.48 
L 317.815725 384.48 
L 317.815725 308.116364 
L 305.019656 308.116364 
z
" clip-path="url(#p50c38cdf5b)" style="fill: #377eb8; opacity: 0.5; stroke: #ffffff; stroke-linejoin: miter"/>
   </g>
   <g id="patch_50">
    <path d="M 317.815725 384.48 
L 330.611794 384.48 
L 330.611794 314.661818 
L 317.815725 314.661818 
z
" clip-path="url(#p50c38cdf5b)" style="fill: #377eb8; opacity: 0.5; stroke: #ffffff; stroke-linejoin: miter"/>
   </g>
   <g id="patch_51">
    <path d="M 330.611794 384.48 
L 343.407862 384.48 
L 343.407862 327.752727 
L 330.611794 327.752727 
z
" clip-path="url(#p50c38cdf5b)" style="fill: #377eb8; opacity: 0.5; stroke: #ffffff; stroke-linejoin: miter"/>
   </g>
   <g id="patch_52">
    <path d="M 343.407862 384.48 
L 356.203931 384.48 
L 356.203931 332.116364 
L 343.407862 332.116364 
z
" clip-path="url(#p50c38cdf5b)" style="fill: #377eb8; opacity: 0.5; stroke: #ffffff; stroke-linejoin: miter"/>
   </g>
   <g id="patch_53">
    <path d="M 356.203931 384.48 
L 369 384.48 
L 369 353.934545 
L 356.203931 353.934545 
z
" clip-path="url(#p50c38cdf5b)" style="fill: #377eb8; opacity: 0.5; stroke: #ffffff; stroke-linejoin: miter"/>
   </g>
   <g id="patch_54">
    <path d="M 369 384.48 
L 381.796069 384.48 
L 381.796069 338.661818 
L 369 338.661818 
z
" clip-path="url(#p50c38cdf5b)" style="fill: #377eb8; opacity: 0.5; stroke: #ffffff; stroke-linejoin: miter"/>
   </g>
   <g id="patch_55">
    <path d="M 381.796069 384.48 
L 394.592138 384.48 
L 394.592138 336.48 
L 381.796069 336.48 
z
" clip-path="url(#p50c38cdf5b)" style="fill: #377eb8; opacity: 0.5; stroke: #ffffff; stroke-linejoin: miter"/>
   </g>
   <g id="patch_56">
    <path d="M 394.592138 384.48 
L 407.388206 384.48 
L 407.388206 351.752727 
L 394.592138 351.752727 
z
" clip-path="url(#p50c38cdf5b)" style="fill: #377eb8; opacity: 0.5; stroke: #ffffff; stroke-linejoin: miter"/>
   </g>
   <g id="patch_57">
    <path d="M 407.388206 384.48 
L 420.184275 384.48 
L 420.184275 362.661818 
L 407.388206 362.661818 
z
" clip-path="url(#p50c38cdf5b)" style="fill: #377eb8; opacity: 0.5; stroke: #ffffff; stroke-linejoin: miter"/>
   </g>
   <g id="patch_58">
    <path d="M 420.184275 384.48 
L 432.980344 384.48 
L 432.980344 367.025455 
L 420.184275 367.025455 
z
" clip-path="url(#p50c38cdf5b)" style="fill: #377eb8; opacity: 0.5; stroke: #ffffff; stroke-linejoin: miter"/>
   </g>
   <g id="patch_59">
    <path d="M 432.980344 384.48 
L 445.776413 384.48 
L 445.776413 364.843636 
L 432.980344 364.843636 
z
" clip-path="url(#p50c38cdf5b)" style="fill: #377eb8; opacity: 0.5; stroke: #ffffff; stroke-linejoin: miter"/>
   </g>
   <g id="patch_60">
    <path d="M 445.776413 384.48 
L 458.572482 384.48 
L 458.572482 373.570909 
L 445.776413 373.570909 
z
" clip-path="url(#p50c38cdf5b)" style="fill: #377eb8; opacity: 0.5; stroke: #ffffff; stroke-linejoin: miter"/>
   </g>
   <g id="patch_61">
    <path d="M 458.572482 384.48 
L 471.36855 384.48 
L 471.36855 375.752727 
L 458.572482 375.752727 
z
" clip-path="url(#p50c38cdf5b)" style="fill: #377eb8; opacity: 0.5; stroke: #ffffff; stroke-linejoin: miter"/>
   </g>
   <g id="patch_62">
    <path d="M 471.36855 384.48 
L 484.164619 384.48 
L 484.164619 364.843636 
L 471.36855 364.843636 
z
" clip-path="url(#p50c38cdf5b)" style="fill: #377eb8; opacity: 0.5; stroke: #ffffff; stroke-linejoin: miter"/>
   </g>
   <g id="patch_63">
    <path d="M 484.164619 384.48 
L 496.960688 384.48 
L 496.960688 364.843636 
L 484.164619 364.843636 
z
" clip-path="url(#p50c38cdf5b)" style="fill: #377eb8; opacity: 0.5; stroke: #ffffff; stroke-linejoin: miter"/>
   </g>
   <g id="patch_64">
    <path d="M 496.960688 384.48 
L 509.756757 384.48 
L 509.756757 371.389091 
L 496.960688 371.389091 
z
" clip-path="url(#p50c38cdf5b)" style="fill: #377eb8; opacity: 0.5; stroke: #ffffff; stroke-linejoin: miter"/>
   </g>
   <g id="patch_65">
    <path d="M 509.756757 384.48 
L 522.552826 384.48 
L 522.552826 382.298182 
L 509.756757 382.298182 
z
" clip-path="url(#p50c38cdf5b)" style="fill: #377eb8; opacity: 0.5; stroke: #ffffff; stroke-linejoin: miter"/>
   </g>
   <g id="patch_66">
    <path d="M 522.552826 384.48 
L 535.348894 384.48 
L 535.348894 382.298182 
L 522.552826 382.298182 
z
" clip-path="url(#p50c38cdf5b)" style="fill: #377eb8; opacity: 0.5; stroke: #ffffff; stroke-linejoin: miter"/>
   </g>
   <g id="patch_67">
    <path d="M 535.348894 384.48 
L 548.144963 384.48 
L 548.144963 384.48 
L 535.348894 384.48 
z
" clip-path="url(#p50c38cdf5b)" style="fill: #377eb8; opacity: 0.5; stroke: #ffffff; stroke-linejoin: miter"/>
   </g>
   <g id="patch_68">
    <path d="M 548.144963 384.48 
L 560.941032 384.48 
L 560.941032 373.570909 
L 548.144963 373.570909 
z
" clip-path="url(#p50c38cdf5b)" style="fill: #377eb8; opacity: 0.5; stroke: #ffffff; stroke-linejoin: miter"/>
   </g>
   <g id="line2d_57">
    <path d="M 115.363636 384.48 
L 122.218673 384.48 
L 129.07371 384.48 
L 135.928747 384.48 
L 142.783784 384.48 
L 149.638821 384.48 
L 156.493857 384.48 
L 163.348894 384.48 
L 170.203931 384.48 
L 177.058968 379.073494 
L 183.914005 350.606792 
L 190.769042 328.182061 
L 197.624079 310.433759 
L 204.479115 296.589406 
L 211.334152 286.052078 
L 218.189189 278.325785 
L 225.044226 272.986835 
L 231.899263 269.66874 
L 238.7543 268.052603 
L 245.609337 267.860218 
L 252.464373 268.84873 
L 259.31941 270.806271 
L 266.174447 273.548301 
L 273.029484 276.914453 
L 279.884521 280.765778 
L 286.739558 284.982326 
L 293.594595 289.460995 
L 300.449631 294.11361 
L 307.304668 298.865211 
L 314.159705 303.652522 
L 321.014742 308.42257 
L 327.869779 313.131455 
L 334.724816 317.743237 
L 341.579853 322.228949 
L 348.434889 326.565703 
L 355.289926 330.735895 
L 362.144963 334.726489 
L 369 338.528388 
L 375.855037 342.13586 
L 382.710074 345.546036 
L 389.565111 348.758463 
L 396.420147 351.77471 
L 403.275184 354.598014 
L 410.130221 357.232973 
L 416.985258 359.685278 
L 423.840295 361.961475 
L 430.695332 364.06876 
L 437.550369 366.014803 
L 444.405405 367.807591 
L 451.260442 369.455298 
L 458.115479 370.966176 
L 464.970516 372.348459 
L 471.825553 373.610283 
L 478.68059 374.759623 
L 485.535627 375.804243 
L 492.390663 376.751648 
L 499.2457 377.609056 
L 506.100737 378.383374 
L 512.955774 379.081177 
L 519.810811 379.7087 
L 526.665848 380.271831 
L 533.520885 380.776108 
L 540.375921 381.226723 
L 547.230958 381.628528 
L 554.085995 381.98604 
L 560.941032 382.303453 
L 567.796069 382.584648 
L 574.651106 382.833207 
L 581.506143 383.052427 
L 588.361179 383.245334 
L 595.216216 383.414695 
L 602.071253 383.563039 
L 608.92629 383.692666 
L 615.781327 383.805665 
L 622.636364 383.903927 
" clip-path="url(#p50c38cdf5b)" style="fill: none; stroke: #33a02c; stroke-width: 1.5; stroke-linecap: round"/>
   </g>
   <g id="line2d_58">
    <path d="M 115.363636 384.48 
L 122.218673 384.48 
L 129.07371 384.48 
L 135.928747 384.48 
L 142.783784 384.48 
L 149.638821 384.48 
L 156.493857 384.48 
L 163.348894 384.48 
L 170.203931 384.48 
L 177.058968 378.2276 
L 183.914005 350.416339 
L 190.769042 328.76213 
L 197.624079 311.261558 
L 204.479115 297.268552 
L 211.334152 286.349412 
L 218.189189 278.140299 
L 225.044226 272.312014 
L 231.899263 268.559885 
L 238.7543 266.601074 
L 245.609337 266.174176 
L 252.464373 267.039354 
L 259.31941 268.978391 
L 266.174447 271.794469 
L 273.029484 275.311638 
L 279.884521 279.373999 
L 286.739558 283.844675 
L 293.594595 288.604608 
L 300.449631 293.551259 
L 307.304668 298.597242 
L 314.159705 303.668945 
L 321.014742 308.705161 
L 327.869779 313.655765 
L 334.724816 318.480448 
L 341.579853 323.147524 
L 348.434889 327.63282 
L 355.289926 331.918651 
L 362.144963 335.992886 
L 369 339.848104 
L 375.855037 343.480832 
L 382.710074 346.890872 
L 389.565111 350.0807 
L 396.420147 353.054947 
L 403.275184 355.819935 
L 410.130221 358.38329 
L 416.985258 360.7536 
L 423.840295 362.940124 
L 430.695332 364.952559 
L 437.550369 366.800827 
L 444.405405 368.494917 
L 451.260442 370.044744 
L 458.115479 371.460042 
L 464.970516 372.750279 
L 471.825553 373.924589 
L 478.68059 374.991728 
L 485.535627 375.960034 
L 492.390663 376.83741 
L 499.2457 377.631307 
L 506.100737 378.348724 
L 512.955774 378.996209 
L 519.810811 379.579864 
L 526.665848 380.105362 
L 533.520885 380.577958 
L 540.375921 381.002508 
L 547.230958 381.383488 
L 554.085995 381.725013 
L 560.941032 382.030861 
L 567.796069 382.304489 
L 574.651106 382.549056 
L 581.506143 382.767444 
L 588.361179 382.962278 
L 595.216216 383.135943 
L 602.071253 383.290604 
L 608.92629 383.428223 
L 615.781327 383.550576 
L 622.636364 383.659267 
" clip-path="url(#p50c38cdf5b)" style="fill: none; stroke: #6a3d9a; stroke-width: 1.5; stroke-linecap: round"/>
   </g>
   <g id="patch_69">
    <path d="M 90 384.48 
L 90 233.28 
" style="fill: none; stroke: #cccccc; stroke-linejoin: miter; stroke-linecap: square"/>
   </g>
   <g id="patch_70">
    <path d="M 648 384.48 
L 648 233.28 
" style="fill: none; stroke: #cccccc; stroke-linejoin: miter; stroke-linecap: square"/>
   </g>
   <g id="patch_71">
    <path d="M 90 384.48 
L 648 384.48 
" style="fill: none; stroke: #cccccc; stroke-linejoin: miter; stroke-linecap: square"/>
   </g>
   <g id="patch_72">
    <path d="M 90 233.28 
L 648 233.28 
" style="fill: none; stroke: #cccccc; stroke-linejoin: miter; stroke-linecap: square"/>
   </g>
   <g id="text_25">
    <!-- Good Credit -->
    <g style="fill: #262626" transform="translate(342.04375 227.28) scale(0.1 -0.1)">
     <defs>
      <path id="LiberationSans-47" d="M 322 2222 
Q 322 2738 461 3153 
Q 600 3569 876 3861 
Q 1153 4153 1562 4311 
Q 1972 4469 2513 4469 
Q 2919 4469 3225 4397 
Q 3531 4325 3756 4190 
Q 3981 4056 4137 3864 
Q 4294 3672 4403 3431 
L 3834 3263 
Q 3753 3425 3639 3558 
Q 3525 3691 3362 3784 
Q 3200 3878 2986 3929 
Q 2772 3981 2497 3981 
Q 2097 3981 1801 3856 
Q 1506 3731 1312 3500 
Q 1119 3269 1023 2944 
Q 928 2619 928 2222 
Q 928 1825 1031 1495 
Q 1134 1166 1337 927 
Q 1541 688 1842 555 
Q 2144 422 2541 422 
Q 2800 422 3019 465 
Q 3238 509 3414 579 
Q 3591 650 3725 736 
Q 3859 822 3950 909 
L 3950 1703 
L 2634 1703 
L 2634 2203 
L 4500 2203 
L 4500 684 
Q 4353 534 4154 398 
Q 3956 263 3709 159 
Q 3463 56 3169 -3 
Q 2875 -63 2541 -63 
Q 1984 -63 1568 107 
Q 1153 278 876 583 
Q 600 888 461 1306 
Q 322 1725 322 2222 
z
" transform="scale(0.015625)"/>
     </defs>
     <use xlink:href="#LiberationSans-47"/>
     <use xlink:href="#LiberationSans-6f" x="77.783203"/>
     <use xlink:href="#LiberationSans-6f" x="133.398438"/>
     <use xlink:href="#LiberationSans-64" x="189.013672"/>
     <use xlink:href="#LiberationSans-20" x="244.628906"/>
     <use xlink:href="#LiberationSans-43" x="272.412109"/>
     <use xlink:href="#LiberationSans-72" x="344.628906"/>
     <use xlink:href="#LiberationSans-65" x="377.929688"/>
     <use xlink:href="#LiberationSans-64" x="433.544922"/>
     <use xlink:href="#LiberationSans-69" x="489.160156"/>
     <use xlink:href="#LiberationSans-74" x="511.376953"/>
    </g>
   </g>
   <g id="legend_2">
    <g id="patch_73">
     <path d="M 456.889063 269.92375 
L 641 269.92375 
Q 643 269.92375 643 267.92375 
L 643 240.28 
Q 643 238.28 641 238.28 
L 456.889063 238.28 
Q 454.889063 238.28 454.889063 240.28 
L 454.889063 267.92375 
Q 454.889063 269.92375 456.889063 269.92375 
z
" style="fill: #ffffff; opacity: 0.8; stroke: #cccccc; stroke-linejoin: miter"/>
    </g>
    <g id="line2d_59">
     <path d="M 458.889063 246.026875 
L 468.889063 246.026875 
L 478.889063 246.026875 
" style="fill: none; stroke: #33a02c; stroke-width: 1.5; stroke-linecap: round"/>
    </g>
    <g id="text_26">
     <!-- Beta Distribution (pvalue 0.176) -->
     <g style="fill: #262626" transform="translate(486.889063 249.526875) scale(0.1 -0.1)">
      <use xlink:href="#LiberationSans-42"/>
      <use xlink:href="#LiberationSans-65" x="66.699219"/>
      <use xlink:href="#LiberationSans-74" x="122.314453"/>
      <use xlink:href="#LiberationSans-61" x="150.097656"/>
      <use xlink:href="#LiberationSans-20" x="205.712891"/>
      <use xlink:href="#LiberationSans-44" x="233.496094"/>
      <use xlink:href="#LiberationSans-69" x="305.712891"/>
      <use xlink:href="#LiberationSans-73" x="327.929688"/>
      <use xlink:href="#LiberationSans-74" x="377.929688"/>
      <use xlink:href="#LiberationSans-72" x="405.712891"/>
      <use xlink:href="#LiberationSans-69" x="439.013672"/>
      <use xlink:href="#LiberationSans-62" x="461.230469"/>
      <use xlink:href="#LiberationSans-75" x="516.845703"/>
      <use xlink:href="#LiberationSans-74" x="572.460938"/>
      <use xlink:href="#LiberationSans-69" x="600.244141"/>
      <use xlink:href="#LiberationSans-6f" x="622.460938"/>
      <use xlink:href="#LiberationSans-6e" x="678.076172"/>
      <use xlink:href="#LiberationSans-20" x="733.691406"/>
      <use xlink:href="#LiberationSans-28" x="761.474609"/>
      <use xlink:href="#LiberationSans-70" x="794.775391"/>
      <use xlink:href="#LiberationSans-76" x="850.390625"/>
      <use xlink:href="#LiberationSans-61" x="900.390625"/>
      <use xlink:href="#LiberationSans-6c" x="956.005859"/>
      <use xlink:href="#LiberationSans-75" x="978.222656"/>
      <use xlink:href="#LiberationSans-65" x="1033.837891"/>
      <use xlink:href="#LiberationSans-20" x="1089.453125"/>
      <use xlink:href="#LiberationSans-30" x="1117.236328"/>
      <use xlink:href="#LiberationSans-2e" x="1172.851562"/>
      <use xlink:href="#LiberationSans-31" x="1200.634766"/>
      <use xlink:href="#LiberationSans-37" x="1256.25"/>
      <use xlink:href="#LiberationSans-36" x="1311.865234"/>
      <use xlink:href="#LiberationSans-29" x="1367.480469"/>
     </g>
    </g>
    <g id="line2d_60">
     <path d="M 458.889063 260.34875 
L 468.889063 260.34875 
L 478.889063 260.34875 
" style="fill: none; stroke: #6a3d9a; stroke-width: 1.5; stroke-linecap: round"/>
    </g>
    <g id="text_27">
     <!-- Weibull Distribution (pvalue 0.174) -->
     <g style="fill: #262626" transform="translate(486.889063 263.84875) scale(0.1 -0.1)">
      <use xlink:href="#LiberationSans-57"/>
      <use xlink:href="#LiberationSans-65" x="92.634766"/>
      <use xlink:href="#LiberationSans-69" x="148.25"/>
      <use xlink:href="#LiberationSans-62" x="170.466797"/>
      <use xlink:href="#LiberationSans-75" x="226.082031"/>
      <use xlink:href="#LiberationSans-6c" x="281.697266"/>
      <use xlink:href="#LiberationSans-6c" x="303.914062"/>
      <use xlink:href="#LiberationSans-20" x="326.130859"/>
      <use xlink:href="#LiberationSans-44" x="353.914062"/>
      <use xlink:href="#LiberationSans-69" x="426.130859"/>
      <use xlink:href="#LiberationSans-73" x="448.347656"/>
      <use xlink:href="#LiberationSans-74" x="498.347656"/>
      <use xlink:href="#LiberationSans-72" x="526.130859"/>
      <use xlink:href="#LiberationSans-69" x="559.431641"/>
      <use xlink:href="#LiberationSans-62" x="581.648438"/>
      <use xlink:href="#LiberationSans-75" x="637.263672"/>
      <use xlink:href="#LiberationSans-74" x="692.878906"/>
      <use xlink:href="#LiberationSans-69" x="720.662109"/>
      <use xlink:href="#LiberationSans-6f" x="742.878906"/>
      <use xlink:href="#LiberationSans-6e" x="798.494141"/>
      <use xlink:href="#LiberationSans-20" x="854.109375"/>
      <use xlink:href="#LiberationSans-28" x="881.892578"/>
      <use xlink:href="#LiberationSans-70" x="915.193359"/>
      <use xlink:href="#LiberationSans-76" x="970.808594"/>
      <use xlink:href="#LiberationSans-61" x="1020.808594"/>
      <use xlink:href="#LiberationSans-6c" x="1076.423828"/>
      <use xlink:href="#LiberationSans-75" x="1098.640625"/>
      <use xlink:href="#LiberationSans-65" x="1154.255859"/>
      <use xlink:href="#LiberationSans-20" x="1209.871094"/>
      <use xlink:href="#LiberationSans-30" x="1237.654297"/>
      <use xlink:href="#LiberationSans-2e" x="1293.269531"/>
      <use xlink:href="#LiberationSans-31" x="1321.052734"/>
      <use xlink:href="#LiberationSans-37" x="1376.667969"/>
      <use xlink:href="#LiberationSans-34" x="1432.283203"/>
      <use xlink:href="#LiberationSans-29" x="1487.898438"/>
     </g>
    </g>
   </g>
  </g>
  <g id="text_28">
   <!-- Age distribution -->
   <g style="fill: #262626" transform="translate(318.644063 17.33625) scale(0.12 -0.12)">
    <use xlink:href="#LiberationSans-41"/>
    <use xlink:href="#LiberationSans-67" x="66.699219"/>
    <use xlink:href="#LiberationSans-65" x="122.314453"/>
    <use xlink:href="#LiberationSans-20" x="177.929688"/>
    <use xlink:href="#LiberationSans-64" x="205.712891"/>
    <use xlink:href="#LiberationSans-69" x="261.328125"/>
    <use xlink:href="#LiberationSans-73" x="283.544922"/>
    <use xlink:href="#LiberationSans-74" x="333.544922"/>
    <use xlink:href="#LiberationSans-72" x="361.328125"/>
    <use xlink:href="#LiberationSans-69" x="394.628906"/>
    <use xlink:href="#LiberationSans-62" x="416.845703"/>
    <use xlink:href="#LiberationSans-75" x="472.460938"/>
    <use xlink:href="#LiberationSans-74" x="528.076172"/>
    <use xlink:href="#LiberationSans-69" x="555.859375"/>
    <use xlink:href="#LiberationSans-6f" x="578.076172"/>
    <use xlink:href="#LiberationSans-6e" x="633.691406"/>
   </g>
  </g>
 </g>
 <defs>
  <clipPath id="pad2fd064aa">
   <rect x="90" y="51.84" width="558" height="151.2"/>
  </clipPath>
  <clipPath id="p50c38cdf5b">
   <rect x="90" y="233.28" width="558" height="151.2"/>
  </clipPath>
 </defs>
</svg>
