<?xml version="1.0" encoding="utf-8" standalone="no"?>
<!DOCTYPE svg PUBLIC "-//W3C//DTD SVG 1.1//EN"
  "http://www.w3.org/Graphics/SVG/1.1/DTD/svg11.dtd">
<svg xmlns:xlink="http://www.w3.org/1999/xlink" width="720pt" height="360pt" viewBox="0 0 720 360" xmlns="http://www.w3.org/2000/svg" version="1.1">
 <metadata>
  <rdf:RDF xmlns:dc="http://purl.org/dc/elements/1.1/" xmlns:cc="http://creativecommons.org/ns#" xmlns:rdf="http://www.w3.org/1999/02/22-rdf-syntax-ns#">
   <cc:Work>
    <dc:type rdf:resource="http://purl.org/dc/dcmitype/StillImage"/>
    <dc:date>2023-08-09T08:25:18.869246</dc:date>
    <dc:format>image/svg+xml</dc:format>
    <dc:creator>
     <cc:Agent>
      <dc:title>Matplotlib v3.6.2, https://matplotlib.org/</dc:title>
     </cc:Agent>
    </dc:creator>
   </cc:Work>
  </rdf:RDF>
 </metadata>
 <defs>
  <style type="text/css">*{stroke-linejoin: round; stroke-linecap: butt}</style>
 </defs>
 <g id="figure_1">
  <g id="patch_1">
   <path d="M 0 360 
L 720 360 
L 720 0 
L 0 0 
L 0 360 
z
" style="fill: none"/>
  </g>
  <g id="axes_1">
   <g id="patch_2">
    <path d="M 90 320.4 
L 648 320.4 
L 648 43.2 
L 90 43.2 
L 90 320.4 
z
" style="fill: none"/>
   </g>
   <g id="matplotlib.axis_1">
    <g id="xtick_1">
     <g id="line2d_1">
      <path d="M 102.025862 320.4 
L 102.025862 43.2 
" clip-path="url(#p2cee85ccf8)" style="fill: none; stroke: #cccccc; stroke-width: 0.8; stroke-linecap: round"/>
     </g>
     <g id="line2d_2"/>
    </g>
    <g id="xtick_2">
     <g id="line2d_3">
      <path d="M 116.456897 320.4 
L 116.456897 43.2 
" clip-path="url(#p2cee85ccf8)" style="fill: none; stroke: #cccccc; stroke-width: 0.8; stroke-linecap: round"/>
     </g>
     <g id="line2d_4"/>
     <g id="text_1">
      <!-- Logistic -->
      <g style="fill: #262626" transform="translate(99.504553 331.146875) scale(0.1 -0.1)">
       <defs>
        <path id="LiberationSans-4c" d="M 525 0 
L 525 4403 
L 1122 4403 
L 1122 488 
L 3347 488 
L 3347 0 
L 525 0 
z
" transform="scale(0.015625)"/>
        <path id="LiberationSans-6f" d="M 3291 1694 
Q 3291 806 2900 371 
Q 2509 -63 1766 -63 
Q 1413 -63 1134 43 
Q 856 150 664 369 
Q 472 588 370 917 
Q 269 1247 269 1694 
Q 269 3444 1784 3444 
Q 2178 3444 2464 3334 
Q 2750 3225 2933 3006 
Q 3116 2788 3203 2459 
Q 3291 2131 3291 1694 
z
M 2700 1694 
Q 2700 2088 2639 2344 
Q 2578 2600 2461 2753 
Q 2344 2906 2175 2967 
Q 2006 3028 1794 3028 
Q 1578 3028 1404 2964 
Q 1231 2900 1109 2745 
Q 988 2591 923 2334 
Q 859 2078 859 1694 
Q 859 1300 928 1042 
Q 997 784 1117 631 
Q 1238 478 1402 415 
Q 1566 353 1759 353 
Q 1975 353 2150 414 
Q 2325 475 2447 628 
Q 2569 781 2634 1040 
Q 2700 1300 2700 1694 
z
" transform="scale(0.015625)"/>
        <path id="LiberationSans-67" d="M 1713 -1328 
Q 1422 -1328 1197 -1268 
Q 972 -1209 812 -1098 
Q 653 -988 553 -834 
Q 453 -681 409 -494 
L 975 -413 
Q 1031 -647 1223 -773 
Q 1416 -900 1728 -900 
Q 1919 -900 2075 -847 
Q 2231 -794 2340 -676 
Q 2450 -559 2509 -371 
Q 2569 -184 2569 84 
L 2569 628 
L 2563 628 
Q 2500 500 2408 383 
Q 2316 266 2183 175 
Q 2050 84 1875 29 
Q 1700 -25 1475 -25 
Q 1153 -25 923 83 
Q 694 191 548 406 
Q 403 622 336 942 
Q 269 1263 269 1684 
Q 269 2091 336 2416 
Q 403 2741 554 2967 
Q 706 3194 948 3314 
Q 1191 3434 1538 3434 
Q 1897 3434 2161 3270 
Q 2425 3106 2569 2803 
L 2575 2803 
Q 2575 2881 2579 2978 
Q 2584 3075 2589 3161 
Q 2594 3247 2600 3309 
Q 2606 3372 2613 3381 
L 3147 3381 
Q 3144 3353 3141 3286 
Q 3138 3219 3134 3125 
Q 3131 3031 3129 2917 
Q 3128 2803 3128 2681 
L 3128 97 
Q 3128 -613 2779 -970 
Q 2431 -1328 1713 -1328 
z
M 2569 1691 
Q 2569 2044 2492 2295 
Q 2416 2547 2291 2706 
Q 2166 2866 2005 2941 
Q 1844 3016 1675 3016 
Q 1459 3016 1304 2941 
Q 1150 2866 1048 2705 
Q 947 2544 898 2292 
Q 850 2041 850 1691 
Q 850 1325 898 1076 
Q 947 828 1047 675 
Q 1147 522 1300 456 
Q 1453 391 1666 391 
Q 1834 391 1995 462 
Q 2156 534 2284 690 
Q 2413 847 2491 1094 
Q 2569 1341 2569 1691 
z
" transform="scale(0.015625)"/>
        <path id="LiberationSans-69" d="M 428 4100 
L 428 4638 
L 991 4638 
L 991 4100 
L 428 4100 
z
M 428 0 
L 428 3381 
L 991 3381 
L 991 0 
L 428 0 
z
" transform="scale(0.015625)"/>
        <path id="LiberationSans-73" d="M 2969 934 
Q 2969 697 2876 511 
Q 2784 325 2609 198 
Q 2434 72 2179 4 
Q 1925 -63 1597 -63 
Q 1303 -63 1067 -17 
Q 831 28 653 128 
Q 475 228 354 392 
Q 234 556 178 794 
L 675 891 
Q 747 619 972 492 
Q 1197 366 1597 366 
Q 1778 366 1929 391 
Q 2081 416 2190 477 
Q 2300 538 2361 639 
Q 2422 741 2422 891 
Q 2422 1044 2350 1142 
Q 2278 1241 2150 1306 
Q 2022 1372 1839 1420 
Q 1656 1469 1438 1528 
Q 1234 1581 1034 1647 
Q 834 1713 673 1820 
Q 513 1928 413 2087 
Q 313 2247 313 2488 
Q 313 2950 642 3192 
Q 972 3434 1603 3434 
Q 2163 3434 2492 3237 
Q 2822 3041 2909 2606 
L 2403 2544 
Q 2375 2675 2300 2764 
Q 2225 2853 2119 2908 
Q 2013 2963 1880 2986 
Q 1747 3009 1603 3009 
Q 1222 3009 1040 2893 
Q 859 2778 859 2544 
Q 859 2406 926 2317 
Q 994 2228 1114 2167 
Q 1234 2106 1403 2061 
Q 1572 2016 1775 1966 
Q 1909 1931 2050 1892 
Q 2191 1853 2323 1798 
Q 2456 1744 2573 1670 
Q 2691 1597 2778 1494 
Q 2866 1391 2917 1253 
Q 2969 1116 2969 934 
z
" transform="scale(0.015625)"/>
        <path id="LiberationSans-74" d="M 1731 25 
Q 1603 -9 1470 -29 
Q 1338 -50 1163 -50 
Q 488 -50 488 716 
L 488 2972 
L 97 2972 
L 97 3381 
L 509 3381 
L 675 4138 
L 1050 4138 
L 1050 3381 
L 1675 3381 
L 1675 2972 
L 1050 2972 
L 1050 838 
Q 1050 594 1129 495 
Q 1209 397 1406 397 
Q 1488 397 1564 409 
Q 1641 422 1731 441 
L 1731 25 
z
" transform="scale(0.015625)"/>
        <path id="LiberationSans-63" d="M 859 1706 
Q 859 1416 901 1172 
Q 944 928 1044 751 
Q 1144 575 1308 478 
Q 1472 381 1713 381 
Q 2013 381 2214 543 
Q 2416 706 2463 1044 
L 3031 1006 
Q 3003 797 2909 603 
Q 2816 409 2655 262 
Q 2494 116 2262 26 
Q 2031 -63 1728 -63 
Q 1331 -63 1053 71 
Q 775 206 601 442 
Q 428 678 350 998 
Q 272 1319 272 1694 
Q 272 2034 328 2295 
Q 384 2556 486 2751 
Q 588 2947 725 3080 
Q 863 3213 1023 3292 
Q 1184 3372 1362 3408 
Q 1541 3444 1722 3444 
Q 2006 3444 2228 3366 
Q 2450 3288 2611 3152 
Q 2772 3016 2872 2831 
Q 2972 2647 3013 2434 
L 2434 2391 
Q 2391 2672 2212 2837 
Q 2034 3003 1706 3003 
Q 1466 3003 1305 2923 
Q 1144 2844 1044 2683 
Q 944 2522 901 2278 
Q 859 2034 859 1706 
z
" transform="scale(0.015625)"/>
       </defs>
       <use xlink:href="#LiberationSans-4c"/>
       <use xlink:href="#LiberationSans-6f" x="55.615234"/>
       <use xlink:href="#LiberationSans-67" x="111.230469"/>
       <use xlink:href="#LiberationSans-69" x="166.845703"/>
       <use xlink:href="#LiberationSans-73" x="189.0625"/>
       <use xlink:href="#LiberationSans-74" x="239.0625"/>
       <use xlink:href="#LiberationSans-69" x="266.845703"/>
       <use xlink:href="#LiberationSans-63" x="289.0625"/>
      </g>
      <!-- Regression -->
      <g style="fill: #262626" transform="translate(91.167834 341.918125) scale(0.1 -0.1)">
       <defs>
        <path id="LiberationSans-52" d="M 3638 0 
L 2494 1828 
L 1122 1828 
L 1122 0 
L 525 0 
L 525 4403 
L 2597 4403 
Q 2972 4403 3261 4317 
Q 3550 4231 3747 4068 
Q 3944 3906 4047 3672 
Q 4150 3438 4150 3144 
Q 4150 2934 4089 2731 
Q 4028 2528 3897 2359 
Q 3766 2191 3562 2069 
Q 3359 1947 3075 1897 
L 4325 0 
L 3638 0 
z
M 3550 3138 
Q 3550 3338 3481 3484 
Q 3413 3631 3281 3729 
Q 3150 3828 2962 3876 
Q 2775 3925 2538 3925 
L 1122 3925 
L 1122 2300 
L 2563 2300 
Q 2819 2300 3006 2364 
Q 3194 2428 3314 2540 
Q 3434 2653 3492 2806 
Q 3550 2959 3550 3138 
z
" transform="scale(0.015625)"/>
        <path id="LiberationSans-65" d="M 863 1572 
Q 863 1306 917 1082 
Q 972 859 1086 698 
Q 1200 538 1378 448 
Q 1556 359 1806 359 
Q 2172 359 2392 506 
Q 2613 653 2691 878 
L 3184 738 
Q 3131 597 3036 455 
Q 2941 313 2781 198 
Q 2622 84 2383 10 
Q 2144 -63 1806 -63 
Q 1056 -63 664 384 
Q 272 831 272 1713 
Q 272 2188 390 2517 
Q 509 2847 715 3053 
Q 922 3259 1197 3351 
Q 1472 3444 1784 3444 
Q 2209 3444 2495 3306 
Q 2781 3169 2954 2926 
Q 3128 2684 3201 2356 
Q 3275 2028 3275 1647 
L 3275 1572 
L 863 1572 
z
M 2694 2003 
Q 2647 2538 2422 2783 
Q 2197 3028 1775 3028 
Q 1634 3028 1479 2983 
Q 1325 2938 1194 2822 
Q 1063 2706 972 2507 
Q 881 2309 869 2003 
L 2694 2003 
z
" transform="scale(0.015625)"/>
        <path id="LiberationSans-72" d="M 444 0 
L 444 2594 
Q 444 2700 442 2811 
Q 441 2922 437 3025 
Q 434 3128 431 3218 
Q 428 3309 425 3381 
L 956 3381 
Q 959 3309 964 3217 
Q 969 3125 973 3028 
Q 978 2931 979 2842 
Q 981 2753 981 2691 
L 994 2691 
Q 1053 2884 1120 3026 
Q 1188 3169 1278 3261 
Q 1369 3353 1494 3398 
Q 1619 3444 1797 3444 
Q 1866 3444 1928 3433 
Q 1991 3422 2025 3413 
L 2025 2897 
Q 1969 2913 1894 2920 
Q 1819 2928 1725 2928 
Q 1531 2928 1395 2840 
Q 1259 2753 1173 2598 
Q 1088 2444 1047 2230 
Q 1006 2016 1006 1763 
L 1006 0 
L 444 0 
z
" transform="scale(0.015625)"/>
        <path id="LiberationSans-6e" d="M 2578 0 
L 2578 2144 
Q 2578 2391 2542 2556 
Q 2506 2722 2425 2823 
Q 2344 2925 2211 2967 
Q 2078 3009 1881 3009 
Q 1681 3009 1520 2939 
Q 1359 2869 1245 2736 
Q 1131 2603 1068 2408 
Q 1006 2213 1006 1959 
L 1006 0 
L 444 0 
L 444 2659 
Q 444 2766 442 2883 
Q 441 3000 437 3104 
Q 434 3209 431 3284 
Q 428 3359 425 3381 
L 956 3381 
Q 959 3366 962 3297 
Q 966 3228 970 3139 
Q 975 3050 978 2958 
Q 981 2866 981 2803 
L 991 2803 
Q 1072 2950 1169 3069 
Q 1266 3188 1394 3270 
Q 1522 3353 1687 3398 
Q 1853 3444 2072 3444 
Q 2353 3444 2556 3375 
Q 2759 3306 2890 3162 
Q 3022 3019 3083 2792 
Q 3144 2566 3144 2253 
L 3144 0 
L 2578 0 
z
" transform="scale(0.015625)"/>
       </defs>
       <use xlink:href="#LiberationSans-52"/>
       <use xlink:href="#LiberationSans-65" x="72.216797"/>
       <use xlink:href="#LiberationSans-67" x="127.832031"/>
       <use xlink:href="#LiberationSans-72" x="183.447266"/>
       <use xlink:href="#LiberationSans-65" x="216.748047"/>
       <use xlink:href="#LiberationSans-73" x="272.363281"/>
       <use xlink:href="#LiberationSans-73" x="322.363281"/>
       <use xlink:href="#LiberationSans-69" x="372.363281"/>
       <use xlink:href="#LiberationSans-6f" x="394.580078"/>
       <use xlink:href="#LiberationSans-6e" x="450.195312"/>
      </g>
     </g>
    </g>
    <g id="xtick_3">
     <g id="line2d_5">
      <path d="M 130.887931 320.4 
L 130.887931 43.2 
" clip-path="url(#p2cee85ccf8)" style="fill: none; stroke: #cccccc; stroke-width: 0.8; stroke-linecap: round"/>
     </g>
     <g id="line2d_6"/>
    </g>
    <g id="xtick_4">
     <g id="line2d_7">
      <path d="M 174.181034 320.4 
L 174.181034 43.2 
" clip-path="url(#p2cee85ccf8)" style="fill: none; stroke: #cccccc; stroke-width: 0.8; stroke-linecap: round"/>
     </g>
     <g id="line2d_8"/>
    </g>
    <g id="xtick_5">
     <g id="line2d_9">
      <path d="M 188.612069 320.4 
L 188.612069 43.2 
" clip-path="url(#p2cee85ccf8)" style="fill: none; stroke: #cccccc; stroke-width: 0.8; stroke-linecap: round"/>
     </g>
     <g id="line2d_10"/>
     <g id="text_2">
      <!-- Linear -->
      <g style="fill: #262626" transform="translate(174.714413 331.146875) scale(0.1 -0.1)">
       <defs>
        <path id="LiberationSans-61" d="M 1294 -63 
Q 784 -63 528 206 
Q 272 475 272 944 
Q 272 1278 398 1492 
Q 525 1706 729 1828 
Q 934 1950 1196 1997 
Q 1459 2044 1731 2050 
L 2491 2063 
L 2491 2247 
Q 2491 2456 2447 2603 
Q 2403 2750 2312 2840 
Q 2222 2931 2086 2973 
Q 1950 3016 1766 3016 
Q 1603 3016 1472 2992 
Q 1341 2969 1244 2908 
Q 1147 2847 1087 2742 
Q 1028 2638 1009 2478 
L 422 2531 
Q 453 2731 540 2898 
Q 628 3066 789 3187 
Q 950 3309 1192 3376 
Q 1434 3444 1778 3444 
Q 2416 3444 2737 3151 
Q 3059 2859 3059 2306 
L 3059 850 
Q 3059 600 3125 473 
Q 3191 347 3375 347 
Q 3422 347 3469 353 
Q 3516 359 3559 369 
L 3559 19 
Q 3453 -6 3348 -18 
Q 3244 -31 3125 -31 
Q 2966 -31 2852 11 
Q 2738 53 2666 139 
Q 2594 225 2556 351 
Q 2519 478 2509 647 
L 2491 647 
Q 2400 484 2292 353 
Q 2184 222 2040 130 
Q 1897 38 1714 -12 
Q 1531 -63 1294 -63 
z
M 1422 359 
Q 1691 359 1892 457 
Q 2094 556 2226 709 
Q 2359 863 2425 1044 
Q 2491 1225 2491 1391 
L 2491 1669 
L 1875 1656 
Q 1669 1653 1483 1626 
Q 1297 1600 1156 1522 
Q 1016 1444 933 1303 
Q 850 1163 850 934 
Q 850 659 998 509 
Q 1147 359 1422 359 
z
" transform="scale(0.015625)"/>
       </defs>
       <use xlink:href="#LiberationSans-4c"/>
       <use xlink:href="#LiberationSans-69" x="55.615234"/>
       <use xlink:href="#LiberationSans-6e" x="77.832031"/>
       <use xlink:href="#LiberationSans-65" x="133.447266"/>
       <use xlink:href="#LiberationSans-61" x="189.0625"/>
       <use xlink:href="#LiberationSans-72" x="244.677734"/>
      </g>
      <!-- Discriminant -->
      <g style="fill: #262626" transform="translate(161.108163 341.918125) scale(0.1 -0.1)">
       <defs>
        <path id="LiberationSans-44" d="M 4316 2247 
Q 4316 1697 4150 1276 
Q 3984 856 3696 573 
Q 3409 291 3017 145 
Q 2625 0 2172 0 
L 525 0 
L 525 4403 
L 1981 4403 
Q 2491 4403 2920 4276 
Q 3350 4150 3659 3886 
Q 3969 3622 4142 3215 
Q 4316 2809 4316 2247 
z
M 3716 2247 
Q 3716 2694 3587 3011 
Q 3459 3328 3228 3531 
Q 2997 3734 2675 3829 
Q 2353 3925 1969 3925 
L 1122 3925 
L 1122 478 
L 2103 478 
Q 2450 478 2745 590 
Q 3041 703 3256 925 
Q 3472 1147 3594 1478 
Q 3716 1809 3716 2247 
z
" transform="scale(0.015625)"/>
        <path id="LiberationSans-6d" d="M 2400 0 
L 2400 2144 
Q 2400 2391 2369 2556 
Q 2338 2722 2264 2823 
Q 2191 2925 2072 2967 
Q 1953 3009 1781 3009 
Q 1603 3009 1459 2939 
Q 1316 2869 1214 2736 
Q 1113 2603 1058 2408 
Q 1003 2213 1003 1959 
L 1003 0 
L 444 0 
L 444 2659 
Q 444 2766 442 2883 
Q 441 3000 437 3104 
Q 434 3209 431 3284 
Q 428 3359 425 3381 
L 956 3381 
Q 959 3366 962 3297 
Q 966 3228 970 3139 
Q 975 3050 978 2958 
Q 981 2866 981 2803 
L 991 2803 
Q 1066 2950 1153 3069 
Q 1241 3188 1358 3270 
Q 1475 3353 1626 3398 
Q 1778 3444 1978 3444 
Q 2363 3444 2586 3291 
Q 2809 3138 2897 2803 
L 2906 2803 
Q 2981 2950 3075 3069 
Q 3169 3188 3294 3270 
Q 3419 3353 3575 3398 
Q 3731 3444 3931 3444 
Q 4188 3444 4373 3375 
Q 4559 3306 4678 3162 
Q 4797 3019 4853 2792 
Q 4909 2566 4909 2253 
L 4909 0 
L 4353 0 
L 4353 2144 
Q 4353 2391 4322 2556 
Q 4291 2722 4217 2823 
Q 4144 2925 4025 2967 
Q 3906 3009 3734 3009 
Q 3556 3009 3412 2942 
Q 3269 2875 3167 2744 
Q 3066 2613 3011 2416 
Q 2956 2219 2956 1959 
L 2956 0 
L 2400 0 
z
" transform="scale(0.015625)"/>
       </defs>
       <use xlink:href="#LiberationSans-44"/>
       <use xlink:href="#LiberationSans-69" x="72.216797"/>
       <use xlink:href="#LiberationSans-73" x="94.433594"/>
       <use xlink:href="#LiberationSans-63" x="144.433594"/>
       <use xlink:href="#LiberationSans-72" x="194.433594"/>
       <use xlink:href="#LiberationSans-69" x="227.734375"/>
       <use xlink:href="#LiberationSans-6d" x="249.951172"/>
       <use xlink:href="#LiberationSans-69" x="333.251953"/>
       <use xlink:href="#LiberationSans-6e" x="355.46875"/>
       <use xlink:href="#LiberationSans-61" x="411.083984"/>
       <use xlink:href="#LiberationSans-6e" x="466.699219"/>
       <use xlink:href="#LiberationSans-74" x="522.314453"/>
      </g>
     </g>
    </g>
    <g id="xtick_6">
     <g id="line2d_11">
      <path d="M 203.043103 320.4 
L 203.043103 43.2 
" clip-path="url(#p2cee85ccf8)" style="fill: none; stroke: #cccccc; stroke-width: 0.8; stroke-linecap: round"/>
     </g>
     <g id="line2d_12"/>
    </g>
    <g id="xtick_7">
     <g id="line2d_13">
      <path d="M 246.336207 320.4 
L 246.336207 43.2 
" clip-path="url(#p2cee85ccf8)" style="fill: none; stroke: #cccccc; stroke-width: 0.8; stroke-linecap: round"/>
     </g>
     <g id="line2d_14"/>
    </g>
    <g id="xtick_8">
     <g id="line2d_15">
      <path d="M 260.767241 320.4 
L 260.767241 43.2 
" clip-path="url(#p2cee85ccf8)" style="fill: none; stroke: #cccccc; stroke-width: 0.8; stroke-linecap: round"/>
     </g>
     <g id="line2d_16"/>
     <g id="text_3">
      <!-- K-Nearest -->
      <g style="fill: #262626" transform="translate(238.260991 331.146875) scale(0.1 -0.1)">
       <defs>
        <path id="LiberationSans-4b" d="M 3456 0 
L 1697 2125 
L 1122 1688 
L 1122 0 
L 525 0 
L 525 4403 
L 1122 4403 
L 1122 2197 
L 3244 4403 
L 3947 4403 
L 2072 2491 
L 4197 0 
L 3456 0 
z
" transform="scale(0.015625)"/>
        <path id="LiberationSans-2d" d="M 284 1450 
L 284 1950 
L 1847 1950 
L 1847 1450 
L 284 1450 
z
" transform="scale(0.015625)"/>
        <path id="LiberationSans-4e" d="M 3381 0 
L 1025 3750 
Q 1031 3597 1041 3447 
Q 1047 3319 1051 3176 
Q 1056 3034 1056 2925 
L 1056 0 
L 525 0 
L 525 4403 
L 1219 4403 
L 3600 628 
Q 3591 781 3581 934 
Q 3575 1066 3569 1220 
Q 3563 1375 3563 1516 
L 3563 4403 
L 4100 4403 
L 4100 0 
L 3381 0 
z
" transform="scale(0.015625)"/>
       </defs>
       <use xlink:href="#LiberationSans-4b"/>
       <use xlink:href="#LiberationSans-2d" x="66.699219"/>
       <use xlink:href="#LiberationSans-4e" x="100"/>
       <use xlink:href="#LiberationSans-65" x="172.216797"/>
       <use xlink:href="#LiberationSans-61" x="227.832031"/>
       <use xlink:href="#LiberationSans-72" x="283.447266"/>
       <use xlink:href="#LiberationSans-65" x="316.748047"/>
       <use xlink:href="#LiberationSans-73" x="372.363281"/>
       <use xlink:href="#LiberationSans-74" x="422.363281"/>
      </g>
      <!-- Neighbors -->
      <g style="fill: #262626" transform="translate(237.978179 341.918125) scale(0.1 -0.1)">
       <defs>
        <path id="LiberationSans-68" d="M 991 2803 
Q 1084 2975 1193 3095 
Q 1303 3216 1434 3294 
Q 1566 3372 1722 3408 
Q 1878 3444 2072 3444 
Q 2397 3444 2605 3356 
Q 2813 3269 2933 3111 
Q 3053 2953 3098 2734 
Q 3144 2516 3144 2253 
L 3144 0 
L 2578 0 
L 2578 2144 
Q 2578 2359 2551 2521 
Q 2525 2684 2450 2792 
Q 2375 2900 2237 2954 
Q 2100 3009 1881 3009 
Q 1681 3009 1520 2937 
Q 1359 2866 1245 2734 
Q 1131 2603 1068 2415 
Q 1006 2228 1006 1994 
L 1006 0 
L 444 0 
L 444 4638 
L 1006 4638 
L 1006 3431 
Q 1006 3328 1003 3225 
Q 1000 3122 995 3034 
Q 991 2947 987 2886 
Q 984 2825 981 2803 
L 991 2803 
z
" transform="scale(0.015625)"/>
        <path id="LiberationSans-62" d="M 3291 1706 
Q 3291 -63 2047 -63 
Q 1663 -63 1408 76 
Q 1153 216 994 525 
L 988 525 
Q 988 444 983 356 
Q 978 269 973 194 
Q 969 119 964 66 
Q 959 13 956 0 
L 413 0 
Q 416 28 419 95 
Q 422 163 425 256 
Q 428 350 429 462 
Q 431 575 431 697 
L 431 4638 
L 994 4638 
L 994 3316 
Q 994 3222 992 3136 
Q 991 3050 988 2984 
Q 984 2906 981 2838 
L 994 2838 
Q 1150 3163 1408 3303 
Q 1666 3444 2047 3444 
Q 2688 3444 2989 3012 
Q 3291 2581 3291 1706 
z
M 2700 1688 
Q 2700 2038 2656 2288 
Q 2613 2538 2516 2698 
Q 2419 2859 2269 2934 
Q 2119 3009 1903 3009 
Q 1681 3009 1511 2937 
Q 1341 2866 1227 2706 
Q 1113 2547 1053 2287 
Q 994 2028 994 1653 
Q 994 1291 1053 1044 
Q 1113 797 1227 642 
Q 1341 488 1509 420 
Q 1678 353 1897 353 
Q 2103 353 2253 425 
Q 2403 497 2503 656 
Q 2603 816 2651 1070 
Q 2700 1325 2700 1688 
z
" transform="scale(0.015625)"/>
       </defs>
       <use xlink:href="#LiberationSans-4e"/>
       <use xlink:href="#LiberationSans-65" x="72.216797"/>
       <use xlink:href="#LiberationSans-69" x="127.832031"/>
       <use xlink:href="#LiberationSans-67" x="150.048828"/>
       <use xlink:href="#LiberationSans-68" x="205.664062"/>
       <use xlink:href="#LiberationSans-62" x="261.279297"/>
       <use xlink:href="#LiberationSans-6f" x="316.894531"/>
       <use xlink:href="#LiberationSans-72" x="372.509766"/>
       <use xlink:href="#LiberationSans-73" x="405.810547"/>
      </g>
     </g>
    </g>
    <g id="xtick_9">
     <g id="line2d_17">
      <path d="M 275.198276 320.4 
L 275.198276 43.2 
" clip-path="url(#p2cee85ccf8)" style="fill: none; stroke: #cccccc; stroke-width: 0.8; stroke-linecap: round"/>
     </g>
     <g id="line2d_18"/>
    </g>
    <g id="xtick_10">
     <g id="line2d_19">
      <path d="M 318.491379 320.4 
L 318.491379 43.2 
" clip-path="url(#p2cee85ccf8)" style="fill: none; stroke: #cccccc; stroke-width: 0.8; stroke-linecap: round"/>
     </g>
     <g id="line2d_20"/>
    </g>
    <g id="xtick_11">
     <g id="line2d_21">
      <path d="M 332.922414 320.4 
L 332.922414 43.2 
" clip-path="url(#p2cee85ccf8)" style="fill: none; stroke: #cccccc; stroke-width: 0.8; stroke-linecap: round"/>
     </g>
     <g id="line2d_22"/>
     <g id="text_4">
      <!-- Decision Tree -->
      <g style="fill: #262626" transform="translate(302.354445 331.146875) scale(0.1 -0.1)">
       <defs>
        <path id="LiberationSans-20" transform="scale(0.015625)"/>
        <path id="LiberationSans-54" d="M 2250 3916 
L 2250 0 
L 1656 0 
L 1656 3916 
L 144 3916 
L 144 4403 
L 3763 4403 
L 3763 3916 
L 2250 3916 
z
" transform="scale(0.015625)"/>
       </defs>
       <use xlink:href="#LiberationSans-44"/>
       <use xlink:href="#LiberationSans-65" x="72.216797"/>
       <use xlink:href="#LiberationSans-63" x="127.832031"/>
       <use xlink:href="#LiberationSans-69" x="177.832031"/>
       <use xlink:href="#LiberationSans-73" x="200.048828"/>
       <use xlink:href="#LiberationSans-69" x="250.048828"/>
       <use xlink:href="#LiberationSans-6f" x="272.265625"/>
       <use xlink:href="#LiberationSans-6e" x="327.880859"/>
       <use xlink:href="#LiberationSans-20" x="383.496094"/>
       <use xlink:href="#LiberationSans-54" x="409.529297"/>
       <use xlink:href="#LiberationSans-72" x="466.863281"/>
       <use xlink:href="#LiberationSans-65" x="500.164062"/>
       <use xlink:href="#LiberationSans-65" x="555.779297"/>
      </g>
     </g>
    </g>
    <g id="xtick_12">
     <g id="line2d_23">
      <path d="M 347.353448 320.4 
L 347.353448 43.2 
" clip-path="url(#p2cee85ccf8)" style="fill: none; stroke: #cccccc; stroke-width: 0.8; stroke-linecap: round"/>
     </g>
     <g id="line2d_24"/>
    </g>
    <g id="xtick_13">
     <g id="line2d_25">
      <path d="M 390.646552 320.4 
L 390.646552 43.2 
" clip-path="url(#p2cee85ccf8)" style="fill: none; stroke: #cccccc; stroke-width: 0.8; stroke-linecap: round"/>
     </g>
     <g id="line2d_26"/>
    </g>
    <g id="xtick_14">
     <g id="line2d_27">
      <path d="M 405.077586 320.4 
L 405.077586 43.2 
" clip-path="url(#p2cee85ccf8)" style="fill: none; stroke: #cccccc; stroke-width: 0.8; stroke-linecap: round"/>
     </g>
     <g id="line2d_28"/>
     <g id="text_5">
      <!-- Naive Bayes -->
      <g style="fill: #262626" transform="translate(377.009617 331.146875) scale(0.1 -0.1)">
       <defs>
        <path id="LiberationSans-76" d="M 1916 0 
L 1250 0 
L 22 3381 
L 622 3381 
L 1366 1181 
Q 1388 1113 1417 1014 
Q 1447 916 1478 809 
Q 1509 703 1536 604 
Q 1563 506 1581 441 
Q 1600 506 1629 604 
Q 1659 703 1690 806 
Q 1722 909 1755 1007 
Q 1788 1106 1813 1175 
L 2581 3381 
L 3178 3381 
L 1916 0 
z
" transform="scale(0.015625)"/>
        <path id="LiberationSans-42" d="M 3931 1241 
Q 3931 906 3800 670 
Q 3669 434 3447 286 
Q 3225 138 2931 69 
Q 2638 0 2313 0 
L 525 0 
L 525 4403 
L 2125 4403 
Q 2491 4403 2778 4342 
Q 3066 4281 3266 4150 
Q 3466 4019 3570 3817 
Q 3675 3616 3675 3334 
Q 3675 3150 3623 2987 
Q 3572 2825 3467 2692 
Q 3363 2559 3205 2464 
Q 3047 2369 2838 2322 
Q 3103 2291 3308 2200 
Q 3513 2109 3650 1968 
Q 3788 1828 3859 1642 
Q 3931 1456 3931 1241 
z
M 3075 3263 
Q 3075 3619 2831 3772 
Q 2588 3925 2125 3925 
L 1122 3925 
L 1122 2531 
L 2125 2531 
Q 2388 2531 2569 2582 
Q 2750 2634 2862 2729 
Q 2975 2825 3025 2959 
Q 3075 3094 3075 3263 
z
M 3328 1288 
Q 3328 1497 3251 1644 
Q 3175 1791 3031 1884 
Q 2888 1978 2686 2022 
Q 2484 2066 2234 2066 
L 1122 2066 
L 1122 478 
L 2281 478 
Q 2509 478 2701 515 
Q 2894 553 3033 647 
Q 3172 741 3250 897 
Q 3328 1053 3328 1288 
z
" transform="scale(0.015625)"/>
        <path id="LiberationSans-79" d="M 1888 0 
Q 1769 -306 1645 -551 
Q 1522 -797 1369 -970 
Q 1216 -1144 1028 -1236 
Q 841 -1328 597 -1328 
Q 491 -1328 400 -1322 
Q 309 -1316 209 -1294 
L 209 -872 
Q 269 -881 344 -886 
Q 419 -891 472 -891 
Q 719 -891 931 -706 
Q 1144 -522 1303 -119 
L 1356 16 
L 16 3381 
L 616 3381 
L 1328 1513 
Q 1359 1428 1407 1287 
Q 1456 1147 1504 1006 
Q 1553 866 1590 753 
Q 1628 641 1634 613 
Q 1644 647 1680 748 
Q 1716 850 1761 975 
Q 1806 1100 1853 1228 
Q 1900 1356 1931 1450 
L 2594 3381 
L 3188 3381 
L 1888 0 
z
" transform="scale(0.015625)"/>
       </defs>
       <use xlink:href="#LiberationSans-4e"/>
       <use xlink:href="#LiberationSans-61" x="72.216797"/>
       <use xlink:href="#LiberationSans-69" x="127.832031"/>
       <use xlink:href="#LiberationSans-76" x="150.048828"/>
       <use xlink:href="#LiberationSans-65" x="200.048828"/>
       <use xlink:href="#LiberationSans-20" x="255.664062"/>
       <use xlink:href="#LiberationSans-42" x="283.447266"/>
       <use xlink:href="#LiberationSans-61" x="350.146484"/>
       <use xlink:href="#LiberationSans-79" x="405.761719"/>
       <use xlink:href="#LiberationSans-65" x="455.761719"/>
       <use xlink:href="#LiberationSans-73" x="511.376953"/>
      </g>
     </g>
    </g>
    <g id="xtick_15">
     <g id="line2d_29">
      <path d="M 419.508621 320.4 
L 419.508621 43.2 
" clip-path="url(#p2cee85ccf8)" style="fill: none; stroke: #cccccc; stroke-width: 0.8; stroke-linecap: round"/>
     </g>
     <g id="line2d_30"/>
    </g>
    <g id="xtick_16">
     <g id="line2d_31">
      <path d="M 462.801724 320.4 
L 462.801724 43.2 
" clip-path="url(#p2cee85ccf8)" style="fill: none; stroke: #cccccc; stroke-width: 0.8; stroke-linecap: round"/>
     </g>
     <g id="line2d_32"/>
    </g>
    <g id="xtick_17">
     <g id="line2d_33">
      <path d="M 477.232759 320.4 
L 477.232759 43.2 
" clip-path="url(#p2cee85ccf8)" style="fill: none; stroke: #cccccc; stroke-width: 0.8; stroke-linecap: round"/>
     </g>
     <g id="line2d_34"/>
     <g id="text_6">
      <!-- Random Forest -->
      <g style="fill: #262626" transform="translate(442.77729 331.146875) scale(0.1 -0.1)">
       <defs>
        <path id="LiberationSans-64" d="M 2566 544 
Q 2409 219 2151 78 
Q 1894 -63 1513 -63 
Q 872 -63 570 368 
Q 269 800 269 1675 
Q 269 3444 1513 3444 
Q 1897 3444 2153 3303 
Q 2409 3163 2566 2856 
L 2572 2856 
Q 2572 2888 2570 2955 
Q 2569 3022 2567 3095 
Q 2566 3169 2566 3234 
Q 2566 3300 2566 3328 
L 2566 4638 
L 3128 4638 
L 3128 697 
Q 3128 575 3129 462 
Q 3131 350 3134 256 
Q 3138 163 3141 95 
Q 3144 28 3147 0 
L 2609 0 
Q 2603 31 2598 89 
Q 2594 147 2589 222 
Q 2584 297 2581 380 
Q 2578 463 2578 544 
L 2566 544 
z
M 859 1694 
Q 859 1344 903 1094 
Q 947 844 1044 683 
Q 1141 522 1291 447 
Q 1441 372 1656 372 
Q 1878 372 2048 444 
Q 2219 516 2333 677 
Q 2447 838 2506 1097 
Q 2566 1356 2566 1731 
Q 2566 2091 2506 2339 
Q 2447 2588 2331 2741 
Q 2216 2894 2048 2961 
Q 1881 3028 1663 3028 
Q 1456 3028 1306 2956 
Q 1156 2884 1056 2725 
Q 956 2566 907 2311 
Q 859 2056 859 1694 
z
" transform="scale(0.015625)"/>
        <path id="LiberationSans-46" d="M 1122 3916 
L 1122 2278 
L 3578 2278 
L 3578 1784 
L 1122 1784 
L 1122 0 
L 525 0 
L 525 4403 
L 3653 4403 
L 3653 3916 
L 1122 3916 
z
" transform="scale(0.015625)"/>
       </defs>
       <use xlink:href="#LiberationSans-52"/>
       <use xlink:href="#LiberationSans-61" x="72.216797"/>
       <use xlink:href="#LiberationSans-6e" x="127.832031"/>
       <use xlink:href="#LiberationSans-64" x="183.447266"/>
       <use xlink:href="#LiberationSans-6f" x="239.0625"/>
       <use xlink:href="#LiberationSans-6d" x="294.677734"/>
       <use xlink:href="#LiberationSans-20" x="377.978516"/>
       <use xlink:href="#LiberationSans-46" x="405.761719"/>
       <use xlink:href="#LiberationSans-6f" x="466.845703"/>
       <use xlink:href="#LiberationSans-72" x="522.460938"/>
       <use xlink:href="#LiberationSans-65" x="555.761719"/>
       <use xlink:href="#LiberationSans-73" x="611.376953"/>
       <use xlink:href="#LiberationSans-74" x="661.376953"/>
      </g>
     </g>
    </g>
    <g id="xtick_18">
     <g id="line2d_35">
      <path d="M 491.663793 320.4 
L 491.663793 43.2 
" clip-path="url(#p2cee85ccf8)" style="fill: none; stroke: #cccccc; stroke-width: 0.8; stroke-linecap: round"/>
     </g>
     <g id="line2d_36"/>
    </g>
    <g id="xtick_19">
     <g id="line2d_37">
      <path d="M 534.956897 320.4 
L 534.956897 43.2 
" clip-path="url(#p2cee85ccf8)" style="fill: none; stroke: #cccccc; stroke-width: 0.8; stroke-linecap: round"/>
     </g>
     <g id="line2d_38"/>
    </g>
    <g id="xtick_20">
     <g id="line2d_39">
      <path d="M 549.387931 320.4 
L 549.387931 43.2 
" clip-path="url(#p2cee85ccf8)" style="fill: none; stroke: #cccccc; stroke-width: 0.8; stroke-linecap: round"/>
     </g>
     <g id="line2d_40"/>
     <g id="text_7">
      <!-- SVM -->
      <g style="fill: #262626" transform="translate(538.552775 331.146875) scale(0.1 -0.1)">
       <defs>
        <path id="LiberationSans-53" d="M 3975 1216 
Q 3975 938 3867 703 
Q 3759 469 3534 298 
Q 3309 128 2967 32 
Q 2625 -63 2156 -63 
Q 1334 -63 875 225 
Q 416 513 291 1056 
L 869 1172 
Q 913 1000 1003 859 
Q 1094 719 1248 617 
Q 1403 516 1631 459 
Q 1859 403 2178 403 
Q 2444 403 2666 448 
Q 2888 494 3047 587 
Q 3206 681 3295 829 
Q 3384 978 3384 1184 
Q 3384 1400 3286 1534 
Q 3188 1669 3009 1756 
Q 2831 1844 2584 1903 
Q 2338 1963 2038 2031 
Q 1853 2072 1667 2120 
Q 1481 2169 1311 2236 
Q 1141 2303 991 2393 
Q 841 2484 731 2611 
Q 622 2738 559 2905 
Q 497 3072 497 3291 
Q 497 3603 623 3826 
Q 750 4050 975 4194 
Q 1200 4338 1506 4403 
Q 1813 4469 2169 4469 
Q 2578 4469 2868 4405 
Q 3159 4341 3359 4212 
Q 3559 4084 3679 3895 
Q 3800 3706 3872 3456 
L 3284 3353 
Q 3241 3513 3158 3638 
Q 3075 3763 2940 3847 
Q 2806 3931 2614 3975 
Q 2422 4019 2163 4019 
Q 1856 4019 1648 3964 
Q 1441 3909 1314 3815 
Q 1188 3722 1133 3595 
Q 1078 3469 1078 3322 
Q 1078 3125 1176 2998 
Q 1275 2872 1444 2787 
Q 1613 2703 1834 2647 
Q 2056 2591 2306 2534 
Q 2509 2488 2711 2439 
Q 2913 2391 3097 2323 
Q 3281 2256 3442 2165 
Q 3603 2075 3722 1944 
Q 3841 1813 3908 1634 
Q 3975 1456 3975 1216 
z
" transform="scale(0.015625)"/>
        <path id="LiberationSans-56" d="M 2444 0 
L 1825 0 
L 28 4403 
L 656 4403 
L 1875 1303 
Q 1922 1163 1969 1023 
Q 2016 884 2053 775 
Q 2097 647 2138 525 
Q 2175 641 2219 769 
Q 2256 878 2301 1015 
Q 2347 1153 2400 1303 
L 3613 4403 
L 4241 4403 
L 2444 0 
z
" transform="scale(0.015625)"/>
        <path id="LiberationSans-4d" d="M 4269 0 
L 4269 2938 
Q 4269 3097 4272 3262 
Q 4275 3428 4281 3566 
Q 4288 3725 4297 3875 
Q 4253 3716 4206 3559 
Q 4166 3425 4117 3273 
Q 4069 3122 4022 3000 
L 2884 0 
L 2466 0 
L 1313 3000 
Q 1294 3047 1273 3109 
Q 1253 3172 1229 3242 
Q 1206 3313 1182 3386 
Q 1159 3459 1138 3531 
Q 1084 3697 1034 3875 
Q 1038 3700 1044 3528 
Q 1050 3381 1053 3220 
Q 1056 3059 1056 2938 
L 1056 0 
L 525 0 
L 525 4403 
L 1309 4403 
L 2481 1350 
Q 2503 1288 2534 1189 
Q 2566 1091 2594 987 
Q 2622 884 2645 792 
Q 2669 700 2678 650 
Q 2688 700 2713 794 
Q 2738 888 2770 991 
Q 2803 1094 2834 1191 
Q 2866 1288 2891 1350 
L 4041 4403 
L 4806 4403 
L 4806 0 
L 4269 0 
z
" transform="scale(0.015625)"/>
       </defs>
       <use xlink:href="#LiberationSans-53"/>
       <use xlink:href="#LiberationSans-56" x="66.699219"/>
       <use xlink:href="#LiberationSans-4d" x="133.398438"/>
      </g>
     </g>
    </g>
    <g id="xtick_21">
     <g id="line2d_41">
      <path d="M 563.818966 320.4 
L 563.818966 43.2 
" clip-path="url(#p2cee85ccf8)" style="fill: none; stroke: #cccccc; stroke-width: 0.8; stroke-linecap: round"/>
     </g>
     <g id="line2d_42"/>
    </g>
    <g id="xtick_22">
     <g id="line2d_43">
      <path d="M 607.112069 320.4 
L 607.112069 43.2 
" clip-path="url(#p2cee85ccf8)" style="fill: none; stroke: #cccccc; stroke-width: 0.8; stroke-linecap: round"/>
     </g>
     <g id="line2d_44"/>
    </g>
    <g id="xtick_23">
     <g id="line2d_45">
      <path d="M 621.543103 320.4 
L 621.543103 43.2 
" clip-path="url(#p2cee85ccf8)" style="fill: none; stroke: #cccccc; stroke-width: 0.8; stroke-linecap: round"/>
     </g>
     <g id="line2d_46"/>
     <g id="text_8">
      <!-- XGB -->
      <g style="fill: #262626" transform="translate(610.983728 331.146875) scale(0.1 -0.1)">
       <defs>
        <path id="LiberationSans-58" d="M 3475 0 
L 2153 1925 
L 803 0 
L 144 0 
L 1819 2288 
L 272 4403 
L 931 4403 
L 2156 2675 
L 3347 4403 
L 4006 4403 
L 2500 2309 
L 4134 0 
L 3475 0 
z
" transform="scale(0.015625)"/>
        <path id="LiberationSans-47" d="M 322 2222 
Q 322 2738 461 3153 
Q 600 3569 876 3861 
Q 1153 4153 1562 4311 
Q 1972 4469 2513 4469 
Q 2919 4469 3225 4397 
Q 3531 4325 3756 4190 
Q 3981 4056 4137 3864 
Q 4294 3672 4403 3431 
L 3834 3263 
Q 3753 3425 3639 3558 
Q 3525 3691 3362 3784 
Q 3200 3878 2986 3929 
Q 2772 3981 2497 3981 
Q 2097 3981 1801 3856 
Q 1506 3731 1312 3500 
Q 1119 3269 1023 2944 
Q 928 2619 928 2222 
Q 928 1825 1031 1495 
Q 1134 1166 1337 927 
Q 1541 688 1842 555 
Q 2144 422 2541 422 
Q 2800 422 3019 465 
Q 3238 509 3414 579 
Q 3591 650 3725 736 
Q 3859 822 3950 909 
L 3950 1703 
L 2634 1703 
L 2634 2203 
L 4500 2203 
L 4500 684 
Q 4353 534 4154 398 
Q 3956 263 3709 159 
Q 3463 56 3169 -3 
Q 2875 -63 2541 -63 
Q 1984 -63 1568 107 
Q 1153 278 876 583 
Q 600 888 461 1306 
Q 322 1725 322 2222 
z
" transform="scale(0.015625)"/>
       </defs>
       <use xlink:href="#LiberationSans-58"/>
       <use xlink:href="#LiberationSans-47" x="66.699219"/>
       <use xlink:href="#LiberationSans-42" x="144.482422"/>
      </g>
     </g>
    </g>
    <g id="xtick_24">
     <g id="line2d_47">
      <path d="M 635.974138 320.4 
L 635.974138 43.2 
" clip-path="url(#p2cee85ccf8)" style="fill: none; stroke: #cccccc; stroke-width: 0.8; stroke-linecap: round"/>
     </g>
     <g id="line2d_48"/>
    </g>
   </g>
   <g id="matplotlib.axis_2">
    <g id="ytick_1">
     <g id="line2d_49">
      <path d="M 90 283.65 
L 648 283.65 
" clip-path="url(#p2cee85ccf8)" style="fill: none; stroke: #cccccc; stroke-width: 0.8; stroke-linecap: round"/>
     </g>
     <g id="line2d_50"/>
     <g id="text_9">
      <!-- 0.5 -->
      <g style="fill: #262626" transform="translate(72.6 287.273438) scale(0.1 -0.1)">
       <defs>
        <path id="LiberationSans-30" d="M 3309 2203 
Q 3309 1569 3189 1136 
Q 3069 703 2861 436 
Q 2653 169 2372 53 
Q 2091 -63 1772 -63 
Q 1450 -63 1172 53 
Q 894 169 689 434 
Q 484 700 367 1133 
Q 250 1566 250 2203 
Q 250 2869 367 3305 
Q 484 3741 690 4000 
Q 897 4259 1178 4364 
Q 1459 4469 1791 4469 
Q 2106 4469 2382 4364 
Q 2659 4259 2865 4000 
Q 3072 3741 3190 3305 
Q 3309 2869 3309 2203 
z
M 2738 2203 
Q 2738 2728 2675 3076 
Q 2613 3425 2491 3633 
Q 2369 3841 2192 3927 
Q 2016 4013 1791 4013 
Q 1553 4013 1372 3925 
Q 1191 3838 1067 3630 
Q 944 3422 881 3073 
Q 819 2725 819 2203 
Q 819 1697 883 1350 
Q 947 1003 1070 792 
Q 1194 581 1372 489 
Q 1550 397 1778 397 
Q 2000 397 2178 489 
Q 2356 581 2479 792 
Q 2603 1003 2670 1350 
Q 2738 1697 2738 2203 
z
" transform="scale(0.015625)"/>
        <path id="LiberationSans-2e" d="M 584 0 
L 584 684 
L 1194 684 
L 1194 0 
L 584 0 
z
" transform="scale(0.015625)"/>
        <path id="LiberationSans-35" d="M 3291 1434 
Q 3291 1103 3191 828 
Q 3091 553 2894 354 
Q 2697 156 2405 46 
Q 2113 -63 1728 -63 
Q 1381 -63 1123 18 
Q 866 100 687 242 
Q 509 384 404 575 
Q 300 766 256 984 
L 825 1050 
Q 859 925 921 808 
Q 984 691 1092 598 
Q 1200 506 1358 451 
Q 1516 397 1741 397 
Q 1959 397 2137 464 
Q 2316 531 2442 662 
Q 2569 794 2637 984 
Q 2706 1175 2706 1422 
Q 2706 1625 2640 1795 
Q 2575 1966 2453 2089 
Q 2331 2213 2154 2281 
Q 1978 2350 1753 2350 
Q 1613 2350 1494 2325 
Q 1375 2300 1273 2256 
Q 1172 2213 1089 2155 
Q 1006 2097 934 2034 
L 384 2034 
L 531 4403 
L 3034 4403 
L 3034 3925 
L 1044 3925 
L 959 2528 
Q 1109 2644 1334 2726 
Q 1559 2809 1869 2809 
Q 2197 2809 2459 2709 
Q 2722 2609 2906 2426 
Q 3091 2244 3191 1991 
Q 3291 1738 3291 1434 
z
" transform="scale(0.015625)"/>
       </defs>
       <use xlink:href="#LiberationSans-30"/>
       <use xlink:href="#LiberationSans-2e" x="55.615234"/>
       <use xlink:href="#LiberationSans-35" x="83.398438"/>
      </g>
     </g>
    </g>
    <g id="ytick_2">
     <g id="line2d_51">
      <path d="M 90 238.08 
L 648 238.08 
" clip-path="url(#p2cee85ccf8)" style="fill: none; stroke: #cccccc; stroke-width: 0.8; stroke-linecap: round"/>
     </g>
     <g id="line2d_52"/>
     <g id="text_10">
      <!-- 0.6 -->
      <g style="fill: #262626" transform="translate(72.6 241.703437) scale(0.1 -0.1)">
       <defs>
        <path id="LiberationSans-36" d="M 3278 1441 
Q 3278 1109 3186 832 
Q 3094 556 2914 357 
Q 2734 159 2468 48 
Q 2203 -63 1856 -63 
Q 1472 -63 1184 84 
Q 897 231 706 507 
Q 516 784 420 1186 
Q 325 1588 325 2100 
Q 325 2688 433 3131 
Q 541 3575 744 3872 
Q 947 4169 1239 4319 
Q 1531 4469 1900 4469 
Q 2125 4469 2322 4422 
Q 2519 4375 2680 4270 
Q 2841 4166 2962 3994 
Q 3084 3822 3156 3572 
L 2619 3475 
Q 2531 3759 2339 3886 
Q 2147 4013 1894 4013 
Q 1663 4013 1475 3903 
Q 1288 3794 1156 3576 
Q 1025 3359 954 3031 
Q 884 2703 884 2266 
Q 1038 2550 1316 2698 
Q 1594 2847 1953 2847 
Q 2253 2847 2497 2750 
Q 2741 2653 2914 2470 
Q 3088 2288 3183 2027 
Q 3278 1766 3278 1441 
z
M 2706 1416 
Q 2706 1644 2650 1828 
Q 2594 2013 2481 2142 
Q 2369 2272 2203 2342 
Q 2038 2413 1819 2413 
Q 1666 2413 1509 2367 
Q 1353 2322 1226 2220 
Q 1100 2119 1020 1953 
Q 941 1788 941 1550 
Q 941 1306 1003 1095 
Q 1066 884 1183 728 
Q 1300 572 1465 481 
Q 1631 391 1838 391 
Q 2041 391 2202 461 
Q 2363 531 2475 664 
Q 2588 797 2647 987 
Q 2706 1178 2706 1416 
z
" transform="scale(0.015625)"/>
       </defs>
       <use xlink:href="#LiberationSans-30"/>
       <use xlink:href="#LiberationSans-2e" x="55.615234"/>
       <use xlink:href="#LiberationSans-36" x="83.398438"/>
      </g>
     </g>
    </g>
    <g id="ytick_3">
     <g id="line2d_53">
      <path d="M 90 192.51 
L 648 192.51 
" clip-path="url(#p2cee85ccf8)" style="fill: none; stroke: #cccccc; stroke-width: 0.8; stroke-linecap: round"/>
     </g>
     <g id="line2d_54"/>
     <g id="text_11">
      <!-- 0.7 -->
      <g style="fill: #262626" transform="translate(72.6 196.133437) scale(0.1 -0.1)">
       <defs>
        <path id="LiberationSans-37" d="M 3238 3947 
Q 2906 3441 2628 2973 
Q 2350 2506 2150 2032 
Q 1950 1559 1839 1061 
Q 1728 563 1728 0 
L 1141 0 
Q 1141 528 1266 1036 
Q 1391 1544 1603 2033 
Q 1816 2522 2097 2994 
Q 2378 3466 2694 3925 
L 328 3925 
L 328 4403 
L 3238 4403 
L 3238 3947 
z
" transform="scale(0.015625)"/>
       </defs>
       <use xlink:href="#LiberationSans-30"/>
       <use xlink:href="#LiberationSans-2e" x="55.615234"/>
       <use xlink:href="#LiberationSans-37" x="83.398438"/>
      </g>
     </g>
    </g>
    <g id="ytick_4">
     <g id="line2d_55">
      <path d="M 90 146.94 
L 648 146.94 
" clip-path="url(#p2cee85ccf8)" style="fill: none; stroke: #cccccc; stroke-width: 0.8; stroke-linecap: round"/>
     </g>
     <g id="line2d_56"/>
     <g id="text_12">
      <!-- 0.8 -->
      <g style="fill: #262626" transform="translate(72.6 150.563437) scale(0.1 -0.1)">
       <defs>
        <path id="LiberationSans-38" d="M 3281 1228 
Q 3281 947 3192 711 
Q 3103 475 2920 303 
Q 2738 131 2453 34 
Q 2169 -63 1781 -63 
Q 1394 -63 1111 34 
Q 828 131 642 301 
Q 456 472 367 708 
Q 278 944 278 1222 
Q 278 1463 351 1650 
Q 425 1838 548 1973 
Q 672 2109 830 2192 
Q 988 2275 1156 2303 
L 1156 2316 
Q 972 2359 826 2456 
Q 681 2553 582 2689 
Q 484 2825 432 2990 
Q 381 3156 381 3341 
Q 381 3572 470 3776 
Q 559 3981 734 4136 
Q 909 4291 1168 4380 
Q 1428 4469 1769 4469 
Q 2128 4469 2392 4378 
Q 2656 4288 2829 4133 
Q 3003 3978 3087 3772 
Q 3172 3566 3172 3334 
Q 3172 3153 3120 2987 
Q 3069 2822 2970 2686 
Q 2872 2550 2726 2454 
Q 2581 2359 2391 2322 
L 2391 2309 
Q 2581 2278 2743 2195 
Q 2906 2113 3025 1977 
Q 3144 1841 3212 1653 
Q 3281 1466 3281 1228 
z
M 2588 3303 
Q 2588 3469 2545 3606 
Q 2503 3744 2406 3842 
Q 2309 3941 2153 3995 
Q 1997 4050 1769 4050 
Q 1547 4050 1394 3995 
Q 1241 3941 1142 3842 
Q 1044 3744 1000 3606 
Q 956 3469 956 3303 
Q 956 3172 990 3034 
Q 1025 2897 1115 2784 
Q 1206 2672 1365 2600 
Q 1525 2528 1775 2528 
Q 2041 2528 2202 2600 
Q 2363 2672 2448 2784 
Q 2534 2897 2561 3034 
Q 2588 3172 2588 3303 
z
M 2697 1281 
Q 2697 1441 2653 1589 
Q 2609 1738 2503 1852 
Q 2397 1966 2217 2036 
Q 2038 2106 1769 2106 
Q 1522 2106 1348 2036 
Q 1175 1966 1067 1850 
Q 959 1734 909 1582 
Q 859 1431 859 1269 
Q 859 1066 909 898 
Q 959 731 1068 611 
Q 1178 491 1356 425 
Q 1534 359 1788 359 
Q 2044 359 2219 425 
Q 2394 491 2500 611 
Q 2606 731 2651 901 
Q 2697 1072 2697 1281 
z
" transform="scale(0.015625)"/>
       </defs>
       <use xlink:href="#LiberationSans-30"/>
       <use xlink:href="#LiberationSans-2e" x="55.615234"/>
       <use xlink:href="#LiberationSans-38" x="83.398438"/>
      </g>
     </g>
    </g>
    <g id="ytick_5">
     <g id="line2d_57">
      <path d="M 90 101.37 
L 648 101.37 
" clip-path="url(#p2cee85ccf8)" style="fill: none; stroke: #cccccc; stroke-width: 0.8; stroke-linecap: round"/>
     </g>
     <g id="line2d_58"/>
     <g id="text_13">
      <!-- 0.9 -->
      <g style="fill: #262626" transform="translate(72.6 104.993437) scale(0.1 -0.1)">
       <defs>
        <path id="LiberationSans-39" d="M 3256 2291 
Q 3256 1703 3145 1261 
Q 3034 819 2828 525 
Q 2622 231 2326 84 
Q 2031 -63 1663 -63 
Q 1409 -63 1206 -11 
Q 1003 41 843 150 
Q 684 259 571 434 
Q 459 609 391 856 
L 928 941 
Q 1016 656 1202 523 
Q 1388 391 1672 391 
Q 1900 391 2089 498 
Q 2278 606 2411 822 
Q 2544 1038 2619 1363 
Q 2694 1688 2700 2125 
Q 2634 1978 2520 1862 
Q 2406 1747 2261 1667 
Q 2116 1588 1947 1545 
Q 1778 1503 1606 1503 
Q 1306 1503 1064 1611 
Q 822 1719 653 1912 
Q 484 2106 392 2379 
Q 300 2653 300 2988 
Q 300 3328 398 3603 
Q 497 3878 684 4070 
Q 872 4263 1145 4366 
Q 1419 4469 1766 4469 
Q 2500 4469 2878 3925 
Q 3256 3381 3256 2291 
z
M 2644 2834 
Q 2644 3078 2586 3293 
Q 2528 3509 2414 3668 
Q 2300 3828 2133 3920 
Q 1966 4013 1747 4013 
Q 1544 4013 1381 3941 
Q 1219 3869 1106 3736 
Q 994 3603 933 3412 
Q 872 3222 872 2988 
Q 872 2766 926 2575 
Q 981 2384 1090 2245 
Q 1200 2106 1362 2026 
Q 1525 1947 1741 1947 
Q 1897 1947 2058 2000 
Q 2219 2053 2348 2162 
Q 2478 2272 2561 2439 
Q 2644 2606 2644 2834 
z
" transform="scale(0.015625)"/>
       </defs>
       <use xlink:href="#LiberationSans-30"/>
       <use xlink:href="#LiberationSans-2e" x="55.615234"/>
       <use xlink:href="#LiberationSans-39" x="83.398438"/>
      </g>
     </g>
    </g>
    <g id="ytick_6">
     <g id="line2d_59">
      <path d="M 90 55.8 
L 648 55.8 
" clip-path="url(#p2cee85ccf8)" style="fill: none; stroke: #cccccc; stroke-width: 0.8; stroke-linecap: round"/>
     </g>
     <g id="line2d_60"/>
     <g id="text_14">
      <!-- 1.0 -->
      <g style="fill: #262626" transform="translate(72.6 59.423438) scale(0.1 -0.1)">
       <defs>
        <path id="LiberationSans-31" d="M 488 0 
L 488 478 
L 1609 478 
L 1609 3866 
L 616 3156 
L 616 3688 
L 1656 4403 
L 2175 4403 
L 2175 478 
L 3247 478 
L 3247 0 
L 488 0 
z
" transform="scale(0.015625)"/>
       </defs>
       <use xlink:href="#LiberationSans-31"/>
       <use xlink:href="#LiberationSans-2e" x="55.615234"/>
       <use xlink:href="#LiberationSans-30" x="83.398438"/>
      </g>
     </g>
    </g>
    <g id="text_15">
     <!-- Score -->
     <g style="fill: #262626" transform="translate(66.525 194.860937) rotate(-90) scale(0.1 -0.1)">
      <use xlink:href="#LiberationSans-53"/>
      <use xlink:href="#LiberationSans-63" x="66.699219"/>
      <use xlink:href="#LiberationSans-6f" x="116.699219"/>
      <use xlink:href="#LiberationSans-72" x="172.314453"/>
      <use xlink:href="#LiberationSans-65" x="205.615234"/>
     </g>
    </g>
   </g>
   <g id="patch_3">
    <path d="M 94.810345 178.367586 
L 109.241379 178.367586 
L 109.241379 132.190781 
L 94.810345 132.190781 
L 94.810345 178.367586 
z
" clip-path="url(#p2cee85ccf8)" style="fill: #1f78b4; opacity: 0.8; stroke: #ffffff; stroke-linejoin: miter"/>
   </g>
   <g id="line2d_61">
    <path d="M 102.025862 178.367586 
L 102.025862 246.9 
" clip-path="url(#p2cee85ccf8)" style="fill: none; stroke: #1f78b4; stroke-linecap: round"/>
   </g>
   <g id="line2d_62">
    <path d="M 102.025862 132.190781 
L 102.025862 102.941379 
" clip-path="url(#p2cee85ccf8)" style="fill: none; stroke: #1f78b4; stroke-linecap: round"/>
   </g>
   <g id="line2d_63">
    <path d="M 98.418103 246.9 
L 105.633621 246.9 
" clip-path="url(#p2cee85ccf8)" style="fill: none; stroke: #1f78b4; stroke-linecap: round"/>
   </g>
   <g id="line2d_64">
    <path d="M 98.418103 102.941379 
L 105.633621 102.941379 
" clip-path="url(#p2cee85ccf8)" style="fill: none; stroke: #1f78b4; stroke-linecap: round"/>
   </g>
   <g id="line2d_65"/>
   <g id="patch_4">
    <path d="M 109.241379 141.000321 
L 123.672414 141.000321 
L 123.672414 82.407 
L 109.241379 82.407 
L 109.241379 141.000321 
z
" clip-path="url(#p2cee85ccf8)" style="fill: #e31a1c; opacity: 0.8; stroke: #ffffff; stroke-linejoin: miter"/>
   </g>
   <g id="line2d_66">
    <path d="M 116.456897 141.000321 
L 116.456897 162.13 
" clip-path="url(#p2cee85ccf8)" style="fill: none; stroke: #e31a1c; stroke-linecap: round"/>
   </g>
   <g id="line2d_67">
    <path d="M 116.456897 82.407 
L 116.456897 55.8 
" clip-path="url(#p2cee85ccf8)" style="fill: none; stroke: #e31a1c; stroke-linecap: round"/>
   </g>
   <g id="line2d_68">
    <path d="M 112.849138 162.13 
L 120.064655 162.13 
" clip-path="url(#p2cee85ccf8)" style="fill: none; stroke: #e31a1c; stroke-linecap: round"/>
   </g>
   <g id="line2d_69">
    <path d="M 112.849138 55.8 
L 120.064655 55.8 
" clip-path="url(#p2cee85ccf8)" style="fill: none; stroke: #e31a1c; stroke-linecap: round"/>
   </g>
   <g id="line2d_70"/>
   <g id="patch_5">
    <path d="M 123.672414 191.471368 
L 138.103448 191.471368 
L 138.103448 135.38475 
L 123.672414 135.38475 
L 123.672414 191.471368 
z
" clip-path="url(#p2cee85ccf8)" style="fill: #33a02c; opacity: 0.8; stroke: #ffffff; stroke-linejoin: miter"/>
   </g>
   <g id="line2d_71">
    <path d="M 130.887931 191.471368 
L 130.887931 256.79899 
" clip-path="url(#p2cee85ccf8)" style="fill: none; stroke: #33a02c; stroke-linecap: round"/>
   </g>
   <g id="line2d_72">
    <path d="M 130.887931 135.38475 
L 130.887931 83.550962 
" clip-path="url(#p2cee85ccf8)" style="fill: none; stroke: #33a02c; stroke-linecap: round"/>
   </g>
   <g id="line2d_73">
    <path d="M 127.280172 256.79899 
L 134.49569 256.79899 
" clip-path="url(#p2cee85ccf8)" style="fill: none; stroke: #33a02c; stroke-linecap: round"/>
   </g>
   <g id="line2d_74">
    <path d="M 127.280172 83.550962 
L 134.49569 83.550962 
" clip-path="url(#p2cee85ccf8)" style="fill: none; stroke: #33a02c; stroke-linecap: round"/>
   </g>
   <g id="line2d_75"/>
   <g id="patch_6">
    <path d="M 166.965517 182.632759 
L 181.396552 182.632759 
L 181.396552 133.3775 
L 166.965517 133.3775 
L 166.965517 182.632759 
z
" clip-path="url(#p2cee85ccf8)" style="fill: #1f78b4; opacity: 0.8; stroke: #ffffff; stroke-linejoin: miter"/>
   </g>
   <g id="line2d_76">
    <path d="M 174.181034 182.632759 
L 174.181034 207.7 
" clip-path="url(#p2cee85ccf8)" style="fill: none; stroke: #1f78b4; stroke-linecap: round"/>
   </g>
   <g id="line2d_77">
    <path d="M 174.181034 133.3775 
L 174.181034 88.35 
" clip-path="url(#p2cee85ccf8)" style="fill: none; stroke: #1f78b4; stroke-linecap: round"/>
   </g>
   <g id="line2d_78">
    <path d="M 170.573276 207.7 
L 177.788793 207.7 
" clip-path="url(#p2cee85ccf8)" style="fill: none; stroke: #1f78b4; stroke-linecap: round"/>
   </g>
   <g id="line2d_79">
    <path d="M 170.573276 88.35 
L 177.788793 88.35 
" clip-path="url(#p2cee85ccf8)" style="fill: none; stroke: #1f78b4; stroke-linecap: round"/>
   </g>
   <g id="line2d_80">
    <defs>
     <path id="m2a92a82e51" d="M 0 3 
C 0.795609 3 1.55874 2.683901 2.12132 2.12132 
C 2.683901 1.55874 3 0.795609 3 0 
C 3 -0.795609 2.683901 -1.55874 2.12132 -2.12132 
C 1.55874 -2.683901 0.795609 -3 0 -3 
C -0.795609 -3 -1.55874 -2.683901 -2.12132 -2.12132 
C -2.683901 -1.55874 -3 -0.795609 -3 0 
C -3 0.795609 -2.683901 1.55874 -2.12132 2.12132 
C -1.55874 2.683901 -0.795609 3 0 3 
z
" style="stroke: #000000"/>
    </defs>
    <g clip-path="url(#p2cee85ccf8)">
     <use xlink:href="#m2a92a82e51" x="174.181034" y="261.6" style="fill-opacity: 0; stroke: #000000"/>
    </g>
   </g>
   <g id="patch_7">
    <path d="M 181.396552 142.808654 
L 195.827586 142.808654 
L 195.827586 82.407 
L 181.396552 82.407 
L 181.396552 142.808654 
z
" clip-path="url(#p2cee85ccf8)" style="fill: #e31a1c; opacity: 0.8; stroke: #ffffff; stroke-linejoin: miter"/>
   </g>
   <g id="line2d_81">
    <path d="M 188.612069 142.808654 
L 188.612069 162.13 
" clip-path="url(#p2cee85ccf8)" style="fill: none; stroke: #e31a1c; stroke-linecap: round"/>
   </g>
   <g id="line2d_82">
    <path d="M 188.612069 82.407 
L 188.612069 55.8 
" clip-path="url(#p2cee85ccf8)" style="fill: none; stroke: #e31a1c; stroke-linecap: round"/>
   </g>
   <g id="line2d_83">
    <path d="M 185.00431 162.13 
L 192.219828 162.13 
" clip-path="url(#p2cee85ccf8)" style="fill: none; stroke: #e31a1c; stroke-linecap: round"/>
   </g>
   <g id="line2d_84">
    <path d="M 185.00431 55.8 
L 192.219828 55.8 
" clip-path="url(#p2cee85ccf8)" style="fill: none; stroke: #e31a1c; stroke-linecap: round"/>
   </g>
   <g id="line2d_85"/>
   <g id="patch_8">
    <path d="M 195.827586 193.844118 
L 210.258621 193.844118 
L 210.258621 140.864 
L 195.827586 140.864 
L 195.827586 193.844118 
z
" clip-path="url(#p2cee85ccf8)" style="fill: #33a02c; opacity: 0.8; stroke: #ffffff; stroke-linejoin: miter"/>
   </g>
   <g id="line2d_86">
    <path d="M 203.043103 193.844118 
L 203.043103 261.40202 
" clip-path="url(#p2cee85ccf8)" style="fill: none; stroke: #33a02c; stroke-linecap: round"/>
   </g>
   <g id="line2d_87">
    <path d="M 203.043103 140.864 
L 203.043103 86.472115 
" clip-path="url(#p2cee85ccf8)" style="fill: none; stroke: #33a02c; stroke-linecap: round"/>
   </g>
   <g id="line2d_88">
    <path d="M 199.435345 261.40202 
L 206.650862 261.40202 
" clip-path="url(#p2cee85ccf8)" style="fill: none; stroke: #33a02c; stroke-linecap: round"/>
   </g>
   <g id="line2d_89">
    <path d="M 199.435345 86.472115 
L 206.650862 86.472115 
" clip-path="url(#p2cee85ccf8)" style="fill: none; stroke: #33a02c; stroke-linecap: round"/>
   </g>
   <g id="line2d_90"/>
   <g id="patch_9">
    <path d="M 239.12069 203.63125 
L 253.551724 203.63125 
L 253.551724 140.226563 
L 239.12069 140.226563 
L 239.12069 203.63125 
z
" clip-path="url(#p2cee85ccf8)" style="fill: #1f78b4; opacity: 0.8; stroke: #ffffff; stroke-linejoin: miter"/>
   </g>
   <g id="line2d_91">
    <path d="M 246.336207 203.63125 
L 246.336207 251.1 
" clip-path="url(#p2cee85ccf8)" style="fill: none; stroke: #1f78b4; stroke-linecap: round"/>
   </g>
   <g id="line2d_92">
    <path d="M 246.336207 140.226563 
L 246.336207 108.380769 
" clip-path="url(#p2cee85ccf8)" style="fill: none; stroke: #1f78b4; stroke-linecap: round"/>
   </g>
   <g id="line2d_93">
    <path d="M 242.728448 251.1 
L 249.943966 251.1 
" clip-path="url(#p2cee85ccf8)" style="fill: none; stroke: #1f78b4; stroke-linecap: round"/>
   </g>
   <g id="line2d_94">
    <path d="M 242.728448 108.380769 
L 249.943966 108.380769 
" clip-path="url(#p2cee85ccf8)" style="fill: none; stroke: #1f78b4; stroke-linecap: round"/>
   </g>
   <g id="line2d_95"/>
   <g id="patch_10">
    <path d="M 253.551724 161.253654 
L 267.982759 161.253654 
L 267.982759 93.775 
L 253.551724 93.775 
L 253.551724 161.253654 
z
" clip-path="url(#p2cee85ccf8)" style="fill: #e31a1c; opacity: 0.8; stroke: #ffffff; stroke-linejoin: miter"/>
   </g>
   <g id="line2d_96">
    <path d="M 260.767241 161.253654 
L 260.767241 192.51 
" clip-path="url(#p2cee85ccf8)" style="fill: none; stroke: #e31a1c; stroke-linecap: round"/>
   </g>
   <g id="line2d_97">
    <path d="M 260.767241 93.775 
L 260.767241 72.075 
" clip-path="url(#p2cee85ccf8)" style="fill: none; stroke: #e31a1c; stroke-linecap: round"/>
   </g>
   <g id="line2d_98">
    <path d="M 257.159483 192.51 
L 264.375 192.51 
" clip-path="url(#p2cee85ccf8)" style="fill: none; stroke: #e31a1c; stroke-linecap: round"/>
   </g>
   <g id="line2d_99">
    <path d="M 257.159483 72.075 
L 264.375 72.075 
" clip-path="url(#p2cee85ccf8)" style="fill: none; stroke: #e31a1c; stroke-linecap: round"/>
   </g>
   <g id="line2d_100"/>
   <g id="patch_11">
    <path d="M 267.982759 233.229412 
L 282.413793 233.229412 
L 282.413793 186.259457 
L 267.982759 186.259457 
L 267.982759 233.229412 
z
" clip-path="url(#p2cee85ccf8)" style="fill: #33a02c; opacity: 0.8; stroke: #ffffff; stroke-linejoin: miter"/>
   </g>
   <g id="line2d_101">
    <path d="M 275.198276 233.229412 
L 275.198276 295.2 
" clip-path="url(#p2cee85ccf8)" style="fill: none; stroke: #33a02c; stroke-linecap: round"/>
   </g>
   <g id="line2d_102">
    <path d="M 275.198276 186.259457 
L 275.198276 128.828846 
" clip-path="url(#p2cee85ccf8)" style="fill: none; stroke: #33a02c; stroke-linecap: round"/>
   </g>
   <g id="line2d_103">
    <path d="M 271.590517 295.2 
L 278.806034 295.2 
" clip-path="url(#p2cee85ccf8)" style="fill: none; stroke: #33a02c; stroke-linecap: round"/>
   </g>
   <g id="line2d_104">
    <path d="M 271.590517 128.828846 
L 278.806034 128.828846 
" clip-path="url(#p2cee85ccf8)" style="fill: none; stroke: #33a02c; stroke-linecap: round"/>
   </g>
   <g id="line2d_105"/>
   <g id="patch_12">
    <path d="M 311.275862 186.525 
L 325.706897 186.525 
L 325.706897 142.623184 
L 311.275862 142.623184 
L 311.275862 186.525 
z
" clip-path="url(#p2cee85ccf8)" style="fill: #1f78b4; opacity: 0.8; stroke: #ffffff; stroke-linejoin: miter"/>
   </g>
   <g id="line2d_106">
    <path d="M 318.491379 186.525 
L 318.491379 238.08 
" clip-path="url(#p2cee85ccf8)" style="fill: none; stroke: #1f78b4; stroke-linecap: round"/>
   </g>
   <g id="line2d_107">
    <path d="M 318.491379 142.623184 
L 318.491379 95.426087 
" clip-path="url(#p2cee85ccf8)" style="fill: none; stroke: #1f78b4; stroke-linecap: round"/>
   </g>
   <g id="line2d_108">
    <path d="M 314.883621 238.08 
L 322.099138 238.08 
" clip-path="url(#p2cee85ccf8)" style="fill: none; stroke: #1f78b4; stroke-linecap: round"/>
   </g>
   <g id="line2d_109">
    <path d="M 314.883621 95.426087 
L 322.099138 95.426087 
" clip-path="url(#p2cee85ccf8)" style="fill: none; stroke: #1f78b4; stroke-linecap: round"/>
   </g>
   <g id="line2d_110"/>
   <g id="patch_13">
    <path d="M 325.706897 194.7885 
L 340.137931 194.7885 
L 340.137931 143.047222 
L 325.706897 143.047222 
L 325.706897 194.7885 
z
" clip-path="url(#p2cee85ccf8)" style="fill: #e31a1c; opacity: 0.8; stroke: #ffffff; stroke-linejoin: miter"/>
   </g>
   <g id="line2d_111">
    <path d="M 332.922414 194.7885 
L 332.922414 238.08 
" clip-path="url(#p2cee85ccf8)" style="fill: none; stroke: #e31a1c; stroke-linecap: round"/>
   </g>
   <g id="line2d_112">
    <path d="M 332.922414 143.047222 
L 332.922414 93.775 
" clip-path="url(#p2cee85ccf8)" style="fill: none; stroke: #e31a1c; stroke-linecap: round"/>
   </g>
   <g id="line2d_113">
    <path d="M 329.314655 238.08 
L 336.530172 238.08 
" clip-path="url(#p2cee85ccf8)" style="fill: none; stroke: #e31a1c; stroke-linecap: round"/>
   </g>
   <g id="line2d_114">
    <path d="M 329.314655 93.775 
L 336.530172 93.775 
" clip-path="url(#p2cee85ccf8)" style="fill: none; stroke: #e31a1c; stroke-linecap: round"/>
   </g>
   <g id="line2d_115"/>
   <g id="patch_14">
    <path d="M 340.137931 255.340102 
L 354.568966 255.340102 
L 354.568966 220.793029 
L 340.137931 220.793029 
L 340.137931 255.340102 
z
" clip-path="url(#p2cee85ccf8)" style="fill: #33a02c; opacity: 0.8; stroke: #ffffff; stroke-linejoin: miter"/>
   </g>
   <g id="line2d_116">
    <path d="M 347.353448 255.340102 
L 347.353448 300.380245 
" clip-path="url(#p2cee85ccf8)" style="fill: none; stroke: #33a02c; stroke-linecap: round"/>
   </g>
   <g id="line2d_117">
    <path d="M 347.353448 220.793029 
L 347.353448 189.255 
" clip-path="url(#p2cee85ccf8)" style="fill: none; stroke: #33a02c; stroke-linecap: round"/>
   </g>
   <g id="line2d_118">
    <path d="M 343.74569 300.380245 
L 350.961207 300.380245 
" clip-path="url(#p2cee85ccf8)" style="fill: none; stroke: #33a02c; stroke-linecap: round"/>
   </g>
   <g id="line2d_119">
    <path d="M 343.74569 189.255 
L 350.961207 189.255 
" clip-path="url(#p2cee85ccf8)" style="fill: none; stroke: #33a02c; stroke-linecap: round"/>
   </g>
   <g id="line2d_120">
    <g clip-path="url(#p2cee85ccf8)">
     <use xlink:href="#m2a92a82e51" x="347.353448" y="166.803846" style="fill-opacity: 0; stroke: #000000"/>
    </g>
   </g>
   <g id="patch_15">
    <path d="M 383.431034 175.630811 
L 397.862069 175.630811 
L 397.862069 127.2 
L 383.431034 127.2 
L 383.431034 175.630811 
z
" clip-path="url(#p2cee85ccf8)" style="fill: #1f78b4; opacity: 0.8; stroke: #ffffff; stroke-linejoin: miter"/>
   </g>
   <g id="line2d_121">
    <path d="M 390.646552 175.630811 
L 390.646552 223.689474 
" clip-path="url(#p2cee85ccf8)" style="fill: none; stroke: #1f78b4; stroke-linecap: round"/>
   </g>
   <g id="line2d_122">
    <path d="M 390.646552 127.2 
L 390.646552 77.5 
" clip-path="url(#p2cee85ccf8)" style="fill: none; stroke: #1f78b4; stroke-linecap: round"/>
   </g>
   <g id="line2d_123">
    <path d="M 387.038793 223.689474 
L 394.25431 223.689474 
" clip-path="url(#p2cee85ccf8)" style="fill: none; stroke: #1f78b4; stroke-linecap: round"/>
   </g>
   <g id="line2d_124">
    <path d="M 387.038793 77.5 
L 394.25431 77.5 
" clip-path="url(#p2cee85ccf8)" style="fill: none; stroke: #1f78b4; stroke-linecap: round"/>
   </g>
   <g id="line2d_125"/>
   <g id="patch_16">
    <path d="M 397.862069 207.7 
L 412.293103 207.7 
L 412.293103 142.53 
L 397.862069 142.53 
L 397.862069 207.7 
z
" clip-path="url(#p2cee85ccf8)" style="fill: #e31a1c; opacity: 0.8; stroke: #ffffff; stroke-linejoin: miter"/>
   </g>
   <g id="line2d_126">
    <path d="M 405.077586 207.7 
L 405.077586 251.1 
" clip-path="url(#p2cee85ccf8)" style="fill: none; stroke: #e31a1c; stroke-linecap: round"/>
   </g>
   <g id="line2d_127">
    <path d="M 405.077586 142.53 
L 405.077586 73.326923 
" clip-path="url(#p2cee85ccf8)" style="fill: none; stroke: #e31a1c; stroke-linecap: round"/>
   </g>
   <g id="line2d_128">
    <path d="M 401.469828 251.1 
L 408.685345 251.1 
" clip-path="url(#p2cee85ccf8)" style="fill: none; stroke: #e31a1c; stroke-linecap: round"/>
   </g>
   <g id="line2d_129">
    <path d="M 401.469828 73.326923 
L 408.685345 73.326923 
" clip-path="url(#p2cee85ccf8)" style="fill: none; stroke: #e31a1c; stroke-linecap: round"/>
   </g>
   <g id="line2d_130"/>
   <g id="patch_17">
    <path d="M 412.293103 217.19375 
L 426.724138 217.19375 
L 426.724138 162.969832 
L 412.293103 162.969832 
L 412.293103 217.19375 
z
" clip-path="url(#p2cee85ccf8)" style="fill: #33a02c; opacity: 0.8; stroke: #ffffff; stroke-linejoin: miter"/>
   </g>
   <g id="line2d_131">
    <path d="M 419.508621 217.19375 
L 419.508621 266.123077 
" clip-path="url(#p2cee85ccf8)" style="fill: none; stroke: #33a02c; stroke-linecap: round"/>
   </g>
   <g id="line2d_132">
    <path d="M 419.508621 162.969832 
L 419.508621 87.932692 
" clip-path="url(#p2cee85ccf8)" style="fill: none; stroke: #33a02c; stroke-linecap: round"/>
   </g>
   <g id="line2d_133">
    <path d="M 415.900862 266.123077 
L 423.116379 266.123077 
" clip-path="url(#p2cee85ccf8)" style="fill: none; stroke: #33a02c; stroke-linecap: round"/>
   </g>
   <g id="line2d_134">
    <path d="M 415.900862 87.932692 
L 423.116379 87.932692 
" clip-path="url(#p2cee85ccf8)" style="fill: none; stroke: #33a02c; stroke-linecap: round"/>
   </g>
   <g id="line2d_135">
    <g clip-path="url(#p2cee85ccf8)">
     <use xlink:href="#m2a92a82e51" x="419.508621" y="307.8" style="fill-opacity: 0; stroke: #000000"/>
    </g>
   </g>
   <g id="patch_18">
    <path d="M 455.586207 181.05277 
L 470.017241 181.05277 
L 470.017241 146.15431 
L 455.586207 146.15431 
L 455.586207 181.05277 
z
" clip-path="url(#p2cee85ccf8)" style="fill: #1f78b4; opacity: 0.8; stroke: #ffffff; stroke-linejoin: miter"/>
   </g>
   <g id="line2d_136">
    <path d="M 462.801724 181.05277 
L 462.801724 226.6875 
" clip-path="url(#p2cee85ccf8)" style="fill: none; stroke: #1f78b4; stroke-linecap: round"/>
   </g>
   <g id="line2d_137">
    <path d="M 462.801724 146.15431 
L 462.801724 101.37 
" clip-path="url(#p2cee85ccf8)" style="fill: none; stroke: #1f78b4; stroke-linecap: round"/>
   </g>
   <g id="line2d_138">
    <path d="M 459.193966 226.6875 
L 466.409483 226.6875 
" clip-path="url(#p2cee85ccf8)" style="fill: none; stroke: #1f78b4; stroke-linecap: round"/>
   </g>
   <g id="line2d_139">
    <path d="M 459.193966 101.37 
L 466.409483 101.37 
" clip-path="url(#p2cee85ccf8)" style="fill: none; stroke: #1f78b4; stroke-linecap: round"/>
   </g>
   <g id="line2d_140">
    <g clip-path="url(#p2cee85ccf8)">
     <use xlink:href="#m2a92a82e51" x="462.801724" y="246.9" style="fill-opacity: 0; stroke: #000000"/>
     <use xlink:href="#m2a92a82e51" x="462.801724" y="89.555556" style="fill-opacity: 0; stroke: #000000"/>
    </g>
   </g>
   <g id="patch_19">
    <path d="M 470.017241 123.6125 
L 484.448276 123.6125 
L 484.448276 90.529274 
L 470.017241 90.529274 
L 470.017241 123.6125 
z
" clip-path="url(#p2cee85ccf8)" style="fill: #e31a1c; opacity: 0.8; stroke: #ffffff; stroke-linejoin: miter"/>
   </g>
   <g id="line2d_141">
    <path d="M 477.232759 123.6125 
L 477.232759 150.7375 
" clip-path="url(#p2cee85ccf8)" style="fill: none; stroke: #e31a1c; stroke-linecap: round"/>
   </g>
   <g id="line2d_142">
    <path d="M 477.232759 90.529274 
L 477.232759 55.8 
" clip-path="url(#p2cee85ccf8)" style="fill: none; stroke: #e31a1c; stroke-linecap: round"/>
   </g>
   <g id="line2d_143">
    <path d="M 473.625 150.7375 
L 480.840517 150.7375 
" clip-path="url(#p2cee85ccf8)" style="fill: none; stroke: #e31a1c; stroke-linecap: round"/>
   </g>
   <g id="line2d_144">
    <path d="M 473.625 55.8 
L 480.840517 55.8 
" clip-path="url(#p2cee85ccf8)" style="fill: none; stroke: #e31a1c; stroke-linecap: round"/>
   </g>
   <g id="line2d_145">
    <g clip-path="url(#p2cee85ccf8)">
     <use xlink:href="#m2a92a82e51" x="477.232759" y="207.7" style="fill-opacity: 0; stroke: #000000"/>
    </g>
   </g>
   <g id="patch_20">
    <path d="M 484.448276 202.914831 
L 498.87931 202.914831 
L 498.87931 153.891707 
L 484.448276 153.891707 
L 484.448276 202.914831 
z
" clip-path="url(#p2cee85ccf8)" style="fill: #33a02c; opacity: 0.8; stroke: #ffffff; stroke-linejoin: miter"/>
   </g>
   <g id="line2d_146">
    <path d="M 491.663793 202.914831 
L 491.663793 257.710154 
" clip-path="url(#p2cee85ccf8)" style="fill: none; stroke: #33a02c; stroke-linecap: round"/>
   </g>
   <g id="line2d_147">
    <path d="M 491.663793 153.891707 
L 491.663793 109.111058 
" clip-path="url(#p2cee85ccf8)" style="fill: none; stroke: #33a02c; stroke-linecap: round"/>
   </g>
   <g id="line2d_148">
    <path d="M 488.056034 257.710154 
L 495.271552 257.710154 
" clip-path="url(#p2cee85ccf8)" style="fill: none; stroke: #33a02c; stroke-linecap: round"/>
   </g>
   <g id="line2d_149">
    <path d="M 488.056034 109.111058 
L 495.271552 109.111058 
" clip-path="url(#p2cee85ccf8)" style="fill: none; stroke: #33a02c; stroke-linecap: round"/>
   </g>
   <g id="line2d_150"/>
   <g id="patch_21">
    <path d="M 527.741379 199.02 
L 542.172414 199.02 
L 542.172414 159.672794 
L 527.741379 159.672794 
L 527.741379 199.02 
z
" clip-path="url(#p2cee85ccf8)" style="fill: #1f78b4; opacity: 0.8; stroke: #ffffff; stroke-linejoin: miter"/>
   </g>
   <g id="line2d_151">
    <path d="M 534.956897 199.02 
L 534.956897 251.1 
" clip-path="url(#p2cee85ccf8)" style="fill: none; stroke: #1f78b4; stroke-linecap: round"/>
   </g>
   <g id="line2d_152">
    <path d="M 534.956897 159.672794 
L 534.956897 112.7625 
" clip-path="url(#p2cee85ccf8)" style="fill: none; stroke: #1f78b4; stroke-linecap: round"/>
   </g>
   <g id="line2d_153">
    <path d="M 531.349138 251.1 
L 538.564655 251.1 
" clip-path="url(#p2cee85ccf8)" style="fill: none; stroke: #1f78b4; stroke-linecap: round"/>
   </g>
   <g id="line2d_154">
    <path d="M 531.349138 112.7625 
L 538.564655 112.7625 
" clip-path="url(#p2cee85ccf8)" style="fill: none; stroke: #1f78b4; stroke-linecap: round"/>
   </g>
   <g id="line2d_155"/>
   <g id="patch_22">
    <path d="M 542.172414 79.67 
L 556.603448 79.67 
L 556.603448 71.80375 
L 542.172414 71.80375 
L 542.172414 79.67 
z
" clip-path="url(#p2cee85ccf8)" style="fill: #e31a1c; opacity: 0.8; stroke: #ffffff; stroke-linejoin: miter"/>
   </g>
   <g id="line2d_156">
    <path d="M 549.387931 79.67 
L 549.387931 90.853846 
" clip-path="url(#p2cee85ccf8)" style="fill: none; stroke: #e31a1c; stroke-linecap: round"/>
   </g>
   <g id="line2d_157">
    <path d="M 549.387931 71.80375 
L 549.387931 70.5 
" clip-path="url(#p2cee85ccf8)" style="fill: none; stroke: #e31a1c; stroke-linecap: round"/>
   </g>
   <g id="line2d_158">
    <path d="M 545.780172 90.853846 
L 552.99569 90.853846 
" clip-path="url(#p2cee85ccf8)" style="fill: none; stroke: #e31a1c; stroke-linecap: round"/>
   </g>
   <g id="line2d_159">
    <path d="M 545.780172 70.5 
L 552.99569 70.5 
" clip-path="url(#p2cee85ccf8)" style="fill: none; stroke: #e31a1c; stroke-linecap: round"/>
   </g>
   <g id="line2d_160">
    <g clip-path="url(#p2cee85ccf8)">
     <use xlink:href="#m2a92a82e51" x="549.387931" y="110.484" style="fill-opacity: 0; stroke: #000000"/>
     <use xlink:href="#m2a92a82e51" x="549.387931" y="131.75" style="fill-opacity: 0; stroke: #000000"/>
     <use xlink:href="#m2a92a82e51" x="549.387931" y="123.311111" style="fill-opacity: 0; stroke: #000000"/>
     <use xlink:href="#m2a92a82e51" x="549.387931" y="55.8" style="fill-opacity: 0; stroke: #000000"/>
     <use xlink:href="#m2a92a82e51" x="549.387931" y="55.8" style="fill-opacity: 0; stroke: #000000"/>
     <use xlink:href="#m2a92a82e51" x="549.387931" y="55.8" style="fill-opacity: 0; stroke: #000000"/>
    </g>
   </g>
   <g id="patch_23">
    <path d="M 556.603448 182.697579 
L 571.034483 182.697579 
L 571.034483 143.151118 
L 556.603448 143.151118 
L 556.603448 182.697579 
z
" clip-path="url(#p2cee85ccf8)" style="fill: #33a02c; opacity: 0.8; stroke: #ffffff; stroke-linejoin: miter"/>
   </g>
   <g id="line2d_161">
    <path d="M 563.818966 182.697579 
L 563.818966 233.783838 
" clip-path="url(#p2cee85ccf8)" style="fill: none; stroke: #33a02c; stroke-linecap: round"/>
   </g>
   <g id="line2d_162">
    <path d="M 563.818966 143.151118 
L 563.818966 105.459615 
" clip-path="url(#p2cee85ccf8)" style="fill: none; stroke: #33a02c; stroke-linecap: round"/>
   </g>
   <g id="line2d_163">
    <path d="M 560.211207 233.783838 
L 567.426724 233.783838 
" clip-path="url(#p2cee85ccf8)" style="fill: none; stroke: #33a02c; stroke-linecap: round"/>
   </g>
   <g id="line2d_164">
    <path d="M 560.211207 105.459615 
L 567.426724 105.459615 
" clip-path="url(#p2cee85ccf8)" style="fill: none; stroke: #33a02c; stroke-linecap: round"/>
   </g>
   <g id="line2d_165"/>
   <g id="patch_24">
    <path d="M 599.896552 174.788333 
L 614.327586 174.788333 
L 614.327586 146.94 
L 599.896552 146.94 
L 599.896552 174.788333 
z
" clip-path="url(#p2cee85ccf8)" style="fill: #1f78b4; opacity: 0.8; stroke: #ffffff; stroke-linejoin: miter"/>
   </g>
   <g id="line2d_166">
    <path d="M 607.112069 174.788333 
L 607.112069 207.7 
" clip-path="url(#p2cee85ccf8)" style="fill: none; stroke: #1f78b4; stroke-linecap: round"/>
   </g>
   <g id="line2d_167">
    <path d="M 607.112069 146.94 
L 607.112069 110.484 
" clip-path="url(#p2cee85ccf8)" style="fill: none; stroke: #1f78b4; stroke-linecap: round"/>
   </g>
   <g id="line2d_168">
    <path d="M 603.50431 207.7 
L 610.719828 207.7 
" clip-path="url(#p2cee85ccf8)" style="fill: none; stroke: #1f78b4; stroke-linecap: round"/>
   </g>
   <g id="line2d_169">
    <path d="M 603.50431 110.484 
L 610.719828 110.484 
" clip-path="url(#p2cee85ccf8)" style="fill: none; stroke: #1f78b4; stroke-linecap: round"/>
   </g>
   <g id="line2d_170">
    <g clip-path="url(#p2cee85ccf8)">
     <use xlink:href="#m2a92a82e51" x="607.112069" y="251.1" style="fill-opacity: 0; stroke: #000000"/>
     <use xlink:href="#m2a92a82e51" x="607.112069" y="72.075" style="fill-opacity: 0; stroke: #000000"/>
    </g>
   </g>
   <g id="patch_25">
    <path d="M 614.327586 146.94 
L 628.758621 146.94 
L 628.758621 113.037681 
L 614.327586 113.037681 
L 614.327586 146.94 
z
" clip-path="url(#p2cee85ccf8)" style="fill: #e31a1c; opacity: 0.8; stroke: #ffffff; stroke-linejoin: miter"/>
   </g>
   <g id="line2d_171">
    <path d="M 621.543103 146.94 
L 621.543103 177.32 
" clip-path="url(#p2cee85ccf8)" style="fill: none; stroke: #e31a1c; stroke-linecap: round"/>
   </g>
   <g id="line2d_172">
    <path d="M 621.543103 113.037681 
L 621.543103 90.853846 
" clip-path="url(#p2cee85ccf8)" style="fill: none; stroke: #e31a1c; stroke-linecap: round"/>
   </g>
   <g id="line2d_173">
    <path d="M 617.935345 177.32 
L 625.150862 177.32 
" clip-path="url(#p2cee85ccf8)" style="fill: none; stroke: #e31a1c; stroke-linecap: round"/>
   </g>
   <g id="line2d_174">
    <path d="M 617.935345 90.853846 
L 625.150862 90.853846 
" clip-path="url(#p2cee85ccf8)" style="fill: none; stroke: #e31a1c; stroke-linecap: round"/>
   </g>
   <g id="line2d_175"/>
   <g id="patch_26">
    <path d="M 628.758621 206.234112 
L 643.189655 206.234112 
L 643.189655 143.050962 
L 628.758621 143.050962 
L 628.758621 206.234112 
z
" clip-path="url(#p2cee85ccf8)" style="fill: #33a02c; opacity: 0.8; stroke: #ffffff; stroke-linejoin: miter"/>
   </g>
   <g id="line2d_176">
    <path d="M 635.974138 206.234112 
L 635.974138 251.1 
" clip-path="url(#p2cee85ccf8)" style="fill: none; stroke: #33a02c; stroke-linecap: round"/>
   </g>
   <g id="line2d_177">
    <path d="M 635.974138 143.050962 
L 635.974138 133.92 
" clip-path="url(#p2cee85ccf8)" style="fill: none; stroke: #33a02c; stroke-linecap: round"/>
   </g>
   <g id="line2d_178">
    <path d="M 632.366379 251.1 
L 639.581897 251.1 
" clip-path="url(#p2cee85ccf8)" style="fill: none; stroke: #33a02c; stroke-linecap: round"/>
   </g>
   <g id="line2d_179">
    <path d="M 632.366379 133.92 
L 639.581897 133.92 
" clip-path="url(#p2cee85ccf8)" style="fill: none; stroke: #33a02c; stroke-linecap: round"/>
   </g>
   <g id="line2d_180"/>
   <g id="line2d_181">
    <path d="M 94.810345 167.998864 
L 109.241379 167.998864 
" clip-path="url(#p2cee85ccf8)" style="fill: none; stroke: #000000; stroke-opacity: 0.4; stroke-linecap: round"/>
   </g>
   <g id="line2d_182">
    <path d="M 109.241379 114.000815 
L 123.672414 114.000815 
" clip-path="url(#p2cee85ccf8)" style="fill: none; stroke: #000000; stroke-opacity: 0.4; stroke-linecap: round"/>
   </g>
   <g id="line2d_183">
    <path d="M 123.672414 169.845556 
L 138.103448 169.845556 
" clip-path="url(#p2cee85ccf8)" style="fill: none; stroke: #000000; stroke-opacity: 0.4; stroke-linecap: round"/>
   </g>
   <g id="line2d_184">
    <path d="M 166.965517 159.598333 
L 181.396552 159.598333 
" clip-path="url(#p2cee85ccf8)" style="fill: none; stroke: #000000; stroke-opacity: 0.4; stroke-linecap: round"/>
   </g>
   <g id="line2d_185">
    <path d="M 181.396552 115.899565 
L 195.827586 115.899565 
" clip-path="url(#p2cee85ccf8)" style="fill: none; stroke: #000000; stroke-opacity: 0.4; stroke-linecap: round"/>
   </g>
   <g id="line2d_186">
    <path d="M 195.827586 167.916667 
L 210.258621 167.916667 
" clip-path="url(#p2cee85ccf8)" style="fill: none; stroke: #000000; stroke-opacity: 0.4; stroke-linecap: round"/>
   </g>
   <g id="line2d_187">
    <path d="M 239.12069 183.755172 
L 253.551724 183.755172 
" clip-path="url(#p2cee85ccf8)" style="fill: none; stroke: #000000; stroke-opacity: 0.4; stroke-linecap: round"/>
   </g>
   <g id="line2d_188">
    <path d="M 253.551724 129.006 
L 267.982759 129.006 
" clip-path="url(#p2cee85ccf8)" style="fill: none; stroke: #000000; stroke-opacity: 0.4; stroke-linecap: round"/>
   </g>
   <g id="line2d_189">
    <path d="M 267.982759 197.339388 
L 282.413793 197.339388 
" clip-path="url(#p2cee85ccf8)" style="fill: none; stroke: #000000; stroke-opacity: 0.4; stroke-linecap: round"/>
   </g>
   <g id="line2d_190">
    <path d="M 311.275862 165.168 
L 325.706897 165.168 
" clip-path="url(#p2cee85ccf8)" style="fill: none; stroke: #000000; stroke-opacity: 0.4; stroke-linecap: round"/>
   </g>
   <g id="line2d_191">
    <path d="M 325.706897 182.244231 
L 340.137931 182.244231 
" clip-path="url(#p2cee85ccf8)" style="fill: none; stroke: #000000; stroke-opacity: 0.4; stroke-linecap: round"/>
   </g>
   <g id="line2d_192">
    <path d="M 340.137931 239.728365 
L 354.568966 239.728365 
" clip-path="url(#p2cee85ccf8)" style="fill: none; stroke: #000000; stroke-opacity: 0.4; stroke-linecap: round"/>
   </g>
   <g id="line2d_193">
    <path d="M 383.431034 145.187308 
L 397.862069 145.187308 
" clip-path="url(#p2cee85ccf8)" style="fill: none; stroke: #000000; stroke-opacity: 0.4; stroke-linecap: round"/>
   </g>
   <g id="line2d_194">
    <path d="M 397.862069 176.583361 
L 412.293103 176.583361 
" clip-path="url(#p2cee85ccf8)" style="fill: none; stroke: #000000; stroke-opacity: 0.4; stroke-linecap: round"/>
   </g>
   <g id="line2d_195">
    <path d="M 412.293103 182.094 
L 426.724138 182.094 
" clip-path="url(#p2cee85ccf8)" style="fill: none; stroke: #000000; stroke-opacity: 0.4; stroke-linecap: round"/>
   </g>
   <g id="line2d_196">
    <path d="M 455.586207 158.7 
L 470.017241 158.7 
" clip-path="url(#p2cee85ccf8)" style="fill: none; stroke: #000000; stroke-opacity: 0.4; stroke-linecap: round"/>
   </g>
   <g id="line2d_197">
    <path d="M 470.017241 102.9975 
L 484.448276 102.9975 
" clip-path="url(#p2cee85ccf8)" style="fill: none; stroke: #000000; stroke-opacity: 0.4; stroke-linecap: round"/>
   </g>
   <g id="line2d_198">
    <path d="M 484.448276 169.52583 
L 498.87931 169.52583 
" clip-path="url(#p2cee85ccf8)" style="fill: none; stroke: #000000; stroke-opacity: 0.4; stroke-linecap: round"/>
   </g>
   <g id="line2d_199">
    <path d="M 527.741379 182.023722 
L 542.172414 182.023722 
" clip-path="url(#p2cee85ccf8)" style="fill: none; stroke: #000000; stroke-opacity: 0.4; stroke-linecap: round"/>
   </g>
   <g id="line2d_200">
    <path d="M 542.172414 74.028 
L 556.603448 74.028 
" clip-path="url(#p2cee85ccf8)" style="fill: none; stroke: #000000; stroke-opacity: 0.4; stroke-linecap: round"/>
   </g>
   <g id="line2d_201">
    <path d="M 556.603448 153.088333 
L 571.034483 153.088333 
" clip-path="url(#p2cee85ccf8)" style="fill: none; stroke: #000000; stroke-opacity: 0.4; stroke-linecap: round"/>
   </g>
   <g id="line2d_202">
    <path d="M 599.896552 160.961538 
L 614.327586 160.961538 
" clip-path="url(#p2cee85ccf8)" style="fill: none; stroke: #000000; stroke-opacity: 0.4; stroke-linecap: round"/>
   </g>
   <g id="line2d_203">
    <path d="M 614.327586 128.828846 
L 628.758621 128.828846 
" clip-path="url(#p2cee85ccf8)" style="fill: none; stroke: #000000; stroke-opacity: 0.4; stroke-linecap: round"/>
   </g>
   <g id="line2d_204">
    <path d="M 628.758621 160.698635 
L 643.189655 160.698635 
" clip-path="url(#p2cee85ccf8)" style="fill: none; stroke: #000000; stroke-opacity: 0.4; stroke-linecap: round"/>
   </g>
   <g id="patch_27">
    <path d="M 90 320.4 
L 90 43.2 
" style="fill: none; stroke: #cccccc; stroke-linejoin: miter; stroke-linecap: square"/>
   </g>
   <g id="patch_28">
    <path d="M 648 320.4 
L 648 43.2 
" style="fill: none; stroke: #cccccc; stroke-linejoin: miter; stroke-linecap: square"/>
   </g>
   <g id="patch_29">
    <path d="M 90 320.4 
L 648 320.4 
" style="fill: none; stroke: #cccccc; stroke-linejoin: miter; stroke-linecap: square"/>
   </g>
   <g id="patch_30">
    <path d="M 90 43.2 
L 648 43.2 
" style="fill: none; stroke: #cccccc; stroke-linejoin: miter; stroke-linecap: square"/>
   </g>
   <g id="text_16">
    <!-- Algorithm Comparison -->
    <g style="fill: #262626" transform="translate(309.647812 37.2) scale(0.12 -0.12)">
     <defs>
      <path id="LiberationSans-41" d="M 3647 0 
L 3144 1288 
L 1138 1288 
L 631 0 
L 13 0 
L 1809 4403 
L 2488 4403 
L 4256 0 
L 3647 0 
z
M 2400 3206 
Q 2350 3331 2304 3459 
Q 2259 3588 2225 3692 
Q 2191 3797 2167 3867 
Q 2144 3938 2141 3953 
Q 2134 3938 2112 3866 
Q 2091 3794 2055 3687 
Q 2019 3581 1973 3453 
Q 1928 3325 1881 3200 
L 1319 1753 
L 2966 1753 
L 2400 3206 
z
" transform="scale(0.015625)"/>
      <path id="LiberationSans-6c" d="M 431 0 
L 431 4638 
L 994 4638 
L 994 0 
L 431 0 
z
" transform="scale(0.015625)"/>
      <path id="LiberationSans-43" d="M 2475 3981 
Q 2100 3981 1811 3856 
Q 1522 3731 1326 3500 
Q 1131 3269 1031 2944 
Q 931 2619 931 2222 
Q 931 1825 1039 1495 
Q 1147 1166 1348 928 
Q 1550 691 1842 559 
Q 2134 428 2500 428 
Q 2756 428 2967 495 
Q 3178 563 3348 684 
Q 3519 806 3653 973 
Q 3788 1141 3891 1344 
L 4378 1100 
Q 4259 853 4084 640 
Q 3909 428 3673 272 
Q 3438 116 3139 26 
Q 2841 -63 2472 -63 
Q 1938 -63 1536 107 
Q 1134 278 864 583 
Q 594 888 459 1306 
Q 325 1725 325 2222 
Q 325 2738 467 3153 
Q 609 3569 882 3861 
Q 1156 4153 1556 4311 
Q 1956 4469 2469 4469 
Q 3172 4469 3644 4194 
Q 4116 3919 4338 3378 
L 3772 3191 
Q 3709 3347 3603 3489 
Q 3497 3631 3337 3740 
Q 3178 3850 2964 3915 
Q 2750 3981 2475 3981 
z
" transform="scale(0.015625)"/>
      <path id="LiberationSans-70" d="M 3291 1706 
Q 3291 1322 3228 997 
Q 3166 672 3020 437 
Q 2875 203 2636 70 
Q 2397 -63 2047 -63 
Q 1684 -63 1412 75 
Q 1141 213 997 525 
L 981 525 
Q 984 519 986 469 
Q 988 419 989 344 
Q 991 269 992 176 
Q 994 84 994 -6 
L 994 -1328 
L 431 -1328 
L 431 2691 
Q 431 2813 429 2925 
Q 428 3038 425 3130 
Q 422 3222 419 3287 
Q 416 3353 413 3381 
L 956 3381 
Q 959 3372 964 3315 
Q 969 3259 973 3179 
Q 978 3100 983 3009 
Q 988 2919 988 2838 
L 1000 2838 
Q 1078 3000 1178 3114 
Q 1278 3228 1406 3301 
Q 1534 3375 1692 3408 
Q 1850 3441 2047 3441 
Q 2397 3441 2636 3316 
Q 2875 3191 3020 2964 
Q 3166 2738 3228 2417 
Q 3291 2097 3291 1706 
z
M 2700 1694 
Q 2700 2006 2662 2250 
Q 2625 2494 2533 2662 
Q 2441 2831 2287 2918 
Q 2134 3006 1903 3006 
Q 1716 3006 1550 2953 
Q 1384 2900 1261 2750 
Q 1138 2600 1066 2336 
Q 994 2072 994 1650 
Q 994 1291 1053 1042 
Q 1113 794 1227 641 
Q 1341 488 1509 420 
Q 1678 353 1897 353 
Q 2131 353 2286 443 
Q 2441 534 2533 706 
Q 2625 878 2662 1126 
Q 2700 1375 2700 1694 
z
" transform="scale(0.015625)"/>
     </defs>
     <use xlink:href="#LiberationSans-41"/>
     <use xlink:href="#LiberationSans-6c" x="66.699219"/>
     <use xlink:href="#LiberationSans-67" x="88.916016"/>
     <use xlink:href="#LiberationSans-6f" x="144.53125"/>
     <use xlink:href="#LiberationSans-72" x="200.146484"/>
     <use xlink:href="#LiberationSans-69" x="233.447266"/>
     <use xlink:href="#LiberationSans-74" x="255.664062"/>
     <use xlink:href="#LiberationSans-68" x="283.447266"/>
     <use xlink:href="#LiberationSans-6d" x="339.0625"/>
     <use xlink:href="#LiberationSans-20" x="422.363281"/>
     <use xlink:href="#LiberationSans-43" x="450.146484"/>
     <use xlink:href="#LiberationSans-6f" x="522.363281"/>
     <use xlink:href="#LiberationSans-6d" x="577.978516"/>
     <use xlink:href="#LiberationSans-70" x="661.279297"/>
     <use xlink:href="#LiberationSans-61" x="716.894531"/>
     <use xlink:href="#LiberationSans-72" x="772.509766"/>
     <use xlink:href="#LiberationSans-69" x="805.810547"/>
     <use xlink:href="#LiberationSans-73" x="828.027344"/>
     <use xlink:href="#LiberationSans-6f" x="878.027344"/>
     <use xlink:href="#LiberationSans-6e" x="933.642578"/>
    </g>
   </g>
   <g id="legend_1">
    <g id="patch_31">
     <path d="M 97 315.4 
L 170.126563 315.4 
Q 172.126563 315.4 172.126563 313.4 
L 172.126563 271.434375 
Q 172.126563 269.434375 170.126563 269.434375 
L 97 269.434375 
Q 95 269.434375 95 271.434375 
L 95 313.4 
Q 95 315.4 97 315.4 
z
" style="fill: #ffffff; opacity: 0.8; stroke: #cccccc; stroke-linejoin: miter"/>
    </g>
    <g id="patch_32">
     <path d="M 99 280.68125 
L 119 280.68125 
L 119 273.68125 
L 99 273.68125 
z
" style="fill: #1f78b4; opacity: 0.8; stroke: #ffffff; stroke-linejoin: miter"/>
    </g>
    <g id="text_17">
     <!-- Precision -->
     <g style="fill: #262626" transform="translate(127 280.68125) scale(0.1 -0.1)">
      <defs>
       <path id="LiberationSans-50" d="M 3931 3078 
Q 3931 2791 3836 2542 
Q 3741 2294 3552 2111 
Q 3363 1928 3078 1822 
Q 2794 1716 2416 1716 
L 1122 1716 
L 1122 0 
L 525 0 
L 525 4403 
L 2378 4403 
Q 2769 4403 3059 4308 
Q 3350 4213 3544 4039 
Q 3738 3866 3834 3620 
Q 3931 3375 3931 3078 
z
M 3331 3072 
Q 3331 3491 3075 3708 
Q 2819 3925 2306 3925 
L 1122 3925 
L 1122 2188 
L 2331 2188 
Q 2847 2188 3089 2416 
Q 3331 2644 3331 3072 
z
" transform="scale(0.015625)"/>
      </defs>
      <use xlink:href="#LiberationSans-50"/>
      <use xlink:href="#LiberationSans-72" x="66.699219"/>
      <use xlink:href="#LiberationSans-65" x="100"/>
      <use xlink:href="#LiberationSans-63" x="155.615234"/>
      <use xlink:href="#LiberationSans-69" x="205.615234"/>
      <use xlink:href="#LiberationSans-73" x="227.832031"/>
      <use xlink:href="#LiberationSans-69" x="277.832031"/>
      <use xlink:href="#LiberationSans-6f" x="300.048828"/>
      <use xlink:href="#LiberationSans-6e" x="355.664062"/>
     </g>
    </g>
    <g id="patch_33">
     <path d="M 99 295.003125 
L 119 295.003125 
L 119 288.003125 
L 99 288.003125 
z
" style="fill: #e31a1c; opacity: 0.8; stroke: #ffffff; stroke-linejoin: miter"/>
    </g>
    <g id="text_18">
     <!-- Recall -->
     <g style="fill: #262626" transform="translate(127 295.003125) scale(0.1 -0.1)">
      <use xlink:href="#LiberationSans-52"/>
      <use xlink:href="#LiberationSans-65" x="72.216797"/>
      <use xlink:href="#LiberationSans-63" x="127.832031"/>
      <use xlink:href="#LiberationSans-61" x="177.832031"/>
      <use xlink:href="#LiberationSans-6c" x="233.447266"/>
      <use xlink:href="#LiberationSans-6c" x="255.664062"/>
     </g>
    </g>
    <g id="patch_34">
     <path d="M 99 309.325 
L 119 309.325 
L 119 302.325 
L 99 302.325 
z
" style="fill: #33a02c; opacity: 0.8; stroke: #ffffff; stroke-linejoin: miter"/>
    </g>
    <g id="text_19">
     <!-- Roc auc -->
     <g style="fill: #262626" transform="translate(127 309.325) scale(0.1 -0.1)">
      <defs>
       <path id="LiberationSans-75" d="M 981 3381 
L 981 1238 
Q 981 991 1017 825 
Q 1053 659 1134 557 
Q 1216 456 1348 414 
Q 1481 372 1678 372 
Q 1878 372 2039 442 
Q 2200 513 2314 645 
Q 2428 778 2490 973 
Q 2553 1169 2553 1422 
L 2553 3381 
L 3116 3381 
L 3116 722 
Q 3116 616 3117 498 
Q 3119 381 3122 276 
Q 3125 172 3128 97 
Q 3131 22 3134 0 
L 2603 0 
Q 2600 16 2597 84 
Q 2594 153 2589 242 
Q 2584 331 2581 423 
Q 2578 516 2578 578 
L 2569 578 
Q 2488 431 2391 312 
Q 2294 194 2166 111 
Q 2038 28 1872 -17 
Q 1706 -63 1488 -63 
Q 1206 -63 1003 6 
Q 800 75 669 219 
Q 538 363 477 588 
Q 416 813 416 1128 
L 416 3381 
L 981 3381 
z
" transform="scale(0.015625)"/>
      </defs>
      <use xlink:href="#LiberationSans-52"/>
      <use xlink:href="#LiberationSans-6f" x="72.216797"/>
      <use xlink:href="#LiberationSans-63" x="127.832031"/>
      <use xlink:href="#LiberationSans-20" x="177.832031"/>
      <use xlink:href="#LiberationSans-61" x="205.615234"/>
      <use xlink:href="#LiberationSans-75" x="261.230469"/>
      <use xlink:href="#LiberationSans-63" x="316.845703"/>
     </g>
    </g>
   </g>
  </g>
 </g>
 <defs>
  <clipPath id="p2cee85ccf8">
   <rect x="90" y="43.2" width="558" height="277.2"/>
  </clipPath>
 </defs>
</svg>
