<?xml version="1.0" encoding="utf-8" standalone="no"?>
<!DOCTYPE svg PUBLIC "-//W3C//DTD SVG 1.1//EN"
  "http://www.w3.org/Graphics/SVG/1.1/DTD/svg11.dtd">
<svg xmlns:xlink="http://www.w3.org/1999/xlink" width="576pt" height="432pt" viewBox="0 0 576 432" xmlns="http://www.w3.org/2000/svg" version="1.1">
 <metadata>
  <rdf:RDF xmlns:dc="http://purl.org/dc/elements/1.1/" xmlns:cc="http://creativecommons.org/ns#" xmlns:rdf="http://www.w3.org/1999/02/22-rdf-syntax-ns#">
   <cc:Work>
    <dc:type rdf:resource="http://purl.org/dc/dcmitype/StillImage"/>
    <dc:date>2023-08-10T11:54:17.249545</dc:date>
    <dc:format>image/svg+xml</dc:format>
    <dc:creator>
     <cc:Agent>
      <dc:title>Matplotlib v3.7.1, https://matplotlib.org/</dc:title>
     </cc:Agent>
    </dc:creator>
   </cc:Work>
  </rdf:RDF>
 </metadata>
 <defs>
  <style type="text/css">*{stroke-linejoin: round; stroke-linecap: butt}</style>
 </defs>
 <g id="figure_1">
  <g id="patch_1">
   <path d="M 0 432 
L 576 432 
L 576 0 
L 0 0 
L 0 432 
z
" style="fill: none"/>
  </g>
  <g id="axes_1">
   <g id="patch_2">
    <path d="M 72 203.04 
L 518.4 203.04 
L 518.4 51.84 
L 72 51.84 
L 72 203.04 
z
" style="fill: none"/>
   </g>
   <g id="matplotlib.axis_1">
    <g id="xtick_1">
     <g id="line2d_1">
      <path d="M 92.290909 203.04 
L 92.290909 51.84 
" clip-path="url(#p29705018b6)" style="fill: none; stroke: #cccccc; stroke-width: 0.8; stroke-linecap: round"/>
     </g>
     <g id="line2d_2"/>
    </g>
    <g id="xtick_2">
     <g id="line2d_3">
      <path d="M 193.745455 203.04 
L 193.745455 51.84 
" clip-path="url(#p29705018b6)" style="fill: none; stroke: #cccccc; stroke-width: 0.8; stroke-linecap: round"/>
     </g>
     <g id="line2d_4"/>
    </g>
    <g id="xtick_3">
     <g id="line2d_5">
      <path d="M 295.2 203.04 
L 295.2 51.84 
" clip-path="url(#p29705018b6)" style="fill: none; stroke: #cccccc; stroke-width: 0.8; stroke-linecap: round"/>
     </g>
     <g id="line2d_6"/>
    </g>
    <g id="xtick_4">
     <g id="line2d_7">
      <path d="M 396.654545 203.04 
L 396.654545 51.84 
" clip-path="url(#p29705018b6)" style="fill: none; stroke: #cccccc; stroke-width: 0.8; stroke-linecap: round"/>
     </g>
     <g id="line2d_8"/>
    </g>
    <g id="xtick_5">
     <g id="line2d_9">
      <path d="M 498.109091 203.04 
L 498.109091 51.84 
" clip-path="url(#p29705018b6)" style="fill: none; stroke: #cccccc; stroke-width: 0.8; stroke-linecap: round"/>
     </g>
     <g id="line2d_10"/>
    </g>
    <g id="xtick_6">
     <g id="line2d_11"/>
    </g>
    <g id="xtick_7">
     <g id="line2d_12"/>
    </g>
    <g id="xtick_8">
     <g id="line2d_13"/>
    </g>
    <g id="xtick_9">
     <g id="line2d_14"/>
    </g>
    <g id="xtick_10">
     <g id="line2d_15"/>
    </g>
    <g id="xtick_11">
     <g id="line2d_16"/>
    </g>
    <g id="xtick_12">
     <g id="line2d_17"/>
    </g>
    <g id="xtick_13">
     <g id="line2d_18"/>
    </g>
    <g id="xtick_14">
     <g id="line2d_19"/>
    </g>
    <g id="xtick_15">
     <g id="line2d_20"/>
    </g>
    <g id="xtick_16">
     <g id="line2d_21"/>
    </g>
    <g id="xtick_17">
     <g id="line2d_22"/>
    </g>
    <g id="xtick_18">
     <g id="line2d_23"/>
    </g>
    <g id="xtick_19">
     <g id="line2d_24"/>
    </g>
    <g id="xtick_20">
     <g id="line2d_25"/>
    </g>
    <g id="xtick_21">
     <g id="line2d_26"/>
    </g>
    <g id="xtick_22">
     <g id="line2d_27"/>
    </g>
    <g id="xtick_23">
     <g id="line2d_28"/>
    </g>
    <g id="xtick_24">
     <g id="line2d_29"/>
    </g>
    <g id="xtick_25">
     <g id="line2d_30"/>
    </g>
    <g id="xtick_26">
     <g id="line2d_31"/>
    </g>
    <g id="xtick_27">
     <g id="line2d_32"/>
    </g>
    <g id="xtick_28">
     <g id="line2d_33"/>
    </g>
    <g id="xtick_29">
     <g id="line2d_34"/>
    </g>
    <g id="xtick_30">
     <g id="line2d_35"/>
    </g>
    <g id="xtick_31">
     <g id="line2d_36"/>
    </g>
    <g id="xtick_32">
     <g id="line2d_37"/>
    </g>
    <g id="xtick_33">
     <g id="line2d_38"/>
    </g>
    <g id="xtick_34">
     <g id="line2d_39"/>
    </g>
    <g id="xtick_35">
     <g id="line2d_40"/>
    </g>
    <g id="xtick_36">
     <g id="line2d_41"/>
    </g>
    <g id="xtick_37">
     <g id="line2d_42"/>
    </g>
    <g id="xtick_38">
     <g id="line2d_43"/>
    </g>
    <g id="xtick_39">
     <g id="line2d_44"/>
    </g>
    <g id="xtick_40">
     <g id="line2d_45"/>
    </g>
   </g>
   <g id="matplotlib.axis_2">
    <g id="ytick_1">
     <g id="line2d_46">
      <path d="M 72 203.04 
L 518.4 203.04 
" clip-path="url(#p29705018b6)" style="fill: none; stroke: #cccccc; stroke-width: 0.8; stroke-linecap: round"/>
     </g>
     <g id="line2d_47"/>
     <g id="text_1">
      <!-- 0.61500 -->
      <g style="fill: #386cb0" transform="translate(32.35625 206.663437) scale(0.1 -0.1)">
       <defs>
        <path id="LiberationSans-30" d="M 3309 2203 
Q 3309 1569 3189 1136 
Q 3069 703 2861 436 
Q 2653 169 2372 53 
Q 2091 -63 1772 -63 
Q 1450 -63 1172 53 
Q 894 169 689 434 
Q 484 700 367 1133 
Q 250 1566 250 2203 
Q 250 2869 367 3305 
Q 484 3741 690 4000 
Q 897 4259 1178 4364 
Q 1459 4469 1791 4469 
Q 2106 4469 2382 4364 
Q 2659 4259 2865 4000 
Q 3072 3741 3190 3305 
Q 3309 2869 3309 2203 
z
M 2738 2203 
Q 2738 2728 2675 3076 
Q 2613 3425 2491 3633 
Q 2369 3841 2192 3927 
Q 2016 4013 1791 4013 
Q 1553 4013 1372 3925 
Q 1191 3838 1067 3630 
Q 944 3422 881 3073 
Q 819 2725 819 2203 
Q 819 1697 883 1350 
Q 947 1003 1070 792 
Q 1194 581 1372 489 
Q 1550 397 1778 397 
Q 2000 397 2178 489 
Q 2356 581 2479 792 
Q 2603 1003 2670 1350 
Q 2738 1697 2738 2203 
z
" transform="scale(0.015625)"/>
        <path id="LiberationSans-2e" d="M 584 0 
L 584 684 
L 1194 684 
L 1194 0 
L 584 0 
z
" transform="scale(0.015625)"/>
        <path id="LiberationSans-36" d="M 3278 1441 
Q 3278 1109 3186 832 
Q 3094 556 2914 357 
Q 2734 159 2468 48 
Q 2203 -63 1856 -63 
Q 1472 -63 1184 84 
Q 897 231 706 507 
Q 516 784 420 1186 
Q 325 1588 325 2100 
Q 325 2688 433 3131 
Q 541 3575 744 3872 
Q 947 4169 1239 4319 
Q 1531 4469 1900 4469 
Q 2125 4469 2322 4422 
Q 2519 4375 2680 4270 
Q 2841 4166 2962 3994 
Q 3084 3822 3156 3572 
L 2619 3475 
Q 2531 3759 2339 3886 
Q 2147 4013 1894 4013 
Q 1663 4013 1475 3903 
Q 1288 3794 1156 3576 
Q 1025 3359 954 3031 
Q 884 2703 884 2266 
Q 1038 2550 1316 2698 
Q 1594 2847 1953 2847 
Q 2253 2847 2497 2750 
Q 2741 2653 2914 2470 
Q 3088 2288 3183 2027 
Q 3278 1766 3278 1441 
z
M 2706 1416 
Q 2706 1644 2650 1828 
Q 2594 2013 2481 2142 
Q 2369 2272 2203 2342 
Q 2038 2413 1819 2413 
Q 1666 2413 1509 2367 
Q 1353 2322 1226 2220 
Q 1100 2119 1020 1953 
Q 941 1788 941 1550 
Q 941 1306 1003 1095 
Q 1066 884 1183 728 
Q 1300 572 1465 481 
Q 1631 391 1838 391 
Q 2041 391 2202 461 
Q 2363 531 2475 664 
Q 2588 797 2647 987 
Q 2706 1178 2706 1416 
z
" transform="scale(0.015625)"/>
        <path id="LiberationSans-31" d="M 488 0 
L 488 478 
L 1609 478 
L 1609 3866 
L 616 3156 
L 616 3688 
L 1656 4403 
L 2175 4403 
L 2175 478 
L 3247 478 
L 3247 0 
L 488 0 
z
" transform="scale(0.015625)"/>
        <path id="LiberationSans-35" d="M 3291 1434 
Q 3291 1103 3191 828 
Q 3091 553 2894 354 
Q 2697 156 2405 46 
Q 2113 -63 1728 -63 
Q 1381 -63 1123 18 
Q 866 100 687 242 
Q 509 384 404 575 
Q 300 766 256 984 
L 825 1050 
Q 859 925 921 808 
Q 984 691 1092 598 
Q 1200 506 1358 451 
Q 1516 397 1741 397 
Q 1959 397 2137 464 
Q 2316 531 2442 662 
Q 2569 794 2637 984 
Q 2706 1175 2706 1422 
Q 2706 1625 2640 1795 
Q 2575 1966 2453 2089 
Q 2331 2213 2154 2281 
Q 1978 2350 1753 2350 
Q 1613 2350 1494 2325 
Q 1375 2300 1273 2256 
Q 1172 2213 1089 2155 
Q 1006 2097 934 2034 
L 384 2034 
L 531 4403 
L 3034 4403 
L 3034 3925 
L 1044 3925 
L 959 2528 
Q 1109 2644 1334 2726 
Q 1559 2809 1869 2809 
Q 2197 2809 2459 2709 
Q 2722 2609 2906 2426 
Q 3091 2244 3191 1991 
Q 3291 1738 3291 1434 
z
" transform="scale(0.015625)"/>
       </defs>
       <use xlink:href="#LiberationSans-30"/>
       <use xlink:href="#LiberationSans-2e" x="55.615234"/>
       <use xlink:href="#LiberationSans-36" x="83.398438"/>
       <use xlink:href="#LiberationSans-31" x="139.013672"/>
       <use xlink:href="#LiberationSans-35" x="194.628906"/>
       <use xlink:href="#LiberationSans-30" x="250.244141"/>
       <use xlink:href="#LiberationSans-30" x="305.859375"/>
      </g>
     </g>
    </g>
    <g id="ytick_2">
     <g id="line2d_48">
      <path d="M 72 165.24 
L 518.4 165.24 
" clip-path="url(#p29705018b6)" style="fill: none; stroke: #cccccc; stroke-width: 0.8; stroke-linecap: round"/>
     </g>
     <g id="line2d_49"/>
     <g id="text_2">
      <!-- 0.61875 -->
      <g style="fill: #386cb0" transform="translate(32.35625 168.863437) scale(0.1 -0.1)">
       <defs>
        <path id="LiberationSans-38" d="M 3281 1228 
Q 3281 947 3192 711 
Q 3103 475 2920 303 
Q 2738 131 2453 34 
Q 2169 -63 1781 -63 
Q 1394 -63 1111 34 
Q 828 131 642 301 
Q 456 472 367 708 
Q 278 944 278 1222 
Q 278 1463 351 1650 
Q 425 1838 548 1973 
Q 672 2109 830 2192 
Q 988 2275 1156 2303 
L 1156 2316 
Q 972 2359 826 2456 
Q 681 2553 582 2689 
Q 484 2825 432 2990 
Q 381 3156 381 3341 
Q 381 3572 470 3776 
Q 559 3981 734 4136 
Q 909 4291 1168 4380 
Q 1428 4469 1769 4469 
Q 2128 4469 2392 4378 
Q 2656 4288 2829 4133 
Q 3003 3978 3087 3772 
Q 3172 3566 3172 3334 
Q 3172 3153 3120 2987 
Q 3069 2822 2970 2686 
Q 2872 2550 2726 2454 
Q 2581 2359 2391 2322 
L 2391 2309 
Q 2581 2278 2743 2195 
Q 2906 2113 3025 1977 
Q 3144 1841 3212 1653 
Q 3281 1466 3281 1228 
z
M 2588 3303 
Q 2588 3469 2545 3606 
Q 2503 3744 2406 3842 
Q 2309 3941 2153 3995 
Q 1997 4050 1769 4050 
Q 1547 4050 1394 3995 
Q 1241 3941 1142 3842 
Q 1044 3744 1000 3606 
Q 956 3469 956 3303 
Q 956 3172 990 3034 
Q 1025 2897 1115 2784 
Q 1206 2672 1365 2600 
Q 1525 2528 1775 2528 
Q 2041 2528 2202 2600 
Q 2363 2672 2448 2784 
Q 2534 2897 2561 3034 
Q 2588 3172 2588 3303 
z
M 2697 1281 
Q 2697 1441 2653 1589 
Q 2609 1738 2503 1852 
Q 2397 1966 2217 2036 
Q 2038 2106 1769 2106 
Q 1522 2106 1348 2036 
Q 1175 1966 1067 1850 
Q 959 1734 909 1582 
Q 859 1431 859 1269 
Q 859 1066 909 898 
Q 959 731 1068 611 
Q 1178 491 1356 425 
Q 1534 359 1788 359 
Q 2044 359 2219 425 
Q 2394 491 2500 611 
Q 2606 731 2651 901 
Q 2697 1072 2697 1281 
z
" transform="scale(0.015625)"/>
        <path id="LiberationSans-37" d="M 3238 3947 
Q 2906 3441 2628 2973 
Q 2350 2506 2150 2032 
Q 1950 1559 1839 1061 
Q 1728 563 1728 0 
L 1141 0 
Q 1141 528 1266 1036 
Q 1391 1544 1603 2033 
Q 1816 2522 2097 2994 
Q 2378 3466 2694 3925 
L 328 3925 
L 328 4403 
L 3238 4403 
L 3238 3947 
z
" transform="scale(0.015625)"/>
       </defs>
       <use xlink:href="#LiberationSans-30"/>
       <use xlink:href="#LiberationSans-2e" x="55.615234"/>
       <use xlink:href="#LiberationSans-36" x="83.398438"/>
       <use xlink:href="#LiberationSans-31" x="139.013672"/>
       <use xlink:href="#LiberationSans-38" x="194.628906"/>
       <use xlink:href="#LiberationSans-37" x="250.244141"/>
       <use xlink:href="#LiberationSans-35" x="305.859375"/>
      </g>
     </g>
    </g>
    <g id="ytick_3">
     <g id="line2d_50">
      <path d="M 72 127.44 
L 518.4 127.44 
" clip-path="url(#p29705018b6)" style="fill: none; stroke: #cccccc; stroke-width: 0.8; stroke-linecap: round"/>
     </g>
     <g id="line2d_51"/>
     <g id="text_3">
      <!-- 0.62250 -->
      <g style="fill: #386cb0" transform="translate(32.35625 131.063437) scale(0.1 -0.1)">
       <defs>
        <path id="LiberationSans-32" d="M 322 0 
L 322 397 
Q 481 763 711 1042 
Q 941 1322 1194 1548 
Q 1447 1775 1695 1969 
Q 1944 2163 2144 2356 
Q 2344 2550 2467 2762 
Q 2591 2975 2591 3244 
Q 2591 3431 2534 3573 
Q 2478 3716 2372 3812 
Q 2266 3909 2117 3957 
Q 1969 4006 1788 4006 
Q 1619 4006 1470 3959 
Q 1322 3913 1206 3819 
Q 1091 3725 1017 3586 
Q 944 3447 922 3263 
L 347 3316 
Q 375 3553 478 3762 
Q 581 3972 762 4130 
Q 944 4288 1198 4378 
Q 1453 4469 1788 4469 
Q 2116 4469 2372 4391 
Q 2628 4313 2804 4159 
Q 2981 4006 3075 3781 
Q 3169 3556 3169 3263 
Q 3169 3041 3089 2841 
Q 3009 2641 2876 2459 
Q 2744 2278 2569 2109 
Q 2394 1941 2203 1780 
Q 2013 1619 1819 1461 
Q 1625 1303 1454 1143 
Q 1284 984 1150 820 
Q 1016 656 941 478 
L 3238 478 
L 3238 0 
L 322 0 
z
" transform="scale(0.015625)"/>
       </defs>
       <use xlink:href="#LiberationSans-30"/>
       <use xlink:href="#LiberationSans-2e" x="55.615234"/>
       <use xlink:href="#LiberationSans-36" x="83.398438"/>
       <use xlink:href="#LiberationSans-32" x="139.013672"/>
       <use xlink:href="#LiberationSans-32" x="194.628906"/>
       <use xlink:href="#LiberationSans-35" x="250.244141"/>
       <use xlink:href="#LiberationSans-30" x="305.859375"/>
      </g>
     </g>
    </g>
    <g id="ytick_4">
     <g id="line2d_52">
      <path d="M 72 89.64 
L 518.4 89.64 
" clip-path="url(#p29705018b6)" style="fill: none; stroke: #cccccc; stroke-width: 0.8; stroke-linecap: round"/>
     </g>
     <g id="line2d_53"/>
     <g id="text_4">
      <!-- 0.62625 -->
      <g style="fill: #386cb0" transform="translate(32.35625 93.263438) scale(0.1 -0.1)">
       <use xlink:href="#LiberationSans-30"/>
       <use xlink:href="#LiberationSans-2e" x="55.615234"/>
       <use xlink:href="#LiberationSans-36" x="83.398438"/>
       <use xlink:href="#LiberationSans-32" x="139.013672"/>
       <use xlink:href="#LiberationSans-36" x="194.628906"/>
       <use xlink:href="#LiberationSans-32" x="250.244141"/>
       <use xlink:href="#LiberationSans-35" x="305.859375"/>
      </g>
     </g>
    </g>
    <g id="ytick_5">
     <g id="line2d_54">
      <path d="M 72 51.84 
L 518.4 51.84 
" clip-path="url(#p29705018b6)" style="fill: none; stroke: #cccccc; stroke-width: 0.8; stroke-linecap: round"/>
     </g>
     <g id="line2d_55"/>
     <g id="text_5">
      <!-- 0.63000 -->
      <g style="fill: #386cb0" transform="translate(32.35625 55.463438) scale(0.1 -0.1)">
       <defs>
        <path id="LiberationSans-33" d="M 3278 1216 
Q 3278 913 3179 675 
Q 3081 438 2892 273 
Q 2703 109 2423 23 
Q 2144 -63 1784 -63 
Q 1375 -63 1095 39 
Q 816 141 634 308 
Q 453 475 362 689 
Q 272 903 244 1131 
L 825 1184 
Q 850 1009 917 865 
Q 984 722 1100 619 
Q 1216 516 1384 459 
Q 1553 403 1784 403 
Q 2209 403 2451 612 
Q 2694 822 2694 1234 
Q 2694 1478 2586 1626 
Q 2478 1775 2317 1858 
Q 2156 1941 1967 1969 
Q 1778 1997 1619 1997 
L 1300 1997 
L 1300 2484 
L 1606 2484 
Q 1766 2484 1937 2517 
Q 2109 2550 2251 2636 
Q 2394 2722 2486 2869 
Q 2578 3016 2578 3244 
Q 2578 3597 2370 3801 
Q 2163 4006 1753 4006 
Q 1381 4006 1151 3815 
Q 922 3625 884 3278 
L 319 3322 
Q 353 3613 478 3828 
Q 603 4044 795 4186 
Q 988 4328 1234 4398 
Q 1481 4469 1759 4469 
Q 2128 4469 2393 4376 
Q 2659 4284 2828 4126 
Q 2997 3969 3076 3756 
Q 3156 3544 3156 3303 
Q 3156 3109 3103 2940 
Q 3050 2772 2937 2637 
Q 2825 2503 2651 2406 
Q 2478 2309 2234 2259 
L 2234 2247 
Q 2500 2219 2697 2126 
Q 2894 2034 3022 1896 
Q 3150 1759 3214 1584 
Q 3278 1409 3278 1216 
z
" transform="scale(0.015625)"/>
       </defs>
       <use xlink:href="#LiberationSans-30"/>
       <use xlink:href="#LiberationSans-2e" x="55.615234"/>
       <use xlink:href="#LiberationSans-36" x="83.398438"/>
       <use xlink:href="#LiberationSans-33" x="139.013672"/>
       <use xlink:href="#LiberationSans-30" x="194.628906"/>
       <use xlink:href="#LiberationSans-30" x="250.244141"/>
       <use xlink:href="#LiberationSans-30" x="305.859375"/>
      </g>
     </g>
    </g>
    <g id="text_6">
     <!-- male -->
     <g style="fill: #386cb0" transform="translate(15.28125 138.276719) rotate(-90) scale(0.1 -0.1)">
      <defs>
       <path id="LiberationSans-6d" d="M 2400 0 
L 2400 2144 
Q 2400 2391 2369 2556 
Q 2338 2722 2264 2823 
Q 2191 2925 2072 2967 
Q 1953 3009 1781 3009 
Q 1603 3009 1459 2939 
Q 1316 2869 1214 2736 
Q 1113 2603 1058 2408 
Q 1003 2213 1003 1959 
L 1003 0 
L 444 0 
L 444 2659 
Q 444 2766 442 2883 
Q 441 3000 437 3104 
Q 434 3209 431 3284 
Q 428 3359 425 3381 
L 956 3381 
Q 959 3366 962 3297 
Q 966 3228 970 3139 
Q 975 3050 978 2958 
Q 981 2866 981 2803 
L 991 2803 
Q 1066 2950 1153 3069 
Q 1241 3188 1358 3270 
Q 1475 3353 1626 3398 
Q 1778 3444 1978 3444 
Q 2363 3444 2586 3291 
Q 2809 3138 2897 2803 
L 2906 2803 
Q 2981 2950 3075 3069 
Q 3169 3188 3294 3270 
Q 3419 3353 3575 3398 
Q 3731 3444 3931 3444 
Q 4188 3444 4373 3375 
Q 4559 3306 4678 3162 
Q 4797 3019 4853 2792 
Q 4909 2566 4909 2253 
L 4909 0 
L 4353 0 
L 4353 2144 
Q 4353 2391 4322 2556 
Q 4291 2722 4217 2823 
Q 4144 2925 4025 2967 
Q 3906 3009 3734 3009 
Q 3556 3009 3412 2942 
Q 3269 2875 3167 2744 
Q 3066 2613 3011 2416 
Q 2956 2219 2956 1959 
L 2956 0 
L 2400 0 
z
" transform="scale(0.015625)"/>
       <path id="LiberationSans-61" d="M 1294 -63 
Q 784 -63 528 206 
Q 272 475 272 944 
Q 272 1278 398 1492 
Q 525 1706 729 1828 
Q 934 1950 1196 1997 
Q 1459 2044 1731 2050 
L 2491 2063 
L 2491 2247 
Q 2491 2456 2447 2603 
Q 2403 2750 2312 2840 
Q 2222 2931 2086 2973 
Q 1950 3016 1766 3016 
Q 1603 3016 1472 2992 
Q 1341 2969 1244 2908 
Q 1147 2847 1087 2742 
Q 1028 2638 1009 2478 
L 422 2531 
Q 453 2731 540 2898 
Q 628 3066 789 3187 
Q 950 3309 1192 3376 
Q 1434 3444 1778 3444 
Q 2416 3444 2737 3151 
Q 3059 2859 3059 2306 
L 3059 850 
Q 3059 600 3125 473 
Q 3191 347 3375 347 
Q 3422 347 3469 353 
Q 3516 359 3559 369 
L 3559 19 
Q 3453 -6 3348 -18 
Q 3244 -31 3125 -31 
Q 2966 -31 2852 11 
Q 2738 53 2666 139 
Q 2594 225 2556 351 
Q 2519 478 2509 647 
L 2491 647 
Q 2400 484 2292 353 
Q 2184 222 2040 130 
Q 1897 38 1714 -12 
Q 1531 -63 1294 -63 
z
M 1422 359 
Q 1691 359 1892 457 
Q 2094 556 2226 709 
Q 2359 863 2425 1044 
Q 2491 1225 2491 1391 
L 2491 1669 
L 1875 1656 
Q 1669 1653 1483 1626 
Q 1297 1600 1156 1522 
Q 1016 1444 933 1303 
Q 850 1163 850 934 
Q 850 659 998 509 
Q 1147 359 1422 359 
z
" transform="scale(0.015625)"/>
       <path id="LiberationSans-6c" d="M 431 0 
L 431 4638 
L 994 4638 
L 994 0 
L 431 0 
z
" transform="scale(0.015625)"/>
       <path id="LiberationSans-65" d="M 863 1572 
Q 863 1306 917 1082 
Q 972 859 1086 698 
Q 1200 538 1378 448 
Q 1556 359 1806 359 
Q 2172 359 2392 506 
Q 2613 653 2691 878 
L 3184 738 
Q 3131 597 3036 455 
Q 2941 313 2781 198 
Q 2622 84 2383 10 
Q 2144 -63 1806 -63 
Q 1056 -63 664 384 
Q 272 831 272 1713 
Q 272 2188 390 2517 
Q 509 2847 715 3053 
Q 922 3259 1197 3351 
Q 1472 3444 1784 3444 
Q 2209 3444 2495 3306 
Q 2781 3169 2954 2926 
Q 3128 2684 3201 2356 
Q 3275 2028 3275 1647 
L 3275 1572 
L 863 1572 
z
M 2694 2003 
Q 2647 2538 2422 2783 
Q 2197 3028 1775 3028 
Q 1634 3028 1479 2983 
Q 1325 2938 1194 2822 
Q 1063 2706 972 2507 
Q 881 2309 869 2003 
L 2694 2003 
z
" transform="scale(0.015625)"/>
      </defs>
      <use xlink:href="#LiberationSans-6d"/>
      <use xlink:href="#LiberationSans-61" x="83.300781"/>
      <use xlink:href="#LiberationSans-6c" x="138.916016"/>
      <use xlink:href="#LiberationSans-65" x="161.132812"/>
     </g>
    </g>
   </g>
   <g id="line2d_56">
    <path d="M 92.290909 154.620952 
L 102.696503 147.001905 
L 113.102098 139.382857 
L 123.507692 154.620952 
L 133.913287 147.001905 
L 144.318881 124.144762 
L 154.724476 116.525714 
L 165.13007 139.382857 
L 175.535664 124.144762 
L 185.941259 124.144762 
L 196.346853 108.906667 
L 206.752448 116.525714 
L 217.158042 108.906667 
L 227.563636 93.668571 
L 237.969231 78.430476 
L 248.374825 86.049524 
L 258.78042 108.906667 
L 269.186014 162.24 
L 279.591608 162.24 
L 289.997203 154.620952 
L 300.402797 169.859048 
L 310.808392 162.24 
L 321.213986 162.24 
L 331.61958 162.24 
L 342.025175 147.001905 
L 352.430769 147.001905 
L 362.836364 147.001905 
L 373.241958 147.001905 
L 383.647552 147.001905 
L 394.053147 154.620952 
L 404.458741 169.859048 
L 414.864336 162.24 
L 425.26993 162.24 
L 435.675524 162.24 
L 446.081119 162.24 
L 456.486713 169.859048 
L 466.892308 169.859048 
L 477.297902 169.859048 
L 487.703497 154.620952 
L 498.109091 147.001905 
" clip-path="url(#p29705018b6)" style="fill: none; stroke: #386cb0; stroke-width: 1.5; stroke-linecap: round"/>
   </g>
   <g id="patch_3">
    <path d="M 72 203.04 
L 72 51.84 
" style="fill: none; stroke: #cccccc; stroke-linejoin: miter; stroke-linecap: square"/>
   </g>
   <g id="patch_4">
    <path d="M 518.4 203.04 
L 518.4 51.84 
" style="fill: none; stroke: #cccccc; stroke-linejoin: miter; stroke-linecap: square"/>
   </g>
   <g id="patch_5">
    <path d="M 72 203.04 
L 518.4 203.04 
" style="fill: none; stroke: #cccccc; stroke-linejoin: miter; stroke-linecap: square"/>
   </g>
   <g id="patch_6">
    <path d="M 72 51.84 
L 518.4 51.84 
" style="fill: none; stroke: #cccccc; stroke-linejoin: miter; stroke-linecap: square"/>
   </g>
   <g id="text_7">
    <!-- Recall -->
    <g style="fill: #262626" transform="translate(278.5275 45.84) scale(0.12 -0.12)">
     <defs>
      <path id="LiberationSans-52" d="M 3638 0 
L 2494 1828 
L 1122 1828 
L 1122 0 
L 525 0 
L 525 4403 
L 2597 4403 
Q 2972 4403 3261 4317 
Q 3550 4231 3747 4068 
Q 3944 3906 4047 3672 
Q 4150 3438 4150 3144 
Q 4150 2934 4089 2731 
Q 4028 2528 3897 2359 
Q 3766 2191 3562 2069 
Q 3359 1947 3075 1897 
L 4325 0 
L 3638 0 
z
M 3550 3138 
Q 3550 3338 3481 3484 
Q 3413 3631 3281 3729 
Q 3150 3828 2962 3876 
Q 2775 3925 2538 3925 
L 1122 3925 
L 1122 2300 
L 2563 2300 
Q 2819 2300 3006 2364 
Q 3194 2428 3314 2540 
Q 3434 2653 3492 2806 
Q 3550 2959 3550 3138 
z
" transform="scale(0.015625)"/>
      <path id="LiberationSans-63" d="M 859 1706 
Q 859 1416 901 1172 
Q 944 928 1044 751 
Q 1144 575 1308 478 
Q 1472 381 1713 381 
Q 2013 381 2214 543 
Q 2416 706 2463 1044 
L 3031 1006 
Q 3003 797 2909 603 
Q 2816 409 2655 262 
Q 2494 116 2262 26 
Q 2031 -63 1728 -63 
Q 1331 -63 1053 71 
Q 775 206 601 442 
Q 428 678 350 998 
Q 272 1319 272 1694 
Q 272 2034 328 2295 
Q 384 2556 486 2751 
Q 588 2947 725 3080 
Q 863 3213 1023 3292 
Q 1184 3372 1362 3408 
Q 1541 3444 1722 3444 
Q 2006 3444 2228 3366 
Q 2450 3288 2611 3152 
Q 2772 3016 2872 2831 
Q 2972 2647 3013 2434 
L 2434 2391 
Q 2391 2672 2212 2837 
Q 2034 3003 1706 3003 
Q 1466 3003 1305 2923 
Q 1144 2844 1044 2683 
Q 944 2522 901 2278 
Q 859 2034 859 1706 
z
" transform="scale(0.015625)"/>
     </defs>
     <use xlink:href="#LiberationSans-52"/>
     <use xlink:href="#LiberationSans-65" x="72.216797"/>
     <use xlink:href="#LiberationSans-63" x="127.832031"/>
     <use xlink:href="#LiberationSans-61" x="177.832031"/>
     <use xlink:href="#LiberationSans-6c" x="233.447266"/>
     <use xlink:href="#LiberationSans-6c" x="255.664062"/>
    </g>
   </g>
  </g>
  <g id="axes_2">
   <g id="patch_7">
    <path d="M 72 384.48 
L 518.4 384.48 
L 518.4 233.28 
L 72 233.28 
L 72 384.48 
z
" style="fill: none"/>
   </g>
   <g id="matplotlib.axis_3">
    <g id="xtick_41">
     <g id="line2d_57">
      <path d="M 92.290909 384.48 
L 92.290909 233.28 
" clip-path="url(#pd7e0cb2f29)" style="fill: none; stroke: #cccccc; stroke-width: 0.8; stroke-linecap: round"/>
     </g>
     <g id="line2d_58"/>
     <g id="text_8">
      <!-- $\mathdefault{10^{-2}}$ -->
      <g style="fill: #262626" transform="translate(82.540909 395.226875) scale(0.1 -0.1)">
       <defs>
        <path id="LiberationSans-2212" d="M 316 1900 
L 316 2356 
L 3425 2356 
L 3425 1900 
L 316 1900 
z
" transform="scale(0.015625)"/>
       </defs>
       <use xlink:href="#LiberationSans-31" transform="translate(0 0.140625)"/>
       <use xlink:href="#LiberationSans-30" transform="translate(55.615234 0.140625)"/>
       <use xlink:href="#LiberationSans-2212" transform="translate(112.154961 37.120312) scale(0.7)"/>
       <use xlink:href="#LiberationSans-32" transform="translate(153.033867 37.120312) scale(0.7)"/>
      </g>
     </g>
    </g>
    <g id="xtick_42">
     <g id="line2d_59">
      <path d="M 193.745455 384.48 
L 193.745455 233.28 
" clip-path="url(#pd7e0cb2f29)" style="fill: none; stroke: #cccccc; stroke-width: 0.8; stroke-linecap: round"/>
     </g>
     <g id="line2d_60"/>
     <g id="text_9">
      <!-- $\mathdefault{10^{-1}}$ -->
      <g style="fill: #262626" transform="translate(183.995455 395.226875) scale(0.1 -0.1)">
       <use xlink:href="#LiberationSans-31" transform="translate(0 0.8625)"/>
       <use xlink:href="#LiberationSans-30" transform="translate(55.615234 0.8625)"/>
       <use xlink:href="#LiberationSans-2212" transform="translate(112.154961 37.842188) scale(0.7)"/>
       <use xlink:href="#LiberationSans-31" transform="translate(153.033867 37.842188) scale(0.7)"/>
      </g>
     </g>
    </g>
    <g id="xtick_43">
     <g id="line2d_61">
      <path d="M 295.2 384.48 
L 295.2 233.28 
" clip-path="url(#pd7e0cb2f29)" style="fill: none; stroke: #cccccc; stroke-width: 0.8; stroke-linecap: round"/>
     </g>
     <g id="line2d_62"/>
     <g id="text_10">
      <!-- $\mathdefault{10^{0}}$ -->
      <g style="fill: #262626" transform="translate(287.5 395.226875) scale(0.1 -0.1)">
       <use xlink:href="#LiberationSans-31" transform="translate(0 0.140625)"/>
       <use xlink:href="#LiberationSans-30" transform="translate(55.615234 0.140625)"/>
       <use xlink:href="#LiberationSans-30" transform="translate(112.154961 37.120312) scale(0.7)"/>
      </g>
     </g>
    </g>
    <g id="xtick_44">
     <g id="line2d_63">
      <path d="M 396.654545 384.48 
L 396.654545 233.28 
" clip-path="url(#pd7e0cb2f29)" style="fill: none; stroke: #cccccc; stroke-width: 0.8; stroke-linecap: round"/>
     </g>
     <g id="line2d_64"/>
     <g id="text_11">
      <!-- $\mathdefault{10^{1}}$ -->
      <g style="fill: #262626" transform="translate(388.954545 395.226875) scale(0.1 -0.1)">
       <use xlink:href="#LiberationSans-31" transform="translate(0 0.8625)"/>
       <use xlink:href="#LiberationSans-30" transform="translate(55.615234 0.8625)"/>
       <use xlink:href="#LiberationSans-31" transform="translate(112.154961 37.842188) scale(0.7)"/>
      </g>
     </g>
    </g>
    <g id="xtick_45">
     <g id="line2d_65">
      <path d="M 498.109091 384.48 
L 498.109091 233.28 
" clip-path="url(#pd7e0cb2f29)" style="fill: none; stroke: #cccccc; stroke-width: 0.8; stroke-linecap: round"/>
     </g>
     <g id="line2d_66"/>
     <g id="text_12">
      <!-- $\mathdefault{10^{2}}$ -->
      <g style="fill: #262626" transform="translate(490.409091 395.226875) scale(0.1 -0.1)">
       <use xlink:href="#LiberationSans-31" transform="translate(0 0.140625)"/>
       <use xlink:href="#LiberationSans-30" transform="translate(55.615234 0.140625)"/>
       <use xlink:href="#LiberationSans-32" transform="translate(112.154961 37.120312) scale(0.7)"/>
      </g>
     </g>
    </g>
    <g id="xtick_46">
     <g id="line2d_67"/>
    </g>
    <g id="xtick_47">
     <g id="line2d_68"/>
    </g>
    <g id="xtick_48">
     <g id="line2d_69"/>
    </g>
    <g id="xtick_49">
     <g id="line2d_70"/>
    </g>
    <g id="xtick_50">
     <g id="line2d_71"/>
    </g>
    <g id="xtick_51">
     <g id="line2d_72"/>
    </g>
    <g id="xtick_52">
     <g id="line2d_73"/>
    </g>
    <g id="xtick_53">
     <g id="line2d_74"/>
    </g>
    <g id="xtick_54">
     <g id="line2d_75"/>
    </g>
    <g id="xtick_55">
     <g id="line2d_76"/>
    </g>
    <g id="xtick_56">
     <g id="line2d_77"/>
    </g>
    <g id="xtick_57">
     <g id="line2d_78"/>
    </g>
    <g id="xtick_58">
     <g id="line2d_79"/>
    </g>
    <g id="xtick_59">
     <g id="line2d_80"/>
    </g>
    <g id="xtick_60">
     <g id="line2d_81"/>
    </g>
    <g id="xtick_61">
     <g id="line2d_82"/>
    </g>
    <g id="xtick_62">
     <g id="line2d_83"/>
    </g>
    <g id="xtick_63">
     <g id="line2d_84"/>
    </g>
    <g id="xtick_64">
     <g id="line2d_85"/>
    </g>
    <g id="xtick_65">
     <g id="line2d_86"/>
    </g>
    <g id="xtick_66">
     <g id="line2d_87"/>
    </g>
    <g id="xtick_67">
     <g id="line2d_88"/>
    </g>
    <g id="xtick_68">
     <g id="line2d_89"/>
    </g>
    <g id="xtick_69">
     <g id="line2d_90"/>
    </g>
    <g id="xtick_70">
     <g id="line2d_91"/>
    </g>
    <g id="xtick_71">
     <g id="line2d_92"/>
    </g>
    <g id="xtick_72">
     <g id="line2d_93"/>
    </g>
    <g id="xtick_73">
     <g id="line2d_94"/>
    </g>
    <g id="xtick_74">
     <g id="line2d_95"/>
    </g>
    <g id="xtick_75">
     <g id="line2d_96"/>
    </g>
    <g id="xtick_76">
     <g id="line2d_97"/>
    </g>
    <g id="xtick_77">
     <g id="line2d_98"/>
    </g>
    <g id="xtick_78">
     <g id="line2d_99"/>
    </g>
    <g id="xtick_79">
     <g id="line2d_100"/>
    </g>
    <g id="xtick_80">
     <g id="line2d_101"/>
    </g>
    <g id="text_13">
     <!-- weights -->
     <g style="fill: #262626" transform="translate(278.247656 408.54875) scale(0.1 -0.1)">
      <defs>
       <path id="LiberationSans-77" d="M 3669 0 
L 3016 0 
L 2475 2181 
Q 2450 2266 2423 2391 
Q 2397 2516 2372 2634 
Q 2341 2772 2313 2919 
Q 2284 2778 2253 2641 
Q 2228 2522 2198 2394 
Q 2169 2266 2144 2169 
L 1588 0 
L 938 0 
L -9 3381 
L 547 3381 
L 1119 1084 
Q 1141 1013 1162 908 
Q 1184 803 1206 703 
Q 1228 588 1253 466 
Q 1278 584 1306 697 
Q 1331 794 1356 894 
Q 1381 994 1400 1059 
L 2013 3381 
L 2616 3381 
L 3206 1059 
Q 3228 978 3253 875 
Q 3278 772 3300 681 
Q 3325 575 3350 466 
Q 3375 584 3400 697 
Q 3422 794 3445 898 
Q 3469 1003 3491 1084 
L 4088 3381 
L 4638 3381 
L 3669 0 
z
" transform="scale(0.015625)"/>
       <path id="LiberationSans-69" d="M 428 4100 
L 428 4638 
L 991 4638 
L 991 4100 
L 428 4100 
z
M 428 0 
L 428 3381 
L 991 3381 
L 991 0 
L 428 0 
z
" transform="scale(0.015625)"/>
       <path id="LiberationSans-67" d="M 1713 -1328 
Q 1422 -1328 1197 -1268 
Q 972 -1209 812 -1098 
Q 653 -988 553 -834 
Q 453 -681 409 -494 
L 975 -413 
Q 1031 -647 1223 -773 
Q 1416 -900 1728 -900 
Q 1919 -900 2075 -847 
Q 2231 -794 2340 -676 
Q 2450 -559 2509 -371 
Q 2569 -184 2569 84 
L 2569 628 
L 2563 628 
Q 2500 500 2408 383 
Q 2316 266 2183 175 
Q 2050 84 1875 29 
Q 1700 -25 1475 -25 
Q 1153 -25 923 83 
Q 694 191 548 406 
Q 403 622 336 942 
Q 269 1263 269 1684 
Q 269 2091 336 2416 
Q 403 2741 554 2967 
Q 706 3194 948 3314 
Q 1191 3434 1538 3434 
Q 1897 3434 2161 3270 
Q 2425 3106 2569 2803 
L 2575 2803 
Q 2575 2881 2579 2978 
Q 2584 3075 2589 3161 
Q 2594 3247 2600 3309 
Q 2606 3372 2613 3381 
L 3147 3381 
Q 3144 3353 3141 3286 
Q 3138 3219 3134 3125 
Q 3131 3031 3129 2917 
Q 3128 2803 3128 2681 
L 3128 97 
Q 3128 -613 2779 -970 
Q 2431 -1328 1713 -1328 
z
M 2569 1691 
Q 2569 2044 2492 2295 
Q 2416 2547 2291 2706 
Q 2166 2866 2005 2941 
Q 1844 3016 1675 3016 
Q 1459 3016 1304 2941 
Q 1150 2866 1048 2705 
Q 947 2544 898 2292 
Q 850 2041 850 1691 
Q 850 1325 898 1076 
Q 947 828 1047 675 
Q 1147 522 1300 456 
Q 1453 391 1666 391 
Q 1834 391 1995 462 
Q 2156 534 2284 690 
Q 2413 847 2491 1094 
Q 2569 1341 2569 1691 
z
" transform="scale(0.015625)"/>
       <path id="LiberationSans-68" d="M 991 2803 
Q 1084 2975 1193 3095 
Q 1303 3216 1434 3294 
Q 1566 3372 1722 3408 
Q 1878 3444 2072 3444 
Q 2397 3444 2605 3356 
Q 2813 3269 2933 3111 
Q 3053 2953 3098 2734 
Q 3144 2516 3144 2253 
L 3144 0 
L 2578 0 
L 2578 2144 
Q 2578 2359 2551 2521 
Q 2525 2684 2450 2792 
Q 2375 2900 2237 2954 
Q 2100 3009 1881 3009 
Q 1681 3009 1520 2937 
Q 1359 2866 1245 2734 
Q 1131 2603 1068 2415 
Q 1006 2228 1006 1994 
L 1006 0 
L 444 0 
L 444 4638 
L 1006 4638 
L 1006 3431 
Q 1006 3328 1003 3225 
Q 1000 3122 995 3034 
Q 991 2947 987 2886 
Q 984 2825 981 2803 
L 991 2803 
z
" transform="scale(0.015625)"/>
       <path id="LiberationSans-74" d="M 1731 25 
Q 1603 -9 1470 -29 
Q 1338 -50 1163 -50 
Q 488 -50 488 716 
L 488 2972 
L 97 2972 
L 97 3381 
L 509 3381 
L 675 4138 
L 1050 4138 
L 1050 3381 
L 1675 3381 
L 1675 2972 
L 1050 2972 
L 1050 838 
Q 1050 594 1129 495 
Q 1209 397 1406 397 
Q 1488 397 1564 409 
Q 1641 422 1731 441 
L 1731 25 
z
" transform="scale(0.015625)"/>
       <path id="LiberationSans-73" d="M 2969 934 
Q 2969 697 2876 511 
Q 2784 325 2609 198 
Q 2434 72 2179 4 
Q 1925 -63 1597 -63 
Q 1303 -63 1067 -17 
Q 831 28 653 128 
Q 475 228 354 392 
Q 234 556 178 794 
L 675 891 
Q 747 619 972 492 
Q 1197 366 1597 366 
Q 1778 366 1929 391 
Q 2081 416 2190 477 
Q 2300 538 2361 639 
Q 2422 741 2422 891 
Q 2422 1044 2350 1142 
Q 2278 1241 2150 1306 
Q 2022 1372 1839 1420 
Q 1656 1469 1438 1528 
Q 1234 1581 1034 1647 
Q 834 1713 673 1820 
Q 513 1928 413 2087 
Q 313 2247 313 2488 
Q 313 2950 642 3192 
Q 972 3434 1603 3434 
Q 2163 3434 2492 3237 
Q 2822 3041 2909 2606 
L 2403 2544 
Q 2375 2675 2300 2764 
Q 2225 2853 2119 2908 
Q 2013 2963 1880 2986 
Q 1747 3009 1603 3009 
Q 1222 3009 1040 2893 
Q 859 2778 859 2544 
Q 859 2406 926 2317 
Q 994 2228 1114 2167 
Q 1234 2106 1403 2061 
Q 1572 2016 1775 1966 
Q 1909 1931 2050 1892 
Q 2191 1853 2323 1798 
Q 2456 1744 2573 1670 
Q 2691 1597 2778 1494 
Q 2866 1391 2917 1253 
Q 2969 1116 2969 934 
z
" transform="scale(0.015625)"/>
      </defs>
      <use xlink:href="#LiberationSans-77"/>
      <use xlink:href="#LiberationSans-65" x="72.216797"/>
      <use xlink:href="#LiberationSans-69" x="127.832031"/>
      <use xlink:href="#LiberationSans-67" x="150.048828"/>
      <use xlink:href="#LiberationSans-68" x="205.664062"/>
      <use xlink:href="#LiberationSans-74" x="261.279297"/>
      <use xlink:href="#LiberationSans-73" x="289.0625"/>
     </g>
    </g>
   </g>
   <g id="matplotlib.axis_4">
    <g id="ytick_6">
     <g id="line2d_102">
      <path d="M 72 384.48 
L 518.4 384.48 
" clip-path="url(#pd7e0cb2f29)" style="fill: none; stroke: #cccccc; stroke-width: 0.8; stroke-linecap: round"/>
     </g>
     <g id="line2d_103"/>
     <g id="text_14">
      <!-- 0.7100 -->
      <g style="fill: #386cb0" transform="translate(37.917187 388.103438) scale(0.1 -0.1)">
       <use xlink:href="#LiberationSans-30"/>
       <use xlink:href="#LiberationSans-2e" x="55.615234"/>
       <use xlink:href="#LiberationSans-37" x="83.398438"/>
       <use xlink:href="#LiberationSans-31" x="139.013672"/>
       <use xlink:href="#LiberationSans-30" x="194.628906"/>
       <use xlink:href="#LiberationSans-30" x="250.244141"/>
      </g>
     </g>
    </g>
    <g id="ytick_7">
     <g id="line2d_104">
      <path d="M 72 346.68 
L 518.4 346.68 
" clip-path="url(#pd7e0cb2f29)" style="fill: none; stroke: #cccccc; stroke-width: 0.8; stroke-linecap: round"/>
     </g>
     <g id="line2d_105"/>
     <g id="text_15">
      <!-- 0.7175 -->
      <g style="fill: #386cb0" transform="translate(37.917187 350.303437) scale(0.1 -0.1)">
       <use xlink:href="#LiberationSans-30"/>
       <use xlink:href="#LiberationSans-2e" x="55.615234"/>
       <use xlink:href="#LiberationSans-37" x="83.398438"/>
       <use xlink:href="#LiberationSans-31" x="139.013672"/>
       <use xlink:href="#LiberationSans-37" x="194.628906"/>
       <use xlink:href="#LiberationSans-35" x="250.244141"/>
      </g>
     </g>
    </g>
    <g id="ytick_8">
     <g id="line2d_106">
      <path d="M 72 308.88 
L 518.4 308.88 
" clip-path="url(#pd7e0cb2f29)" style="fill: none; stroke: #cccccc; stroke-width: 0.8; stroke-linecap: round"/>
     </g>
     <g id="line2d_107"/>
     <g id="text_16">
      <!-- 0.7250 -->
      <g style="fill: #386cb0" transform="translate(37.917187 312.503438) scale(0.1 -0.1)">
       <use xlink:href="#LiberationSans-30"/>
       <use xlink:href="#LiberationSans-2e" x="55.615234"/>
       <use xlink:href="#LiberationSans-37" x="83.398438"/>
       <use xlink:href="#LiberationSans-32" x="139.013672"/>
       <use xlink:href="#LiberationSans-35" x="194.628906"/>
       <use xlink:href="#LiberationSans-30" x="250.244141"/>
      </g>
     </g>
    </g>
    <g id="ytick_9">
     <g id="line2d_108">
      <path d="M 72 271.08 
L 518.4 271.08 
" clip-path="url(#pd7e0cb2f29)" style="fill: none; stroke: #cccccc; stroke-width: 0.8; stroke-linecap: round"/>
     </g>
     <g id="line2d_109"/>
     <g id="text_17">
      <!-- 0.7325 -->
      <g style="fill: #386cb0" transform="translate(37.917187 274.703438) scale(0.1 -0.1)">
       <use xlink:href="#LiberationSans-30"/>
       <use xlink:href="#LiberationSans-2e" x="55.615234"/>
       <use xlink:href="#LiberationSans-37" x="83.398438"/>
       <use xlink:href="#LiberationSans-33" x="139.013672"/>
       <use xlink:href="#LiberationSans-32" x="194.628906"/>
       <use xlink:href="#LiberationSans-35" x="250.244141"/>
      </g>
     </g>
    </g>
    <g id="ytick_10">
     <g id="line2d_110">
      <path d="M 72 233.28 
L 518.4 233.28 
" clip-path="url(#pd7e0cb2f29)" style="fill: none; stroke: #cccccc; stroke-width: 0.8; stroke-linecap: round"/>
     </g>
     <g id="line2d_111"/>
     <g id="text_18">
      <!-- 0.7400 -->
      <g style="fill: #386cb0" transform="translate(37.917187 236.903438) scale(0.1 -0.1)">
       <defs>
        <path id="LiberationSans-34" d="M 2753 997 
L 2753 0 
L 2222 0 
L 2222 997 
L 147 997 
L 147 1434 
L 2163 4403 
L 2753 4403 
L 2753 1441 
L 3372 1441 
L 3372 997 
L 2753 997 
z
M 2222 3769 
Q 2216 3753 2191 3708 
Q 2166 3663 2134 3606 
Q 2103 3550 2070 3492 
Q 2038 3434 2013 3397 
L 884 1734 
Q 869 1709 839 1668 
Q 809 1628 778 1586 
Q 747 1544 715 1503 
Q 684 1463 666 1441 
L 2222 1441 
L 2222 3769 
z
" transform="scale(0.015625)"/>
       </defs>
       <use xlink:href="#LiberationSans-30"/>
       <use xlink:href="#LiberationSans-2e" x="55.615234"/>
       <use xlink:href="#LiberationSans-37" x="83.398438"/>
       <use xlink:href="#LiberationSans-34" x="139.013672"/>
       <use xlink:href="#LiberationSans-30" x="194.628906"/>
       <use xlink:href="#LiberationSans-30" x="250.244141"/>
      </g>
     </g>
    </g>
    <g id="text_19">
     <!-- male -->
     <g style="fill: #386cb0" transform="translate(20.842187 319.716719) rotate(-90) scale(0.1 -0.1)">
      <use xlink:href="#LiberationSans-6d"/>
      <use xlink:href="#LiberationSans-61" x="83.300781"/>
      <use xlink:href="#LiberationSans-6c" x="138.916016"/>
      <use xlink:href="#LiberationSans-65" x="161.132812"/>
     </g>
    </g>
   </g>
   <g id="line2d_112">
    <path d="M 92.290909 337.616842 
L 102.696503 336.376933 
L 113.102098 338.313071 
L 123.507692 340.79411 
L 133.913287 339.552504 
L 144.318881 332.67021 
L 154.724476 325.084724 
L 165.13007 328.774737 
L 175.535664 313.530264 
L 185.941259 303.884405 
L 196.346853 304.672619 
L 206.752448 302.668732 
L 217.158042 285.282827 
L 227.563636 266.582391 
L 237.969231 260.933097 
L 248.374825 255.550807 
L 258.78042 265.686394 
L 269.186014 264.170323 
L 279.591608 264.170323 
L 289.997203 266.278927 
L 300.402797 258.729057 
L 310.808392 250.865612 
L 321.213986 250.865612 
L 331.61958 244.177297 
L 342.025175 245.144151 
L 352.430769 245.144151 
L 362.836364 241.800863 
L 373.241958 241.800863 
L 383.647552 241.800863 
L 394.053147 242.988011 
L 404.458741 248.717838 
L 414.864336 247.524464 
L 425.26993 247.524464 
L 435.675524 250.865612 
L 446.081119 250.865612 
L 456.486713 252.060918 
L 466.892308 252.060918 
L 477.297902 252.060918 
L 487.703497 249.672453 
L 498.109091 248.481436 
" clip-path="url(#pd7e0cb2f29)" style="fill: none; stroke: #386cb0; stroke-width: 1.5; stroke-linecap: round"/>
   </g>
   <g id="patch_8">
    <path d="M 72 384.48 
L 72 233.28 
" style="fill: none; stroke: #cccccc; stroke-linejoin: miter; stroke-linecap: square"/>
   </g>
   <g id="patch_9">
    <path d="M 518.4 384.48 
L 518.4 233.28 
" style="fill: none; stroke: #cccccc; stroke-linejoin: miter; stroke-linecap: square"/>
   </g>
   <g id="patch_10">
    <path d="M 72 384.48 
L 518.4 384.48 
" style="fill: none; stroke: #cccccc; stroke-linejoin: miter; stroke-linecap: square"/>
   </g>
   <g id="patch_11">
    <path d="M 72 233.28 
L 518.4 233.28 
" style="fill: none; stroke: #cccccc; stroke-linejoin: miter; stroke-linecap: square"/>
   </g>
   <g id="text_20">
    <!-- Precision -->
    <g style="fill: #262626" transform="translate(270.524063 227.28) scale(0.12 -0.12)">
     <defs>
      <path id="LiberationSans-50" d="M 3931 3078 
Q 3931 2791 3836 2542 
Q 3741 2294 3552 2111 
Q 3363 1928 3078 1822 
Q 2794 1716 2416 1716 
L 1122 1716 
L 1122 0 
L 525 0 
L 525 4403 
L 2378 4403 
Q 2769 4403 3059 4308 
Q 3350 4213 3544 4039 
Q 3738 3866 3834 3620 
Q 3931 3375 3931 3078 
z
M 3331 3072 
Q 3331 3491 3075 3708 
Q 2819 3925 2306 3925 
L 1122 3925 
L 1122 2188 
L 2331 2188 
Q 2847 2188 3089 2416 
Q 3331 2644 3331 3072 
z
" transform="scale(0.015625)"/>
      <path id="LiberationSans-72" d="M 444 0 
L 444 2594 
Q 444 2700 442 2811 
Q 441 2922 437 3025 
Q 434 3128 431 3218 
Q 428 3309 425 3381 
L 956 3381 
Q 959 3309 964 3217 
Q 969 3125 973 3028 
Q 978 2931 979 2842 
Q 981 2753 981 2691 
L 994 2691 
Q 1053 2884 1120 3026 
Q 1188 3169 1278 3261 
Q 1369 3353 1494 3398 
Q 1619 3444 1797 3444 
Q 1866 3444 1928 3433 
Q 1991 3422 2025 3413 
L 2025 2897 
Q 1969 2913 1894 2920 
Q 1819 2928 1725 2928 
Q 1531 2928 1395 2840 
Q 1259 2753 1173 2598 
Q 1088 2444 1047 2230 
Q 1006 2016 1006 1763 
L 1006 0 
L 444 0 
z
" transform="scale(0.015625)"/>
      <path id="LiberationSans-6f" d="M 3291 1694 
Q 3291 806 2900 371 
Q 2509 -63 1766 -63 
Q 1413 -63 1134 43 
Q 856 150 664 369 
Q 472 588 370 917 
Q 269 1247 269 1694 
Q 269 3444 1784 3444 
Q 2178 3444 2464 3334 
Q 2750 3225 2933 3006 
Q 3116 2788 3203 2459 
Q 3291 2131 3291 1694 
z
M 2700 1694 
Q 2700 2088 2639 2344 
Q 2578 2600 2461 2753 
Q 2344 2906 2175 2967 
Q 2006 3028 1794 3028 
Q 1578 3028 1404 2964 
Q 1231 2900 1109 2745 
Q 988 2591 923 2334 
Q 859 2078 859 1694 
Q 859 1300 928 1042 
Q 997 784 1117 631 
Q 1238 478 1402 415 
Q 1566 353 1759 353 
Q 1975 353 2150 414 
Q 2325 475 2447 628 
Q 2569 781 2634 1040 
Q 2700 1300 2700 1694 
z
" transform="scale(0.015625)"/>
      <path id="LiberationSans-6e" d="M 2578 0 
L 2578 2144 
Q 2578 2391 2542 2556 
Q 2506 2722 2425 2823 
Q 2344 2925 2211 2967 
Q 2078 3009 1881 3009 
Q 1681 3009 1520 2939 
Q 1359 2869 1245 2736 
Q 1131 2603 1068 2408 
Q 1006 2213 1006 1959 
L 1006 0 
L 444 0 
L 444 2659 
Q 444 2766 442 2883 
Q 441 3000 437 3104 
Q 434 3209 431 3284 
Q 428 3359 425 3381 
L 956 3381 
Q 959 3366 962 3297 
Q 966 3228 970 3139 
Q 975 3050 978 2958 
Q 981 2866 981 2803 
L 991 2803 
Q 1072 2950 1169 3069 
Q 1266 3188 1394 3270 
Q 1522 3353 1687 3398 
Q 1853 3444 2072 3444 
Q 2353 3444 2556 3375 
Q 2759 3306 2890 3162 
Q 3022 3019 3083 2792 
Q 3144 2566 3144 2253 
L 3144 0 
L 2578 0 
z
" transform="scale(0.015625)"/>
     </defs>
     <use xlink:href="#LiberationSans-50"/>
     <use xlink:href="#LiberationSans-72" x="66.699219"/>
     <use xlink:href="#LiberationSans-65" x="100"/>
     <use xlink:href="#LiberationSans-63" x="155.615234"/>
     <use xlink:href="#LiberationSans-69" x="205.615234"/>
     <use xlink:href="#LiberationSans-73" x="227.832031"/>
     <use xlink:href="#LiberationSans-69" x="277.832031"/>
     <use xlink:href="#LiberationSans-6f" x="300.048828"/>
     <use xlink:href="#LiberationSans-6e" x="355.664062"/>
    </g>
   </g>
  </g>
  <g id="axes_3">
   <g id="matplotlib.axis_5">
    <g id="ytick_11">
     <g id="line2d_113">
      <path d="M 72 203.04 
L 518.4 203.04 
" clip-path="url(#p29705018b6)" style="fill: none; stroke: #cccccc; stroke-width: 0.8; stroke-linecap: round"/>
     </g>
     <g id="line2d_114"/>
     <g id="text_21">
      <!-- 0.42 -->
      <g style="fill: #f0027f" transform="translate(521.9 206.663437) scale(0.1 -0.1)">
       <use xlink:href="#LiberationSans-30"/>
       <use xlink:href="#LiberationSans-2e" x="55.615234"/>
       <use xlink:href="#LiberationSans-34" x="83.398438"/>
       <use xlink:href="#LiberationSans-32" x="139.013672"/>
      </g>
     </g>
    </g>
    <g id="ytick_12">
     <g id="line2d_115">
      <path d="M 72 165.24 
L 518.4 165.24 
" clip-path="url(#p29705018b6)" style="fill: none; stroke: #cccccc; stroke-width: 0.8; stroke-linecap: round"/>
     </g>
     <g id="line2d_116"/>
     <g id="text_22">
      <!-- 0.44 -->
      <g style="fill: #f0027f" transform="translate(521.9 168.863437) scale(0.1 -0.1)">
       <use xlink:href="#LiberationSans-30"/>
       <use xlink:href="#LiberationSans-2e" x="55.615234"/>
       <use xlink:href="#LiberationSans-34" x="83.398438"/>
       <use xlink:href="#LiberationSans-34" x="139.013672"/>
      </g>
     </g>
    </g>
    <g id="ytick_13">
     <g id="line2d_117">
      <path d="M 72 127.44 
L 518.4 127.44 
" clip-path="url(#p29705018b6)" style="fill: none; stroke: #cccccc; stroke-width: 0.8; stroke-linecap: round"/>
     </g>
     <g id="line2d_118"/>
     <g id="text_23">
      <!-- 0.46 -->
      <g style="fill: #f0027f" transform="translate(521.9 131.063437) scale(0.1 -0.1)">
       <use xlink:href="#LiberationSans-30"/>
       <use xlink:href="#LiberationSans-2e" x="55.615234"/>
       <use xlink:href="#LiberationSans-34" x="83.398438"/>
       <use xlink:href="#LiberationSans-36" x="139.013672"/>
      </g>
     </g>
    </g>
    <g id="ytick_14">
     <g id="line2d_119">
      <path d="M 72 89.64 
L 518.4 89.64 
" clip-path="url(#p29705018b6)" style="fill: none; stroke: #cccccc; stroke-width: 0.8; stroke-linecap: round"/>
     </g>
     <g id="line2d_120"/>
     <g id="text_24">
      <!-- 0.48 -->
      <g style="fill: #f0027f" transform="translate(521.9 93.263438) scale(0.1 -0.1)">
       <use xlink:href="#LiberationSans-30"/>
       <use xlink:href="#LiberationSans-2e" x="55.615234"/>
       <use xlink:href="#LiberationSans-34" x="83.398438"/>
       <use xlink:href="#LiberationSans-38" x="139.013672"/>
      </g>
     </g>
    </g>
    <g id="ytick_15">
     <g id="line2d_121">
      <path d="M 72 51.84 
L 518.4 51.84 
" clip-path="url(#p29705018b6)" style="fill: none; stroke: #cccccc; stroke-width: 0.8; stroke-linecap: round"/>
     </g>
     <g id="line2d_122"/>
     <g id="text_25">
      <!-- 0.50 -->
      <g style="fill: #f0027f" transform="translate(521.9 55.463437) scale(0.1 -0.1)">
       <use xlink:href="#LiberationSans-30"/>
       <use xlink:href="#LiberationSans-2e" x="55.615234"/>
       <use xlink:href="#LiberationSans-35" x="83.398438"/>
       <use xlink:href="#LiberationSans-30" x="139.013672"/>
      </g>
     </g>
    </g>
    <g id="text_26">
     <!-- female -->
     <g style="fill: #f0027f" transform="translate(563.607813 142.44625) rotate(-90) scale(0.1 -0.1)">
      <defs>
       <path id="LiberationSans-66" d="M 1128 2972 
L 1128 0 
L 566 0 
L 566 2972 
L 91 2972 
L 91 3381 
L 566 3381 
L 566 3763 
Q 566 3947 600 4105 
Q 634 4263 726 4380 
Q 819 4497 978 4564 
Q 1138 4631 1391 4631 
Q 1491 4631 1598 4622 
Q 1706 4613 1788 4594 
L 1788 4166 
Q 1734 4175 1664 4183 
Q 1594 4191 1538 4191 
Q 1413 4191 1333 4156 
Q 1253 4122 1208 4058 
Q 1163 3994 1145 3900 
Q 1128 3806 1128 3684 
L 1128 3381 
L 1788 3381 
L 1788 2972 
L 1128 2972 
z
" transform="scale(0.015625)"/>
      </defs>
      <use xlink:href="#LiberationSans-66"/>
      <use xlink:href="#LiberationSans-65" x="27.783203"/>
      <use xlink:href="#LiberationSans-6d" x="83.398438"/>
      <use xlink:href="#LiberationSans-61" x="166.699219"/>
      <use xlink:href="#LiberationSans-6c" x="222.314453"/>
      <use xlink:href="#LiberationSans-65" x="244.53125"/>
     </g>
    </g>
   </g>
   <g id="line2d_123">
    <path d="M 92.290909 111.149623 
L 102.696503 111.149623 
L 113.102098 111.149623 
L 123.507692 111.149623 
L 133.913287 111.149623 
L 144.318881 111.149623 
L 154.724476 111.149623 
L 165.13007 111.149623 
L 175.535664 111.149623 
L 185.941259 111.149623 
L 196.346853 111.149623 
L 206.752448 103.241674 
L 217.158042 95.333724 
L 227.563636 95.333724 
L 237.969231 87.425774 
L 248.374825 71.609874 
L 258.78042 71.609874 
L 269.186014 71.609874 
L 279.591608 63.701925 
L 289.997203 63.701925 
L 300.402797 63.701925 
L 310.808392 63.701925 
L 321.213986 63.701925 
L 331.61958 63.701925 
L 342.025175 71.609874 
L 352.430769 71.609874 
L 362.836364 71.609874 
L 373.241958 71.609874 
L 383.647552 71.609874 
L 394.053147 71.609874 
L 404.458741 71.609874 
L 414.864336 71.609874 
L 425.26993 71.609874 
L 435.675524 79.517824 
L 446.081119 79.517824 
L 456.486713 95.333724 
L 466.892308 103.241674 
L 477.297902 111.149623 
L 487.703497 119.057573 
L 498.109091 134.873473 
" clip-path="url(#p29705018b6)" style="fill: none; stroke: #f0027f; stroke-width: 1.5; stroke-linecap: round"/>
   </g>
   <g id="patch_12">
    <path d="M 72 203.04 
L 72 51.84 
" style="fill: none; stroke: #cccccc; stroke-linejoin: miter; stroke-linecap: square"/>
   </g>
   <g id="patch_13">
    <path d="M 518.4 203.04 
L 518.4 51.84 
" style="fill: none; stroke: #cccccc; stroke-linejoin: miter; stroke-linecap: square"/>
   </g>
   <g id="patch_14">
    <path d="M 72 203.04 
L 518.4 203.04 
" style="fill: none; stroke: #cccccc; stroke-linejoin: miter; stroke-linecap: square"/>
   </g>
   <g id="patch_15">
    <path d="M 72 51.84 
L 518.4 51.84 
" style="fill: none; stroke: #cccccc; stroke-linejoin: miter; stroke-linecap: square"/>
   </g>
  </g>
  <g id="axes_4">
   <g id="matplotlib.axis_6">
    <g id="ytick_16">
     <g id="line2d_124">
      <path d="M 72 384.48 
L 518.4 384.48 
" clip-path="url(#pd7e0cb2f29)" style="fill: none; stroke: #cccccc; stroke-width: 0.8; stroke-linecap: round"/>
     </g>
     <g id="line2d_125"/>
     <g id="text_27">
      <!-- 0.7250 -->
      <g style="fill: #f0027f" transform="translate(521.9 388.103438) scale(0.1 -0.1)">
       <use xlink:href="#LiberationSans-30"/>
       <use xlink:href="#LiberationSans-2e" x="55.615234"/>
       <use xlink:href="#LiberationSans-37" x="83.398438"/>
       <use xlink:href="#LiberationSans-32" x="139.013672"/>
       <use xlink:href="#LiberationSans-35" x="194.628906"/>
       <use xlink:href="#LiberationSans-30" x="250.244141"/>
      </g>
     </g>
    </g>
    <g id="ytick_17">
     <g id="line2d_126">
      <path d="M 72 346.68 
L 518.4 346.68 
" clip-path="url(#pd7e0cb2f29)" style="fill: none; stroke: #cccccc; stroke-width: 0.8; stroke-linecap: round"/>
     </g>
     <g id="line2d_127"/>
     <g id="text_28">
      <!-- 0.7475 -->
      <g style="fill: #f0027f" transform="translate(521.9 350.303438) scale(0.1 -0.1)">
       <use xlink:href="#LiberationSans-30"/>
       <use xlink:href="#LiberationSans-2e" x="55.615234"/>
       <use xlink:href="#LiberationSans-37" x="83.398438"/>
       <use xlink:href="#LiberationSans-34" x="139.013672"/>
       <use xlink:href="#LiberationSans-37" x="194.628906"/>
       <use xlink:href="#LiberationSans-35" x="250.244141"/>
      </g>
     </g>
    </g>
    <g id="ytick_18">
     <g id="line2d_128">
      <path d="M 72 308.88 
L 518.4 308.88 
" clip-path="url(#pd7e0cb2f29)" style="fill: none; stroke: #cccccc; stroke-width: 0.8; stroke-linecap: round"/>
     </g>
     <g id="line2d_129"/>
     <g id="text_29">
      <!-- 0.7700 -->
      <g style="fill: #f0027f" transform="translate(521.9 312.503437) scale(0.1 -0.1)">
       <use xlink:href="#LiberationSans-30"/>
       <use xlink:href="#LiberationSans-2e" x="55.615234"/>
       <use xlink:href="#LiberationSans-37" x="83.398438"/>
       <use xlink:href="#LiberationSans-37" x="139.013672"/>
       <use xlink:href="#LiberationSans-30" x="194.628906"/>
       <use xlink:href="#LiberationSans-30" x="250.244141"/>
      </g>
     </g>
    </g>
    <g id="ytick_19">
     <g id="line2d_130">
      <path d="M 72 271.08 
L 518.4 271.08 
" clip-path="url(#pd7e0cb2f29)" style="fill: none; stroke: #cccccc; stroke-width: 0.8; stroke-linecap: round"/>
     </g>
     <g id="line2d_131"/>
     <g id="text_30">
      <!-- 0.7925 -->
      <g style="fill: #f0027f" transform="translate(521.9 274.703437) scale(0.1 -0.1)">
       <defs>
        <path id="LiberationSans-39" d="M 3256 2291 
Q 3256 1703 3145 1261 
Q 3034 819 2828 525 
Q 2622 231 2326 84 
Q 2031 -63 1663 -63 
Q 1409 -63 1206 -11 
Q 1003 41 843 150 
Q 684 259 571 434 
Q 459 609 391 856 
L 928 941 
Q 1016 656 1202 523 
Q 1388 391 1672 391 
Q 1900 391 2089 498 
Q 2278 606 2411 822 
Q 2544 1038 2619 1363 
Q 2694 1688 2700 2125 
Q 2634 1978 2520 1862 
Q 2406 1747 2261 1667 
Q 2116 1588 1947 1545 
Q 1778 1503 1606 1503 
Q 1306 1503 1064 1611 
Q 822 1719 653 1912 
Q 484 2106 392 2379 
Q 300 2653 300 2988 
Q 300 3328 398 3603 
Q 497 3878 684 4070 
Q 872 4263 1145 4366 
Q 1419 4469 1766 4469 
Q 2500 4469 2878 3925 
Q 3256 3381 3256 2291 
z
M 2644 2834 
Q 2644 3078 2586 3293 
Q 2528 3509 2414 3668 
Q 2300 3828 2133 3920 
Q 1966 4013 1747 4013 
Q 1544 4013 1381 3941 
Q 1219 3869 1106 3736 
Q 994 3603 933 3412 
Q 872 3222 872 2988 
Q 872 2766 926 2575 
Q 981 2384 1090 2245 
Q 1200 2106 1362 2026 
Q 1525 1947 1741 1947 
Q 1897 1947 2058 2000 
Q 2219 2053 2348 2162 
Q 2478 2272 2561 2439 
Q 2644 2606 2644 2834 
z
" transform="scale(0.015625)"/>
       </defs>
       <use xlink:href="#LiberationSans-30"/>
       <use xlink:href="#LiberationSans-2e" x="55.615234"/>
       <use xlink:href="#LiberationSans-37" x="83.398438"/>
       <use xlink:href="#LiberationSans-39" x="139.013672"/>
       <use xlink:href="#LiberationSans-32" x="194.628906"/>
       <use xlink:href="#LiberationSans-35" x="250.244141"/>
      </g>
     </g>
    </g>
    <g id="ytick_20">
     <g id="line2d_132">
      <path d="M 72 233.28 
L 518.4 233.28 
" clip-path="url(#pd7e0cb2f29)" style="fill: none; stroke: #cccccc; stroke-width: 0.8; stroke-linecap: round"/>
     </g>
     <g id="line2d_133"/>
     <g id="text_31">
      <!-- 0.8150 -->
      <g style="fill: #f0027f" transform="translate(521.9 236.903437) scale(0.1 -0.1)">
       <use xlink:href="#LiberationSans-30"/>
       <use xlink:href="#LiberationSans-2e" x="55.615234"/>
       <use xlink:href="#LiberationSans-38" x="83.398438"/>
       <use xlink:href="#LiberationSans-31" x="139.013672"/>
       <use xlink:href="#LiberationSans-35" x="194.628906"/>
       <use xlink:href="#LiberationSans-30" x="250.244141"/>
      </g>
     </g>
    </g>
    <g id="text_32">
     <!-- female -->
     <g style="fill: #f0027f" transform="translate(574.729688 323.88625) rotate(-90) scale(0.1 -0.1)">
      <use xlink:href="#LiberationSans-66"/>
      <use xlink:href="#LiberationSans-65" x="27.783203"/>
      <use xlink:href="#LiberationSans-6d" x="83.398438"/>
      <use xlink:href="#LiberationSans-61" x="166.699219"/>
      <use xlink:href="#LiberationSans-6c" x="222.314453"/>
      <use xlink:href="#LiberationSans-65" x="244.53125"/>
     </g>
    </g>
   </g>
   <g id="line2d_134">
    <path d="M 92.290909 364.585263 
L 102.696503 364.585263 
L 113.102098 356.387285 
L 123.507692 356.387285 
L 133.913287 356.387285 
L 144.318881 348.08 
L 154.724476 356.387285 
L 165.13007 356.387285 
L 175.535664 364.585263 
L 185.941259 364.585263 
L 196.346853 372.676078 
L 206.752448 361.695686 
L 217.158042 350.715294 
L 227.563636 325.68 
L 237.969231 323.009801 
L 248.374825 317.774118 
L 258.78042 317.774118 
L 269.186014 309.322105 
L 279.591608 298.269474 
L 289.997203 306.793725 
L 300.402797 306.793725 
L 310.808392 306.793725 
L 321.213986 315.207273 
L 331.61958 315.207273 
L 342.025175 317.774118 
L 352.430769 317.774118 
L 362.836364 317.774118 
L 373.241958 317.774118 
L 383.647552 317.774118 
L 394.053147 317.774118 
L 404.458741 317.774118 
L 414.864336 317.774118 
L 425.26993 317.774118 
L 435.675524 320.374737 
L 446.081119 303.28 
L 456.486713 290.699178 
L 466.892308 293.238621 
L 477.297902 295.813333 
L 487.703497 307.48 
L 498.109091 285.069928 
" clip-path="url(#pd7e0cb2f29)" style="fill: none; stroke: #f0027f; stroke-width: 1.5; stroke-linecap: round"/>
   </g>
   <g id="patch_16">
    <path d="M 72 384.48 
L 72 233.28 
" style="fill: none; stroke: #cccccc; stroke-linejoin: miter; stroke-linecap: square"/>
   </g>
   <g id="patch_17">
    <path d="M 518.4 384.48 
L 518.4 233.28 
" style="fill: none; stroke: #cccccc; stroke-linejoin: miter; stroke-linecap: square"/>
   </g>
   <g id="patch_18">
    <path d="M 72 384.48 
L 518.4 384.48 
" style="fill: none; stroke: #cccccc; stroke-linejoin: miter; stroke-linecap: square"/>
   </g>
   <g id="patch_19">
    <path d="M 72 233.28 
L 518.4 233.28 
" style="fill: none; stroke: #cccccc; stroke-linejoin: miter; stroke-linecap: square"/>
   </g>
  </g>
 </g>
 <defs>
  <clipPath id="p29705018b6">
   <rect x="72" y="51.84" width="446.4" height="151.2"/>
  </clipPath>
  <clipPath id="pd7e0cb2f29">
   <rect x="72" y="233.28" width="446.4" height="151.2"/>
  </clipPath>
 </defs>
</svg>
